<?xml version="1.0" standalone="no"?>
<!DOCTYPE svg PUBLIC "-//W3C//DTD SVG 1.1//EN" "http://www.w3.org/Graphics/SVG/1.1/DTD/svg11.dtd">
<svg xmlns="http://www.w3.org/2000/svg"><metadata>This SVG WebFont was generated by YouWorkForThem.
Copyright (c) 2018 by MadeType. All rights reserved.</metadata><defs><font horiz-adv-x="1267" id="ywftsvg"><font-face ascent="1638" bbox="-115 -461.667 2114 1970" cap-height="1434" descent="-410" font-family="" font-stretch="normal" font-weight="300" panose-1="2 0 5 3 0 0 0 2 0 4" underline-position="0" underline-thickness="0" unicode-range="U+0020-F6C3" units-per-em="2048" x-height="987"/><missing-glyph horiz-adv-x="573"/><glyph glyph-name=".notdef" horiz-adv-x="573"/><glyph glyph-name="glyph1" horiz-adv-x="0"/><glyph glyph-name="glyph2" horiz-adv-x="681"/><glyph glyph-name="space" horiz-adv-x="573" unicode=" "/><glyph d="M281 356h-82l-19 1078h119zM240 133q33 0 54 -22.5t21 -53t-21.5 -53t-53.5 -22.5q-31 0 -53.5 22.5t-22.5 53t22.5 53t53.5 22.5z" glyph-name="exclam" horiz-adv-x="479" unicode="!"/><glyph d="M133 1102l-31 344h129l-28 -344h-70zM342 1446h129l-29 -344h-69z" glyph-name="quotedbl" horiz-adv-x="573" unicode="&quot;"/><glyph d="M1456 877h-307l-72 -345h307l-22 -106h-307l-88 -426h-111l90 426h-436l-90 -426h-109l90 426h-319l22 106h320l72 345h-320l23 108h319l94 449h109l-94 -449h436l94 449h111l-97 -449h308zM969 532l71 345h-436l-72 -345h437z" glyph-name="numbersign" horiz-adv-x="1560" unicode="#"/><glyph d="M1147 367q0 -166 -135 -269.5t-348 -111.5v-193h-107v197q-166 14 -298 92t-177 223l100 35q33 -106 130.5 -168.5t244.5 -75.5v584q-98 25 -164.5 48.5t-137.5 66.5t-106.5 107.5t-35.5 152.5q0 180 127 282.5t317 108.5v196h107v-200q168 -16 277.5 -97t139.5 -210 l-102 -35q-20 98 -102 158.5t-213 76.5v-571q279 -63 381 -151t102 -246zM219 1055q0 -106 82 -166t256 -101v551q-166 -4 -252 -82.5t-86 -201.5zM664 92q92 4 171.5 28.5t142 88t62.5 158.5q0 121 -89 179t-287 107v-561z" glyph-name="dollar" horiz-adv-x="1269" unicode="$"/><glyph d="M1096 1434h125l-895 -1434h-127zM627 1153q0 -125 -84 -209t-209 -84t-209 84t-84 209t84 209t209 84t209 -84t84 -209zM141 1153q0 -84 54.5 -138t138.5 -54t138 54t54 138t-54 138.5t-138 54.5t-138.5 -54.5t-54.5 -138.5zM1081 571q125 0 209 -84t84 -208.5 t-84 -208.5t-209 -84t-209 84t-84 208.5t84 208.5t209 84zM1081 86q82 0 137.5 55.5t55.5 137t-55.5 137t-137.5 55.5t-137 -55.5t-55 -137t55 -137t137 -55.5z" glyph-name="percent" horiz-adv-x="1497" unicode="%"/><glyph d="M1047 328l305 -328h-142l-227 240q-219 -270 -455 -271q-225 0 -338 162q-119 162 -32 385q37 92 108.5 165t182.5 157q-100 133 -132 213q-55 145 25 270t240 125q133 0 211.5 -103.5t42.5 -240.5q-20 -80 -79 -144.5t-157 -138.5q135 -166 371 -413q43 63 100 169h123 q-71 -136 -147 -247zM418 1087q27 -72 117 -184q172 131 198 227q25 86 -26.5 147.5t-131.5 61.5q-98 0 -147 -77t-10 -175zM532 76q195 6 377 241q-240 246 -395 439q-66 -51 -107.5 -86t-86 -88.5t-64.5 -104.5q-61 -168 20 -284q86 -123 256 -117z" glyph-name="ampersand" horiz-adv-x="1433" unicode="&amp;"/><glyph d="M133 1102l-31 344h129l-28 -344h-70z" glyph-name="quotesingle" horiz-adv-x="333" unicode="'"/><glyph d="M598 1473q-193 -229 -267.5 -553t-14 -646.5t242.5 -549.5l-82 -68q-309 383 -291 956q8 266 95.5 509t234.5 419z" glyph-name="parenleft" horiz-adv-x="679" unicode="("/><glyph d="M203 1540q309 -379 291 -956q-8 -266 -95.5 -509t-234.5 -419l-82 68q193 231 267.5 554.5t14 646t-242.5 550.5z" glyph-name="parenright" horiz-adv-x="679" unicode=")"/><glyph d="M664 1235l-234 -107l234 -106l-54 -92l-209 149l25 -256h-107l25 256l-209 -149l-53 92l233 106l-233 107l53 92l209 -149l-25 256h107l-25 -256l209 149z" glyph-name="asterisk" horiz-adv-x="765" unicode="*"/><glyph d="M938 682v-107h-344v-344h-107v344h-344v107h344v344h107v-344h344z" glyph-name="plus" horiz-adv-x="1081" unicode="+"/><glyph d="M172 106h129l-143 -342h-76z" glyph-name="comma" horiz-adv-x="382" unicode=","/><glyph d="M143 682h676v-107h-676v107z" glyph-name="hyphen" horiz-adv-x="962" unicode="-"/><glyph d="M199 133q31 0 53 -22.5t22 -53t-22.5 -53t-52.5 -22.5q-33 0 -54.5 22.5t-21.5 53t21.5 53t54.5 22.5z" glyph-name="period" horiz-adv-x="397" unicode="."/><glyph d="M676 1538h112l-614 -1853h-113z" glyph-name="slash" horiz-adv-x="849" unicode="/"/><glyph d="M557 1446q203 0 318.5 -202t115.5 -527q0 -330 -112.5 -530.5t-321.5 -200.5t-321.5 200.5t-112.5 530.5q0 328 114.5 528.5t319.5 200.5zM557 94q154 0 237 169t83 453.5t-82 453.5t-238 169t-238.5 -170t-82.5 -452q0 -285 82.5 -454t238.5 -169z" glyph-name="zero" horiz-adv-x="1114" unicode="0"/><glyph d="M367 1434h106v-1434h-106v1149q-45 -63 -118 -112.5t-147 -61.5v82q94 23 171.5 134.5t93.5 242.5z" glyph-name="one" horiz-adv-x="677" unicode="1"/><glyph d="M215 106h664v-106h-777q0 150 85 289t235 293q141 141 214 244.5t87 220.5q16 139 -54.5 215.5t-185.5 76.5q-102 0 -174.5 -70.5t-95.5 -189.5l-107 25q31 152 134.5 247t242.5 95q152 0 260.5 -95.5t92.5 -299.5q-10 -143 -94.5 -264t-243.5 -281q-236 -238 -283 -400z " glyph-name="two" horiz-adv-x="980" unicode="2"/><glyph d="M692 782q123 -45 190.5 -145t67.5 -234q0 -180 -116.5 -298.5t-317.5 -118.5q-131 0 -244.5 62.5t-169.5 160.5l101 49q43 -76 127 -124t180 -48q152 0 243 92t91 225q0 137 -87 227.5t-253 90.5h-121v106h121q127 0 199.5 80t72.5 197q0 106 -70.5 171.5t-189.5 65.5 q-117 0 -194.5 -63.5t-92.5 -159.5l-100 19q20 129 130 219t257 90q166 0 266.5 -96.5t100.5 -245.5q0 -100 -52.5 -188.5t-138.5 -133.5z" glyph-name="three" horiz-adv-x="1073" unicode="3"/><glyph d="M1067 467v-107h-190v-360h-107v360h-639v107l639 967h107v-967h190zM262 467h508v780z" glyph-name="four" horiz-adv-x="1169" unicode="4"/><glyph d="M539 938q199 0 304 -132t105 -341q0 -203 -121.5 -342t-306.5 -139q-131 0 -242.5 61t-175.5 166l91 53q115 -174 309 -174q143 0 240.5 106.5t97.5 262.5q0 164 -79 270.5t-229 106.5q-90 0 -161.5 -46.5t-114.5 -125.5l-113 16l119 754h639v-107h-547l-80 -496 q111 107 265 107z" glyph-name="five" horiz-adv-x="1071" unicode="5"/><glyph d="M551 881q184 27 324.5 -89t140.5 -348q0 -201 -125 -331.5t-311 -126.5q-96 2 -181.5 47t-155 135t-101 247.5t-11.5 362.5q37 346 176 509t322 159q193 -2 319 -160l-76 -74q-31 35 -51 54.5t-75.5 46t-116.5 26.5q-160 2 -261.5 -148.5t-129.5 -424.5q0 -10 -2.5 -42 t-4.5 -42q125 174 320 199zM551 94q145 -16 251.5 87.5t106.5 264.5q0 166 -93 254t-243 74q-123 -10 -214 -85t-128 -159q20 -195 104.5 -308.5t215.5 -127.5z" glyph-name="six" horiz-adv-x="1138" unicode="6"/><glyph d="M61 1434h828v-107l-606 -1327h-119l608 1327h-711v107z" glyph-name="seven" horiz-adv-x="950" unicode="7"/><glyph d="M743 782q125 -49 201 -148t76 -224q0 -180 -124 -302t-335 -122t-335 121.5t-124 302.5q0 123 79 226t198 146q-92 37 -146.5 124t-54.5 190q0 150 108.5 250t274.5 100t274.5 -100.5t108.5 -249.5q0 -102 -54.5 -189.5t-146.5 -124.5zM283 1092q0 -111 72.5 -188 t205.5 -77q131 0 205 77t74 188q0 109 -78 182.5t-201 73.5t-200.5 -73.5t-77.5 -182.5zM561.5 86q145.5 0 246.5 93t101 224q0 135 -94 229.5t-254 94.5t-254 -94t-94 -230q0 -131 101.5 -224t247 -93z" glyph-name="eight" horiz-adv-x="1122" unicode="8"/><glyph d="M561 1446q94 0 179 -46t155 -136t101.5 -248t11.5 -363q-35 -346 -175.5 -508.5t-322.5 -158.5q-29 0 -55.5 5t-49 10t-45 15.5t-39 18.5t-34 21.5t-28.5 21.5t-24.5 21.5l-18.5 18.5t-15 17l-11 10l76 74l13 -12q10 -12 14 -16.5t16.5 -16.5t19.5 -17t22.5 -15.5 t26.5 -15.5t27.5 -13.5t32 -11.5t35 -6t39.5 -3q158 0 259 149.5t130 424.5q6 61 6 86q-123 -172 -319 -201q-184 -25 -324.5 90t-140.5 346q0 201 125 332t313 127zM565 657q123 10 214 85t128 159q-20 197 -104 309.5t-215 128.5q-145 16 -252 -88t-107 -266 q0 -164 94.5 -253t241.5 -75z" glyph-name="nine" horiz-adv-x="1138" unicode="9"/><glyph d="M219 846q-31 0 -53.5 22.5t-22.5 53.5q0 33 22.5 54t53.5 21q33 0 54.5 -21.5t21.5 -53.5q0 -31 -21.5 -53.5t-54.5 -22.5zM219 133q33 0 54.5 -22.5t21.5 -53t-21.5 -53t-54.5 -22.5q-31 0 -53.5 22.5t-22.5 53t22.5 53t53.5 22.5z" glyph-name="colon" horiz-adv-x="458" unicode=":"/><glyph d="M78 -236l88 342h129l-143 -342h-74zM219 846q-33 0 -54.5 22.5t-21.5 53.5q0 33 21.5 54t54.5 21q31 0 53.5 -21.5t22.5 -53.5q0 -31 -22.5 -53.5t-53.5 -22.5z" glyph-name="semicolon" horiz-adv-x="458" unicode=";"/><glyph d="M846 1016v-119l-582 -281l582 -282v-117l-703 340v119z" glyph-name="less" horiz-adv-x="989" unicode="&lt;"/><glyph d="M143 397v109h795v-109h-795zM143 840h795v-107h-795v107z" glyph-name="equal" horiz-adv-x="1081" unicode="="/><glyph d="M143 1016l701 -340v-119l-701 -340v117l580 282l-580 281v119z" glyph-name="greater" horiz-adv-x="987" unicode=">"/><glyph d="M512 1446q166 0 271.5 -104.5t86.5 -286.5q-16 -174 -200 -391q-57 -68 -84 -104t-55.5 -94t-28.5 -110h-107q2 70 35 142.5t64.5 114.5t93.5 118q166 199 178 334q8 129 -62.5 201.5t-191.5 72.5q-100 0 -180 -75.5t-101 -190.5l-108 25q29 143 135.5 245.5t253.5 102.5 zM451 133q31 0 53 -22.5t22 -53t-22.5 -53t-52.5 -22.5q-33 0 -54.5 22.5t-21.5 53t21.5 53t54.5 22.5z" glyph-name="question" horiz-adv-x="1017" unicode="?"/><glyph d="M1792 545q23 -252 -67.5 -398.5t-223.5 -146.5q-176 0 -215 205q-51 -94 -142 -149.5t-208 -55.5q-190 0 -309 134t-119 333t118.5 333t309.5 134q209 0 324 -162l-3 115h99v-391q0 -217 33.5 -309.5t109.5 -92.5q88 0 151.5 123t47.5 320q-25 305 -223.5 483t-511.5 178 q-285 0 -483.5 -169t-248.5 -451q-35 -205 24.5 -380t205.5 -290q164 -131 387 -153.5t442 67.5l37 -86q-117 -51 -265.5 -70.5t-333.5 18t-327 148.5q-166 131 -234.5 330.5t-29.5 431.5q53 315 270.5 506.5t555.5 191.5q119 0 230.5 -26.5t214.5 -85t183 -143.5 t133.5 -211.5t67.5 -280.5zM936 94q147 0 231 106.5t84 266.5q0 162 -84 267.5t-231 105.5q-152 0 -240 -106.5t-88 -266.5t89 -266.5t239 -106.5z" glyph-name="at" horiz-adv-x="1921" unicode="@"/><glyph d="M1112 0l-166 436h-624l-166 -436h-115l547 1434h92l547 -1434h-115zM362 545h543l-272 710z" glyph-name="A" unicode="A"/><glyph d="M903 772q115 -41 180.5 -138t65.5 -228q0 -182 -113.5 -294t-316.5 -112h-555v1434h514q184 0 288.5 -101.5t104.5 -263.5q0 -96 -45 -175t-123 -122zM682 1327h-410v-516h410q127 0 201.5 69.5t74.5 188.5q0 121 -71.5 189.5t-204.5 68.5zM721 106q143 0 229 82t86 218 q0 137 -85 218t-230 81h-449v-599h449z" glyph-name="B" horiz-adv-x="1271" unicode="B"/><glyph d="M819 96q154 0 282 74t206 201l104 -52q-92 -154 -246.5 -243.5t-345.5 -89.5q-303 0 -499.5 211t-196.5 520q0 307 196.5 518t499.5 211q190 0 345 -89t247 -245l-104 -51q-78 127 -205 200.5t-283 73.5q-250 0 -413.5 -180t-163.5 -438t163.5 -439.5t413.5 -181.5z" glyph-name="C" horiz-adv-x="1513" unicode="C"/><glyph d="M561 1434q356 0 561 -196t205 -521q0 -328 -202.5 -522.5t-563.5 -194.5h-397v1434h397zM588 106q287 0 453.5 168t166.5 442.5t-169 442.5t-451 168h-318v-1221h318z" glyph-name="D" horiz-adv-x="1449" unicode="D"/><glyph d="M270 106h846v-106h-952v1434h940v-107h-834v-557h770v-106h-770v-558z" glyph-name="E" horiz-adv-x="1239" unicode="E"/><glyph d="M1104 1327h-834v-557h697v-106h-697v-664h-106v1434h940v-107z" glyph-name="F" horiz-adv-x="1165" unicode="F"/><glyph d="M825 719h584v-400q-92 -154 -245.5 -243.5t-344.5 -89.5q-303 0 -499.5 211t-196.5 520q0 307 196.5 518t499.5 211q190 0 345 -89t245 -245l-102 -51q-78 127 -205 200.5t-283 73.5q-252 0 -415.5 -180t-163.5 -438q0 -260 163.5 -440.5t415.5 -180.5q152 0 279 67.5 t205 186.5v262h-478v107z" glyph-name="G" horiz-adv-x="1531" unicode="G"/><glyph d="M1145 1434h106v-1434h-106v664h-875v-664h-106v1434h106v-664h875v664z" glyph-name="H" horiz-adv-x="1415" unicode="H"/><glyph d="M164 1434h106v-1434h-106v1434z" glyph-name="I" horiz-adv-x="434" unicode="I"/><glyph d="M602 1434h107v-1014q0 -221 -92.5 -327.5t-247.5 -106.5q-106 0 -189.5 37.5t-122.5 85.5l72 73q82 -90 231 -90q111 0 176.5 79t65.5 239v1024z" glyph-name="J" horiz-adv-x="872" unicode="J"/><glyph d="M1096 0l-537 756l-289 -318v-438h-106v1434h106v-836l760 836h144l-543 -598l596 -836h-131z" glyph-name="K" horiz-adv-x="1247" unicode="K"/><glyph d="M270 106h756v-106h-862v1434h106v-1328z" glyph-name="L" horiz-adv-x="1067" unicode="L"/><glyph d="M1468 1434h101v-1434h-107v1229l-559 -873h-74l-559 873v-1229h-106v1434h100l602 -947z" glyph-name="M" horiz-adv-x="1732" unicode="M"/><glyph d="M1149 1434h106v-1434h-100l-885 1253v-1253h-106v1434h100l885 -1244v1244z" glyph-name="N" horiz-adv-x="1419" unicode="N"/><glyph d="M819 1446q303 0 500 -211t197 -518q0 -309 -197 -520t-500 -211t-499.5 211t-196.5 520q0 307 196.5 518t499.5 211zM819 96q250 0 414 181.5t164 439.5t-164 438t-414 180t-413.5 -180t-163.5 -438t163.5 -439.5t413.5 -181.5z" glyph-name="O" horiz-adv-x="1638" unicode="O"/><glyph d="M668 1434q219 0 348 -122t129 -316.5t-127 -316.5t-350 -122h-398v-557h-106v1434h504zM682 664q162 0 257 90t95 241.5t-97 241.5t-255 90h-412v-663h412z" glyph-name="P" unicode="P"/><glyph d="M1516 717q0 -299 -187 -508l180 -182l-75 -76l-183 184q-184 -150 -432 -149q-303 0 -499.5 211t-196.5 520q0 307 196.5 518t499.5 211t500 -211t197 -518zM819 96q197 0 350 121l-161 162l75 76l162 -164q152 178 152 426q0 258 -164 438t-414 180t-413.5 -180 t-163.5 -438t163.5 -439.5t413.5 -181.5z" glyph-name="Q" horiz-adv-x="1638" unicode="Q"/><glyph d="M1188 0h-123l-317 561q-49 -4 -74 -4h-402v-557h-108v1434h510q219 0 346 -122t127 -317q0 -150 -76 -259t-215 -152zM272 664h410q162 0 257 90t95 241.5t-97 241.5t-255 90h-410v-663z" glyph-name="R" horiz-adv-x="1269" unicode="R"/><glyph d="M649 772q301 -66 410.5 -155t109.5 -250q0 -172 -142 -277.5t-370 -105.5q-186 0 -343.5 78.5t-211.5 242.5l103 35q37 -119 154.5 -184.5t297.5 -65.5q66 0 131.5 14.5t130 44t104.5 86t40 132.5q0 129 -100.5 188t-337.5 115q-109 25 -179.5 48t-150.5 66t-121 111 t-41 160q0 184 135 288.5t334 104.5t332 -84t168 -229l-101 -35q-23 115 -129 178t-272 63q-178 0 -269 -79.5t-91 -206.5q0 -117 97 -176.5t312 -106.5z" glyph-name="S" horiz-adv-x="1292" unicode="S"/><glyph d="M1059 1434v-107h-465v-1327h-107v1327h-467v107h1039z" glyph-name="T" horiz-adv-x="1079" unicode="T"/><glyph d="M1102 1434h108v-840q0 -299 -147.5 -453.5t-380.5 -154.5q-238 0 -388.5 152.5t-150.5 457.5v838h107v-854q0 -242 122 -365t310 -123q186 0 303 123t117 365v854z" glyph-name="U" horiz-adv-x="1353" unicode="U"/><glyph d="M1092 1434h114l-549 -1434h-90l-547 1434h113l479 -1254z" glyph-name="V" horiz-adv-x="1226" unicode="V"/><glyph d="M1870 1434h110l-462 -1434h-111l-406 1262l-405 -1262h-111l-465 1434h113l410 -1264l403 1264h111l403 -1264z" glyph-name="W" horiz-adv-x="2000" unicode="W"/><glyph d="M1200 0h-131l-448 643l-449 -643h-131l514 737l-487 697h131l422 -603l421 603h132l-488 -697z" glyph-name="X" horiz-adv-x="1241" unicode="X"/><glyph d="M1186 1434l-518 -924v-510h-107v508l-520 926h123l450 -803l449 803h123z" glyph-name="Y" horiz-adv-x="1226" unicode="Y"/><glyph d="M197 106h958v-106h-1094v106l943 1221h-881v107h1014v-107z" glyph-name="Z" horiz-adv-x="1216" unicode="Z"/><glyph d="M561 1432h-291v-1641h291v-106h-397v1853h397v-106z" glyph-name="bracketleft" horiz-adv-x="643" unicode="["/><glyph d="M174 1538l614 -1853h-112l-615 1853h113z" glyph-name="backslash" horiz-adv-x="849" unicode="\"/><glyph d="M82 1538h399v-1853h-399v106h293v1641h-293v106z" glyph-name="bracketright" horiz-adv-x="645" unicode="]"/><glyph d="M836 864h-121l-246 457l-246 -457h-121l308 570h120z" glyph-name="asciicircum" horiz-adv-x="937" unicode="^"/><glyph d="M20 -76h1051v-106h-1051v106z" glyph-name="underscore" horiz-adv-x="1091" unicode="_"/><glyph d="M190 1434l158 -279h-84l-203 279h129z" glyph-name="grave" horiz-adv-x="409" unicode="`"/><glyph d="M512 1004q166 0 269.5 -84t103.5 -256v-664h-107v156q-145 -170 -368 -170q-152 0 -240 74.5t-88 199.5q0 133 92 201.5t283 95.5q217 33 269 52.5t52 78.5q0 90 -71.5 150.5t-194.5 60.5q-137 0 -204.5 -59.5t-80.5 -134.5l-104 24q23 111 120 193t269 82zM778 424v82 q-113 -25 -327 -55q-135 -18 -199 -64.5t-64 -132.5q0 -76 59.5 -119t168.5 -43q137 0 249.5 92.5t112.5 239.5z" glyph-name="a" horiz-adv-x="1028" unicode="a"/><glyph d="M608 1004q207 0 337 -146.5t130 -363.5q0 -215 -127 -361.5t-334 -146.5q-240 0 -364 192v-178h-107v1434h107v-623q125 193 358 193zM608 88q164 0 261.5 115.5t97.5 290t-97.5 291t-261.5 116.5q-162 0 -257 -116.5t-95 -291t95 -290t257 -115.5z" glyph-name="b" horiz-adv-x="1157" unicode="b"/><glyph d="M561 88q203 0 309 174l93 -45q-61 -106 -166 -168.5t-236 -62.5q-207 0 -343 147.5t-136 360.5q0 215 136 362.5t343 147.5q131 0 235.5 -62.5t166.5 -169.5l-93 -45q-106 174 -309 174q-166 0 -268.5 -117.5t-102.5 -289.5t102.5 -289t268.5 -117z" glyph-name="c" horiz-adv-x="1044" unicode="c"/><glyph d="M907 1434h107v-1434h-107v178q-125 -193 -358 -192q-207 0 -337 146.5t-130 361.5q0 217 130 363.5t337 146.5q233 0 358 -193v623zM549 88q162 0 257 115.5t95 290t-95 291t-257 116.5q-164 0 -261.5 -116.5t-97.5 -290.5q0 -172 97.5 -289t261.5 -117z" glyph-name="d" horiz-adv-x="1157" unicode="d"/><glyph d="M989 440h-796q16 -152 119.5 -252t254.5 -100q195 0 303 180l93 -45q-63 -109 -165 -173t-231 -64q-209 0 -347 147.5t-138 360.5q0 215 133 362.5t340 147.5q203 0 319.5 -144.5t116.5 -365.5q0 -36 -2 -54zM193 547h694q-12 158 -98.5 256t-233.5 98q-152 0 -249 -99 t-113 -255z" glyph-name="e" horiz-adv-x="1073" unicode="e"/><glyph d="M377 1337q-84 -35 -84 -188v-162h223v-106h-223v-881h-107v881h-145v106h145v160q0 229 146 285q59 23 137 8t137 -60l-57 -75q-35 27 -87 36.5t-85 -4.5z" glyph-name="f" horiz-adv-x="585" unicode="f"/><glyph d="M887 987h106v-944q0 -244 -125 -374t-325 -130q-125 0 -233.5 57.5t-178.5 155.5l86 55q125 -166 315 -165q168 0 261.5 101t93.5 290v145q-121 -193 -359 -192q-207 0 -337 146.5t-130 361.5q0 217 130.5 363.5t336.5 146.5q238 0 359 -193v176zM528.5 88 q163.5 0 258 115.5t94.5 290.5q0 176 -94.5 291.5t-258 115.5t-261 -116.5t-97.5 -290.5q0 -172 97.5 -289t261 -117z" glyph-name="g" horiz-adv-x="1136" unicode="g"/><glyph d="M547 1004q197 0 292 -126t95 -348v-530h-107v530q0 367 -280 367q-131 0 -214 -90t-83 -277v-530h-107v1434h107v-592q107 162 297 162z" glyph-name="h" horiz-adv-x="1077" unicode="h"/><glyph d="M145 0v987h107v-987h-107zM199 1327q31 0 53 -21.5t22 -54.5q0 -31 -22.5 -53t-52.5 -22q-33 0 -54.5 22.5t-21.5 52.5q0 33 21.5 54.5t54.5 21.5z" glyph-name="i" horiz-adv-x="417" unicode="i"/><glyph d="M207 987h106v-1149q0 -242 -153 -287q-51 -18 -128 -4.5t-134 56.5l57 78q33 -23 78 -31t78 0q96 20 96 186v1151zM260 1327q31 0 53.5 -21.5t22.5 -54.5q0 -31 -22.5 -53t-53.5 -22q-33 0 -54.5 22.5t-21.5 52.5q0 33 21.5 54.5t54.5 21.5z" glyph-name="j" horiz-adv-x="479" unicode="j"/><glyph d="M831 0l-372 516l-209 -227v-289h-107v1434h107v-988l502 541h145l-365 -393l431 -594h-132z" glyph-name="k" horiz-adv-x="983" unicode="k"/><glyph d="M143 1536h109v-1536h-109v1536z" glyph-name="l" horiz-adv-x="395" unicode="l"/><glyph d="M1180 1004q369 0 368 -474v-530h-106v530q0 367 -275 367q-268 0 -268 -367v-530h-106v530q0 367 -275 367q-268 0 -268 -367v-530h-107v987h107v-137q98 154 280 154q246 0 328 -207q105 207 322 207z" glyph-name="m" horiz-adv-x="1691" unicode="m"/><glyph d="M547 1004q199 0 293 -126t94 -348v-530h-107v530q0 367 -280 367q-129 0 -213 -90t-84 -277v-530h-107v987h107v-145q107 162 297 162z" glyph-name="n" horiz-adv-x="1077" unicode="n"/><glyph d="M559 1004q209 0 341 -147.5t132 -362.5t-132 -361.5t-341 -146.5q-207 0 -342 147.5t-135 360.5t135 361.5t342 148.5zM559 88q164 0 264.5 117t100.5 289q0 174 -99.5 289.5t-265.5 115.5q-164 0 -266.5 -116.5t-102.5 -288.5t102.5 -289t266.5 -117z" glyph-name="o" horiz-adv-x="1114" unicode="o"/><glyph d="M588 1004q207 0 337 -147.5t130 -362.5t-130 -361.5t-337 -146.5q-233 0 -359 192v-624h-106v1433h106v-176q126 193 359 193zM588 88q164 0 261 117t97 289q0 174 -97 289.5t-261 115.5q-162 0 -257 -115.5t-95 -290t95 -290t257 -115.5z" glyph-name="p" horiz-adv-x="1136" unicode="p"/><glyph d="M907 987h107v-1433h-107v624q-121 -193 -358 -192q-207 0 -337 146.5t-130 361.5t130 362.5t337 147.5q238 0 358 -193v176zM549 88q164 0 258 115.5t94 290.5q0 176 -94 290.5t-258 114.5t-261.5 -115.5t-97.5 -289.5q0 -172 97.5 -289t261.5 -117z" glyph-name="q" horiz-adv-x="1157" unicode="q"/><glyph d="M553 1004q20 0 53 -5l-18 -104q-6 0 -17.5 1t-17.5 1q-131 0 -217 -91t-86 -276v-530h-107v987h107v-145q106 162 303 162z" glyph-name="r" horiz-adv-x="626" unicode="r"/><glyph d="M430 1004q129 0 215 -55.5t117 -151.5l-98 -45q-16 68 -78 106.5t-158 38.5q-106 0 -163.5 -47t-53.5 -133q4 -61 61.5 -95t188.5 -65q78 -18 125 -34.5t104.5 -48.5t85 -84t27.5 -124q0 -135 -101.5 -208.5t-244.5 -73.5q-158 0 -250 63.5t-125 163.5l98 45 q43 -166 277 -166q98 0 168.5 44t70.5 132q0 78 -58 115t-204 72q-168 43 -245.5 100t-84.5 164q-6 129 80 208t246 79z" glyph-name="s" horiz-adv-x="884" unicode="s"/><glyph d="M569 145l60 -82q-63 -55 -149.5 -71.5t-141.5 8.5q-145 55 -145 289v592h-152v106h152v252l106 29v-281h225v-106h-225v-596q0 -156 84 -185q39 -14 93 -2t93 47z" glyph-name="t" horiz-adv-x="638" unicode="t"/><glyph d="M786 987h107v-987h-107v147q-106 -162 -297 -161q-197 0 -292 125t-95 346v530h107v-530q0 -365 280 -365q129 0 213 86t84 258v551z" glyph-name="u" horiz-adv-x="1015" unicode="u"/><glyph d="M788 987h113l-369 -987h-114l-369 987h115l311 -837z" glyph-name="v" horiz-adv-x="929" unicode="v"/><glyph d="M1303 987h110l-317 -987h-109l-270 815l-268 -815h-109l-320 987h113l264 -817l271 817h100l270 -817z" glyph-name="w" horiz-adv-x="1454" unicode="w"/><glyph d="M901 0h-131l-299 418l-299 -418h-131l365 508l-343 479h132l276 -387l279 387h131l-344 -479z" glyph-name="x" horiz-adv-x="942" unicode="x"/><glyph d="M903 987l-362 -967q-92 -248 -156 -327q-90 -117 -274 -88l24 104q106 -14 157.5 42t127.5 251l-371 985h115l311 -837l313 837h115z" glyph-name="y" horiz-adv-x="931" unicode="y"/><glyph d="M197 106h626v-106h-762v106l613 775h-586v106h717v-106z" glyph-name="z" horiz-adv-x="905" unicode="z"/><glyph d="M266 1139q0 223 78 308t266 85v-107q-127 0 -181 -52t-56 -234q-2 -248 -26.5 -367t-86.5 -162q61 -41 86 -159.5t27 -366.5q2 -182 56 -234.5t181 -52.5v-106q-188 0 -266 85t-78 308q0 307 -26.5 400.5t-116.5 93.5v65q90 0 116.5 94.5t26.5 401.5z" glyph-name="braceleft" horiz-adv-x="712" unicode="{"/><glyph d="M205 1538h106v-1853h-106v1853z" glyph-name="bar" horiz-adv-x="516" unicode="|"/><glyph d="M446 1139q0 -307 27 -401.5t117 -94.5v-65q-90 0 -117 -93.5t-27 -400.5q0 -223 -77.5 -308t-266.5 -85v106q127 0 181.5 52.5t56.5 234.5q2 248 26.5 366.5t86.5 159.5q-61 43 -86 162t-27 367q-2 182 -56.5 234t-181.5 52v107q188 0 266 -85t78 -308z" glyph-name="braceright" horiz-adv-x="712" unicode="}"/><glyph d="M926 709l102 -33q-35 -80 -106.5 -125t-149.5 -41q-88 6 -209 72q-115 59 -162 57q-86 -2 -153 -94l-105 33q100 164 254 167q82 4 215 -69q106 -55 156 -60q103 -3 158 93z" glyph-name="asciitilde" horiz-adv-x="1171" unicode="~"/><glyph d="M197 647h84l16 -1077h-119zM238 870q-31 0 -52.5 22.5t-21.5 53.5q0 33 21.5 54.5t52.5 21.5q33 0 54 -21.5t21 -54.5q0 -31 -21 -53.5t-54 -22.5z" glyph-name="exclamdown" horiz-adv-x="456" unicode="¡"/><glyph d="M575 88q199 10 295 174l93 -45q-59 -104 -161 -166.5t-227 -64.5v-193h-106v201q-172 33 -279.5 173t-107.5 327q0 188 107.5 327.5t279.5 171.5v203h106v-192q127 -4 227.5 -65.5t160.5 -166.5l-93 -45q-98 166 -295 172v-811zM193 493.5q0 -145.5 75.5 -254 t200.5 -139.5v789q-127 -33 -201.5 -141.5t-74.5 -254z" glyph-name="cent" horiz-adv-x="1044" unicode="¢"/><glyph d="M416 106h700v-106h-1014v106h207v469h-159v107h159v260q0 248 109.5 377t290.5 129q233 0 362 -260l-96 -47q-98 199 -266 198q-293 0 -293 -397v-260h446v-107h-446v-469z" glyph-name="sterling" horiz-adv-x="1218" unicode="£"/><glyph d="M1112 733.5q0 -149.5 -92 -270.5l180 -178l-74 -76l-180 178q-121 -94 -274 -94q-152 0 -273 94l-180 -178l-76 76l181 178q-92 121 -92.5 270.5t92.5 267.5l-181 179l76 75l180 -178q121 94 273 94q154 0 274 -94l180 178l74 -75l-180 -179q92 -118 92 -267.5zM672 410 q135 0 224 93t89 230q0 135 -90 229.5t-223 94.5t-222.5 -94.5t-89.5 -229.5t89.5 -229t222.5 -94z" glyph-name="currency" horiz-adv-x="1343" unicode="¤"/><glyph d="M1186 1434l-459 -820h307v-106h-366v-143h366v-107h-366v-258h-107v258h-368v107h368v143h-368v106h307l-459 820h123l448 -803l451 803h123z" glyph-name="yen" horiz-adv-x="1226" unicode="¥"/><glyph d="M205 -315v706h106v-706h-106zM205 1538h106v-707h-106v707z" glyph-name="brokenbar" horiz-adv-x="516" unicode="¦"/><glyph d="M819 221q117 -106 109 -262q-8 -139 -103.5 -230t-240.5 -91q-137 0 -230.5 79.5t-122.5 200.5l101 27q18 -84 85.5 -142.5t166 -58.5t166 62.5t71.5 156.5q4 111 -66.5 171.5t-240.5 133.5q-80 35 -123 56.5t-104.5 63.5t-94 95.5t-42.5 120.5q-20 133 39 233.5 t159 153.5q-117 102 -108 262q8 139 103 230.5t239 91.5q139 0 232 -80t122 -199l-102 -28q-18 84 -85 142t-167 58q-98 0 -165 -62.5t-71 -156.5q-4 -111 66.5 -171t238.5 -134q80 -35 123 -56.5t104.5 -63.5t95.5 -95t44 -121q20 -133 -39.5 -233.5t-159.5 -153.5z M254 621q8 -47 32.5 -85t75 -70t87 -50.5t108.5 -48.5q119 -53 156 -74q88 25 152.5 105.5t47.5 193.5q-8 47 -32.5 85t-74.5 69.5t-87 50t-109 49.5q-86 37 -157 74q-88 -25 -151.5 -104.5t-47.5 -194.5z" glyph-name="section" horiz-adv-x="1167" unicode="§"/><glyph d="M199 1362q33 0 54 -22.5t21 -53.5t-21.5 -53.5t-53.5 -22.5q-31 0 -53.5 22.5t-22.5 53.5t22.5 53.5t53.5 22.5zM510 1362q31 0 53.5 -22.5t22.5 -53.5t-22.5 -53.5t-53.5 -22.5t-53.5 22.5t-22.5 53.5t22.5 53.5t53.5 22.5z" glyph-name="dieresis" horiz-adv-x="708" unicode="¨"/><glyph d="M854 1446q303 0 517 -214t214 -517t-214 -516t-517 -213t-517 213t-214 516t214 517t517 214zM854 86q260 0 441.5 184.5t181.5 444.5q0 252 -182.5 441.5t-440.5 189.5q-260 0 -442.5 -184.5t-182.5 -446.5q0 -260 182.5 -444.5t442.5 -184.5zM868 1036 q-129 0 -208.5 -91t-79.5 -224q0 -135 79.5 -226.5t208.5 -91.5q158 0 240 136l72 -35q-102 -180 -312 -180q-162 0 -268 115.5t-106 281.5t106.5 280.5t267.5 114.5q209 0 312 -180l-72 -35q-82 135 -240 135z" glyph-name="copyright" horiz-adv-x="1708" unicode="©"/><glyph d="M483 870l-229 -321l229 -322h-133l-227 322l227 321h133zM825 870l-229 -321l229 -322h-133l-227 322l227 321h133z" glyph-name="guillemotleft" horiz-adv-x="948" unicode="«"/><glyph d="M854 1446q303 0 516 -214t213 -517t-213 -516t-516 -213t-517 213t-214 516t214 517t517 214zM854 86q258 0 440.5 184.5t182.5 444.5q0 252 -183.5 441.5t-439.5 189.5q-260 0 -442.5 -184.5t-182.5 -446.5q0 -260 182.5 -444.5t442.5 -184.5zM1165 862 q0 -164 -141 -223l164 -291h-94l-152 270q-14 -2 -45 -2h-223v-268h-82v760h305q117 0 192.5 -67.5t75.5 -178.5zM674 698h223q84 0 132 43t48 121t-49 121t-131 43h-223v-328z" glyph-name="registered" horiz-adv-x="1705" unicode="®"/><glyph d="M123 1386h514v-106h-514v106z" glyph-name="macron" horiz-adv-x="759" unicode="¯"/><glyph d="M397 1446q123 0 208 -84t85 -209t-85 -209t-208 -84q-125 0 -210 84t-85 209t85 209t210 84zM397 961q82 0 137.5 55t55.5 137t-55.5 137.5t-137.5 55.5q-84 0 -139 -55.5t-55 -137.5t55 -137t139 -55z" glyph-name="degree" horiz-adv-x="792" unicode="°"/><glyph d="M573 774h345v-106h-345v-344h-106v344h-344v106h344v344h106v-344zM123 96v107h795v-107h-795z" glyph-name="plusminus" horiz-adv-x="1040" unicode="±"/><glyph d="M281 1434h129l-203 -279h-84z" glyph-name="acute" horiz-adv-x="532" unicode="´"/><glyph d="M1042 1434v-107h-129v-1642h-108v1642h-242v-1642h-106v1081q-137 0 -235.5 98.5t-98.5 235.5t98 235.5t236 98.5h585z" glyph-name="paragraph" horiz-adv-x="1165" unicode="¶"/><glyph d="M285 -115q88 12 135 -30.5t47 -108.5q0 -96 -82 -141q-117 -66 -262 22l37 70q61 -43 121.5 -41t87.5 43q25 33 15.5 68.5t-46.5 50.5q-55 18 -92 -11l-68 50l70 143h92z" glyph-name="cedilla" horiz-adv-x="589" unicode="¸"/><glyph d="M596 870l229 -321l-229 -322h-131l227 322l-227 321h131zM254 870l227 -321l-227 -322h-131l227 322l-227 321h131z" glyph-name="guillemotright" horiz-adv-x="948" unicode="»"/><glyph d="M684 -70l109 -24q-29 -143 -134.5 -245.5t-255.5 -102.5q-164 0 -270 104.5t-88 286.5q16 174 201 391q57 68 84.5 103.5t55.5 94t28 109.5h106q0 -70 -32.5 -142.5t-65.5 -115.5t-94 -117q-166 -199 -176 -333q-10 -129 60.5 -202t190.5 -73q100 0 180.5 75.5 t100.5 190.5zM465 870q-31 0 -52.5 22.5t-21.5 53.5q0 33 21.5 54.5t52.5 21.5q33 0 54.5 -21.5t21.5 -54.5q0 -31 -21.5 -53.5t-54.5 -22.5z" glyph-name="questiondown" horiz-adv-x="833" unicode="¿"/><glyph d="M1112 0l-166 436h-624l-166 -436h-115l547 1434h92l547 -1434h-115zM362 545h543l-272 710zM506 1843l158 -278h-84l-203 278h129z" glyph-name="Agrave" unicode="À"/><glyph d="M1112 0l-166 436h-624l-166 -436h-115l547 1434h92l547 -1434h-115zM362 545h543l-272 710zM778 1843h129l-202 -278h-84z" glyph-name="Aacute" unicode="Á"/><glyph d="M1112 0l-166 436h-624l-166 -436h-115l547 1434h92l547 -1434h-115zM362 545h543l-272 710zM477 1565h-133l225 278h105l225 -278h-133l-143 196z" glyph-name="Acircumflex" unicode="Â"/><glyph d="M1112 0l-166 436h-624l-166 -436h-115l547 1434h92l547 -1434h-115zM362 545h543l-272 710zM860 1753l94 -27q-20 -80 -65 -131t-114.5 -45t-154.5 68.5t-118 62.5q-66 0 -123 -98l-88 49q80 158 213 150q55 -4 104 -34t89 -59.5t69 -33.5q35 -4 56.5 20.5t37.5 77.5z " glyph-name="Atilde" unicode="Ã"/><glyph d="M1112 0l-166 436h-624l-166 -436h-115l547 1434h92l547 -1434h-115zM362 545h543l-272 710zM465 1772q33 0 54.5 -23t21.5 -53.5t-21.5 -53t-54.5 -22.5q-31 0 -53.5 22.5t-22.5 53t22.5 53.5t53.5 23zM776 1772q31 0 53.5 -23t22.5 -53.5t-22.5 -53t-53.5 -22.5 t-53.5 22.5t-22.5 53t22.5 53.5t53.5 23z" glyph-name="Adieresis" unicode="Ä"/><glyph d="M1112 0l-166 436h-624l-166 -436h-115l547 1434h92l547 -1434h-115zM362 545h543l-272 710zM621 1970q88 0 145 -58.5t57 -144.5t-57 -144t-145 -58q-86 0 -143.5 58t-57.5 144t57.5 144.5t143.5 58.5zM621 1651q51 0 83.5 32.5t32.5 84t-32.5 83t-83.5 31.5 q-49 0 -82 -31.5t-33 -83t33 -84t82 -32.5z" glyph-name="Aring" unicode="Å"/><glyph d="M1047 106h845v-106h-952v436h-592l-227 -436h-121l750 1434h1130v-107h-833v-557h770v-106h-770v-558zM403 543h537v784h-125z" glyph-name="AE" horiz-adv-x="2015" unicode="Æ"/><glyph d="M819 96q154 0 281 74t207 201l102 -52q-90 -152 -238.5 -240.5t-332.5 -92.5l-50 -101q88 12 135.5 -30.5t47.5 -108.5q0 -94 -80 -141q-119 -68 -264 22l37 70q61 -43 121.5 -41t88.5 43q23 33 15 68.5t-47 50.5q-51 18 -92 -11l-68 50l66 131q-274 27 -449.5 233.5 t-175.5 493.5q0 309 196.5 520t499.5 211q190 0 345 -89t245 -245l-102 -51q-80 127 -207 200.5t-281 73.5q-252 0 -415.5 -180t-163.5 -440q0 -258 163.5 -438.5t415.5 -180.5z" glyph-name="Ccedilla" horiz-adv-x="1511" unicode="Ç"/><glyph d="M270 106h846v-106h-952v1434h940v-107h-834v-557h770v-106h-770v-558zM549 1843l158 -278h-84l-203 278h129z" glyph-name="Egrave" horiz-adv-x="1239" unicode="È"/><glyph d="M270 106h846v-106h-952v1434h940v-107h-834v-557h770v-106h-770v-558zM739 1843h129l-202 -278h-84z" glyph-name="Eacute" horiz-adv-x="1239" unicode="É"/><glyph d="M270 106h846v-106h-952v1434h940v-107h-834v-557h770v-106h-770v-558zM500 1565h-133l225 278h104l226 -278h-134l-143 196z" glyph-name="Ecircumflex" horiz-adv-x="1239" unicode="Ê"/><glyph d="M270 106h846v-106h-952v1434h940v-107h-834v-557h770v-106h-770v-558zM487 1772q33 0 54.5 -23t21.5 -53.5t-21.5 -53t-54.5 -22.5q-31 0 -53 22.5t-22 53t22 53.5t53 23zM798.5 1772q30.5 0 53 -23t22.5 -53.5t-22.5 -53t-53 -22.5t-53 22.5t-22.5 53t22.5 53.5t53 23z " glyph-name="Edieresis" horiz-adv-x="1239" unicode="Ë"/><glyph d="M164 1434h106v-1434h-106v1434zM98 1843l158 -278h-84l-203 278h129z" glyph-name="Igrave" horiz-adv-x="434" unicode="Ì"/><glyph d="M164 1434h106v-1434h-106v1434zM330 1843h129l-203 -278h-84z" glyph-name="Iacute" horiz-adv-x="434" unicode="Í"/><glyph d="M166 1434h106v-1434h-106v1434zM72 1565h-133l225 278h104l226 -278h-134l-143 196z" glyph-name="Icircumflex" horiz-adv-x="434" unicode="Î"/><glyph d="M168 1434h106v-1434h-106v1434zM61 1772q33 0 54.5 -23t21.5 -53.5t-21.5 -53t-54.5 -22.5q-31 0 -53 22.5t-22 53t22 53.5t53 23zM372.5 1772q30.5 0 53.5 -23t23 -53.5t-23 -53t-53.5 -22.5t-53 22.5t-22.5 53t22.5 53.5t53 23z" glyph-name="Idieresis" horiz-adv-x="434" unicode="Ï"/><glyph d="M625 1434q354 0 553.5 -195t199.5 -522.5t-197.5 -522t-555.5 -194.5h-400v664h-184v106h184v664h400zM651 106q287 0 451 167t164 444q0 274 -167 442t-448 168h-319v-557h387v-106h-387v-558h319z" glyph-name="Eth" horiz-adv-x="1501" unicode="Ð"/><glyph d="M1149 1434h106v-1434h-100l-885 1253v-1253h-106v1434h100l885 -1244v1244zM967 1753l94 -27q-20 -80 -65.5 -131t-115 -45t-154.5 68.5t-118 62.5q-66 0 -123 -98l-88 49q80 158 213 150q55 -4 104.5 -34t89.5 -59.5t68 -33.5q35 -4 57 20.5t38 77.5z" glyph-name="Ntilde" horiz-adv-x="1419" unicode="Ñ"/><glyph d="M819 1446q303 0 500 -211t197 -518q0 -309 -197 -520t-500 -211t-499.5 211t-196.5 520q0 307 196.5 518t499.5 211zM819 96q250 0 414 181.5t164 439.5t-164 438t-414 180t-413.5 -180t-163.5 -438t163.5 -439.5t413.5 -181.5zM717 1843l157 -278h-83l-203 278h129z" glyph-name="Ograve" horiz-adv-x="1638" unicode="Ò"/><glyph d="M819 1446q303 0 500 -211t197 -518q0 -309 -197 -520t-500 -211t-499.5 211t-196.5 520q0 307 196.5 518t499.5 211zM819 96q250 0 414 181.5t164 439.5t-164 438t-414 180t-413.5 -180t-163.5 -438t163.5 -439.5t413.5 -181.5zM948 1843h129l-203 -278h-83z" glyph-name="Oacute" horiz-adv-x="1638" unicode="Ó"/><glyph d="M819 1446q303 0 500 -211t197 -518q0 -309 -197 -520t-500 -211t-499.5 211t-196.5 520q0 307 196.5 518t499.5 211zM819 96q250 0 414 181.5t164 439.5t-164 438t-414 180t-413.5 -180t-163.5 -438t163.5 -439.5t413.5 -181.5zM676 1565h-133l225 278h104l226 -278h-133 l-144 196z" glyph-name="Ocircumflex" horiz-adv-x="1638" unicode="Ô"/><glyph d="M819 1446q303 0 500 -211t197 -518q0 -309 -197 -520t-500 -211t-499.5 211t-196.5 520q0 307 196.5 518t499.5 211zM819 96q250 0 414 181.5t164 439.5t-164 438t-414 180t-413.5 -180t-163.5 -438t163.5 -439.5t413.5 -181.5zM1057 1753l94 -27q-20 -80 -65.5 -131 t-115 -45t-154.5 68.5t-118 62.5q-66 0 -123 -98l-88 49q80 158 213 150q55 -4 104.5 -34t89.5 -59.5t69 -33.5q35 -4 56.5 20.5t37.5 77.5z" glyph-name="Otilde" horiz-adv-x="1638" unicode="Õ"/><glyph d="M819 1446q303 0 500 -211t197 -518q0 -309 -197 -520t-500 -211t-499.5 211t-196.5 520q0 307 196.5 518t499.5 211zM819 96q250 0 414 181.5t164 439.5t-164 438t-414 180t-413.5 -180t-163.5 -438t163.5 -439.5t413.5 -181.5zM664 1772q33 0 54 -23t21 -53.5t-21.5 -53 t-53.5 -22.5q-31 0 -53.5 22.5t-22.5 53t22.5 53.5t53.5 23zM975 1772q31 0 53.5 -23t22.5 -53.5t-22.5 -53t-53.5 -22.5t-53.5 22.5t-22.5 53t22.5 53.5t53.5 23z" glyph-name="Odieresis" horiz-adv-x="1638" unicode="Ö"/><glyph d="M840 899l-273 -272l273 -271l-76 -75l-272 272l-273 -272l-76 75l273 273l-271 272l76 74l271 -273l272 273z" glyph-name="multiply" horiz-adv-x="983" unicode="×"/><glyph d="M1337 1212q176 -203 176 -495q0 -309 -196.5 -520t-497.5 -211q-258 0 -444 159l-164 -180l-80 72l168 184q-176 205 -176 496q0 307 196.5 518t499.5 211q256 0 443 -158l165 182l78 -71zM240 717q0 -233 137 -408l807 893q-156 133 -365 133q-252 0 -415.5 -180 t-163.5 -438zM819 96q250 0 414 181.5t164 439.5q0 233 -137 407l-807 -893q155 -135 366 -135z" glyph-name="Oslash" horiz-adv-x="1636" unicode="Ø"/><glyph d="M1102 1434h108v-840q0 -299 -147.5 -453.5t-380.5 -154.5q-238 0 -388.5 152.5t-150.5 457.5v838h107v-854q0 -242 122 -365t310 -123q186 0 303 123t117 365v854zM580 1843l157 -278h-84l-202 278h129z" glyph-name="Ugrave" horiz-adv-x="1353" unicode="Ù"/><glyph d="M1102 1434h108v-840q0 -299 -147.5 -453.5t-380.5 -154.5q-238 0 -388.5 152.5t-150.5 457.5v838h107v-854q0 -242 122 -365t310 -123q186 0 303 123t117 365v854zM791 1843h129l-203 -278h-84z" glyph-name="Uacute" horiz-adv-x="1353" unicode="Ú"/><glyph d="M1102 1434h108v-840q0 -299 -147.5 -453.5t-380.5 -154.5q-238 0 -388.5 152.5t-150.5 457.5v838h107v-854q0 -242 122 -365t310 -123q186 0 303 123t117 365v854zM530 1565h-133l226 278h104l225 -278h-133l-143 196z" glyph-name="Ucircumflex" horiz-adv-x="1353" unicode="Û"/><glyph d="M1102 1434h108v-840q0 -299 -147.5 -453.5t-380.5 -154.5q-238 0 -388.5 152.5t-150.5 457.5v838h107v-854q0 -242 122 -365t310 -123q186 0 303 123t117 365v854zM518 1772q33 0 54.5 -23t21.5 -53.5t-21.5 -53t-54.5 -22.5q-31 0 -53.5 22.5t-22.5 53t22.5 53.5 t53.5 23zM829.5 1772q30.5 0 53 -23t22.5 -53.5t-22.5 -53t-53 -22.5t-53 22.5t-22.5 53t22.5 53.5t53 23z" glyph-name="Udieresis" horiz-adv-x="1353" unicode="Ü"/><glyph d="M1186 1434l-518 -924v-510h-107v508l-520 926h123l450 -803l449 803h123zM745 1843h129l-202 -278h-84z" glyph-name="Yacute" horiz-adv-x="1226" unicode="Ý"/><glyph d="M668 1155q219 0 348 -122t129 -316.5t-128 -316t-349 -121.5h-398v-279h-106v1434h106v-279h398zM682 385q160 0 255 90t95 241.5t-96 242t-254 90.5h-412v-664h412z" glyph-name="Thorn" unicode="Þ"/><glyph d="M678 782q127 -35 207 -131t80 -237q0 -182 -124 -305t-354 -123v104q176 0 270.5 93t94.5 230.5t-90 222.5t-275 85v106q133 0 203 78t70 187q0 111 -64.5 180t-177.5 69q-133 0 -200.5 -105.5t-67.5 -291.5v-944h-107v963q0 227 100.5 355t274.5 128q164 0 259 -98.5 t95 -249.5q0 -100 -54 -189.5t-140 -126.5z" glyph-name="germandbls" horiz-adv-x="1087" unicode="ß"/><glyph d="M512 1004q166 0 269.5 -84t103.5 -256v-664h-107v156q-145 -170 -368 -170q-152 0 -240 74.5t-88 199.5q0 133 92 201.5t283 95.5q217 33 269 52.5t52 78.5q0 90 -71.5 150.5t-194.5 60.5q-137 0 -204.5 -59.5t-80.5 -134.5l-104 24q23 111 120 193t269 82zM778 424v82 q-113 -25 -327 -55q-135 -18 -199 -64.5t-64 -132.5q0 -76 59.5 -119t168.5 -43q137 0 249.5 92.5t112.5 239.5zM453 1434l157 -279h-84l-202 279h129z" glyph-name="agrave" horiz-adv-x="1028" unicode="à"/><glyph d="M512 1004q166 0 269.5 -84t103.5 -256v-664h-107v156q-145 -170 -368 -170q-152 0 -240 74.5t-88 199.5q0 133 92 201.5t283 95.5q217 33 269 52.5t52 78.5q0 90 -71.5 150.5t-194.5 60.5q-137 0 -204.5 -59.5t-80.5 -134.5l-104 24q23 111 120 193t269 82zM778 424v82 q-113 -25 -327 -55q-135 -18 -199 -64.5t-64 -132.5q0 -76 59.5 -119t168.5 -43q137 0 249.5 92.5t112.5 239.5zM623 1434h129l-203 -279h-84z" glyph-name="aacute" horiz-adv-x="1028" unicode="á"/><glyph d="M512 1004q166 0 269.5 -84t103.5 -256v-664h-107v156q-145 -170 -368 -170q-152 0 -240 74.5t-88 199.5q0 133 92 201.5t283 95.5q217 33 269 52.5t52 78.5q0 90 -71.5 150.5t-194.5 60.5q-137 0 -204.5 -59.5t-80.5 -134.5l-104 24q23 111 120 193t269 82zM778 424v82 q-113 -25 -327 -55q-135 -18 -199 -64.5t-64 -132.5q0 -76 59.5 -119t168.5 -43q137 0 249.5 92.5t112.5 239.5zM403 1155h-133l226 279h104l225 -279h-133l-143 197z" glyph-name="acircumflex" horiz-adv-x="1028" unicode="â"/><glyph d="M512 1004q166 0 269.5 -84t103.5 -256v-664h-107v156q-145 -170 -368 -170q-152 0 -240 74.5t-88 199.5q0 133 92 201.5t283 95.5q217 33 269 52.5t52 78.5q0 90 -71.5 150.5t-194.5 60.5q-137 0 -204.5 -59.5t-80.5 -134.5l-104 24q23 111 120 193t269 82zM778 424v82 q-113 -25 -327 -55q-135 -18 -199 -64.5t-64 -132.5q0 -76 59.5 -119t168.5 -43q137 0 249.5 92.5t112.5 239.5zM764 1343l94 -26q-20 -80 -65 -131t-115 -45t-155 68.5t-117 62.5q-66 0 -123 -98l-88 49q80 158 213 149q55 -4 104 -33.5t89 -59.5t69 -34q35 -4 56.5 20.5 t37.5 77.5z" glyph-name="atilde" horiz-adv-x="1028" unicode="ã"/><glyph d="M512 1004q166 0 269.5 -84t103.5 -256v-664h-107v156q-145 -170 -368 -170q-152 0 -240 74.5t-88 199.5q0 133 92 201.5t283 95.5q217 33 269 52.5t52 78.5q0 90 -71.5 150.5t-194.5 60.5q-137 0 -204.5 -59.5t-80.5 -134.5l-104 24q23 111 120 193t269 82zM778 424v82 q-113 -25 -327 -55q-135 -18 -199 -64.5t-64 -132.5q0 -76 59.5 -119t168.5 -43q137 0 249.5 92.5t112.5 239.5zM391 1362q33 0 54.5 -22.5t21.5 -53.5t-21.5 -53.5t-54.5 -22.5q-31 0 -53.5 22.5t-22.5 53.5t22.5 53.5t53.5 22.5zM702.5 1362q30.5 0 53 -22.5t22.5 -53.5 t-22.5 -53.5t-53 -22.5t-53 22.5t-22.5 53.5t22.5 53.5t53 22.5z" glyph-name="adieresis" horiz-adv-x="1028" unicode="ä"/><glyph d="M512 1004q166 0 269.5 -84t103.5 -256v-664h-107v156q-145 -170 -368 -170q-152 0 -240 74.5t-88 199.5q0 133 92 201.5t283 95.5q217 33 269 52.5t52 78.5q0 90 -71.5 150.5t-194.5 60.5q-137 0 -204.5 -59.5t-80.5 -134.5l-104 24q23 111 120 193t269 82zM778 424v82 q-113 -25 -327 -55q-135 -18 -199 -64.5t-64 -132.5q0 -76 59.5 -119t168.5 -43q137 0 249.5 92.5t112.5 239.5zM541 1561q88 0 145 -58.5t57 -144.5t-57 -144.5t-145 -58.5q-86 0 -143.5 58.5t-57.5 144.5t57.5 144.5t143.5 58.5zM541 1241q51 0 83.5 33t32.5 84t-32.5 83 t-83.5 32q-49 0 -82 -32t-33 -83t33 -84t82 -33z" glyph-name="aring" horiz-adv-x="1028" unicode="å"/><glyph d="M1694 440h-797q16 -152 118.5 -252t254.5 -100q199 0 303 174l92 -45q-133 -231 -395 -231q-141 0 -255 72.5t-175 195.5q-20 -49 -60 -98q-139 -170 -370 -170q-150 0 -239 74.5t-89 197.5q0 133 92 201.5t283 97.5q219 33 271 52.5t52 78.5q0 90 -72.5 149.5 t-195.5 59.5q-135 0 -202.5 -59.5t-82.5 -132.5l-104 24q23 111 120 193t269 82q287 0 356 -216q135 213 392 213q203 0 319.5 -144t116.5 -363q0 -36 -2 -54zM780 424v82q-121 -25 -329 -55q-137 -20 -200 -66.5t-63 -132.5q0 -74 59.5 -117t168.5 -43q139 0 251.5 92.5 t112.5 239.5zM897 547h694q-12 156 -98 254t-233 98q-152 0 -249.5 -99t-113.5 -253z" glyph-name="ae" horiz-adv-x="1777" unicode="æ"/><glyph d="M561 88q207 0 307 174l95 -45q-129 -219 -379 -231l-49 -101q88 12 135 -30.5t47 -108.5q0 -94 -80 -141q-119 -68 -264 22l37 70q61 -43 121.5 -41t89.5 43q23 33 14.5 68.5t-47.5 50.5q-55 18 -92 -11l-68 50l66 133q-182 25 -297 167t-115 337q0 213 135 360t344 147 q131 0 234.5 -62t167.5 -169l-95 -43q-100 172 -307 172q-166 0 -268.5 -116.5t-102.5 -288.5t102.5 -289t268.5 -117z" glyph-name="ccedilla" horiz-adv-x="1044" unicode="ç"/><glyph d="M989 440h-796q16 -152 119.5 -252t254.5 -100q195 0 303 180l93 -45q-63 -109 -165 -173t-231 -64q-209 0 -347 147.5t-138 360.5q0 215 133 362.5t340 147.5q203 0 319.5 -144.5t116.5 -365.5q0 -36 -2 -54zM193 547h694q-12 158 -98.5 256t-233.5 98q-152 0 -249 -99 t-113 -255zM434 1434l158 -279h-84l-203 279h129z" glyph-name="egrave" horiz-adv-x="1073" unicode="è"/><glyph d="M989 440h-796q16 -152 119.5 -252t254.5 -100q195 0 303 180l93 -45q-63 -109 -165 -173t-231 -64q-209 0 -347 147.5t-138 360.5q0 215 133 362.5t340 147.5q203 0 319.5 -144.5t116.5 -365.5q0 -36 -2 -54zM193 547h694q-12 158 -98.5 256t-233.5 98q-152 0 -249 -99 t-113 -255zM666 1434h129l-203 -279h-84z" glyph-name="eacute" horiz-adv-x="1073" unicode="é"/><glyph d="M989 440h-796q16 -152 119.5 -252t254.5 -100q195 0 303 180l93 -45q-63 -109 -165 -173t-231 -64q-209 0 -347 147.5t-138 360.5q0 215 133 362.5t340 147.5q203 0 319.5 -144.5t116.5 -365.5q0 -36 -2 -54zM193 547h694q-12 158 -98.5 256t-233.5 98q-152 0 -249 -99 t-113 -255zM416 1155h-133l225 279h104l226 -279h-133l-144 197z" glyph-name="ecircumflex" horiz-adv-x="1073" unicode="ê"/><glyph d="M989 440h-796q16 -152 119.5 -252t254.5 -100q195 0 303 180l93 -45q-63 -109 -165 -173t-231 -64q-209 0 -347 147.5t-138 360.5q0 215 133 362.5t340 147.5q203 0 319.5 -144.5t116.5 -365.5q0 -36 -2 -54zM193 547h694q-12 158 -98.5 256t-233.5 98q-152 0 -249 -99 t-113 -255zM403 1362q33 0 54.5 -22.5t21.5 -53.5t-21.5 -53.5t-54.5 -22.5q-31 0 -53 22.5t-22 53.5t22 53.5t53 22.5zM714.5 1362q30.5 0 53.5 -22.5t23 -53.5t-23 -53.5t-53.5 -22.5t-53 22.5t-22.5 53.5t22.5 53.5t53 22.5z" glyph-name="edieresis" horiz-adv-x="1073" unicode="ë"/><glyph d="M147 0v987h107v-987h-107zM84 1434l158 -279h-84l-203 279h129z" glyph-name="igrave" horiz-adv-x="417" unicode="ì"/><glyph d="M143 0v987h107v-987h-107zM332 1434h129l-203 -279h-84z" glyph-name="iacute" horiz-adv-x="417" unicode="í"/><glyph d="M143 0v987h107v-987h-107zM55 1155h-133l225 279h105l225 -279h-133l-143 197z" glyph-name="icircumflex" horiz-adv-x="417" unicode="î"/><glyph d="M145 0v987h107v-987h-107zM43 1362q33 0 54.5 -22.5t21.5 -53.5t-21.5 -53.5t-54.5 -22.5q-31 0 -53.5 22.5t-22.5 53.5t22.5 53.5t53.5 22.5zM354.5 1362q30.5 0 53 -22.5t22.5 -53.5t-22.5 -53.5t-53 -22.5t-53 22.5t-22.5 53.5t22.5 53.5t53 22.5z" glyph-name="idieresis" horiz-adv-x="417" unicode="ï"/><glyph d="M903 1221q207 -272 184 -650q-2 -63 -15 -130.5t-48 -149.5t-87 -146.5t-140 -109.5t-201 -49q-209 -6 -357.5 138t-154.5 355q-6 213 130 364.5t345 160.5q141 2 255 -65t173 -187q-20 221 -162 407q-84 104 -190 178l-205 -207l-76 74l187 189q-119 61 -262 86l18 98 q180 -31 317 -107l181 183l77 -74l-163 -168q112 -77 194 -190zM594 88q164 6 263 126t99 292q0 188 -110.5 293.5t-284.5 99.5q-166 -4 -269.5 -125t-98.5 -293q6 -170 119.5 -283.5t281.5 -109.5z" glyph-name="eth" horiz-adv-x="1212" unicode="ð"/><glyph d="M547 1004q199 0 293 -126t94 -348v-530h-107v530q0 367 -280 367q-129 0 -213 -90t-84 -277v-530h-107v987h107v-145q107 162 297 162zM774 1343l94 -26q-20 -80 -65 -131t-115 -45t-154.5 68.5t-117.5 62.5q-66 0 -123 -98l-88 49q80 158 213 149q55 -4 104 -33.5 t89 -59.5t69 -34q35 -4 56.5 20.5t37.5 77.5z" glyph-name="ntilde" horiz-adv-x="1077" unicode="ñ"/><glyph d="M559 1004q209 0 341 -147.5t132 -362.5t-132 -361.5t-341 -146.5q-207 0 -342 147.5t-135 360.5t135 361.5t342 148.5zM559 88q164 0 264.5 117t100.5 289q0 174 -99.5 289.5t-265.5 115.5q-164 0 -266.5 -116.5t-102.5 -288.5t102.5 -289t266.5 -117zM459 1434l157 -279 h-84l-202 279h129z" glyph-name="ograve" horiz-adv-x="1114" unicode="ò"/><glyph d="M559 1004q209 0 341 -147.5t132 -362.5t-132 -361.5t-341 -146.5q-207 0 -342 147.5t-135 360.5t135 361.5t342 148.5zM559 88q164 0 264.5 117t100.5 289q0 174 -99.5 289.5t-265.5 115.5q-164 0 -266.5 -116.5t-102.5 -288.5t102.5 -289t266.5 -117zM670 1434h129 l-203 -279h-84z" glyph-name="oacute" horiz-adv-x="1114" unicode="ó"/><glyph d="M559 1004q209 0 341 -147.5t132 -362.5t-132 -361.5t-341 -146.5q-207 0 -342 147.5t-135 360.5t135 361.5t342 148.5zM559 88q164 0 264.5 117t100.5 289q0 174 -99.5 289.5t-265.5 115.5q-164 0 -266.5 -116.5t-102.5 -288.5t102.5 -289t266.5 -117zM414 1155h-133 l225 279h104l226 -279h-134l-143 197z" glyph-name="ocircumflex" horiz-adv-x="1114" unicode="ô"/><glyph d="M559 1004q209 0 341 -147.5t132 -362.5t-132 -361.5t-341 -146.5q-207 0 -342 147.5t-135 360.5t135 361.5t342 148.5zM559 88q164 0 264.5 117t100.5 289q0 174 -99.5 289.5t-265.5 115.5q-164 0 -266.5 -116.5t-102.5 -288.5t102.5 -289t266.5 -117zM797 1343l94 -26 q-20 -80 -65.5 -131t-115 -45t-154.5 68.5t-118 62.5q-66 0 -123 -98l-88 49q80 158 213 149q55 -4 104.5 -33.5t89.5 -59.5t68 -34q35 -4 57 20.5t38 77.5z" glyph-name="otilde" horiz-adv-x="1114" unicode="õ"/><glyph d="M559 1004q209 0 341 -147.5t132 -362.5t-132 -361.5t-341 -146.5q-207 0 -342 147.5t-135 360.5t135 361.5t342 148.5zM559 88q164 0 264.5 117t100.5 289q0 174 -99.5 289.5t-265.5 115.5q-164 0 -266.5 -116.5t-102.5 -288.5t102.5 -289t266.5 -117zM401 1362 q33 0 54.5 -22.5t21.5 -53.5t-21.5 -53.5t-54.5 -22.5q-31 0 -53 22.5t-22 53.5t22 53.5t53 22.5zM712.5 1362q30.5 0 53 -22.5t22.5 -53.5t-22.5 -53.5t-53 -22.5t-53 22.5t-22.5 53.5t22.5 53.5t53 22.5z" glyph-name="odieresis" horiz-adv-x="1114" unicode="ö"/><glyph d="M143 682h795v-107h-795v107zM541 899q-31 0 -52.5 22.5t-21.5 53.5q0 33 21.5 54.5t52.5 21.5q33 0 54 -21.5t21 -54.5q0 -31 -21 -53.5t-54 -22.5zM541 356q33 0 54 -22.5t21 -52.5q0 -33 -21.5 -54.5t-53.5 -21.5q-31 0 -52.5 21.5t-21.5 54.5q0 31 21.5 53t52.5 22z " glyph-name="divide" horiz-adv-x="1081" unicode="÷"/><glyph d="M1042 952l-114 -129q106 -139 106 -329q0 -215 -133 -361.5t-340 -146.5q-170 0 -297 104l-112 -125l-80 72l116 129q-106 139 -106 328q0 213 135 361.5t344 148.5q166 0 291 -103l113 123zM190 494q0 -141 72 -248l520 577q-88 76 -221 76q-166 0 -268.5 -116.5 t-102.5 -288.5zM926 494q0 139 -72 249l-520 -577q94 -78 227 -78q164 0 264.5 117t100.5 289z" glyph-name="oslash" horiz-adv-x="1114" unicode="ø"/><glyph d="M786 987h107v-987h-107v147q-106 -162 -297 -161q-197 0 -292 125t-95 346v530h107v-530q0 -365 280 -365q129 0 213 86t84 258v551zM393 1434l158 -279h-84l-203 279h129z" glyph-name="ugrave" horiz-adv-x="1015" unicode="ù"/><glyph d="M786 987h107v-987h-107v147q-106 -162 -297 -161q-197 0 -292 125t-95 346v530h107v-530q0 -365 280 -365q129 0 213 86t84 258v551zM625 1434h129l-203 -279h-84z" glyph-name="uacute" horiz-adv-x="1015" unicode="ú"/><glyph d="M786 987h107v-987h-107v147q-106 -162 -297 -161q-197 0 -292 125t-95 346v530h107v-530q0 -365 280 -365q129 0 213 86t84 258v551zM358 1155h-133l226 279h104l225 -279h-133l-143 197z" glyph-name="ucircumflex" horiz-adv-x="1015" unicode="û"/><glyph d="M786 987h107v-987h-107v147q-106 -162 -297 -161q-197 0 -292 125t-95 346v530h107v-530q0 -365 280 -365q129 0 213 86t84 258v551zM352 1362q33 0 54.5 -22.5t21.5 -53.5t-21.5 -53.5t-54.5 -22.5q-31 0 -53.5 22.5t-22.5 53.5t22.5 53.5t53.5 22.5zM663.5 1362 q30.5 0 53 -22.5t22.5 -53.5t-22.5 -53.5t-53 -22.5t-53 22.5t-22.5 53.5t22.5 53.5t53 22.5z" glyph-name="udieresis" horiz-adv-x="1015" unicode="ü"/><glyph d="M903 987l-362 -967q-92 -248 -156 -327q-90 -117 -274 -88l24 104q106 -14 157.5 42t127.5 251l-371 985h115l311 -837l313 837h115zM610 1434h129l-202 -279h-84z" glyph-name="yacute" horiz-adv-x="931" unicode="ý"/><glyph d="M588 1004q207 0 342 -148.5t135 -361.5t-135 -360.5t-342 -147.5q-238 0 -359 192v-624h-106v1880h106v-623q121 193 359 193zM588 88q164 0 266 117t102 289t-102 288.5t-266 116.5t-259.5 -115.5t-95.5 -290t95.5 -290t259.5 -115.5z" glyph-name="thorn" horiz-adv-x="1146" unicode="þ"/><glyph d="M903 987l-362 -967q-92 -248 -156 -327q-90 -117 -274 -88l24 104q106 -14 157.5 42t127.5 251l-371 985h115l311 -837l313 837h115zM344 1362q33 0 54.5 -22.5t21.5 -53.5t-21.5 -53.5t-54.5 -22.5q-31 0 -53.5 22.5t-22.5 53.5t22.5 53.5t53.5 22.5zM655.5 1362 q30.5 0 53 -22.5t22.5 -53.5t-22.5 -53.5t-53 -22.5t-53 22.5t-22.5 53.5t22.5 53.5t53 22.5z" glyph-name="ydieresis" horiz-adv-x="931" unicode="ÿ"/><glyph d="M1112 0l-166 436h-624l-166 -436h-115l547 1434h92l547 -1434h-115zM362 545h543l-272 710zM365 1796h514v-106h-514v106z" glyph-name="Amacron" unicode="Ā"/><glyph d="M512 1004q166 0 269.5 -84t103.5 -256v-664h-107v156q-145 -170 -368 -170q-152 0 -240 74.5t-88 199.5q0 133 92 201.5t283 95.5q217 33 269 52.5t52 78.5q0 90 -71.5 150.5t-194.5 60.5q-137 0 -204.5 -59.5t-80.5 -134.5l-104 24q23 111 120 193t269 82zM778 424v82 q-113 -25 -327 -55q-135 -18 -199 -64.5t-64 -132.5q0 -76 59.5 -119t168.5 -43q137 0 249.5 92.5t112.5 239.5zM279 1386h514v-106h-514v106z" glyph-name="amacron" horiz-adv-x="1028" unicode="ā"/><glyph d="M1112 0l-166 436h-624l-166 -436h-115l547 1434h92l547 -1434h-115zM362 545h543l-272 710zM766 1823h96q0 -106 -67.5 -180t-171.5 -74q-102 0 -170 69.5t-72 184.5h96q0 -68 41 -113t105 -45q59 0 101 45t42 113z" glyph-name="Abreve" unicode="Ă"/><glyph d="M512 1004q166 0 269.5 -84t103.5 -256v-664h-107v156q-145 -170 -368 -170q-152 0 -240 74.5t-88 199.5q0 133 92 201.5t283 95.5q217 33 269 52.5t52 78.5q0 90 -71.5 150.5t-194.5 60.5q-137 0 -204.5 -59.5t-80.5 -134.5l-104 24q23 111 120 193t269 82zM778 424v82 q-113 -25 -327 -55q-135 -18 -199 -64.5t-64 -132.5q0 -76 59.5 -119t168.5 -43q137 0 249.5 92.5t112.5 239.5zM692 1413h96q0 -106 -67.5 -180t-171.5 -74q-102 0 -170 69.5t-72 184.5h96q0 -68 41 -113t105 -45q59 0 101 45t42 113z" glyph-name="abreve" horiz-adv-x="1028" unicode="ă"/><glyph d="M1233 -279v-118q-47 -18 -94 -19q-80 0 -134.5 51.5t-46.5 133.5q6 74 56.5 137t99.5 94h-8l-166 436h-625l-165 -436h-115l547 1434h92l547 -1434h-7q-72 -39 -126 -110.5t-37 -133.5q16 -55 77.5 -64.5t104.5 29.5zM356 543h543l-270 712z" glyph-name="Aogonek" unicode="Ą"/><glyph d="M903 -279v-118q-49 -18 -94 -19q-80 0 -135.5 51.5t-46.5 133.5q6 74 56 136t99 95h-4v156q-139 -170 -368 -170q-152 0 -240 74.5t-88 197.5q0 133 91 201.5t284 97.5q217 33 269 52.5t52 78.5q0 90 -71.5 149.5t-194.5 59.5q-137 0 -204.5 -59.5t-80.5 -132.5l-104 24 q23 111 120 193t269 82q166 0 270.5 -84t104.5 -256v-664h-4q-70 -39 -124 -110.5t-38 -133.5q16 -55 77.5 -64.5t104.5 29.5zM778 424v82q-113 -25 -327 -55q-137 -20 -200 -66.5t-63 -132.5q0 -74 59.5 -117t168.5 -43q137 0 249.5 92.5t112.5 239.5z" glyph-name="aogonek" horiz-adv-x="1028" unicode="ą"/><glyph d="M819 96q154 0 282 74t206 201l104 -52q-92 -154 -246.5 -243.5t-345.5 -89.5q-303 0 -499.5 211t-196.5 520q0 307 196.5 518t499.5 211q190 0 345 -89t247 -245l-104 -51q-78 127 -205 200.5t-283 73.5q-250 0 -413.5 -180t-163.5 -438t163.5 -439.5t413.5 -181.5z M901 1843h129l-203 -278h-84z" glyph-name="Cacute" horiz-adv-x="1513" unicode="Ć"/><glyph d="M561 88q203 0 309 174l93 -45q-61 -106 -166 -168.5t-236 -62.5q-207 0 -343 147.5t-136 360.5q0 215 136 362.5t343 147.5q131 0 235.5 -62.5t166.5 -169.5l-93 -45q-106 174 -309 174q-166 0 -268.5 -117.5t-102.5 -289.5t102.5 -289t268.5 -117zM659 1434h129 l-202 -279h-84z" glyph-name="cacute" horiz-adv-x="1044" unicode="ć"/><glyph d="M819 96q154 0 282 74t206 201l104 -52q-92 -154 -246.5 -243.5t-345.5 -89.5q-303 0 -499.5 211t-196.5 520q0 307 196.5 518t499.5 211q190 0 345 -89t247 -245l-104 -51q-78 127 -205 200.5t-283 73.5q-250 0 -413.5 -180t-163.5 -438t163.5 -439.5t413.5 -181.5z M662 1565h-134l226 278h104l225 -278h-133l-143 196z" glyph-name="Ccircumflex" horiz-adv-x="1513" unicode="Ĉ"/><glyph d="M561 88q203 0 309 174l93 -45q-61 -106 -166 -168.5t-236 -62.5q-207 0 -343 147.5t-136 360.5q0 215 136 362.5t343 147.5q131 0 235.5 -62.5t166.5 -169.5l-93 -45q-106 174 -309 174q-166 0 -268.5 -117.5t-102.5 -289.5t102.5 -289t268.5 -117zM420 1155h-133 l225 279h104l226 -279h-133l-144 197z" glyph-name="ccircumflex" horiz-adv-x="1044" unicode="ĉ"/><glyph d="M819 96q154 0 282 74t206 201l104 -52q-92 -154 -246.5 -243.5t-345.5 -89.5q-303 0 -499.5 211t-196.5 520q0 307 196.5 518t499.5 211q190 0 345 -89t247 -245l-104 -51q-78 127 -205 200.5t-283 73.5q-250 0 -413.5 -180t-163.5 -438t163.5 -439.5t413.5 -181.5z M825 1772q33 0 54.5 -23t21.5 -53.5t-21.5 -53t-54.5 -22.5q-31 0 -52 22.5t-21 53t21 53.5t52 23z" glyph-name="Cdotaccent" horiz-adv-x="1513" unicode="Ċ"/><glyph d="M561 88q203 0 309 174l93 -45q-61 -106 -166 -168.5t-236 -62.5q-207 0 -343 147.5t-136 360.5q0 215 136 362.5t343 147.5q131 0 235.5 -62.5t166.5 -169.5l-93 -45q-106 174 -309 174q-166 0 -268.5 -117.5t-102.5 -289.5t102.5 -289t268.5 -117zM563 1362 q33 0 54.5 -22.5t21.5 -53.5t-21.5 -53.5t-54.5 -22.5q-31 0 -52.5 22.5t-21.5 53.5t21.5 53.5t52.5 22.5z" glyph-name="cdotaccent" horiz-adv-x="1044" unicode="ċ"/><glyph d="M819 96q154 0 282 74t206 201l104 -52q-92 -154 -246.5 -243.5t-345.5 -89.5q-303 0 -499.5 211t-196.5 520q0 307 196.5 518t499.5 211q190 0 345 -89t247 -245l-104 -51q-78 127 -205 200.5t-283 73.5q-250 0 -413.5 -180t-163.5 -438t163.5 -439.5t413.5 -181.5z M950 1843h133l-225 -278h-104l-226 278h134l143 -196z" glyph-name="Ccaron" horiz-adv-x="1513" unicode="Č"/><glyph d="M561 88q203 0 309 174l93 -45q-61 -106 -166 -168.5t-236 -62.5q-207 0 -343 147.5t-136 360.5q0 215 136 362.5t343 147.5q131 0 235.5 -62.5t166.5 -169.5l-93 -45q-106 174 -309 174q-166 0 -268.5 -117.5t-102.5 -289.5t102.5 -289t268.5 -117zM709 1434h133 l-226 -279h-104l-225 279h133l143 -197z" glyph-name="ccaron" horiz-adv-x="1044" unicode="č"/><glyph d="M561 1434q356 0 561 -196t205 -521q0 -328 -202.5 -522.5t-563.5 -194.5h-397v1434h397zM588 106q287 0 453.5 168t166.5 442.5t-169 442.5t-451 168h-318v-1221h318zM799 1843h133l-225 -278h-105l-225 278h133l143 -196z" glyph-name="Dcaron" horiz-adv-x="1449" unicode="Ď"/><glyph d="M907 1434h107v-1434h-107v178q-125 -193 -358 -192q-207 0 -337 146.5t-130 361.5q0 217 130 363.5t337 146.5q233 0 358 -193v623zM549 88q162 0 257 115.5t95 290t-95 291t-257 116.5q-164 0 -261.5 -116.5t-97.5 -290.5q0 -172 97.5 -289t261.5 -117zM1159 1090 l90 344h129l-143 -344h-76z" glyph-name="dcaron" horiz-adv-x="1316" unicode="ď"/><glyph d="M625 1434q354 0 553.5 -195t199.5 -522.5t-197.5 -522t-555.5 -194.5h-400v664h-184v106h184v664h400zM651 106q287 0 451 167t164 444q0 274 -167 442t-448 168h-319v-557h387v-106h-387v-558h319z" glyph-name="Dcroat" horiz-adv-x="1501" unicode="Đ"/><glyph d="M1219 1262v-107h-199v-1155h-107v178q-125 -193 -358 -192q-209 0 -341 146.5t-132 361.5t132 362.5t341 147.5q233 0 358 -193v344h-260v107h260v172h107v-172h199zM555 88q162 0 257 115.5t95 290t-95 290t-257 115.5q-166 0 -265.5 -115.5t-99.5 -289.5 q0 -172 100.5 -289t264.5 -117z" glyph-name="dcroat" horiz-adv-x="1218" unicode="đ"/><glyph d="M270 106h846v-106h-952v1434h940v-107h-834v-557h770v-106h-770v-558zM387 1796h514v-106h-514v106z" glyph-name="Emacron" horiz-adv-x="1239" unicode="Ē"/><glyph d="M989 440h-796q16 -152 119.5 -252t254.5 -100q195 0 303 180l93 -45q-63 -109 -165 -173t-231 -64q-209 0 -347 147.5t-138 360.5q0 215 133 362.5t340 147.5q203 0 319.5 -144.5t116.5 -365.5q0 -36 -2 -54zM193 547h694q-12 158 -98.5 256t-233.5 98q-152 0 -249 -99 t-113 -255zM303 1386h514v-106h-514v106z" glyph-name="emacron" horiz-adv-x="1073" unicode="ē"/><glyph d="M270 106h846v-106h-952v1434h940v-107h-834v-557h770v-106h-770v-558zM788 1823h97q0 -106 -67.5 -180t-172.5 -74q-102 0 -169.5 69.5t-72.5 184.5h97q0 -68 41 -113t104 -45q59 0 101 45t42 113z" glyph-name="Ebreve" horiz-adv-x="1239" unicode="Ĕ"/><glyph d="M989 440h-796q16 -152 119.5 -252t254.5 -100q195 0 303 180l93 -45q-63 -109 -165 -173t-231 -64q-209 0 -347 147.5t-138 360.5q0 215 133 362.5t340 147.5q203 0 319.5 -144.5t116.5 -365.5q0 -36 -2 -54zM193 547h694q-12 158 -98.5 256t-233.5 98q-152 0 -249 -99 t-113 -255zM705 1413h96q0 -106 -67.5 -180t-172.5 -74q-102 0 -169.5 69.5t-72.5 184.5h97q0 -68 41 -113t104 -45q59 0 101.5 45t42.5 113z" glyph-name="ebreve" horiz-adv-x="1073" unicode="ĕ"/><glyph d="M270 106h846v-106h-952v1434h940v-107h-834v-557h770v-106h-770v-558zM643 1772q33 0 54.5 -23t21.5 -53.5t-21.5 -53t-54.5 -22.5q-31 0 -52.5 22.5t-21.5 53t21.5 53.5t52.5 23z" glyph-name="Edotaccent" horiz-adv-x="1239" unicode="Ė"/><glyph d="M989 440h-796q16 -152 119.5 -252t254.5 -100q195 0 303 180l93 -45q-63 -109 -165 -173t-231 -64q-209 0 -347 147.5t-138 360.5q0 215 133 362.5t340 147.5q203 0 319.5 -144.5t116.5 -365.5q0 -36 -2 -54zM193 547h694q-12 158 -98.5 256t-233.5 98q-152 0 -249 -99 t-113 -255zM559 1362q33 0 54.5 -22.5t21.5 -53.5t-21.5 -53.5t-54.5 -22.5q-31 0 -52.5 22.5t-21.5 53.5t21.5 53.5t52.5 22.5z" glyph-name="edotaccent" horiz-adv-x="1073" unicode="ė"/><glyph d="M1135 -279v-118q-45 -18 -95 -19q-80 0 -134 51.5t-46 133.5q6 74 56.5 137t99.5 94h-852v1434h940v-107h-834v-557h770v-106h-770v-558h846v-106q-72 -39 -126 -110.5t-38 -133.5q16 -55 78 -64.5t105 29.5z" glyph-name="Eogonek" horiz-adv-x="1239" unicode="Ę"/><glyph d="M989 440h-796q16 -152 119.5 -252t254.5 -100q199 0 303 174l93 -45q-63 -113 -166 -172q-70 -51 -130.5 -139t-48.5 -150q12 -57 76 -66t107 29v-116q-49 -18 -94 -19q-80 0 -135.5 50.5t-47.5 132.5q6 66 50 129t94 100q-55 -10 -101 -10q-209 0 -347 147.5t-138 360.5 q0 215 133 361t340 146q203 0 319.5 -144t116.5 -363q0 -36 -2 -54zM193 547h694q-12 156 -98.5 254t-233.5 98q-152 0 -249 -99t-113 -253z" glyph-name="eogonek" horiz-adv-x="1073" unicode="ę"/><glyph d="M270 106h846v-106h-952v1434h940v-107h-834v-557h770v-106h-770v-558zM788 1843h134l-226 -278h-104l-225 278h133l143 -196z" glyph-name="Ecaron" horiz-adv-x="1239" unicode="Ě"/><glyph d="M989 440h-796q16 -152 119.5 -252t254.5 -100q195 0 303 180l93 -45q-63 -109 -165 -173t-231 -64q-209 0 -347 147.5t-138 360.5q0 215 133 362.5t340 147.5q203 0 319.5 -144.5t116.5 -365.5q0 -36 -2 -54zM193 547h694q-12 158 -98.5 256t-233.5 98q-152 0 -249 -99 t-113 -255zM705 1434h133l-226 -279h-104l-225 279h133l143 -197z" glyph-name="ecaron" horiz-adv-x="1073" unicode="ě"/><glyph d="M825 719h584v-400q-92 -154 -245.5 -243.5t-344.5 -89.5q-303 0 -499.5 211t-196.5 520q0 307 196.5 518t499.5 211q190 0 345 -89t245 -245l-102 -51q-78 127 -205 200.5t-283 73.5q-252 0 -415.5 -180t-163.5 -438q0 -260 163.5 -440.5t415.5 -180.5q152 0 279 67.5 t205 186.5v262h-478v107zM674 1565h-133l225 278h104l226 -278h-133l-144 196z" glyph-name="Gcircumflex" horiz-adv-x="1531" unicode="Ĝ"/><glyph d="M887 987h106v-944q0 -244 -125 -374t-325 -130q-125 0 -233.5 57.5t-178.5 155.5l86 55q125 -166 315 -165q168 0 261.5 101t93.5 290v145q-121 -193 -359 -192q-207 0 -337 146.5t-130 361.5q0 217 130.5 363.5t336.5 146.5q238 0 359 -193v176zM528.5 88 q163.5 0 258 115.5t94.5 290.5q0 176 -94.5 291.5t-258 115.5t-261 -116.5t-97.5 -290.5q0 -172 97.5 -289t261 -117zM391 1155h-133l225 279h105l225 -279h-133l-143 197z" glyph-name="gcircumflex" horiz-adv-x="1136" unicode="ĝ"/><glyph d="M825 719h584v-400q-92 -154 -245.5 -243.5t-344.5 -89.5q-303 0 -499.5 211t-196.5 520q0 307 196.5 518t499.5 211q190 0 345 -89t245 -245l-102 -51q-78 127 -205 200.5t-283 73.5q-252 0 -415.5 -180t-163.5 -438q0 -260 163.5 -440.5t415.5 -180.5q152 0 279 67.5 t205 186.5v262h-478v107zM963 1823h96q0 -106 -67.5 -180t-172.5 -74q-102 0 -169.5 69.5t-71.5 184.5h96q0 -68 41 -113t104 -45q59 0 101.5 45t42.5 113z" glyph-name="Gbreve" horiz-adv-x="1531" unicode="Ğ"/><glyph d="M887 987h106v-944q0 -244 -125 -374t-325 -130q-125 0 -233.5 57.5t-178.5 155.5l86 55q125 -166 315 -165q168 0 261.5 101t93.5 290v145q-121 -193 -359 -192q-207 0 -337 146.5t-130 361.5q0 217 130.5 363.5t336.5 146.5q238 0 359 -193v176zM528.5 88 q163.5 0 258 115.5t94.5 290.5q0 176 -94.5 291.5t-258 115.5t-261 -116.5t-97.5 -290.5q0 -172 97.5 -289t261 -117zM700 1413h97q0 -106 -67.5 -180t-172.5 -74q-102 0 -170 69.5t-72 184.5h97q0 -68 41 -113t104 -45q59 0 101 45t42 113z" glyph-name="gbreve" horiz-adv-x="1136" unicode="ğ"/><glyph d="M825 719h584v-400q-92 -154 -245.5 -243.5t-344.5 -89.5q-303 0 -499.5 211t-196.5 520q0 307 196.5 518t499.5 211q190 0 345 -89t245 -245l-102 -51q-78 127 -205 200.5t-283 73.5q-252 0 -415.5 -180t-163.5 -438q0 -260 163.5 -440.5t415.5 -180.5q152 0 279 67.5 t205 186.5v262h-478v107zM817 1772q33 0 54.5 -23t21.5 -53.5t-21.5 -53t-54.5 -22.5q-31 0 -52.5 22.5t-21.5 53t21.5 53.5t52.5 23z" glyph-name="Gdotaccent" horiz-adv-x="1531" unicode="Ġ"/><glyph d="M887 987h106v-944q0 -244 -125 -374t-325 -130q-125 0 -233.5 57.5t-178.5 155.5l86 55q125 -166 315 -165q168 0 261.5 101t93.5 290v145q-121 -193 -359 -192q-207 0 -337 146.5t-130 361.5q0 217 130.5 363.5t336.5 146.5q238 0 359 -193v176zM528.5 88 q163.5 0 258 115.5t94.5 290.5q0 176 -94.5 291.5t-258 115.5t-261 -116.5t-97.5 -290.5q0 -172 97.5 -289t261 -117zM555 1362q33 0 54.5 -22.5t21.5 -53.5t-21.5 -53.5t-54.5 -22.5q-31 0 -52.5 22.5t-21.5 53.5t21.5 53.5t52.5 22.5z" glyph-name="gdotaccent" horiz-adv-x="1136" unicode="ġ"/><glyph d="M825 719h584v-400q-92 -154 -245.5 -243.5t-344.5 -89.5q-303 0 -499.5 211t-196.5 520q0 307 196.5 518t499.5 211q190 0 345 -89t245 -245l-102 -51q-78 127 -205 200.5t-283 73.5q-252 0 -415.5 -180t-163.5 -438q0 -260 163.5 -440.5t415.5 -180.5q152 0 279 67.5 t205 186.5v262h-478v107zM731 -158h119l-113 -268h-73z" glyph-name="Gcommaaccent" horiz-adv-x="1531" unicode="Ģ"/><glyph d="M887 987h106v-944q0 -244 -125 -374t-325 -130q-125 0 -233.5 57.5t-178.5 155.5l86 55q125 -166 315 -165q168 0 261.5 101t93.5 290v145q-121 -193 -359 -192q-207 0 -337 146.5t-130 361.5q0 217 130.5 363.5t336.5 146.5q238 0 359 -193v176zM528.5 88 q163.5 0 258 115.5t94.5 290.5q0 176 -94.5 291.5t-258 115.5t-261 -116.5t-97.5 -290.5q0 -172 97.5 -289t261 -117zM489 1190l144 344h74l-89 -344h-129z" glyph-name="gcommaaccent" horiz-adv-x="1136" unicode="ģ"/><glyph d="M1145 1434h106v-1434h-106v664h-875v-664h-106v1434h106v-664h875v664zM563 1565h-133l225 278h105l225 -278h-133l-143 196z" glyph-name="Hcircumflex" horiz-adv-x="1415" unicode="Ĥ"/><glyph d="M547 1004q197 0 292 -126t95 -348v-530h-107v530q0 367 -280 367q-131 0 -214 -90t-83 -277v-530h-107v1434h107v-592q107 162 297 162zM414 1567h-133l225 278h104l226 -278h-134l-143 196z" glyph-name="hcircumflex" horiz-adv-x="1077" unicode="ĥ"/><glyph d="M1411 1155v-106h-139v-1049h-107v664h-872v-664h-109v1049h-137v106h137v279h109v-279h872v279h107v-279h139zM1165 770v279h-872v-279h872z" glyph-name="Hbar" horiz-adv-x="1458" unicode="Ħ"/><glyph d="M551 1001q197 0 292 -124.5t95 -346.5v-530h-107v530q0 365 -280 365q-131 0 -214 -89t-83 -276v-530h-107v1155h-147v107h147v172h107v-172h233v-107h-233v-311q102 157 297 157z" glyph-name="hbar" horiz-adv-x="1081" unicode="ħ"/><glyph d="M166 1434h106v-1434h-106v1434zM455 1753l94 -27q-20 -80 -65.5 -131t-115 -45t-154.5 68.5t-118 62.5q-66 0 -123 -98l-88 49q80 158 213 150q55 -4 104.5 -34t89.5 -59.5t68 -33.5q35 -4 57 20.5t38 77.5z" glyph-name="Itilde" horiz-adv-x="434" unicode="Ĩ"/><glyph d="M176 0v987h107v-987h-107zM467 1343l94 -26q-20 -80 -65 -131t-115 -45t-155 68.5t-117 62.5q-66 0 -123 -98l-88 49q80 158 213 149q55 -4 104 -33.5t89 -59.5t69 -34q35 -4 56.5 20.5t37.5 77.5z" glyph-name="itilde" horiz-adv-x="438" unicode="ĩ"/><glyph d="M166 1434h106v-1434h-106v1434zM-41 1796h514v-106h-514v106z" glyph-name="Imacron" horiz-adv-x="434" unicode="Ī"/><glyph d="M145 0v987h107v-987h-107zM-57 1386h514v-106h-514v106z" glyph-name="imacron" horiz-adv-x="417" unicode="ī"/><glyph d="M166 1434h106v-1434h-106v1434zM360 1823h97q0 -106 -67.5 -180t-172.5 -74q-102 0 -169.5 69.5t-72.5 184.5h97q0 -68 41 -113t104 -45q59 0 101 45t42 113z" glyph-name="Ibreve" horiz-adv-x="434" unicode="Ĭ"/><glyph d="M147 0v987h107v-987h-107zM346 1413h96q0 -106 -67.5 -180t-171.5 -74q-102 0 -170 69.5t-72 184.5h96q0 -68 41 -113t105 -45q59 0 101 45t42 113z" glyph-name="ibreve" horiz-adv-x="417" unicode="ĭ"/><glyph d="M293 -279v-118q-47 -18 -94 -19q-80 0 -134.5 51.5t-46.5 133.5q6 74 56.5 137t99.5 94h-4v1434h106v-1434h-2q-72 -39 -126 -110.5t-37 -133.5q16 -55 77.5 -64.5t104.5 29.5z" glyph-name="Iogonek" horiz-adv-x="434" unicode="Į"/><glyph d="M209 1208q-31 0 -53.5 22.5t-22.5 53.5t22.5 53.5t53.5 22.5t53.5 -22.5t22.5 -53.5t-22.5 -53.5t-53.5 -22.5zM96 -244q16 -55 78 -64t105 29v-118q-49 -18 -95 -19q-80 0 -135 51.5t-47 133.5q6 74 56.5 136t99.5 95h-2v987h106v-987h-4q-70 -39 -124 -111t-38 -133z " glyph-name="iogonek" horiz-adv-x="417" unicode="į"/><glyph d="M166 1434h106v-1434h-106v1434zM215 1772q33 0 54.5 -23t21.5 -53.5t-21.5 -53t-54.5 -22.5q-31 0 -52.5 22.5t-21.5 53t21.5 53.5t52.5 23z" glyph-name="Idotaccent" horiz-adv-x="434" unicode="İ"/><glyph d="M150 0v987h106v-987h-106z" glyph-name="dotlessi" horiz-adv-x="417" unicode="ı"/><glyph d="M602 1434h107v-1014q0 -221 -92.5 -327.5t-247.5 -106.5q-106 0 -189.5 37.5t-122.5 85.5l72 73q82 -90 231 -90q111 0 176.5 79t65.5 239v1024zM506 1565h-133l225 278h104l226 -278h-133l-144 196z" glyph-name="Jcircumflex" horiz-adv-x="872" unicode="Ĵ"/><glyph d="M207 987h106v-1145q0 -233 -145 -288q-127 -47 -254 47l57 73q82 -55 152 -26q84 35 84 190v1149zM115 1155h-133l225 279h104l226 -279h-134l-143 197z" glyph-name="jcircumflex" horiz-adv-x="479" unicode="ĵ"/><glyph d="M1096 0l-537 756l-289 -318v-438h-106v1434h106v-836l760 836h144l-543 -598l596 -836h-131zM565 -158h119l-113 -268h-73z" glyph-name="Kcommaaccent" horiz-adv-x="1247" unicode="Ķ"/><glyph d="M831 0l-372 516l-209 -227v-289h-107v1434h107v-988l502 541h145l-365 -393l431 -594h-132zM442 -158h119l-112 -268h-74z" glyph-name="kcommaaccent" horiz-adv-x="983" unicode="ķ"/><glyph d="M270 106h756v-106h-862v1434h106v-1328zM332 1843h129l-203 -278h-84z" glyph-name="Lacute" horiz-adv-x="1067" unicode="Ĺ"/><glyph d="M143 1536h109v-1536h-109v1536zM315 1946h129l-202 -279h-84z" glyph-name="lacute" horiz-adv-x="395" unicode="ĺ"/><glyph d="M270 106h756v-106h-862v1434h106v-1328zM539 -158h118l-112 -268h-74z" glyph-name="Lcommaaccent" horiz-adv-x="1067" unicode="Ļ"/><glyph d="M143 1536h109v-1536h-109v1536zM131 -158h119l-113 -268h-74z" glyph-name="lcommaaccent" horiz-adv-x="395" unicode="ļ"/><glyph d="M270 106h756v-106h-862v1434h106v-1328zM471 1090l90 344h129l-143 -344h-76z" glyph-name="Lcaron" horiz-adv-x="1067" unicode="Ľ"/><glyph d="M143 1536h109v-1536h-109v1536zM410 1090l90 344h129l-144 -344h-75z" glyph-name="lcaron" horiz-adv-x="546" unicode="ľ"/><glyph d="M641 788q33 0 54.5 -22.5t21.5 -53t-21.5 -53t-54.5 -22.5q-31 0 -52.5 22.5t-21.5 53t21.5 53t52.5 22.5zM270 106h756v-106h-862v1434h106v-1328z" glyph-name="Ldot" horiz-adv-x="1067" unicode="Ŀ"/><glyph d="M143 1536h109v-1536h-109v1536zM518 553q33 0 54.5 -22.5t21.5 -53.5t-21.5 -53.5t-54.5 -22.5q-31 0 -52.5 22.5t-21.5 53.5t21.5 53.5t52.5 22.5z" glyph-name="ldot" horiz-adv-x="675" unicode="ŀ"/><glyph d="M422 106h754v-106h-861v512l-254 -174v129l254 174v793h107v-719l483 329v-129l-483 -329v-480z" glyph-name="Lslash" horiz-adv-x="1216" unicode="Ł"/><glyph d="M592 1030v-129l-223 -153v-748h-107v676l-221 -152v129l221 152v731h107v-657z" glyph-name="lslash" horiz-adv-x="632" unicode="ł"/><glyph d="M1149 1434h106v-1434h-100l-885 1253v-1253h-106v1434h100l885 -1244v1244zM844 1843h129l-203 -278h-84z" glyph-name="Nacute" horiz-adv-x="1419" unicode="Ń"/><glyph d="M547 1004q199 0 293 -126t94 -348v-530h-107v530q0 367 -280 367q-129 0 -213 -90t-84 -277v-530h-107v987h107v-145q107 162 297 162zM672 1434h129l-203 -279h-84z" glyph-name="nacute" horiz-adv-x="1077" unicode="ń"/><glyph d="M1149 1434h106v-1434h-100l-885 1253v-1253h-106v1434h100l885 -1244v1244zM641 -158h119l-113 -268h-74z" glyph-name="Ncommaaccent" horiz-adv-x="1419" unicode="Ņ"/><glyph d="M547 1004q199 0 293 -126t94 -348v-530h-107v530q0 367 -280 367q-129 0 -213 -90t-84 -277v-530h-107v987h107v-145q107 162 297 162zM469 -158h119l-113 -268h-74z" glyph-name="ncommaaccent" horiz-adv-x="1077" unicode="ņ"/><glyph d="M1149 1434h106v-1434h-100l-885 1253v-1253h-106v1434h100l885 -1244v1244zM893 1843h133l-225 -278h-105l-225 278h133l144 -196z" glyph-name="Ncaron" horiz-adv-x="1419" unicode="Ň"/><glyph d="M547 1004q199 0 293 -126t94 -348v-530h-107v530q0 367 -280 367q-129 0 -213 -90t-84 -277v-530h-107v987h107v-145q107 162 297 162zM700 1434h134l-226 -279h-104l-225 279h133l143 -197z" glyph-name="ncaron" horiz-adv-x="1077" unicode="ň"/><glyph d="M627 1004q199 0 293 -126t94 -348v-530h-107v530q0 367 -280 367q-129 0 -213 -90t-84 -277v-530h-107v987h107v-145q107 162 297 162zM68 1188h118l-112 -268h-74z" glyph-name="napostrophe" horiz-adv-x="1157" unicode="ŉ"/><glyph d="M1266 1434v-1434v-92q0 -240 -140 -293q-59 -23 -129.5 -9.5t-130.5 60.5l60 74q76 -57 151 -27q82 33 82 191v104l-878 1249v-1257h-107v1434h100l885 -1248v1248h107z" glyph-name="Eng" horiz-adv-x="1439" unicode="Ŋ"/><glyph d="M934 530v-622q0 -240 -139 -293q-59 -23 -129 -9.5t-129 60.5l57 74q33 -25 76 -33t75 6q82 33 82 191v626q0 188 -73.5 277.5t-204.5 89.5t-215 -90t-84 -277v-530h-107v987h107v-143q104 160 299 160q197 0 291 -126.5t94 -347.5z" glyph-name="eng" horiz-adv-x="1077" unicode="ŋ"/><glyph d="M819 1446q303 0 500 -211t197 -518q0 -309 -197 -520t-500 -211t-499.5 211t-196.5 520q0 307 196.5 518t499.5 211zM819 96q250 0 414 181.5t164 439.5t-164 438t-414 180t-413.5 -180t-163.5 -438t163.5 -439.5t413.5 -181.5zM565 1796h514v-106h-514v106z" glyph-name="Omacron" horiz-adv-x="1638" unicode="Ō"/><glyph d="M559 1004q209 0 341 -147.5t132 -362.5t-132 -361.5t-341 -146.5q-207 0 -342 147.5t-135 360.5t135 361.5t342 148.5zM559 88q164 0 264.5 117t100.5 289q0 174 -99.5 289.5t-265.5 115.5q-164 0 -266.5 -116.5t-102.5 -288.5t102.5 -289t266.5 -117zM303 1386h514v-106 h-514v106z" glyph-name="omacron" horiz-adv-x="1114" unicode="ō"/><glyph d="M819 1446q303 0 500 -211t197 -518q0 -309 -197 -520t-500 -211t-499.5 211t-196.5 520q0 307 196.5 518t499.5 211zM819 96q250 0 414 181.5t164 439.5t-164 438t-414 180t-413.5 -180t-163.5 -438t163.5 -439.5t413.5 -181.5zM965 1823h96q0 -106 -67.5 -180 t-172.5 -74q-102 0 -169.5 69.5t-71.5 184.5h96q0 -68 41 -113t104 -45q59 0 101.5 45t42.5 113z" glyph-name="Obreve" horiz-adv-x="1638" unicode="Ŏ"/><glyph d="M559 1004q209 0 341 -147.5t132 -362.5t-132 -361.5t-341 -146.5q-207 0 -342 147.5t-135 360.5t135 361.5t342 148.5zM559 88q164 0 264.5 117t100.5 289q0 174 -99.5 289.5t-265.5 115.5q-164 0 -266.5 -116.5t-102.5 -288.5t102.5 -289t266.5 -117zM702 1413h97 q0 -106 -67.5 -180t-172.5 -74q-102 0 -169.5 69.5t-72.5 184.5h97q0 -68 41 -113t104 -45q59 0 101 45t42 113z" glyph-name="obreve" horiz-adv-x="1114" unicode="ŏ"/><glyph d="M819 1446q303 0 500 -211t197 -518q0 -309 -197 -520t-500 -211t-499.5 211t-196.5 520q0 307 196.5 518t499.5 211zM819 96q250 0 414 181.5t164 439.5t-164 438t-414 180t-413.5 -180t-163.5 -438t163.5 -439.5t413.5 -181.5zM795 1843h129l-203 -278h-84zM1079 1843 h129l-202 -278h-84z" glyph-name="Ohungarumlaut" horiz-adv-x="1638" unicode="Ő"/><glyph d="M559 1004q209 0 341 -147.5t132 -362.5t-132 -361.5t-341 -146.5q-207 0 -342 147.5t-135 360.5t135 361.5t342 148.5zM559 88q164 0 264.5 117t100.5 289q0 174 -99.5 289.5t-265.5 115.5q-164 0 -266.5 -116.5t-102.5 -288.5t102.5 -289t266.5 -117zM528 1434h129 l-202 -279h-84zM813 1434h129l-203 -279h-84z" glyph-name="ohungarumlaut" horiz-adv-x="1114" unicode="ő"/><glyph d="M2099 106v-106h-952v66q-147 -80 -328 -80q-301 0 -498.5 211t-197.5 518q0 309 197.5 520t498.5 211q180 0 328 -80v68h940v-107h-834v-557h770v-106h-770v-558h846zM1147 199v1034q-145 102 -328 102q-250 0 -413.5 -181t-163.5 -439t163.5 -438.5t413.5 -180.5 q183 1 328 103z" glyph-name="OE" horiz-adv-x="2222" unicode="Œ"/><glyph d="M1841 440h-797q16 -152 119 -252t254 -100q199 0 303 174l92 -45q-133 -231 -395 -231q-145 0 -259 74.5t-173 199.5q-59 -127 -169.5 -200.5t-254.5 -73.5q-207 0 -343 147.5t-136 360.5t136 360t343 147q143 0 254 -72.5t168 -197.5q57 125 168 197.5t254 72.5 q205 0 321.5 -144t116.5 -363q0 -36 -2 -54zM561 88q164 0 264.5 117t100.5 289q0 174 -100.5 289.5t-264.5 115.5q-166 0 -268.5 -116.5t-102.5 -288.5t102.5 -289t268.5 -117zM1044 547h695q-12 156 -98.5 254t-236 98t-247 -99t-113.5 -253z" glyph-name="oe" horiz-adv-x="1925" unicode="œ"/><glyph d="M1188 0h-123l-317 561q-49 -4 -74 -4h-402v-557h-108v1434h510q219 0 346 -122t127 -317q0 -150 -76 -259t-215 -152zM272 664h410q162 0 257 90t95 241.5t-97 241.5t-255 90h-410v-663zM715 1843h129l-203 -278h-84z" glyph-name="Racute" horiz-adv-x="1269" unicode="Ŕ"/><glyph d="M553 1004q20 0 53 -5l-18 -104q-6 0 -17.5 1t-17.5 1q-131 0 -217 -91t-86 -276v-530h-107v987h107v-145q106 162 303 162zM485 1434h129l-202 -279h-84z" glyph-name="racute" horiz-adv-x="634" unicode="ŕ"/><glyph d="M1188 0h-123l-317 561q-49 -4 -74 -4h-402v-557h-108v1434h510q219 0 346 -122t127 -317q0 -150 -76 -259t-215 -152zM272 664h410q162 0 257 90t95 241.5t-97 241.5t-255 90h-410v-663zM573 -158h119l-112 -268h-74z" glyph-name="Rcommaaccent" horiz-adv-x="1269" unicode="Ŗ"/><glyph d="M555 1004q20 0 53 -5l-18 -104q-6 0 -17.5 1t-17.5 1q-131 0 -217 -91t-86 -276v-530h-107v987h107v-145q106 162 303 162zM129 -158h119l-113 -268h-74z" glyph-name="rcommaaccent" horiz-adv-x="634" unicode="ŗ"/><glyph d="M1188 0h-123l-317 561q-49 -4 -74 -4h-402v-557h-108v1434h510q219 0 346 -122t127 -317q0 -150 -76 -259t-215 -152zM272 664h410q162 0 257 90t95 241.5t-97 241.5t-255 90h-410v-663zM784 1843h134l-226 -278h-104l-226 278h134l143 -196z" glyph-name="Rcaron" horiz-adv-x="1269" unicode="Ř"/><glyph d="M553 1004q20 0 53 -5l-18 -104q-6 0 -17.5 1t-17.5 1q-131 0 -217 -91t-86 -276v-530h-107v987h107v-145q106 162 303 162zM514 1434h133l-225 -279h-105l-225 279h133l144 -197z" glyph-name="rcaron" horiz-adv-x="634" unicode="ř"/><glyph d="M649 772q301 -66 410.5 -155t109.5 -250q0 -172 -142 -277.5t-370 -105.5q-186 0 -343.5 78.5t-211.5 242.5l103 35q37 -119 154.5 -184.5t297.5 -65.5q66 0 131.5 14.5t130 44t104.5 86t40 132.5q0 129 -100.5 188t-337.5 115q-109 25 -179.5 48t-150.5 66t-121 111 t-41 160q0 184 135 288.5t334 104.5t332 -84t168 -229l-101 -35q-23 115 -129 178t-272 63q-178 0 -269 -79.5t-91 -206.5q0 -117 97 -176.5t312 -106.5zM774 1843h129l-203 -278h-84z" glyph-name="Sacute" horiz-adv-x="1292" unicode="Ś"/><glyph d="M430 1004q129 0 215 -55.5t117 -151.5l-98 -45q-16 68 -78 106.5t-158 38.5q-106 0 -163.5 -47t-53.5 -133q4 -61 61.5 -95t188.5 -65q78 -18 125 -34.5t104.5 -48.5t85 -84t27.5 -124q0 -135 -101.5 -208.5t-244.5 -73.5q-158 0 -250 63.5t-125 163.5l98 45 q43 -166 277 -166q98 0 168.5 44t70.5 132q0 78 -58 115t-204 72q-168 43 -245.5 100t-84.5 164q-6 129 80 208t246 79zM549 1434h129l-203 -279h-84z" glyph-name="sacute" horiz-adv-x="884" unicode="ś"/><glyph d="M649 772q301 -66 410.5 -155t109.5 -250q0 -172 -142 -277.5t-370 -105.5q-186 0 -343.5 78.5t-211.5 242.5l103 35q37 -119 154.5 -184.5t297.5 -65.5q66 0 131.5 14.5t130 44t104.5 86t40 132.5q0 129 -100.5 188t-337.5 115q-109 25 -179.5 48t-150.5 66t-121 111 t-41 160q0 184 135 288.5t334 104.5t332 -84t168 -229l-101 -35q-23 115 -129 178t-272 63q-178 0 -269 -79.5t-91 -206.5q0 -117 97 -176.5t312 -106.5zM494 1565h-134l226 278h104l225 -278h-133l-143 196z" glyph-name="Scircumflex" horiz-adv-x="1292" unicode="Ŝ"/><glyph d="M430 1004q129 0 215 -55.5t117 -151.5l-98 -45q-16 68 -78 106.5t-158 38.5q-106 0 -163.5 -47t-53.5 -133q4 -61 61.5 -95t188.5 -65q78 -18 125 -34.5t104.5 -48.5t85 -84t27.5 -124q0 -135 -101.5 -208.5t-244.5 -73.5q-158 0 -250 63.5t-125 163.5l98 45 q43 -166 277 -166q98 0 168.5 44t70.5 132q0 78 -58 115t-204 72q-168 43 -245.5 100t-84.5 164q-6 129 80 208t246 79zM289 1155h-133l225 279h104l226 -279h-133l-144 197z" glyph-name="scircumflex" horiz-adv-x="884" unicode="ŝ"/><glyph d="M1169 367q0 -166 -136 -271.5t-349 -111.5l-49 -99q88 12 135 -30.5t47 -108.5q0 -94 -80 -141q-119 -68 -264 22l37 70q61 -43 121.5 -41t89.5 43q23 33 14.5 68.5t-47.5 50.5q-51 18 -92 -11l-68 50l66 129q-172 12 -308 91t-184 228l103 35q37 -119 154.5 -184.5 t297.5 -65.5q92 0 177.5 22.5t156 88t70.5 166.5q0 129 -101.5 188t-334.5 113q-88 20 -143.5 36.5t-129 48t-115.5 68.5t-73 97.5t-31 134.5q0 186 135 290.5t334 104.5t332 -84t168 -229l-101 -35q-25 115 -130 178t-271 63q-178 0 -269 -79.5t-91 -208.5 q0 -115 98 -175.5t311 -105.5q301 -66 410.5 -154.5t109.5 -250.5z" glyph-name="Scedilla" horiz-adv-x="1292" unicode="Ş"/><glyph d="M801 264q0 -125 -92.5 -197.5t-223.5 -82.5l-49 -99q88 12 135 -30.5t47 -108.5q0 -94 -79 -141q-119 -68 -265 22l37 70q61 -43 122 -41t89 43q23 33 14.5 68.5t-47.5 50.5q-51 18 -90 -11l-69 50l65 129q-248 25 -313 223l98 47q39 -166 277 -166q96 0 166.5 43 t70.5 131q0 80 -57 117t-203 72q-168 43 -245.5 100t-84.5 164q-8 129 78 206.5t246 77.5q129 0 217 -55t117 -149l-98 -45q-16 66 -78 104.5t-160 38.5q-104 0 -162.5 -47t-52.5 -131q2 -61 61.5 -95t186.5 -65q61 -14 99 -25.5t90 -35t81 -52t50.5 -75t21.5 -105.5z" glyph-name="scedilla" horiz-adv-x="882" unicode="ş"/><glyph d="M649 772q301 -66 410.5 -155t109.5 -250q0 -172 -142 -277.5t-370 -105.5q-186 0 -343.5 78.5t-211.5 242.5l103 35q37 -119 154.5 -184.5t297.5 -65.5q66 0 131.5 14.5t130 44t104.5 86t40 132.5q0 129 -100.5 188t-337.5 115q-109 25 -179.5 48t-150.5 66t-121 111 t-41 160q0 184 135 288.5t334 104.5t332 -84t168 -229l-101 -35q-23 115 -129 178t-272 63q-178 0 -269 -79.5t-91 -206.5q0 -117 97 -176.5t312 -106.5zM803 1843h133l-225 -278h-105l-225 278h133l143 -196z" glyph-name="Scaron" horiz-adv-x="1292" unicode="Š"/><glyph d="M430 1004q129 0 215 -55.5t117 -151.5l-98 -45q-16 68 -78 106.5t-158 38.5q-106 0 -163.5 -47t-53.5 -133q4 -61 61.5 -95t188.5 -65q78 -18 125 -34.5t104.5 -48.5t85 -84t27.5 -124q0 -135 -101.5 -208.5t-244.5 -73.5q-158 0 -250 63.5t-125 163.5l98 45 q43 -166 277 -166q98 0 168.5 44t70.5 132q0 78 -58 115t-204 72q-168 43 -245.5 100t-84.5 164q-6 129 80 208t246 79zM588 1434h133l-225 -279h-105l-225 279h133l143 -197z" glyph-name="scaron" horiz-adv-x="884" unicode="š"/><glyph d="M1059 1434v-107h-465v-1327h-107v1327h-467v107h1039zM465 -158h119l-113 -268h-74z" glyph-name="Tcommaaccent" horiz-adv-x="1079" unicode="Ţ"/><glyph d="M569 145l60 -82q-63 -55 -149.5 -71.5t-141.5 8.5q-145 55 -145 289v592h-152v106h152v252l106 29v-281h225v-106h-225v-596q0 -156 84 -185q39 -14 93 -2t93 47zM291 -158h119l-113 -268h-74z" glyph-name="tcommaaccent" horiz-adv-x="638" unicode="ţ"/><glyph d="M1059 1434v-107h-465v-1327h-107v1327h-467v107h1039zM684 1843h133l-225 -278h-105l-225 278h133l144 -196z" glyph-name="Tcaron" horiz-adv-x="1079" unicode="Ť"/><glyph d="M569 145l60 -82q-63 -55 -149.5 -71.5t-141.5 8.5q-145 55 -145 289v592h-152v106h152v252l106 29v-281h225v-106h-225v-596q0 -156 84 -185q39 -14 93 -2t93 47zM596 1081l90 344h129l-143 -344h-76z" glyph-name="tcaron" horiz-adv-x="692" unicode="ť"/><glyph d="M1059 1327h-465v-485h346v-107h-346v-735h-107v735h-348v107h348v485h-467v107h1039v-107z" glyph-name="Tbar" horiz-adv-x="1079" unicode="Ŧ"/><glyph d="M559 145l59 -79q-63 -57 -144 -74t-136 8q-143 57 -143 289v223h-95v106h95v263h-154v106h154v254l106 29v-283h225v-106h-225v-263h172v-106h-172v-227q0 -152 82 -185q39 -14 87 -2t89 47z" glyph-name="tbar" horiz-adv-x="638" unicode="ŧ"/><glyph d="M1102 1434h108v-840q0 -299 -147.5 -453.5t-380.5 -154.5q-238 0 -388.5 152.5t-150.5 457.5v838h107v-854q0 -242 122 -365t310 -123q186 0 303 123t117 365v854zM915 1753l95 -27q-20 -80 -65.5 -131t-115 -45t-154.5 68.5t-118 62.5q-66 0 -123 -98l-88 49 q80 158 213 150q55 -4 104.5 -34t89.5 -59.5t68 -33.5q35 -4 56.5 20.5t37.5 77.5z" glyph-name="Utilde" horiz-adv-x="1353" unicode="Ũ"/><glyph d="M786 987h107v-987h-107v147q-106 -162 -297 -161q-197 0 -292 125t-95 346v530h107v-530q0 -365 280 -365q129 0 213 86t84 258v551zM750 1343l94 -26q-20 -80 -65.5 -131t-115 -45t-154.5 68.5t-118 62.5q-66 0 -123 -98l-88 49q80 158 213 149q55 -4 104.5 -33.5 t89.5 -59.5t68 -34q35 -4 57 20.5t38 77.5z" glyph-name="utilde" horiz-adv-x="1015" unicode="ũ"/><glyph d="M1102 1434h108v-840q0 -299 -147.5 -453.5t-380.5 -154.5q-238 0 -388.5 152.5t-150.5 457.5v838h107v-854q0 -242 122 -365t310 -123q186 0 303 123t117 365v854zM420 1796h514v-106h-514v106z" glyph-name="Umacron" horiz-adv-x="1353" unicode="Ū"/><glyph d="M786 987h107v-987h-107v147q-106 -162 -297 -161q-197 0 -292 125t-95 346v530h107v-530q0 -365 280 -365q129 0 213 86t84 258v551zM262 1386h514v-106h-514v106z" glyph-name="umacron" horiz-adv-x="1015" unicode="ū"/><glyph d="M1102 1434h108v-840q0 -299 -147.5 -453.5t-380.5 -154.5q-238 0 -388.5 152.5t-150.5 457.5v838h107v-854q0 -242 122 -365t310 -123q186 0 303 123t117 365v854zM821 1823h97q0 -106 -68 -180t-172 -74q-102 0 -170 69.5t-72 184.5h96q0 -68 41 -113t105 -45 q59 0 101 45t42 113z" glyph-name="Ubreve" horiz-adv-x="1353" unicode="Ŭ"/><glyph d="M786 987h107v-987h-107v147q-106 -162 -297 -161q-197 0 -292 125t-95 346v530h107v-530q0 -365 280 -365q129 0 213 86t84 258v551zM643 1413h96q0 -106 -67.5 -180t-171.5 -74q-102 0 -170 69.5t-72 184.5h96q0 -68 41 -113t105 -45q59 0 101 45t42 113z" glyph-name="ubreve" horiz-adv-x="1015" unicode="ŭ"/><glyph d="M1102 1434h108v-840q0 -299 -147.5 -453.5t-380.5 -154.5q-238 0 -388.5 152.5t-150.5 457.5v838h107v-854q0 -242 122 -365t310 -123q186 0 303 123t117 365v854zM676 1970q88 0 145.5 -58.5t57.5 -144.5t-57.5 -144t-145.5 -58q-86 0 -143.5 58t-57.5 144t57.5 144.5 t143.5 58.5zM676 1651q51 0 84 32.5t33 84t-33 83t-84 31.5q-49 0 -82 -31.5t-33 -83t33 -84t82 -32.5z" glyph-name="Uring" horiz-adv-x="1353" unicode="Ů"/><glyph d="M786 987h107v-987h-107v147q-106 -162 -297 -161q-197 0 -292 125t-95 346v530h107v-530q0 -365 280 -365q129 0 213 86t84 258v551zM502 1561q88 0 145.5 -58.5t57.5 -144.5t-57.5 -144.5t-145.5 -58.5q-86 0 -143.5 58.5t-57.5 144.5t57.5 144.5t143.5 58.5zM502 1241 q51 0 83.5 33t32.5 84t-32.5 83t-83.5 32q-49 0 -82 -32t-33 -83t33 -84t82 -33z" glyph-name="uring" horiz-adv-x="1015" unicode="ů"/><glyph d="M1102 1434h108v-840q0 -299 -147.5 -453.5t-380.5 -154.5q-238 0 -388.5 152.5t-150.5 457.5v838h107v-854q0 -242 122 -365t310 -123q186 0 303 123t117 365v854zM629 1843h129l-203 -278h-84zM913 1843h129l-202 -278h-84z" glyph-name="Uhungarumlaut" horiz-adv-x="1353" unicode="Ű"/><glyph d="M786 987h107v-987h-107v147q-106 -162 -297 -161q-197 0 -292 125t-95 346v530h107v-530q0 -365 280 -365q129 0 213 86t84 258v551zM463 1434h129l-203 -279h-84zM748 1434h129l-203 -279h-84z" glyph-name="uhungarumlaut" horiz-adv-x="1015" unicode="ű"/><glyph d="M1104 1434h106v-834q0 -393 -245 -543q-72 -45 -140.5 -140t-56.5 -161q12 -55 75.5 -64t106.5 29v-118q-45 -18 -94 -19q-80 0 -134 51.5t-46 133.5q6 68 52 133t97 100q-63 -16 -147 -16q-238 0 -386.5 151.5t-148.5 458.5v838h107v-856q0 -242 119.5 -364t308 -122 t307.5 122t119 364v856z" glyph-name="Uogonek" horiz-adv-x="1353" unicode="Ų"/><glyph d="M909 -279v-118q-45 -18 -94 -19q-80 0 -134 51.5t-46 133.5q6 74 55 137t101 94h-5v143q-102 -158 -297 -157q-197 0 -292 125t-95 346v530h107v-530q0 -365 280 -365q131 0 214 86t83 258v551h107v-987h-2q-72 -39 -126 -110.5t-38 -133.5q16 -55 77.5 -64.5t104.5 29.5 z" glyph-name="uogonek" horiz-adv-x="1015" unicode="ų"/><glyph d="M1870 1434h110l-462 -1434h-111l-406 1262l-405 -1262h-111l-465 1434h113l410 -1264l403 1264h111l403 -1264zM858 1565h-133l225 278h105l225 -278h-133l-143 196z" glyph-name="Wcircumflex" horiz-adv-x="2000" unicode="Ŵ"/><glyph d="M1303 987h110l-317 -987h-109l-270 815l-268 -815h-109l-320 987h113l264 -817l271 817h100l270 -817zM573 1155h-133l226 279h104l225 -279h-133l-143 197z" glyph-name="wcircumflex" horiz-adv-x="1454" unicode="ŵ"/><glyph d="M1186 1434l-518 -924v-510h-107v508l-520 926h123l450 -803l449 803h123zM483 1565h-133l225 278h105l225 -278h-133l-143 196z" glyph-name="Ycircumflex" horiz-adv-x="1226" unicode="Ŷ"/><glyph d="M903 987l-362 -967q-92 -248 -156 -327q-90 -117 -274 -88l24 104q106 -14 157.5 42t127.5 251l-371 985h115l311 -837l313 837h115zM346 1155h-133l225 279h105l225 -279h-133l-143 197z" glyph-name="ycircumflex" horiz-adv-x="931" unicode="ŷ"/><glyph d="M1186 1434l-518 -924v-510h-107v508l-520 926h123l450 -803l449 803h123zM469 1772q33 0 54.5 -23t21.5 -53.5t-21.5 -53t-54.5 -22.5q-31 0 -53.5 22.5t-22.5 53t22.5 53.5t53.5 23zM780.5 1772q30.5 0 53 -23t22.5 -53.5t-22.5 -53t-53 -22.5t-53 22.5t-22.5 53 t22.5 53.5t53 23z" glyph-name="Ydieresis" horiz-adv-x="1226" unicode="Ÿ"/><glyph d="M197 106h958v-106h-1094v106l943 1221h-881v107h1014v-107zM723 1843h129l-203 -278h-84z" glyph-name="Zacute" horiz-adv-x="1216" unicode="Ź"/><glyph d="M197 106h626v-106h-762v106l613 775h-586v106h717v-106zM565 1434h129l-202 -279h-84z" glyph-name="zacute" horiz-adv-x="905" unicode="ź"/><glyph d="M197 106h958v-106h-1094v106l943 1221h-881v107h1014v-107zM647 1772q33 0 54.5 -23t21.5 -53.5t-21.5 -53t-54.5 -22.5q-31 0 -52.5 22.5t-21.5 53t21.5 53.5t52.5 23z" glyph-name="Zdotaccent" horiz-adv-x="1216" unicode="Ż"/><glyph d="M197 106h626v-106h-762v106l613 775h-586v106h717v-106zM469 1362q33 0 54.5 -22.5t21.5 -53.5t-21.5 -53.5t-54.5 -22.5q-31 0 -52.5 22.5t-21.5 53.5t21.5 53.5t52.5 22.5z" glyph-name="zdotaccent" horiz-adv-x="905" unicode="ż"/><glyph d="M197 106h958v-106h-1094v106l943 1221h-881v107h1014v-107zM813 1843h133l-225 -278h-105l-225 278h133l144 -196z" glyph-name="Zcaron" horiz-adv-x="1216" unicode="Ž"/><glyph d="M197 106h626v-106h-762v106l613 775h-586v106h717v-106zM614 1434h134l-226 -279h-104l-225 279h133l143 -197z" glyph-name="zcaron" horiz-adv-x="905" unicode="ž"/><glyph d="M1047 106h845v-106h-952v436h-592l-227 -436h-121l750 1434h1130v-107h-833v-557h770v-106h-770v-558zM403 543h537v784h-125zM1118 1843h129l-203 -278h-83z" glyph-name="AEacute" horiz-adv-x="2015" unicode="Ǽ"/><glyph d="M1694 440h-797q16 -152 118.5 -252t254.5 -100q199 0 303 174l92 -45q-133 -231 -395 -231q-141 0 -255 72.5t-175 195.5q-20 -49 -60 -98q-139 -170 -370 -170q-150 0 -239 74.5t-89 197.5q0 133 92 201.5t283 97.5q219 33 271 52.5t52 78.5q0 90 -72.5 149.5 t-195.5 59.5q-135 0 -202.5 -59.5t-82.5 -132.5l-104 24q23 111 120 193t269 82q287 0 356 -216q135 213 392 213q203 0 319.5 -144t116.5 -363q0 -36 -2 -54zM780 424v82q-121 -25 -329 -55q-137 -20 -200 -66.5t-63 -132.5q0 -74 59.5 -117t168.5 -43q139 0 251.5 92.5 t112.5 239.5zM897 547h694q-12 156 -98 254t-233 98q-152 0 -249.5 -99t-113.5 -253zM1020 1434h129l-203 -279h-84z" glyph-name="aeacute" horiz-adv-x="1777" unicode="ǽ"/><glyph d="M1337 1212q176 -203 176 -495q0 -309 -196.5 -520t-497.5 -211q-258 0 -444 159l-164 -180l-80 72l168 184q-176 205 -176 496q0 307 196.5 518t499.5 211q256 0 443 -158l165 182l78 -71zM240 717q0 -233 137 -408l807 893q-156 133 -365 133q-252 0 -415.5 -180 t-163.5 -438zM819 96q250 0 414 181.5t164 439.5q0 233 -137 407l-807 -893q155 -135 366 -135zM942 1843h129l-203 -278h-84z" glyph-name="Oslashacute" horiz-adv-x="1638" unicode="Ǿ"/><glyph d="M1042 952l-114 -129q106 -139 106 -329q0 -215 -133 -361.5t-340 -146.5q-170 0 -297 104l-112 -125l-80 72l116 129q-106 139 -106 328q0 213 135 361.5t344 148.5q166 0 291 -103l113 123zM190 494q0 -141 72 -248l520 577q-88 76 -221 76q-166 0 -268.5 -116.5 t-102.5 -288.5zM926 494q0 139 -72 249l-520 -577q94 -78 227 -78q164 0 264.5 117t100.5 289zM670 1434h129l-203 -279h-84z" glyph-name="oslashacute" horiz-adv-x="1114" unicode="ǿ"/><glyph d="M514 -158h119l-113 -268h-74zM649 772q301 -66 410.5 -155t109.5 -250q0 -172 -142 -277.5t-370 -105.5q-186 0 -343.5 78.5t-211.5 242.5l103 35q37 -119 154.5 -184.5t297.5 -65.5q66 0 131.5 14.5t130 44t104.5 86t40 132.5q0 129 -100.5 188t-337.5 115 q-109 25 -179.5 48t-150.5 66t-121 111t-41 160q0 184 135 288.5t334 104.5t332 -84t168 -229l-101 -35q-23 115 -129 178t-272 63q-178 0 -269 -79.5t-91 -206.5q0 -117 97 -176.5t312 -106.5z" glyph-name="Scommaaccent" horiz-adv-x="1292" unicode="Ș"/><glyph d="M430 1004q129 0 215 -55.5t117 -151.5l-98 -45q-16 68 -78 106.5t-158 38.5q-106 0 -163.5 -47t-53.5 -133q4 -61 61.5 -95t188.5 -65q78 -18 125 -34.5t104.5 -48.5t85 -84t27.5 -124q0 -135 -101.5 -208.5t-244.5 -73.5q-158 0 -250 63.5t-125 163.5l98 45 q43 -166 277 -166q98 0 168.5 44t70.5 132q0 78 -58 115t-204 72q-168 43 -245.5 100t-84.5 164q-6 129 80 208t246 79zM346 -158h119l-113 -268h-73z" glyph-name="scommaaccent" horiz-adv-x="884" unicode="ș"/><glyph d="M1059 1434v-107h-465v-1327h-107v1327h-467v107h1039zM465 -158h119l-113 -268h-74z" glyph-name="uni021A" horiz-adv-x="1079" unicode="Ț"/><glyph d="M569 145l60 -82q-63 -55 -149.5 -71.5t-141.5 8.5q-145 55 -145 289v592h-152v106h152v252l106 29v-281h225v-106h-225v-596q0 -156 84 -185q39 -14 93 -2t93 47zM291 -158h119l-113 -268h-74z" glyph-name="uni021B" horiz-adv-x="638" unicode="ț"/><glyph d="M256 1155h-133l225 279h105l225 -279h-133l-144 197z" glyph-name="circumflex" horiz-adv-x="800" unicode="ˆ"/><glyph d="M545 1434h133l-225 -279h-105l-225 279h133l143 -197z" glyph-name="caron" horiz-adv-x="800" unicode="ˇ"/><glyph d="M508 1413h96q0 -106 -67.5 -180t-171.5 -74q-102 0 -170 69.5t-72 184.5h96q0 -68 41 -113t105 -45q59 0 101 45t42 113z" glyph-name="breve" horiz-adv-x="727" unicode="˘"/><glyph d="M197 1362q33 0 54 -22.5t21 -53.5t-21.5 -53.5t-53.5 -22.5q-31 0 -52.5 22.5t-21.5 53.5t21.5 53.5t52.5 22.5z" glyph-name="dotaccent" horiz-adv-x="395" unicode="˙"/><glyph d="M324 1561q88 0 145 -58.5t57 -144.5t-57 -144.5t-145 -58.5q-86 0 -143.5 58.5t-57.5 144.5t57.5 144.5t143.5 58.5zM324 1241q51 0 83.5 33t32.5 84t-32.5 83t-83.5 32q-49 0 -82 -32t-33 -83t33 -84t82 -33z" glyph-name="ring" horiz-adv-x="649" unicode="˚"/><glyph d="M399 -279v-118q-47 -18 -94 -19q-80 0 -134 51.5t-46 133.5q6 74 56 137t100 94h100q-72 -39 -126 -110.5t-38 -133.5q16 -55 77.5 -64.5t104.5 29.5z" glyph-name="ogonek" horiz-adv-x="522" unicode="˛"/><glyph d="M692 1343l94 -26q-20 -80 -65 -131t-114.5 -45t-154.5 68.5t-118 62.5q-66 0 -123 -98l-88 49q80 158 213 149q55 -4 104 -33.5t89 -59.5t69 -34q35 -4 56.5 20.5t37.5 77.5z" glyph-name="tilde" horiz-adv-x="909" unicode="˜"/><glyph d="M281 1434h129l-203 -279h-84zM565 1434h129l-202 -279h-84z" glyph-name="hungarumlaut" horiz-adv-x="817" unicode="˝"/><glyph d="M422 1661q-31 0 -53.5 22.5t-22.5 53.5q0 33 22.5 54t53.5 21t53.5 -21.5t22.5 -53.5q0 -31 -22.5 -53.5t-53.5 -22.5zM827 1661q-33 0 -54 22.5t-21 53.5q0 33 21.5 54t53.5 21q31 0 53.5 -21.5t22.5 -53.5q0 -31 -22.5 -53.5t-53.5 -22.5zM270 106h846v-106h-952v1434 h940v-107h-834v-557h770v-106h-770v-558z" glyph-name="afii10023" horiz-adv-x="1239" unicode="Ё"/><glyph d="M1300 471v-184q0 -236 -143 -293q-59 -20 -127.5 -7t-128.5 58l57 76q82 -59 152 -29q84 35 84 191v188q0 360 -287 360q-186 0 -315 -141v-690h-107v1327h-465v107h1037v-107h-465v-506q51 45 142 81t173 36q199 0 296 -124t97 -343z" glyph-name="afii10051" horiz-adv-x="1423" unicode="Ђ"/><glyph d="M932 1434v-107h-662v-1327h-106v1434h768zM641 1843h129l-203 -278h-84z" glyph-name="afii10052" horiz-adv-x="952" unicode="Ѓ"/><glyph d="M817 96q156 0 283 74t207 201l102 -52q-90 -156 -244.5 -244.5t-347.5 -88.5q-301 0 -497.5 211t-196.5 520q0 307 196.5 518t497.5 211q193 0 347.5 -89t244.5 -245l-102 -51q-80 127 -207 200.5t-283 73.5q-236 0 -396.5 -162.5t-178.5 -402.5h749v-106h-749 q16 -242 177.5 -405t397.5 -163z" glyph-name="afii10053" horiz-adv-x="1511" unicode="Є"/><glyph d="M649 772q301 -66 410.5 -155t109.5 -250q0 -172 -144 -277.5t-368 -105.5q-186 0 -343.5 78.5t-211.5 242.5l103 35q37 -119 154.5 -184.5t297.5 -65.5q66 0 131.5 14.5t130 44t104.5 86t40 132.5q0 129 -100.5 188t-337.5 115q-109 25 -179.5 48t-150.5 66t-121 111 t-41 160q0 184 135 288.5t334 104.5t332 -84t168 -229l-101 -35q-23 115 -129 178t-272 63q-178 0 -269 -79.5t-91 -206.5q0 -117 97 -176.5t312 -106.5z" glyph-name="afii10054" horiz-adv-x="1292" unicode="Ѕ"/><glyph d="M164 1434h106v-1434h-106v1434z" glyph-name="afii10055" horiz-adv-x="434" unicode="І"/><glyph d="M166 1434h106v-1434h-106v1434zM59 1772q33 0 54.5 -23t21.5 -53.5t-21.5 -53t-54.5 -22.5q-31 0 -53 22.5t-22 53t22 53.5t53 23zM370.5 1772q30.5 0 53 -23t22.5 -53.5t-22.5 -53t-53 -22.5t-53 22.5t-22.5 53t22.5 53.5t53 23z" glyph-name="afii10056" horiz-adv-x="434" unicode="Ї"/><glyph d="M602 1434h107v-1014q0 -221 -92.5 -327.5t-247.5 -106.5q-106 0 -189.5 37.5t-122.5 85.5l72 73q82 -90 231 -90q111 0 176.5 79t65.5 239v1024z" glyph-name="afii10057" horiz-adv-x="872" unicode="Ј"/><glyph d="M1597 877q221 0 346 -122t125 -316.5t-125.5 -316.5t-345.5 -122h-510v1327h-610q0 -254 -8 -430t-31.5 -362.5t-73 -308.5t-124.5 -181q-100 -78 -220 -45l25 102q72 -16 127 27q70 55 114 195.5t60 359.5t20.5 359.5t4.5 369.5v21h823v-557h403zM1606 106 q158 0 255 91.5t97 240.5q0 152 -95.5 242t-256.5 90h-412v-664h412z" glyph-name="afii10058" horiz-adv-x="2170" unicode="Љ"/><glyph d="M1642 770q229 0 350.5 -95t121.5 -283.5t-123 -290t-349 -101.5h-497v664h-875v-664h-106v1434h106v-664h875v664h106v-664h391zM1651 106q164 0 258 70t94 215q0 272 -352 273h-400v-558h400z" glyph-name="afii10059" horiz-adv-x="2215" unicode="Њ"/><glyph d="M913 938q199 0 296.5 -124t97.5 -343v-471h-107v471q0 360 -287 360q-193 0 -321 -141v-690h-107v1327h-465v107h1037v-107h-465v-506q53 45 146 81t175 36z" glyph-name="afii10060" horiz-adv-x="1449" unicode="Ћ"/><glyph d="M1096 0l-537 756l-289 -318v-438h-106v1434h106v-836l760 836h144l-543 -598l596 -836h-131zM727 1843h129l-203 -278h-84z" glyph-name="afii10061" horiz-adv-x="1247" unicode="Ќ"/><glyph d="M1028 1434h115l-461 -1069q-82 -184 -154 -263q-76 -82 -176 -105.5t-164 7.5l31 102q117 -35 196 36t148 218l-543 1074h119l479 -945zM766 1823h96q0 -106 -67.5 -180t-171.5 -74q-102 0 -170 69.5t-72 184.5h96q0 -68 41 -113t105 -45q59 0 101 45t42 113z" glyph-name="afii10062" horiz-adv-x="1122" unicode="Ў"/><glyph d="M1079 1434h107v-1434h-457v-260h-106v260h-459v1434h106v-1328h809v1328z" glyph-name="afii10145" horiz-adv-x="1349" unicode="Џ"/><glyph d="M1112 0l-166 436h-624l-166 -436h-115l547 1434h92l547 -1434h-115zM362 545h543l-272 710z" glyph-name="afii10017" unicode="А"/><glyph d="M717 805q205 0 318.5 -108.5t113.5 -291t-113.5 -294t-316.5 -111.5h-555v1434h842v-107h-736v-522h447zM721 106q143 0 229 82t86 218q0 137 -85 218t-230 81h-451v-599h451z" glyph-name="afii10018" horiz-adv-x="1271" unicode="Б"/><glyph d="M903 772q115 -41 180.5 -138t65.5 -228q0 -182 -113.5 -294t-316.5 -112h-555v1434h514q184 0 288.5 -101.5t104.5 -263.5q0 -96 -45 -175t-123 -122zM682 1327h-410v-516h410q127 0 201.5 69.5t74.5 188.5q0 121 -71.5 189.5t-204.5 68.5zM721 106q143 0 229 82t86 218 q0 137 -85 218t-230 81h-449v-599h449z" glyph-name="afii10019" horiz-adv-x="1271" unicode="В"/><glyph d="M932 1434v-107h-662v-1327h-106v1434h768z" glyph-name="afii10020" horiz-adv-x="952" unicode="Г"/><glyph d="M1217 106h147v-366h-107v260h-1110v-260h-106v366h109q154 139 210 574q33 262 33 715v39h824v-1328zM500 1327q-6 -918 -211 -1221h821v1221h-610z" glyph-name="afii10021" horiz-adv-x="1445" unicode="Д"/><glyph d="M270 106h846v-106h-952v1434h940v-107h-834v-557h770v-106h-770v-558z" glyph-name="afii10022" horiz-adv-x="1239" unicode="Е"/><glyph d="M1866 0l-537 756l-268 -318v-438h-107v438l-266 318l-536 -756h-132l594 836l-540 598h143l737 -836v836h107v-836l739 836h144l-543 -598l596 -836h-131z" glyph-name="afii10024" horiz-adv-x="2017" unicode="Ж"/><glyph d="M817 764q268 -92 268 -356q0 -178 -139 -300t-366 -122q-172 0 -303.5 61.5t-194.5 161.5l96 55q117 -168 402 -168q186 0 290.5 90t104.5 228q0 133 -100.5 210.5t-294.5 77.5h-203v107h203q156 0 237.5 79t81.5 193q0 113 -82 183.5t-244 70.5q-152 0 -255 -69.5 t-136 -153.5l-98 29q27 104 165 204.5t324 100.5q205 0 322 -103.5t117 -257.5q0 -102 -53.5 -188t-141.5 -133z" glyph-name="afii10025" horiz-adv-x="1198" unicode="З"/><glyph d="M1155 1434h100v-1434h-106v1253l-883 -1253h-102v1434h106v-1244z" glyph-name="afii10026" horiz-adv-x="1419" unicode="И"/><glyph d="M719 1563q-121 0 -186.5 77.5t-65.5 176.5h94q0 -68 45 -114t112.5 -46t114 46t46.5 114h94q0 -98 -66.5 -176t-187.5 -78zM1155 1434h100v-1434h-106v1253l-883 -1253h-102v1434h106v-1244z" glyph-name="afii10027" horiz-adv-x="1419" unicode="Й"/><glyph d="M1096 0l-537 756l-289 -318v-438h-106v1434h106v-836l760 836h144l-543 -598l596 -836h-131z" glyph-name="afii10028" horiz-adv-x="1247" unicode="К"/><glyph d="M371 1434h823v-1434h-107v1327h-610q0 -254 -8 -430t-31.5 -361.5t-73 -307.5t-124.5 -181q-100 -80 -220 -47l25 104q74 -16 127 25q70 55 114 195.5t60 360.5t20.5 360.5t4.5 367.5v21z" glyph-name="afii10029" horiz-adv-x="1357" unicode="Л"/><glyph d="M1468 1434h101v-1434h-107v1229l-559 -873h-74l-559 873v-1229h-106v1434h100l602 -947z" glyph-name="afii10030" horiz-adv-x="1732" unicode="М"/><glyph d="M1145 1434h106v-1434h-106v664h-875v-664h-106v1434h106v-664h875v664z" glyph-name="afii10031" horiz-adv-x="1415" unicode="Н"/><glyph d="M819 1446q303 0 500 -211t197 -518q0 -309 -197 -520t-500 -211t-499.5 211t-196.5 520q0 307 196.5 518t499.5 211zM819 96q250 0 414 181.5t164 439.5t-164 438t-414 180t-413.5 -180t-163.5 -438t163.5 -439.5t413.5 -181.5z" glyph-name="afii10032" horiz-adv-x="1638" unicode="О"/><glyph d="M164 1434h1087v-1434h-106v1327h-875v-1327h-106v1434z" glyph-name="afii10033" horiz-adv-x="1415" unicode="П"/><glyph d="M668 1434q219 0 348 -122t129 -316.5t-127 -316.5t-350 -122h-398v-557h-106v1434h504zM682 664q162 0 257 90t95 241.5t-97 241.5t-255 90h-412v-663h412z" glyph-name="afii10034" unicode="Р"/><glyph d="M819 96q154 0 282 74t206 201l104 -52q-92 -154 -246.5 -243.5t-345.5 -89.5q-303 0 -499.5 211t-196.5 520q0 307 196.5 518t499.5 211q190 0 345 -89t247 -245l-104 -51q-78 127 -205 200.5t-283 73.5q-250 0 -413.5 -180t-163.5 -438t163.5 -439.5t413.5 -181.5z" glyph-name="afii10035" horiz-adv-x="1513" unicode="С"/><glyph d="M1059 1434v-107h-465v-1327h-107v1327h-467v107h1039z" glyph-name="afii10036" horiz-adv-x="1079" unicode="Т"/><glyph d="M1049 1434h114l-461 -1069q-82 -184 -153 -263q-76 -82 -176.5 -105.5t-163.5 7.5l31 102q117 -35 195.5 36t148.5 218l-543 1074h119l479 -945z" glyph-name="afii10037" horiz-adv-x="1142" unicode="У"/><glyph d="M1634 716.5q0 -278.5 -198.5 -435t-503.5 -168.5v-172h-107v172q-305 12 -503.5 168.5t-198.5 435t198.5 436.5t503.5 170v170h107v-170q305 -12 503.5 -170t198.5 -436.5zM242 717q0 -227 164.5 -354t418.5 -140v987q-254 -12 -418.5 -138t-164.5 -355zM932 223 q254 12 419 139t165 355q0 229 -165 355t-419 138v-987z" glyph-name="afii10038" horiz-adv-x="1757" unicode="Ф"/><glyph d="M1200 0h-131l-448 643l-449 -643h-131l514 737l-487 697h131l422 -603l421 603h132l-488 -697z" glyph-name="afii10039" horiz-adv-x="1241" unicode="Х"/><glyph d="M1186 106h176v-366h-107v260h-1091v1434h106v-1328h809v1328h107v-1328z" glyph-name="afii10040" horiz-adv-x="1443" unicode="Ц"/><glyph d="M1051 1434h106v-1434h-106v647q-168 -150 -435 -149q-88 0 -168.5 25.5t-150.5 79.5t-112 151.5t-42 224.5v455h107v-453q0 -190 100.5 -283.5t265.5 -93.5q274 0 435 172v658z" glyph-name="afii10041" horiz-adv-x="1320" unicode="Ч"/><glyph d="M1757 1434h107v-1434h-1700v1434h106v-1328h691v1328h106v-1328h690v1328z" glyph-name="afii10042" horiz-adv-x="2027" unicode="Ш"/><glyph d="M1866 106h176v-366h-107v260h-1771v1434h108v-1328h689v1328h2h104h2v-1328h688v1328h109v-1328z" glyph-name="afii10043" horiz-adv-x="2123" unicode="Щ"/><glyph d="M809 877q223 0 348 -122t125 -316.5t-127 -316.5t-346 -122h-508v1327h-260v107h367v-557h401zM817 106q158 0 255 91.5t97 240.5q0 152 -95 242t-257 90h-409v-664h409z" glyph-name="afii10044" horiz-adv-x="1404" unicode="Ъ"/><glyph d="M674 877q221 0 346 -122t125 -316.5t-126 -316.5t-345 -122h-510v1434h106v-557h404zM682 106q158 0 255 91.5t97 240.5q0 152 -95 242t-257 90h-412v-664h412zM1372 1434h107v-1434h-107v1434z" glyph-name="afii10045" horiz-adv-x="1642" unicode="Ы"/><glyph d="M674 877q223 0 348 -122t125 -316.5t-127 -316.5t-346 -122h-510v1434h108v-557h402zM682 106q158 0 255 91.5t97 240.5q0 152 -95 242t-257 90h-410v-664h410z" glyph-name="afii10046" horiz-adv-x="1269" unicode="Ь"/><glyph d="M694 1446q301 0 498 -211t197 -518q0 -309 -197 -520t-498 -211q-193 0 -347 89t-245 244l103 52q80 -127 207 -201t282 -74q238 0 398.5 163t177.5 405h-750v106h750q-18 240 -179 402.5t-397 162.5q-156 0 -282.5 -73.5t-206.5 -200.5l-103 51q90 156 244.5 245 t347.5 89z" glyph-name="afii10047" horiz-adv-x="1511" unicode="Э"/><glyph d="M1315 1446q303 0 499.5 -211t196.5 -518q0 -309 -196.5 -520t-499.5 -211q-287 0 -481.5 193.5t-212.5 484.5h-351v-664h-106v1434h106v-664h351q18 291 211.5 483.5t482.5 192.5zM1315 96q250 0 413.5 181.5t163.5 439.5t-163.5 438t-413.5 180t-414 -180t-164 -438 t164 -439.5t414 -181.5z" glyph-name="afii10048" horiz-adv-x="2134" unicode="Ю"/><glyph d="M582 1434h508v-1434h-107v557h-401q-27 0 -80 4l-318 -561h-123l332 586q-137 45 -210.5 153.5t-73.5 255.5q0 195 127 317t346 122zM573 664h410v663h-410q-158 0 -255 -90t-97 -241.5t95 -241.5t257 -90z" glyph-name="afii10049" horiz-adv-x="1253" unicode="Я"/><glyph d="M512 1004q166 0 269.5 -84t103.5 -256v-664h-107v156q-145 -170 -368 -170q-152 0 -240 74.5t-88 199.5q0 133 92 201.5t283 95.5q217 33 269 52.5t52 78.5q0 90 -71.5 150.5t-194.5 60.5q-137 0 -204.5 -59.5t-80.5 -134.5l-104 24q23 111 120 193t269 82zM778 424v82 q-113 -25 -327 -55q-135 -18 -199 -64.5t-64 -132.5q0 -76 59.5 -119t168.5 -43q137 0 249.5 92.5t112.5 239.5z" glyph-name="afii10065" horiz-adv-x="1028" unicode="а"/><glyph d="M549 987q207 0 328.5 -139t121.5 -354t-128 -361.5t-334 -146.5q-186 0 -306 122.5t-139 315.5q-16 90 -6 259t45 284q92 299 334 428q72 37 213 84q129 39 192 96l76 -74q-74 -72 -235 -125q-127 -39 -195 -76q-279 -152 -328 -501q136 188 361 188zM537 88 q164 0 259 115.5t95 290t-92 283t-256 108.5t-255 -108.5t-91 -282.5q0 -176 89 -291t251 -115z" glyph-name="afii10066" horiz-adv-x="1081" unicode="б"/><glyph d="M762 512q158 -61 158 -238q0 -121 -85 -197.5t-212 -76.5h-480v987h426q137 0 217 -74.5t80 -197.5q0 -135 -104 -203zM569 881h-319v-334h319q80 0 132.5 42t52.5 126q0 82 -50.5 124t-134.5 42zM623 106q80 0 132 42t52 126q0 82 -50 124t-134 42h-373v-334h373z" glyph-name="afii10067" horiz-adv-x="1021" unicode="в"/><glyph d="M752 987v-106h-523v-881h-106v987h629z" glyph-name="afii10068" horiz-adv-x="813" unicode="г"/><glyph d="M899 106h145v-348h-106v242h-811v-242h-107v348h95q168 203 168 844v37h616v-881zM244 106h549v775h-404q-6 -525 -145 -775z" glyph-name="afii10069" horiz-adv-x="1126" unicode="д"/><glyph d="M989 440h-796q16 -152 119.5 -252t254.5 -100q195 0 303 180l93 -45q-63 -109 -165 -173t-231 -64q-209 0 -347 147.5t-138 360.5q0 215 133 362.5t340 147.5q203 0 319.5 -144.5t116.5 -365.5q0 -36 -2 -54zM193 547h694q-12 158 -98.5 256t-233.5 98q-152 0 -249 -99 t-113 -255z" glyph-name="afii10070" horiz-adv-x="1073" unicode="е"/><glyph d="M1384 0l-368 514l-193 -225v-289h-106v289l-191 225l-374 -514h-132l433 594l-367 393h145l486 -541v541h106v-541l486 541h145l-364 -393l428 -594h-134z" glyph-name="afii10072" horiz-adv-x="1538" unicode="ж"/><glyph d="M584 506q80 -25 136 -81t56 -149q0 -121 -98 -205.5t-270 -84.5q-133 0 -237.5 54t-150.5 126l86 51q37 -51 114 -91t173 -40q125 0 197 52t72 134q0 172 -267 172h-114v109h139q94 0 149.5 45t55.5 131q0 84 -65.5 128t-162.5 44q-162 0 -270 -117l-68 68 q137 150 338 149q147 0 240.5 -75.5t93.5 -196.5q0 -155 -147 -223z" glyph-name="afii10073" horiz-adv-x="858" unicode="з"/><glyph d="M848 987h102v-987h-108v807l-598 -807h-101v987h107v-811z" glyph-name="afii10074" horiz-adv-x="1093" unicode="и"/><glyph d="M561 1108q-121 0 -187.5 78t-66.5 174h94q0 -68 45.5 -113t114.5 -45q68 0 113 45t45 113h94q0 -96 -66.5 -174t-185.5 -78zM848 987h102v-987h-108v807l-598 -807h-101v987h107v-811z" glyph-name="afii10075" horiz-adv-x="1093" unicode="й"/><glyph d="M831 0l-370 514l-211 -225v-289h-107v987h107v-541l504 541h145l-364 -393l428 -594h-132z" glyph-name="afii10076" horiz-adv-x="983" unicode="к"/><glyph d="M268 987h617v-987h-107v881h-403q-2 -362 -36 -561t-126 -277q-76 -66 -193 -43l21 106q68 -14 104 19q74 61 98.5 265t24.5 532v65z" glyph-name="afii10077" horiz-adv-x="1028" unicode="л"/><glyph d="M1075 987h94v-987h-106v788l-371 -538h-71l-371 538v-788h-107v987h95l417 -616z" glyph-name="afii10078" horiz-adv-x="1312" unicode="м"/><glyph d="M844 987h106v-987h-106v440h-594v-440h-107v987h107v-440h594v440z" glyph-name="afii10079" horiz-adv-x="1093" unicode="н"/><glyph d="M559 1004q209 0 341 -147.5t132 -362.5t-132 -361.5t-341 -146.5q-207 0 -342 147.5t-135 360.5t135 361.5t342 148.5zM559 88q164 0 264.5 117t100.5 289q0 174 -99.5 289.5t-265.5 115.5q-164 0 -266.5 -116.5t-102.5 -288.5t102.5 -289t266.5 -117z" glyph-name="afii10080" horiz-adv-x="1114" unicode="о"/><glyph d="M143 987h805v-987h-106v881h-592v-881h-107v987z" glyph-name="afii10081" horiz-adv-x="1091" unicode="п"/><glyph d="M588 1004q207 0 337 -147.5t130 -362.5t-130 -361.5t-337 -146.5q-233 0 -359 192v-624h-106v1433h106v-176q126 193 359 193zM588 88q164 0 261 117t97 289q0 174 -97 289.5t-261 115.5q-162 0 -257 -115.5t-95 -290t95 -290t257 -115.5z" glyph-name="afii10082" horiz-adv-x="1136" unicode="р"/><glyph d="M561 88q203 0 309 174l93 -45q-61 -106 -166 -168.5t-236 -62.5q-207 0 -343 147.5t-136 360.5q0 215 136 362.5t343 147.5q131 0 235.5 -62.5t166.5 -169.5l-93 -45q-106 174 -309 174q-166 0 -268.5 -117.5t-102.5 -289.5t102.5 -289t268.5 -117z" glyph-name="afii10083" horiz-adv-x="1044" unicode="с"/><glyph d="M846 987v-106h-340v-881h-107v881h-338v106h785z" glyph-name="afii10084" horiz-adv-x="907" unicode="т"/><glyph d="M903 987l-362 -967q-92 -248 -156 -327q-90 -117 -274 -88l24 104q106 -14 157.5 42t127.5 251l-371 985h115l311 -837l313 837h115z" glyph-name="afii10085" horiz-adv-x="931" unicode="у"/><glyph d="M1260 494q0 -219 -142.5 -355.5t-394.5 -150.5v-434h-107v434q-252 14 -393 150t-141 356q0 221 141.5 357t392.5 150v433h107v-433q252 -14 394.5 -150t142.5 -357zM190 493.5q0 -182.5 112 -287t314 -116.5v807q-203 -12 -314.5 -116.5t-111.5 -287zM723 90 q203 12 315.5 116.5t112.5 287t-112.5 287t-315.5 116.5v-807z" glyph-name="afii10086" horiz-adv-x="1341" unicode="ф"/><glyph d="M901 0h-131l-299 418l-299 -418h-131l365 508l-343 479h132l276 -387l279 387h131l-344 -479z" glyph-name="afii10087" horiz-adv-x="942" unicode="х"/><glyph d="M932 106h145v-348h-106v242h-828v987h107v-881h575v881h107v-881z" glyph-name="afii10088" horiz-adv-x="1159" unicode="ц"/><glyph d="M741 987h107v-987h-107v395q-150 -88 -303 -88q-178 0 -267 93.5t-89 322.5v264h106v-264q0 -162 57.5 -235.5t192.5 -73.5q172 0 303 92v481z" glyph-name="afii10089" horiz-adv-x="991" unicode="ч"/><glyph d="M1294 987h107v-987h-1258v987h107v-881h469v881h106v-881h469v881z" glyph-name="afii10090" horiz-adv-x="1544" unicode="ш"/><glyph d="M1399 106h145v-348h-106v242h-1295v987h107v-881h467v881h106v-881h469v881h107v-881z" glyph-name="afii10091" horiz-adv-x="1626" unicode="щ"/><glyph d="M682 641q158 0 253 -87t95 -235q0 -143 -98 -231t-250 -88h-399v881h-242v106h348v-346h293zM682 106q106 0 171 56.5t65 157t-63.5 156.5t-172.5 56h-293v-426h293z" glyph-name="afii10092" horiz-adv-x="1112" unicode="ъ"/><glyph d="M1044 987h107v-987h-107v987zM541 641q160 0 255 -87t95 -235q0 -143 -99.5 -231t-250.5 -88h-398v987h107v-346h291zM541 106q106 0 171.5 56.5t65.5 157t-64.5 156.5t-172.5 56h-291v-426h291z" glyph-name="afii10093" horiz-adv-x="1294" unicode="ы"/><glyph d="M541 641q160 0 255 -87t95 -235q0 -143 -98.5 -231t-251.5 -88h-398v987h107v-346h291zM541 106q106 0 171.5 56.5t65.5 157t-64.5 156.5t-172.5 56h-291v-426h291z" glyph-name="afii10094" horiz-adv-x="993" unicode="ь"/><glyph d="M483 1001q209 0 344.5 -147t135.5 -360t-135.5 -360.5t-344.5 -147.5q-131 0 -234.5 62.5t-166.5 168.5l94 45q100 -174 307 -174q152 0 252.5 99.5t116.5 252.5h-494v107h494q-16 154 -116.5 253t-252.5 99q-207 0 -307 -172l-94 43q63 106 166.5 168.5t234.5 62.5z" glyph-name="afii10095" horiz-adv-x="1044" unicode="э"/><glyph d="M965 1001q207 0 340 -146t133 -361t-133.5 -361.5t-339.5 -146.5q-195 0 -328 130t-150 324h-237v-440h-107v987h107v-440h237q16 195 149.5 324.5t328.5 129.5zM965 88q164 0 264 117t100 289q0 174 -100.5 289.5t-263.5 115.5q-166 0 -268.5 -116.5t-102.5 -288.5 t102.5 -289t268.5 -117z" glyph-name="afii10096" horiz-adv-x="1519" unicode="ю"/><glyph d="M440 987h400v-987h-107v348h-293q-39 0 -57 2l-199 -350h-123l215 379q-184 74 -184 289q0 145 98 232t250 87zM440 455h293v426h-293q-106 0 -170.5 -56.5t-64.5 -157t63 -156.5t172 -56z" glyph-name="afii10097" horiz-adv-x="983" unicode="я"/><glyph d="M352.5 1143q-30.5 0 -53.5 22.5t-23 53.5q0 33 23 54t53.5 21t53 -21.5t22.5 -53.5q0 -31 -22.5 -53.5t-53 -22.5zM727 1143q-33 0 -54.5 22.5t-21.5 53.5q0 33 21.5 54t54.5 21q31 0 52.5 -21.5t21.5 -53.5q0 -31 -21.5 -53.5t-52.5 -22.5zM989 440h-796 q16 -152 119.5 -252t254.5 -100q195 0 303 180l93 -45q-63 -109 -165 -173t-231 -64q-209 0 -347 147.5t-138 360.5q0 215 133 362.5t340 147.5q203 0 319.5 -144.5t116.5 -365.5q0 -36 -2 -54zM193 547h694q-12 158 -98.5 256t-233.5 98q-152 0 -249 -99t-113 -255z" glyph-name="afii10071" horiz-adv-x="1073" unicode="ё"/><glyph d="M938 530v-624q0 -238 -143 -291q-125 -49 -256 51l59 74q78 -59 152 -27q82 37 81 191v626q0 365 -280 365q-131 0 -214 -90t-83 -275v-530h-107v1155h-147v107h147v172h107v-172h233v-107h-233v-311q102 158 297 157q199 0 293 -125t94 -346z" glyph-name="afii10099" horiz-adv-x="1081" unicode="ђ"/><glyph d="M752 987v-106h-523v-881h-106v987h629zM553 1434h129l-203 -279h-84z" glyph-name="afii10100" horiz-adv-x="813" unicode="ѓ"/><glyph d="M561 88q205 0 307 174l95 -45q-63 -106 -167 -168.5t-235 -62.5q-209 0 -344 147.5t-135 360.5t135 360t344 147q131 0 234.5 -61t167.5 -168l-95 -45q-100 172 -307 172q-152 0 -252 -99.5t-116 -252.5h493v-107h-493q16 -154 116 -253t252 -99z" glyph-name="afii10101" horiz-adv-x="1044" unicode="є"/><glyph d="M430 1004q129 0 215 -55.5t117 -151.5l-98 -45q-16 68 -78 106.5t-158 38.5q-106 0 -163.5 -47t-53.5 -133q4 -61 61.5 -95t188.5 -65q78 -18 125 -34.5t104.5 -48.5t85 -84t27.5 -124q0 -135 -101.5 -208.5t-244.5 -73.5q-158 0 -250 63.5t-125 163.5l98 45 q43 -166 277 -166q98 0 168.5 44t70.5 132q0 78 -58 115t-204 72q-168 43 -245.5 100t-84.5 164q-6 129 80 208t246 79z" glyph-name="afii10102" horiz-adv-x="884" unicode="ѕ"/><glyph d="M145 0v987h107v-987h-107zM199 1327q31 0 53 -21.5t22 -54.5q0 -31 -22.5 -53t-52.5 -22q-33 0 -54.5 22.5t-21.5 52.5q0 33 21.5 54.5t54.5 21.5z" glyph-name="afii10103" horiz-adv-x="417" unicode="і"/><glyph d="M141 0v987h107v-987h-107zM39 1362q33 0 54.5 -22.5t21.5 -53.5t-21.5 -53.5t-54.5 -22.5q-31 0 -53.5 22.5t-22.5 53.5t22.5 53.5t53.5 22.5zM350 1362q31 0 53.5 -22.5t22.5 -53.5t-22.5 -53.5t-53.5 -22.5t-53.5 22.5t-22.5 53.5t22.5 53.5t53.5 22.5z" glyph-name="afii10104" horiz-adv-x="417" unicode="ї"/><glyph d="M211 987h106v-1149q0 -242 -153 -287q-51 -18 -128 -4.5t-134 56.5l57 78q33 -23 78 -31t78 0q96 20 96 186v1151zM264 1327q31 0 53.5 -21.5t22.5 -54.5q0 -31 -22.5 -53t-53.5 -22q-33 0 -54.5 22.5t-21.5 52.5q0 33 21.5 54.5t54.5 21.5z" glyph-name="afii10105" horiz-adv-x="503" unicode="ј"/><glyph d="M1169 641q160 0 255.5 -87t95.5 -235q0 -143 -98.5 -231t-252.5 -88h-397v881h-397q-2 -365 -36 -563.5t-126 -274.5q-76 -66 -193 -43l21 106q68 -14 104 19q74 61 98.5 265t24.5 532v65h611v-346h290zM1169 106q106 0 172 56.5t66 157t-64.5 156.5t-173.5 56h-290v-426 h290z" glyph-name="afii10106" horiz-adv-x="1622" unicode="љ"/><glyph d="M1223 547q162 0 253 -68.5t91 -200t-95.5 -205t-248.5 -73.5h-381v440h-592v-440h-107v987h107v-440h592v440h108v-440h273zM1223 106q231 0 231 173q0 90 -58.5 125.5t-172.5 35.5h-273v-334h273z" glyph-name="afii10107" horiz-adv-x="1689" unicode="њ"/><glyph d="M551 1001q197 0 292 -124.5t95 -346.5v-530h-107v530q0 365 -280 365q-131 0 -214 -89t-83 -276v-530h-107v1155h-147v107h147v172h107v-172h233v-107h-233v-311q102 157 297 157z" glyph-name="afii10108" horiz-adv-x="1081" unicode="ћ"/><glyph d="M831 0l-370 514l-211 -225v-289h-107v987h107v-541l504 541h145l-364 -393l428 -594h-132zM590 1434h129l-203 -279h-84z" glyph-name="afii10109" horiz-adv-x="983" unicode="ќ"/><glyph d="M903 987l-362 -967q-92 -248 -156 -327q-90 -117 -274 -88l24 104q106 -14 157.5 42t127.5 251l-371 985h115l311 -837l313 837h115zM627 1413h96q0 -106 -67.5 -180t-172.5 -74q-102 0 -169.5 69.5t-71.5 184.5h96q0 -68 41 -113t104 -45q59 0 101.5 45t42.5 113z" glyph-name="afii10110" horiz-adv-x="931" unicode="ў"/><glyph d="M825 987h107v-987h-342v-242h-107v242h-340v987h107v-881h575v881z" glyph-name="afii10193" horiz-adv-x="1075" unicode="џ"/><glyph d="M825 1694h107v-367h-662v-1327h-106v1434h661v260z" glyph-name="afii10050" horiz-adv-x="952" unicode="Ґ"/><glyph d="M645 1231h107v-350h-523v-881h-106v987h522v244z" glyph-name="afii10098" horiz-adv-x="813" unicode="ґ"/><glyph d="M1870 1434h110l-462 -1434h-111l-406 1262l-405 -1262h-111l-465 1434h113l410 -1264l403 1264h111l403 -1264zM881 1843l157 -278h-84l-202 278h129z" glyph-name="Wgrave" horiz-adv-x="2000" unicode="Ẁ"/><glyph d="M1303 987h110l-317 -987h-109l-270 815l-268 -815h-109l-320 987h113l264 -817l271 817h100l270 -817zM598 1434l158 -279h-84l-203 279h129z" glyph-name="wgrave" horiz-adv-x="1454" unicode="ẁ"/><glyph d="M1870 1434h110l-462 -1434h-111l-406 1262l-405 -1262h-111l-465 1434h113l410 -1264l403 1264h111l403 -1264zM1141 1843h129l-203 -278h-84z" glyph-name="Wacute" horiz-adv-x="2000" unicode="Ẃ"/><glyph d="M1303 987h110l-317 -987h-109l-270 815l-268 -815h-109l-320 987h113l264 -817l271 817h100l270 -817zM850 1434h129l-203 -279h-84z" glyph-name="wacute" horiz-adv-x="1454" unicode="ẃ"/><glyph d="M1870 1434h110l-462 -1434h-111l-406 1262l-405 -1262h-111l-465 1434h113l410 -1264l403 1264h111l403 -1264zM846 1772q33 0 54.5 -23t21.5 -53.5t-21.5 -53t-54.5 -22.5q-31 0 -53.5 22.5t-22.5 53t22.5 53.5t53.5 23zM1157 1772q31 0 53.5 -23t22.5 -53.5t-22.5 -53 t-53.5 -22.5t-53.5 22.5t-22.5 53t22.5 53.5t53.5 23z" glyph-name="Wdieresis" horiz-adv-x="2000" unicode="Ẅ"/><glyph d="M1303 987h110l-317 -987h-109l-270 815l-268 -815h-109l-320 987h113l264 -817l271 817h100l270 -817zM561 1362q33 0 54.5 -22.5t21.5 -53.5t-21.5 -53.5t-54.5 -22.5q-31 0 -53.5 22.5t-22.5 53.5t22.5 53.5t53.5 22.5zM872.5 1362q30.5 0 53 -22.5t22.5 -53.5 t-22.5 -53.5t-53 -22.5t-53 22.5t-22.5 53.5t22.5 53.5t53 22.5z" glyph-name="wdieresis" horiz-adv-x="1454" unicode="ẅ"/><glyph d="M690 903q215 -25 325.5 -144.5t110.5 -297.5q0 -205 -140 -340t-406 -135v106q215 0 327.5 105.5t112.5 263t-105.5 253t-334.5 95.5v100l288 418h-305q-272 0 -272 -395v-932h-107v954q0 225 100.5 352.5t278.5 127.5h418v-107z" glyph-name="uni1E9E" horiz-adv-x="1249" unicode="ẞ"/><glyph d="M1186 1434l-518 -924v-510h-107v508l-520 926h123l450 -803l449 803h123zM494 1843l157 -278h-84l-202 278h129z" glyph-name="Ygrave" horiz-adv-x="1226" unicode="Ỳ"/><glyph d="M903 987l-362 -967q-92 -248 -156 -327q-90 -117 -274 -88l24 104q106 -14 157.5 42t127.5 251l-371 985h115l311 -837l313 837h115zM373 1434l157 -279h-84l-202 279h129z" glyph-name="ygrave" horiz-adv-x="931" unicode="ỳ"/><glyph d="M143 682h795v-107h-795v107z" glyph-name="endash" horiz-adv-x="1081" unicode="–"/><glyph d="M143 682h973v-107h-973v107z" glyph-name="emdash" horiz-adv-x="1259" unicode="—"/><glyph d="M102 1102l144 344h73l-88 -344h-129z" glyph-name="quoteleft" horiz-adv-x="401" unicode="‘"/><glyph d="M102 1102l91 344h129l-144 -344h-76z" glyph-name="quoteright" horiz-adv-x="403" unicode="’"/><glyph d="M102 -324l91 344h129l-144 -344h-76z" glyph-name="quotesinglbase" horiz-adv-x="403" unicode="‚"/><glyph d="M489 1446h76l-88 -344h-129zM102 1102l144 344h73l-88 -344h-129z" glyph-name="quotedblleft" horiz-adv-x="647" unicode="“"/><glyph d="M102 1102l91 344h129l-144 -344h-76zM436 1446h129l-141 -344h-76z" glyph-name="quotedblright" horiz-adv-x="647" unicode="”"/><glyph d="M102 -324l91 344h129l-144 -344h-76zM436 20h129l-141 -344h-76z" glyph-name="quotedblbase" horiz-adv-x="647" unicode="„"/><glyph d="M797 1061v-107h-314v-954h-106v954h-316v107h316v373h106v-373h314z" glyph-name="dagger" horiz-adv-x="858" unicode="†"/><glyph d="M797 954h-314v-473h314v-106h-314v-375h-106v375h-316v106h316v473h-316v107h316v373h106v-373h314v-107z" glyph-name="daggerdbl" horiz-adv-x="858" unicode="‡"/><glyph d="M137 133q31 0 53.5 -22.5t22.5 -53t-22.5 -53t-53.5 -22.5q-33 0 -54.5 22.5t-21.5 53t21.5 53t54.5 22.5zM485 133q31 0 53.5 -22.5t22.5 -53t-22.5 -53t-53.5 -22.5q-33 0 -54 22.5t-21 53t21 53t54 22.5zM834 133q31 0 53 -22.5t22 -53t-22.5 -53t-52.5 -22.5 q-33 0 -54.5 22.5t-21.5 53t21.5 53t54.5 22.5z" glyph-name="ellipsis" horiz-adv-x="991" unicode="…"/><glyph d="M1096 1434h125l-895 -1434h-127zM627 1153q0 -125 -84 -209t-209 -84t-209 84t-84 209t84 209t209 84t209 -84t84 -209zM141 1153q0 -84 54.5 -138t138.5 -54t138 54t54 138t-54 138.5t-138 54.5t-138.5 -54.5t-54.5 -138.5zM1081 571q125 0 209 -84t84 -208.5 t-84 -208.5t-209 -84t-209 84t-84 208.5t84 208.5t209 84zM1081 86q82 0 137.5 55.5t55.5 137t-55.5 137t-137.5 55.5t-137 -55.5t-55 -137t55 -137t137 -55.5zM1786 571q125 0 209 -84t84 -208.5t-84 -208.5t-209 -84t-209 84t-84 208.5t84 208.5t209 84zM1786 86 q82 0 137 55.5t55 137t-55 137t-137 55.5t-137.5 -55.5t-55.5 -137t55.5 -137t137.5 -55.5z" glyph-name="perthousand" horiz-adv-x="2201" unicode="‰"/><glyph d="M483 870l-229 -321l229 -322h-133l-227 322l227 321h133z" glyph-name="guilsinglleft" horiz-adv-x="606" unicode="‹"/><glyph d="M254 870l229 -321l-229 -322h-131l227 322l-227 321h131z" glyph-name="guilsinglright" horiz-adv-x="606" unicode="›"/><glyph d="M934 96q156 0 282.5 74t206.5 201l103 -52q-92 -154 -247 -243.5t-345 -89.5q-254 0 -437.5 153.5t-238.5 397.5h-197l60 106h121q-2 25 -2 74q0 47 2 71h-181l60 107h137q55 244 238.5 397.5t437.5 153.5q193 0 347.5 -89t244.5 -245l-103 -51q-78 127 -205.5 200.5 t-283.5 73.5q-203 0 -352.5 -122.5t-202.5 -317.5h833l-59 -107h-793q-4 -49 -4 -71q0 -25 4 -74h713l-59 -106h-635q53 -195 202.5 -318t352.5 -123z" glyph-name="Euro" horiz-adv-x="1607" unicode="€"/><glyph d="M784 557h-397v-156h539v-106h-539v-295h-106v295h-179v106h179v156h-179v107h179v770h503q219 0 348.5 -122t129.5 -316.5t-127.5 -316.5t-350.5 -122zM387 1327v-663h412q162 0 257 90t95 241.5t-97.5 241.5t-254.5 90h-412z" glyph-name="uni20BD" horiz-adv-x="1343" unicode="₽"/><glyph d="M1149 190v1244h106v-1434h-100l-885 1253v-1253h-106v1434h100zM1741 860q-125 0 -209 84t-84 209t84 209t209 84t209 -84t84 -209t-84 -209t-209 -84zM1741 1346q-82 0 -137.5 -54.5t-55.5 -138.5t55.5 -138t137.5 -54t137 54t55 138t-55 138.5t-137 54.5zM1454 602v107 h580v-107h-580z" glyph-name="afii61352" horiz-adv-x="2156" unicode="№"/><glyph d="M143 682h795v-107h-795v107z" glyph-name="minus" horiz-adv-x="1081" unicode="−"/><glyph d="M379 801q-84 -2 -152 -94l-104 32q100 164 254 168q74 4 215 -69q111 -57 156 -60q102 -4 157 92l103 -32q-35 -80 -107 -125t-149 -41q-82 4 -209 71q-115 60 -164 58zM748 449q102 -6 157 92l103 -33q-35 -80 -107 -125t-149 -41q-82 4 -209 72q-115 59 -164 57 q-37 0 -67.5 -16.5t-46 -32.5t-38.5 -45l-104 33q20 31 34.5 49t46.5 50t76 49t97 20q74 4 215 -70q111 -57 156 -59z" glyph-name="approxequal" horiz-adv-x="1130" unicode="≈"/><glyph d="M938 733h-274l-125 -229h399v-107h-457l-133 -241h-121l133 241h-217v107h275l125 229h-400v107h459l131 241h123l-133 -241h215v-107z" glyph-name="notequal" horiz-adv-x="1081" unicode="≠"/><glyph d="M846 1106v-119l-580 -282l580 -281v-119l-703 340v121zM143 104v107h703v-107h-703z" glyph-name="lessequal" horiz-adv-x="989" unicode="≤"/><glyph d="M143 1106l703 -340v-121l-703 -340v119l582 281l-582 282v119zM143 104v107h703v-107h-703z" glyph-name="greaterequal" horiz-adv-x="989" unicode="≥"/><glyph d="M190 -158h119l-112 -268h-74z" glyph-name="uniF6C3" horiz-adv-x="432" unicode=""/></font>
</defs>
</svg>
