<?xml version="1.0" standalone="no"?>
<!DOCTYPE svg PUBLIC "-//W3C//DTD SVG 1.1//EN" "http://www.w3.org/Graphics/SVG/1.1/DTD/svg11.dtd">
<svg xmlns="http://www.w3.org/2000/svg"><metadata>This SVG WebFont was generated by YouWorkForThem.
Copyright (c) 2018 by MadeType. All rights reserved.</metadata><defs><font horiz-adv-x="1116" id="ywftsvg"><font-face ascent="1638" bbox="-113 -461 2191 1946" cap-height="1434" descent="-410" font-family="" font-stretch="normal" font-weight="250" panose-1="2 0 5 3 0 0 0 2 0 4" underline-position="0" underline-thickness="0" unicode-range="U+0020-F6C3" units-per-em="2048" x-height="987"/><missing-glyph horiz-adv-x="573"/><glyph glyph-name=".notdef" horiz-adv-x="573"/><glyph glyph-name="glyph1" horiz-adv-x="0"/><glyph glyph-name="glyph2" horiz-adv-x="681"/><glyph glyph-name="space" horiz-adv-x="573" unicode=" "/><glyph d="M262.5 115q22.5 0 39.5 -17.5t17 -40t-17 -40t-39.5 -17.5t-40 17.5t-17.5 40t17.5 40t40 17.5zM291 356h-60l-4 1078h70z" glyph-name="exclam" horiz-adv-x="524" unicode="!"/><glyph d="M125 1102l-23 344h88l-24 -344h-41zM322 1446h88l-25 -344h-41z" glyph-name="quotedbl" horiz-adv-x="512" unicode="&quot;"/><glyph d="M1485 913h-305l-88 -417h305l-15 -70h-305l-90 -426h-72l89 426h-508l-90 -426h-72l88 426h-320l15 70h321l86 417h-319l16 70h320l94 451h72l-95 -451h510l95 451h71l-94 -451h307zM1018 496l88 417h-508l-88 -417h508z" glyph-name="numbersign" horiz-adv-x="1603" unicode="#"/><glyph d="M645 754q285 -66 389.5 -155t104.5 -222q0 -63 -23.5 -126t-77 -124t-155 -100t-238.5 -41v-193h-72v195q-193 14 -321.5 102t-169.5 221l65 23q33 -113 144.5 -187.5t281.5 -87.5v637q-233 55 -345.5 139.5t-112.5 219.5q0 172 130 279.5t328 109.5v196h72v-198 q164 -12 285 -94t151 -220l-69 -22q-23 111 -119 181.5t-248 82.5v-616zM186 1055q0 -63 30 -110.5t89.5 -80.5t118.5 -53t149 -41v604q-172 -4 -279.5 -91t-107.5 -228zM645 57q176 2 299 83t123 237q0 68 -33 119t-96.5 85.5t-130 57.5t-162.5 43v-625z" glyph-name="dollar" horiz-adv-x="1282" unicode="$"/><glyph d="M627 1153q0 -125 -84 -209t-209 -84t-209 84t-84 209t84 209t209 84t209 -84t84 -209zM106 1153q0 -96 66 -161.5t162 -65.5t162.5 65.5t66.5 161.5t-66.5 161.5t-162.5 65.5t-162 -65.5t-66 -161.5zM1081 571q125 0 210 -84t85 -208.5t-85 -208.5t-210 -84 q-123 0 -208 84t-85 208.5t85 208.5t208 84zM1081 51q98 0 164 65.5t66 162t-65.5 163t-164.5 66.5q-96 0 -161.5 -66.5t-65.5 -163t65.5 -162t161.5 -65.5zM1116 1434h84l-895 -1434h-84z" glyph-name="percent" horiz-adv-x="1499" unicode="%"/><glyph d="M188 115q-57 78 -63 183t37 204q70 158 301 327q-96 125 -135 220q-59 141 15.5 269t225.5 128q133 0 207 -101.5t37 -232.5q-23 -86 -83 -150.5t-167 -144.5q152 -190 410 -465q45 66 137 223h84q-135 -221 -172 -274l287 -301h-101q-92 98 -229 242 q-197 -246 -418 -262q-262 -21 -373 135zM506 774q-219 -162 -279 -301q-76 -174 25 -311q47 -66 125 -97.5t172 -21.5q205 25 381 252q-246 256 -424 479zM563 1372q-96 0 -153.5 -93t-14.5 -206q27 -74 123 -201q70 51 107 82t73.5 78t46.5 96q25 117 -28.5 180.5 t-153.5 63.5z" glyph-name="ampersand" horiz-adv-x="1390" unicode="&amp;"/><glyph d="M61 1446h89l-25 -344h-41z" glyph-name="quotesingle" horiz-adv-x="251" unicode="'"/><glyph d="M545 1495q-195 -231 -269.5 -565t-14 -667t244.5 -560l-55 -45q-303 377 -285 956q8 266 93 509t230 417z" glyph-name="parenleft" horiz-adv-x="626" unicode="("/><glyph d="M174 1540q305 -375 287 -956q-10 -268 -95 -510t-231 -416l-53 45q195 231 269.5 565t13 667t-245.5 560z" glyph-name="parenright" horiz-adv-x="626" unicode=")"/><glyph d="M625 1251l-242 -123l242 -120l-35 -64l-228 150l17 -271h-72l17 271l-228 -150l-35 64l242 120l-242 123l35 62l228 -150l-17 271h72l-17 -271l228 150z" glyph-name="asterisk" horiz-adv-x="706" unicode="*"/><glyph d="M918 664v-72h-363v-361h-70v361h-362v72h362v362h70v-362h363z" glyph-name="plus" horiz-adv-x="1040" unicode="+"/><glyph d="M156 106h90l-144 -344h-41z" glyph-name="comma" horiz-adv-x="348" unicode=","/><glyph d="M123 664h676v-72h-676v72z" glyph-name="hyphen" horiz-adv-x="921" unicode="-"/><glyph d="M178 115q25 0 41.5 -17.5t16.5 -40t-16.5 -40t-41.5 -17.5q-23 0 -39 17.5t-16 40t16 40t39 17.5z" glyph-name="period" horiz-adv-x="358" unicode="."/><glyph d="M717 1538h76l-615 -1853h-76z" glyph-name="slash" horiz-adv-x="894" unicode="/"/><glyph d="M577.5 1446q196.5 0 315.5 -196.5t119 -532.5q0 -338 -117 -534.5t-317.5 -196.5t-317.5 196.5t-117 534.5q0 336 119 532.5t315.5 196.5zM577.5 57q96.5 0 168 57.5t111.5 154t58.5 209t18.5 239.5q0 182 -35 326.5t-118 238.5t-203.5 94t-203.5 -94t-119 -238.5 t-36 -326.5q0 -127 19.5 -239.5t59.5 -209t111.5 -154t168 -57.5z" glyph-name="zero" horiz-adv-x="1155" unicode="0"/><glyph d="M340 1434h72v-1434h-72v1192q-113 -170 -279 -213v61q232 118 279 394z" glyph-name="one" horiz-adv-x="616" unicode="1"/><glyph d="M201 72h700v-72h-778q0 145 89 272t255 281q299 276 311 506q8 147 -60.5 230t-209.5 83q-129 0 -204 -86t-99 -196l-72 16q8 37 23.5 77t46 88t70.5 85t101.5 62.5t133.5 25.5q188 0 272 -108.5t76 -278.5q-8 -147 -98 -280.5t-242 -276.5q-137 -127 -214.5 -225.5 t-100.5 -202.5z" glyph-name="two" horiz-adv-x="1054" unicode="2"/><glyph d="M655 776q145 -43 221 -150.5t76 -224.5q0 -180 -117.5 -297.5t-326.5 -117.5q-125 0 -245 66.5t-161 160.5l74 35q39 -84 134.5 -138.5t197.5 -54.5q168 0 270.5 96.5t102.5 249.5q0 150 -106.5 244t-278.5 94h-111v72h104q158 0 241 83t83 202q0 127 -84 201.5 t-205 74.5q-125 0 -209 -64.5t-112 -185.5l-70 13q20 123 124.5 216t266.5 93q178 0 269.5 -102.5t91.5 -245.5q0 -102 -64 -190.5t-166 -129.5z" glyph-name="three" horiz-adv-x="1105" unicode="3"/><glyph d="M1061 430v-70h-191v-360h-71v360h-676v70l676 1004h71v-1004h191zM209 430h590v879z" glyph-name="four" horiz-adv-x="1183" unicode="4"/><glyph d="M555 936q199 0 303.5 -131t104.5 -338q0 -76 -25 -156t-74 -154.5t-136 -122.5t-196 -48q-90 0 -166.5 26.5t-126 67.5t-75 71.5t-41.5 59.5l61 37q113 -190 348 -191q154 0 257.5 118t103.5 292q0 193 -91 296t-253 103q-207 0 -313 -194l-3 -2l-69 10l119 754h639v-70 h-578l-92 -573q129 145 303 145z" glyph-name="five" horiz-adv-x="1126" unicode="5"/><glyph d="M592 -14q-94 2 -178 47t-152.5 135t-99.5 247.5t-10 362.5q35 346 174 509t323.5 159t319.5 -160l-51 -49q-111 141 -277 141q-182 2 -305 -210t-121 -554q57 109 153.5 180.5t202.5 86.5q184 27 324.5 -86t140.5 -344q0 -201 -128 -335t-316 -130zM223 494 q20 -186 109.5 -301t238.5 -134q152 -18 269.5 94.5t117.5 299.5q0 172 -96 272t-266 86q-127 -10 -230.5 -104t-142.5 -213z" glyph-name="six" horiz-adv-x="1179" unicode="6"/><glyph d="M102 1434h828v-70l-623 -1364h-80l625 1364h-750v70z" glyph-name="seven" horiz-adv-x="1052" unicode="7"/><glyph d="M743 780q145 -41 219 -149.5t74 -227.5q0 -178 -122.5 -296.5t-333.5 -118.5t-334 118.5t-123 296.5q0 121 73.5 228.5t219.5 148.5q-100 41 -160.5 126t-60.5 186q0 141 102 247.5t282.5 106.5t282 -106.5t101.5 -247.5q0 -100 -60 -185.5t-160 -126.5zM266 1092 q0 -117 84 -198t229.5 -81t228.5 81t83 198q0 125 -84 204.5t-227.5 79.5t-228.5 -79.5t-85 -204.5zM580 59q170 0 277.5 96.5t107.5 247.5q0 150 -107.5 245t-277.5 95q-172 0 -278.5 -95t-106.5 -245q0 -152 107.5 -248t277.5 -96z" glyph-name="eight" horiz-adv-x="1179" unicode="8"/><glyph d="M588 1446q94 0 179 -46t153.5 -136t99.5 -248t10 -363q-35 -346 -175 -508.5t-325 -158.5q-178 4 -313 153l-6 6l51 50q111 -141 277 -142q182 0 305 212t123 552q-55 -109 -153.5 -179.5t-205.5 -86.5q-184 -25 -324.5 88t-140.5 342q0 201 129.5 335t315.5 130z M956 940q-18 184 -108 299t-240 133q-152 18 -269.5 -94.5t-117.5 -298.5q0 -172 96.5 -272.5t266.5 -85.5q129 10 231 104t141 215z" glyph-name="nine" horiz-adv-x="1181" unicode="9"/><glyph d="M159.5 115q22.5 0 40 -17.5t17.5 -40t-17.5 -40t-40 -17.5t-40 17.5t-17.5 40t17.5 40t40 17.5zM159.5 866q-22.5 0 -40 16.5t-17.5 39.5q0 25 17.5 41t40 16t40 -16.5t17.5 -40.5q0 -23 -17.5 -39.5t-40 -16.5z" glyph-name="colon" horiz-adv-x="401" unicode=":"/><glyph d="M160 866q-23 0 -39.5 16.5t-16.5 39.5q0 25 16.5 41t39.5 16q25 0 41 -16.5t16 -40.5q0 -23 -16 -39.5t-41 -16.5zM35 -238l94 344h88l-141 -344h-41z" glyph-name="semicolon" horiz-adv-x="401" unicode=";"/><glyph d="M844 997v-79l-621 -302l621 -301v-79l-701 339v82z" glyph-name="less" horiz-adv-x="987" unicode="&lt;"/><glyph d="M143 821h795v-71h-795v71zM143 416v71h795v-71h-795z" glyph-name="equal" horiz-adv-x="1101" unicode="="/><glyph d="M143 997l703 -340v-82l-703 -339v79l621 301l-621 302v79z" glyph-name="greater" horiz-adv-x="989" unicode=">"/><glyph d="M418 115q25 0 41 -17.5t16 -40t-16.5 -40t-40.5 -17.5q-23 0 -39.5 17.5t-16.5 40t16.5 40t39.5 17.5zM457 1446q184 0 281.5 -113.5t76.5 -283.5q-10 -78 -47 -157t-67.5 -121t-90.5 -114q-55 -66 -80.5 -100.5t-51 -90.5t-25.5 -110h-72q0 66 28.5 131.5t58.5 106.5 t87 108q55 68 85 109t62.5 109.5t42.5 136.5q18 143 -67.5 230t-220.5 87q-117 0 -199 -75.5t-104 -219.5l-72 17q27 172 134.5 261t240.5 89z" glyph-name="question" horiz-adv-x="962" unicode="?"/><glyph d="M1790 530q6 -98 -5 -193t-41 -182t-88.5 -140.5t-137.5 -53.5q-184 0 -222 268q-51 -102 -146 -162.5t-218 -60.5q-188 0 -307 133t-119 330q0 195 118.5 327t307.5 132q117 0 209 -54.5t147 -150.5v164h64v-420q0 -98 5 -167t21.5 -136.5t51 -102t88.5 -34.5 q109 0 166 146t40 351q-14 176 -84.5 314.5t-177 221.5t-231.5 126t-260 43q-315 0 -523 -173t-249 -474q-29 -215 37.5 -399.5t218.5 -301.5q168 -129 393 -150.5t450 72.5l25 -61q-131 -57 -288.5 -72.5t-325.5 24.5t-295 136q-166 127 -239 326.5t-42 433.5 q45 328 270.5 516t567.5 188q197 0 354.5 -68.5t252.5 -181t148.5 -244t63.5 -270.5zM932 72q160 0 255 113.5t95 283.5t-95 282.5t-255 112.5t-258.5 -113.5t-98.5 -281.5q0 -170 98.5 -283.5t258.5 -113.5z" glyph-name="at" horiz-adv-x="1916" unicode="@"/><glyph d="M1178 0l-177 455h-667l-176 -455h-76l553 1434h65l553 -1434h-75zM360 524h615l-307 795z" glyph-name="A" horiz-adv-x="1335" unicode="A"/><glyph d="M893 770q133 -33 212 -127t79 -248q0 -190 -123 -292.5t-309 -102.5h-547v1434h512q172 0 279.5 -97.5t107.5 -257.5q0 -111 -56.5 -191.5t-154.5 -117.5zM717 1362h-441v-563h441q139 0 225 73.5t86 206.5q0 137 -84 210t-227 73zM752 72q152 0 253 82t101 241 q0 162 -100.5 247t-253.5 85h-476v-655h476z" glyph-name="B" horiz-adv-x="1337" unicode="B"/><glyph d="M827 59q168 0 305.5 79t219.5 216l65 -30q-92 -156 -246.5 -246t-343.5 -90q-297 0 -495.5 212t-198.5 517t198.5 517t495.5 212q188 0 343 -90t247 -246l-65 -31q-82 137 -219.5 216t-305.5 79q-266 0 -441 -190.5t-177 -466.5q2 -276 177 -467t441 -191z" glyph-name="C" horiz-adv-x="1550" unicode="C"/><glyph d="M606 1434q332 0 542 -189.5t210 -527.5t-210 -527.5t-542 -189.5h-401v1434h401zM606 72q291 0 479.5 171t188.5 474t-186.5 474t-481.5 171h-330v-1290h330z" glyph-name="D" horiz-adv-x="1511" unicode="D"/><glyph d="M274 72h883v-72h-952v1434h940v-72h-871v-610h807v-70h-807v-610z" glyph-name="E" horiz-adv-x="1308" unicode="E"/><glyph d="M1145 1362h-869v-610h732v-70h-732v-682h-71v1434h940v-72z" glyph-name="F" horiz-adv-x="1257" unicode="F"/><glyph d="M856 717h582v-393q-92 -156 -246 -246t-342 -90q-297 0 -496.5 212t-199.5 517t199.5 517t496.5 212q188 0 342 -90t246 -246l-64 -31q-84 137 -220 216t-304 79q-268 0 -443.5 -190.5t-175.5 -467t175.5 -467t443.5 -190.5q162 0 297 74t219 201v311h-510v72z" glyph-name="G" horiz-adv-x="1611" unicode="G"/><glyph d="M1221 1434h71v-1434h-71v680h-945v-680h-71v1434h71v-682h945v682z" glyph-name="H" horiz-adv-x="1497" unicode="H"/><glyph d="M205 1434h69v-1434h-69v1434z" glyph-name="I" horiz-adv-x="479" unicode="I"/><glyph d="M653 1434h72v-1053q0 -182 -87 -288.5t-251 -106.5q-115 0 -202 43t-134 108l64 41q35 -49 106.5 -86t157.5 -37q135 0 204.5 89t69.5 239v1051z" glyph-name="J" horiz-adv-x="909" unicode="J"/><glyph d="M1135 0l-557 784l-302 -333v-451h-71v1434h71v-877l793 877h96l-538 -596l596 -838h-88z" glyph-name="K" horiz-adv-x="1314" unicode="K"/><glyph d="M276 72h789v-72h-860v1434h71v-1362z" glyph-name="L" horiz-adv-x="1146" unicode="L"/><glyph d="M1544 1434h66v-1434h-72v1298l-606 -921h-47l-609 921v-1298h-71v1434h65l637 -969z" glyph-name="M" horiz-adv-x="1814" unicode="M"/><glyph d="M1225 1434h71v-1434h-65l-955 1307v-1307h-71v1434h65l955 -1311v1311z" glyph-name="N" horiz-adv-x="1501" unicode="N"/><glyph d="M807 1446q299 0 497.5 -213t198.5 -518t-199.5 -517t-496.5 -212t-495.5 212t-198.5 517t198.5 518t495.5 213zM807 55q268 0 443 191.5t175 468t-175 468t-443 191.5q-266 0 -441.5 -191.5t-175.5 -468t175.5 -468t441.5 -191.5z" glyph-name="O" horiz-adv-x="1615" unicode="O"/><glyph d="M719 1434q201 0 334 -122t133 -316.5t-132 -316.5t-335 -122h-445v-557h-69v1434h514zM719 629q168 0 279.5 99t111.5 267t-109.5 267.5t-281.5 99.5h-445v-733h445z" glyph-name="P" horiz-adv-x="1267" unicode="P"/><glyph d="M1524 717q0 -297 -187 -506l174 -178l-49 -51l-176 178q-190 -174 -457 -174q-299 0 -497.5 213t-198.5 518t199.5 517t496.5 212t496 -212t199 -517zM829 57q236 0 406 154l-156 160l49 49l156 -158q164 190 164 455q0 276 -176 467.5t-443 191.5q-268 0 -443 -191.5 t-175 -468t175 -468t443 -191.5z" glyph-name="Q" horiz-adv-x="1656" unicode="Q"/><glyph d="M1214 0h-81l-320 565q-41 -8 -94 -8h-445v-557h-69v1434h514q201 0 334 -122t133 -317q0 -152 -82 -261t-219 -152zM719 629q168 0 279.5 99t111.5 267t-109.5 267.5t-281.5 99.5h-445v-733h445z" glyph-name="R" horiz-adv-x="1347" unicode="R"/><glyph d="M604 1448q182 0 322.5 -84t175.5 -236l-68 -22q-25 123 -140.5 196.5t-289.5 73.5q-176 0 -286.5 -89t-110.5 -232q0 -55 26.5 -99.5t62.5 -73t102.5 -54t117.5 -39t137 -31.5q293 -68 399.5 -157t106.5 -224q0 -63 -24.5 -127t-77.5 -126.5t-157.5 -101t-244.5 -38.5 q-215 0 -361.5 92t-191.5 235l68 23q35 -121 163 -200t322 -79q180 0 306 82t126 240q0 70 -34.5 123t-105 89t-139.5 56.5t-171 42.5q-256 55 -378 141t-122 226q0 174 132 283.5t335 109.5z" glyph-name="S" horiz-adv-x="1282" unicode="S"/><glyph d="M1077 1434v-72h-483v-1362h-70v1362h-483v72h1036z" glyph-name="T" horiz-adv-x="1097" unicode="T"/><glyph d="M1188 1434h72v-856q0 -272 -139.5 -432t-389.5 -160t-388 157.5t-138 434.5v856h71v-856q0 -246 121 -384.5t334 -138.5t335 138.5t122 384.5v856z" glyph-name="U" horiz-adv-x="1464" unicode="U"/><glyph d="M1145 1434h76l-547 -1434h-66l-547 1434h76l504 -1319z" glyph-name="V" horiz-adv-x="1282" unicode="V"/><glyph d="M1944 1434h75l-467 -1434h-73l-424 1319l-426 -1319h-72l-465 1434h76l428 -1317l424 1317h72l424 -1317z" glyph-name="W" horiz-adv-x="2111" unicode="W"/><glyph d="M1190 0h-88l-475 674l-477 -674h-89l521 737l-494 697h88l451 -635l448 635h88l-493 -697z" glyph-name="X" horiz-adv-x="1230" unicode="X"/><glyph d="M1186 1434l-537 -957v-477h-69v475l-539 959h82l491 -875l490 875h82z" glyph-name="Y" horiz-adv-x="1226" unicode="Y"/><glyph d="M233 72h1002v-72h-1092v72l985 1290h-923v72h1014v-72z" glyph-name="Z" horiz-adv-x="1378" unicode="Z"/><glyph d="M561 1466h-325v-1710h325v-71h-397v1853h397v-72z" glyph-name="bracketleft" horiz-adv-x="643" unicode="["/><glyph d="M178 1538l615 -1853h-74l-617 1853h76z" glyph-name="backslash" horiz-adv-x="894" unicode="\"/><glyph d="M410 1466h-328v72h397v-1853h-397v71h328v1710z" glyph-name="bracketright" horiz-adv-x="643" unicode="]"/><glyph d="M774 864h-80l-266 496l-264 -496h-82l307 570h80z" glyph-name="asciicircum" horiz-adv-x="897" unicode="^"/><glyph d="M20 -113l1051 2v-71h-1051v69z" glyph-name="underscore" horiz-adv-x="1091" unicode="_"/><glyph d="M106 1434l160 -279h-43l-203 279h86z" glyph-name="grave" horiz-adv-x="327" unicode="`"/><glyph d="M516 1001q59 0 115.5 -16t110 -52t86 -107.5t32.5 -168.5v-657h-69v203q-141 -217 -404 -217q-76 0 -140.5 20.5t-114.5 77.5t-50 145q0 131 96 199t268 109q27 6 71 15t69.5 14t61.5 14.5t57.5 18.5t43 22.5t30.5 29t9 35.5q0 109 -67.5 177.5t-204.5 68.5 q-131 0 -210 -61.5t-103 -163.5l-70 16q72 278 383 278zM791 412v131q-31 -6 -140.5 -34t-187.5 -42q-168 -35 -236.5 -89t-68.5 -149q0 -86 67.5 -130t171.5 -44q166 0 280 105t114 252z" glyph-name="a" horiz-adv-x="1024" unicode="a"/><glyph d="M627 1001q207 0 333.5 -146t126.5 -361t-126.5 -361.5t-333.5 -146.5q-135 0 -235.5 64.5t-155.5 176.5v-227h-72v1434h72v-674q55 113 155.5 177t235.5 64zM627 55q176 0 280.5 126t104.5 312.5t-104.5 312.5t-280.5 126t-280.5 -126t-104.5 -312.5t104.5 -312.5 t280.5 -126z" glyph-name="b" horiz-adv-x="1200" unicode="b"/><glyph d="M575 55q223 0 336 197l68 -33q-63 -109 -167.5 -171t-236.5 -62q-207 0 -340 146.5t-133 361.5t133.5 361t339.5 146q131 0 235.5 -62t168.5 -171l-68 -31q-113 195 -336 195q-178 0 -287.5 -126t-109.5 -312.5t109.5 -312.5t287.5 -126z" glyph-name="c" horiz-adv-x="1091" unicode="c"/><glyph d="M956 1434h72v-1434h-72v227q-55 -113 -156.5 -177t-234.5 -64q-207 0 -335 146.5t-128 361.5t128 361t335 146q133 0 234.5 -64.5t156.5 -176.5v674zM565 55q176 0 280.5 126t104.5 312.5t-104.5 312.5t-280.5 126t-280.5 -126t-104.5 -312.5t104.5 -312.5t280.5 -126z " glyph-name="d" horiz-adv-x="1191" unicode="d"/><glyph d="M993 494q0 -35 -2 -54h-829q16 -168 123.5 -276.5t271.5 -108.5q223 0 336 197l65 -33q-61 -109 -165.5 -171t-235.5 -62q-207 0 -341 147.5t-134 360.5t134 360t341 147q203 0 319.5 -144t116.5 -363zM557 932q-172 0 -281.5 -120t-115.5 -300h755q-4 184 -96 302 t-262 118z" glyph-name="e" unicode="e"/><glyph d="M457 1374q-145 0 -146 -200v-187h240v-72h-240v-915h-71v915h-148v72h148v174q0 285 217 285q90 0 184 -66l-39 -59q-69 53 -145 53z" glyph-name="f" horiz-adv-x="641" unicode="f"/><glyph d="M954 987h72v-969q0 -219 -116.5 -349t-331.5 -130q-137 0 -247 65.5t-161 157.5l61 41q51 -78 142.5 -135t204.5 -57q186 0 281 113.5t95 306.5v196q-55 -113 -155.5 -177t-235.5 -64q-207 0 -334 146.5t-127 361.5t127 361t334 146q135 0 235.5 -64.5t155.5 -176.5v227z M563 55q176 0 280.5 126t104.5 312.5t-104.5 312.5t-280.5 126t-280.5 -126t-104.5 -312.5t104.5 -312.5t280.5 -126z" glyph-name="g" horiz-adv-x="1189" unicode="g"/><glyph d="M559 1001q182 0 283.5 -118.5t101.5 -321.5v-561h-72v561q0 166 -82.5 268.5t-230.5 102.5q-139 0 -231 -109.5t-92 -285.5v-537h-72v1434h72v-648q47 98 129.5 156.5t193.5 58.5z" glyph-name="h" horiz-adv-x="1107" unicode="h"/><glyph d="M184 0v987h72v-987h-72zM219 1290q25 0 41 -17.5t16 -40t-16 -39.5t-41 -17q-23 0 -39 17t-16 39.5t16 40t39 17.5z" glyph-name="i" horiz-adv-x="450" unicode="i"/><glyph d="M251.5 1290q22.5 0 40 -17.5t17.5 -40t-17.5 -39.5t-40 -17t-39.5 17t-17 39.5t17 40t39.5 17.5zM215 -182v1169h70v-1169q0 -121 -56.5 -200t-167.5 -79q-102 0 -174 62l43 55q57 -45 131 -45t114 54.5t40 152.5z" glyph-name="j" horiz-adv-x="473" unicode="j"/><glyph d="M879 0l-392 541l-251 -271v-270h-72v1434h72v-1059l569 612h96l-364 -393l430 -594h-88z" glyph-name="k" horiz-adv-x="1028" unicode="k"/><glyph d="M164 1536h72v-1536h-72v1536z" glyph-name="l" horiz-adv-x="440" unicode="l"/><glyph d="M1214 1001q178 0 266.5 -116.5t88.5 -323.5v-561h-72v561q0 168 -74.5 269.5t-220.5 101.5q-139 0 -220 -107.5t-81 -287.5v-537h-72v561q0 168 -73.5 269.5t-218.5 101.5q-139 0 -220 -107.5t-81 -287.5v-537h-72v987h72v-192q100 207 311 206q254 0 330 -241 q43 111 129.5 176t207.5 65z" glyph-name="m" horiz-adv-x="1732" unicode="m"/><glyph d="M559 1001q180 0 281.5 -118.5t101.5 -321.5v-561h-72v561q0 166 -81.5 268.5t-229.5 102.5q-141 0 -233.5 -109.5t-92.5 -285.5v-537h-69v987h69v-201q107 215 326 215z" glyph-name="n" horiz-adv-x="1105" unicode="n"/><glyph d="M577.5 1001q206.5 0 340 -146t133.5 -361t-133.5 -361.5t-340 -146.5t-341 147.5t-134.5 360.5t134.5 360t341 147zM577.5 55q178.5 0 287 126t108.5 312.5t-108.5 312.5t-287 126t-288 -126t-109.5 -312.5t109.5 -312.5t288 -126z" glyph-name="o" horiz-adv-x="1163" unicode="o"/><glyph d="M627 1004q205 0 332.5 -147.5t127.5 -362.5t-126.5 -361.5t-333.5 -146.5q-135 0 -235.5 64.5t-155.5 178.5v-675h-72v1433h72v-227q55 113 155.5 178.5t235.5 65.5zM627 57q176 0 280.5 125t104.5 311.5t-104.5 312.5t-280.5 126t-280.5 -126t-104.5 -312.5 t104.5 -311.5t280.5 -125z" glyph-name="p" horiz-adv-x="1200" unicode="p"/><glyph d="M956 987h72v-1433h-72v675q-55 -113 -156.5 -178t-234.5 -65q-207 0 -335 146.5t-128 361.5t128 362.5t335 147.5q133 0 234.5 -66t156.5 -178v227zM565 57q176 0 280.5 125t104.5 311.5t-104.5 312.5t-280.5 126t-280.5 -126t-104.5 -312.5t104.5 -311.5t280.5 -125z " glyph-name="q" horiz-adv-x="1191" unicode="q"/><glyph d="M571 1004q6 0 20.5 -1.5t22.5 -1.5l-12 -71q-10 2 -31 2q-143 0 -239 -109.5t-96 -285.5v-537h-72v987h72v-207q49 100 135.5 162t199.5 62z" glyph-name="r" horiz-adv-x="665" unicode="r"/><glyph d="M457 530q61 -16 99 -27t90 -35t82 -50.5t51.5 -67.5t21.5 -90q0 -131 -96.5 -203.5t-235.5 -72.5q-147 0 -250.5 64.5t-136.5 162.5l68 31q27 -78 107.5 -133.5t211.5 -55.5q109 0 184.5 53.5t75.5 153.5q0 76 -70.5 119t-218.5 82q-145 37 -230 91t-97 159 q-14 121 72.5 207t246.5 86q125 0 211 -61.5t119 -162.5l-66 -26q-66 178 -264 178q-127 0 -192.5 -61.5t-55.5 -151.5q8 -72 79 -114t194 -75z" glyph-name="s" horiz-adv-x="903" unicode="s"/><glyph d="M557 102l35 -61q-76 -55 -180 -55q-219 0 -219 284v645h-152v72h152v268l71 21v-289h246v-72h-246v-657q0 -201 148 -201q79 0 145 45z" glyph-name="t" horiz-adv-x="630" unicode="t"/><glyph d="M852 987h72v-987h-72v186q-113 -201 -326 -200q-180 0 -281.5 119.5t-101.5 322.5v559h72v-559q0 -166 82 -268.5t229 -102.5q139 0 232.5 105.5t93.5 267.5v557z" glyph-name="u" horiz-adv-x="1087" unicode="u"/><glyph d="M811 987h76l-373 -987h-76l-372 987h75l336 -887z" glyph-name="v" horiz-adv-x="931" unicode="v"/><glyph d="M1337 987h76l-319 -987h-70l-287 872l-288 -872h-70l-318 987h74l283 -870l287 870h63l287 -870z" glyph-name="w" horiz-adv-x="1454" unicode="w"/><glyph d="M846 0h-88l-316 446l-313 -446h-88l358 508l-338 479h89l292 -416l295 416h86l-336 -479z" glyph-name="x" horiz-adv-x="907" unicode="x"/><glyph d="M791 987h75l-372 -987q-51 -137 -81 -200.5t-73 -110.5q-43 -51 -97.5 -70.5t-85 -17.5t-85.5 12l12 70q125 -25 187.5 37.5t146.5 279.5l-373 987h76l336 -887z" glyph-name="y" horiz-adv-x="911" unicode="y"/><glyph d="M193 72h671v-72h-762v72l654 843h-627v72h717v-72z" glyph-name="z" horiz-adv-x="966" unicode="z"/><glyph d="M297 1116q0 -242 -26.5 -355.5t-90.5 -148.5q63 -35 90 -149.5t27 -356.5q0 -205 59.5 -274.5t214.5 -69.5v-71q-92 0 -149 14t-105.5 56t-70 127t-21.5 218q0 287 -25.5 380.5t-117.5 93.5v65q92 0 117.5 92t25.5 379q0 133 21.5 218t70 127t105.5 56.5t149 14.5v-72 q-156 0 -215 -69.5t-59 -274.5z" glyph-name="braceleft" horiz-adv-x="653" unicode="{"/><glyph d="M205 1538h69v-1853h-69v1853z" glyph-name="bar" horiz-adv-x="479" unicode="|"/><glyph d="M428 1116q0 -287 25.5 -379t117.5 -92v-65q-92 0 -117.5 -93.5t-25.5 -380.5q0 -133 -21.5 -218t-69.5 -127t-105.5 -56t-149.5 -14v71q156 0 215 70t59 274q0 242 27 357t90 149q-63 35 -90 148.5t-27 355.5q0 205 -59 274.5t-215 69.5v72q92 0 149.5 -14.5t105.5 -56.5 t69.5 -127t21.5 -218z" glyph-name="braceright" horiz-adv-x="653" unicode="}"/><glyph d="M883 702l67 -24q-76 -152 -237 -152q-74 0 -203 72q-102 59 -164 57q-115 -2 -174 -104l-70 24q41 70 94.5 110t147.5 42q80 2 203 -68q98 -59 160 -61q121 -5 176 104z" glyph-name="asciitilde" horiz-adv-x="1052" unicode="~"/><glyph d="M262.5 1004q22.5 0 39.5 -17.5t17 -40t-17 -40t-39.5 -17.5t-40 17.5t-17.5 40t17.5 40t40 17.5zM231 647h60l6 -1077h-70z" glyph-name="exclamdown" horiz-adv-x="483" unicode="¡"/><glyph d="M575 57q111 0 198 52.5t138 142.5l68 -33q-61 -109 -165.5 -171t-238.5 -62v-193h-69v197q-180 27 -292 168t-112 335.5t112 336t292 167.5v197h69v-190q131 0 237 -62.5t167 -171.5l-68 -33q-51 90 -138 142.5t-198 52.5v-875zM180 493.5q0 -165.5 89 -285.5t237 -145 v863q-147 -27 -236.5 -147t-89.5 -285.5z" glyph-name="cent" horiz-adv-x="1091" unicode="¢"/><glyph d="M379 72h737v-72h-1014v72h205v522h-157v70h157v278q0 133 33 232.5t76 149.5t102.5 80t98 36t77.5 6q113 0 214.5 -67.5t160.5 -190.5l-63 -33q-51 104 -136.5 162.5t-175.5 58.5q-49 0 -93 -13t-99.5 -53t-89 -134.5t-33.5 -233.5v-278h481v-70h-481v-522z" glyph-name="sterling" horiz-adv-x="1218" unicode="£"/><glyph d="M1118 731q0 -158 -102 -282l178 -177l-49 -51l-180 178q-119 -106 -287 -106q-164 0 -287 106l-178 -178l-49 51l178 177q-104 125 -104 282q0 162 104 283l-178 178l49 49l178 -176q123 106 287 106q168 0 287 -106l180 176l49 -49l-178 -178q102 -123 102 -283z M678 367q152 0 256 106.5t104 257.5q0 154 -104.5 260.5t-255.5 106.5q-150 0 -255.5 -107.5t-105.5 -259t105.5 -258t255.5 -106.5z" glyph-name="currency" horiz-adv-x="1357" unicode="¤"/><glyph d="M1247 1434l-497 -885h346v-72h-385v-125h385v-71h-385v-281h-72v281h-385v71h385v123v2h-385v72h344l-496 885h82l490 -875l491 875h82z" glyph-name="yen" horiz-adv-x="1349" unicode="¥"/><glyph d="M205 -315v706h71v-706h-71zM205 1538h71v-707h-71v707z" glyph-name="brokenbar" horiz-adv-x="481" unicode="¦"/><glyph d="M829 219q125 -104 119 -258q-4 -131 -95 -227t-247 -96q-129 0 -229.5 78.5t-122.5 201.5l70 19q16 -90 93 -159t189 -69q123 0 194.5 77t76.5 179q2 66 -22 116t-82 90t-103 62.5t-133 59.5q-68 29 -104 45t-91 48t-85 60.5t-56.5 73.5t-32.5 96q-16 115 41 219.5 t170 159.5q-125 104 -119 256q4 131 96.5 227.5t247.5 96.5q127 0 227.5 -79t122.5 -200l-67 -20q-18 90 -94 158.5t-189 68.5q-125 0 -196.5 -75.5t-75.5 -178.5q-2 -66 21.5 -116t83 -91t102.5 -62.5t133 -59.5q68 -29 103.5 -45.5t91 -48t85 -60.5t56 -73t32.5 -95 q16 -115 -41 -220.5t-170 -158.5zM240 625q4 -39 26.5 -75t46 -58.5t75.5 -51t81 -41t94 -41.5q133 -53 197 -92q92 31 158.5 115t52.5 209q-6 39 -27.5 73.5t-48.5 58t-75 50.5t-80.5 42t-94.5 40q-145 63 -196 94q-94 -33 -159.5 -115.5t-49.5 -207.5z" glyph-name="section" horiz-adv-x="1208" unicode="§"/><glyph d="M485.5 1343q22.5 0 40 -17t17.5 -39.5t-17.5 -40t-40 -17.5t-40 17.5t-17.5 40t17.5 39.5t40 17zM210.5 1343q22.5 0 40 -17t17.5 -39.5t-17.5 -40t-40 -17.5t-39.5 17.5t-17 40t17 39.5t39.5 17z" glyph-name="dieresis" horiz-adv-x="696" unicode="¨"/><glyph d="M854 1065q-137 0 -223 -98.5t-86 -243.5t85 -243.5t224 -98.5q176 0 264 151l51 -26q-106 -182 -315 -182q-162 0 -265.5 115.5t-103.5 283.5t103.5 282.5t265.5 114.5q209 0 315 -182l-51 -27q-88 154 -264 154zM848 1446q301 0 514 -216t213 -517t-214 -514t-515 -213 t-517 213t-216 514t217 517t518 216zM845.5 51q274.5 0 469 194.5t194.5 467.5q0 274 -194.5 470.5t-466.5 196.5q-274 0 -472 -196.5t-198 -470.5q0 -272 196.5 -467t471 -195z" glyph-name="copyright" horiz-adv-x="1687" unicode="©"/><glyph d="M459 870l-230 -321l230 -322h-88l-228 322l228 321h88zM770 870l-227 -321l227 -322h-86l-229 322l229 321h86z" glyph-name="guillemotleft" horiz-adv-x="913" unicode="«"/><glyph d="M848 1446q301 0 514 -216t213 -517t-214 -514t-515 -213t-517 213t-216 514t217 517t518 216zM845.5 51q274.5 0 469 194.5t194.5 467.5q0 274 -194.5 470.5t-466.5 196.5q-274 0 -472 -196.5t-198 -470.5q0 -272 196.5 -467t471 -195zM1157 862q0 -166 -153 -225 l163 -289h-63l-154 275q-31 -6 -63 -7h-242v-268h-55v762h297q115 0 192.5 -66.5t77.5 -181.5zM645 672h242q90 0 149.5 49t59.5 141t-60.5 142.5t-148.5 50.5h-242v-383z" glyph-name="registered" horiz-adv-x="1687" unicode="®"/><glyph d="M154 1368h512v-70h-512v70z" glyph-name="macron" horiz-adv-x="819" unicode="¯"/><glyph d="M416 1446q125 0 210 -84t85 -209t-85 -209t-210 -84q-123 0 -208 84t-85 209t85 209t208 84zM416 926q98 0 163.5 65.5t65.5 161.5t-65.5 161.5t-163.5 65.5q-96 0 -162 -65.5t-66 -161.5t66 -161.5t162 -65.5z" glyph-name="degree" horiz-adv-x="833" unicode="°"/><glyph d="M123 115v71h795v-71h-795zM557 756h361v-72h-361v-360h-72v360h-362v72h362v362h72v-362z" glyph-name="plusminus" horiz-adv-x="1040" unicode="±"/><glyph d="M311 1434h88l-202 -279h-43z" glyph-name="acute" horiz-adv-x="552" unicode="´"/><glyph d="M1001 1434v-72h-147v-1677h-72v1677h-278v-1677h-70v1083q-121 0 -216 91t-95 240.5t97 242t214 92.5h567z" glyph-name="paragraph" horiz-adv-x="1124" unicode="¶"/><glyph d="M315 -113q88 10 135.5 -32.5t47.5 -108.5q0 -94 -80 -141q-119 -68 -264 24l26 45q66 -45 141.5 -43t110.5 56q31 47 12.5 97t-69.5 60q-57 14 -96 -12l-33 25l69 143h58z" glyph-name="cedilla" horiz-adv-x="651" unicode="¸"/><glyph d="M543 870l229 -321l-229 -322h-86l227 322l-227 321h86zM231 870l228 -321l-228 -322h-88l230 322l-230 321h88z" glyph-name="guillemotright" horiz-adv-x="915" unicode="»"/><glyph d="M514 889q-25 0 -41 17.5t-16 40t16 40t41 17.5q23 0 39 -17.5t16 -40t-16 -40t-39 -17.5zM780 -76l70 -16q-27 -172 -134.5 -261t-240.5 -89q-184 0 -281.5 113.5t-76.5 283.5q10 78 47 156.5t67.5 120.5t90.5 114q55 66 80.5 100.5t51 91t25.5 109.5h72 q0 -66 -29.5 -132t-57.5 -104t-87 -110q-57 -70 -86 -108.5t-61.5 -107.5t-41.5 -138q-18 -141 67 -229.5t220 -88.5q117 0 198.5 76t106.5 219z" glyph-name="questiondown" horiz-adv-x="870" unicode="¿"/><glyph d="M1178 0l-177 455h-667l-176 -455h-76l553 1434h65l553 -1434h-75zM360 524h615l-307 795zM508 1843l160 -278h-43l-203 278h86z" glyph-name="Agrave" horiz-adv-x="1335" unicode="À"/><glyph d="M1178 0l-177 455h-667l-176 -455h-76l553 1434h65l553 -1434h-75zM360 524h615l-307 795zM827 1843h88l-202 -278h-43z" glyph-name="Aacute" horiz-adv-x="1335" unicode="Á"/><glyph d="M1178 0l-177 455h-667l-176 -455h-76l553 1434h65l553 -1434h-75zM360 524h615l-307 795zM928 1565h-92l-168 223l-166 -223h-92l217 278h84z" glyph-name="Acircumflex" horiz-adv-x="1335" unicode="Â"/><glyph d="M1178 0l-177 455h-667l-176 -455h-76l553 1434h65l553 -1434h-75zM360 524h615l-307 795zM911 1729l64 -13q-39 -158 -168 -157q-53 0 -102.5 34.5t-91.5 69.5t-78 35q-63 0 -111 -90l-57 28q70 125 180 125q63 0 141 -68.5t123 -68.5q80 1 100 105z" glyph-name="Atilde" horiz-adv-x="1335" unicode="Ã"/><glyph d="M1178 0l-177 455h-667l-176 -455h-76l553 1434h65l553 -1434h-75zM360 524h615l-307 795zM804.5 1753q22.5 0 40 -17.5t17.5 -40t-17.5 -40t-40 -17.5t-39.5 17.5t-17 40t17 40t39.5 17.5zM530.5 1753q22.5 0 40 -17.5t17.5 -40t-17.5 -40t-40 -17.5t-40 17.5t-17.5 40 t17.5 40t40 17.5z" glyph-name="Adieresis" horiz-adv-x="1335" unicode="Ä"/><glyph d="M1178 0l-177 455h-667l-176 -455h-76l553 1434h65l553 -1434h-75zM360 524h615l-307 795zM667.5 1911q77.5 0 132 -54.5t54.5 -132t-54.5 -132t-132 -54.5t-132 54.5t-54.5 132t54.5 132t132 54.5zM667.5 1597q53.5 0 91.5 37t38 90.5t-38 90t-91.5 36.5t-90 -36.5 t-36.5 -90t36.5 -90.5t90 -37z" glyph-name="Aring" horiz-adv-x="1335" unicode="Å"/><glyph d="M1073 72h883v-72h-952v459h-623l-240 -459h-80l752 1434h1131v-72h-871v-610h807v-70h-807v-610zM420 528h584v834h-148z" glyph-name="AE" horiz-adv-x="2107" unicode="Æ"/><glyph d="M827 59q168 0 305.5 79t221.5 216l63 -30q-90 -152 -239.5 -242t-331.5 -94l-49 -101q88 10 135 -32.5t47 -108.5q0 -94 -80 -141q-119 -68 -264 24l24 45q68 -45 144 -43t110 56q31 47 12.5 97t-69.5 60q-57 14 -98 -12l-33 25l66 133q-283 14 -470.5 223t-187.5 504 q0 305 198.5 517t495.5 212q188 0 343 -90t247 -244l-63 -33q-84 137 -221.5 217t-305.5 80q-266 0 -441 -191.5t-177 -467.5q2 -276 177 -467t441 -191z" glyph-name="Ccedilla" horiz-adv-x="1550" unicode="Ç"/><glyph d="M274 72h883v-72h-952v1434h940v-72h-871v-610h807v-70h-807v-610zM602 1843l160 -278h-43l-203 278h86z" glyph-name="Egrave" horiz-adv-x="1308" unicode="È"/><glyph d="M274 72h883v-72h-952v1434h940v-72h-871v-610h807v-70h-807v-610zM776 1843h88l-202 -278h-44z" glyph-name="Eacute" horiz-adv-x="1308" unicode="É"/><glyph d="M274 72h883v-72h-952v1434h940v-72h-871v-610h807v-70h-807v-610zM940 1565h-92l-168 223l-166 -223h-92l217 278h84z" glyph-name="Ecircumflex" horiz-adv-x="1308" unicode="Ê"/><glyph d="M274 72h883v-72h-952v1434h940v-72h-871v-610h807v-70h-807v-610zM817.5 1753q22.5 0 39.5 -17.5t17 -40t-17 -40t-39.5 -17.5t-40 17.5t-17.5 40t17.5 40t40 17.5zM542.5 1753q22.5 0 40 -17.5t17.5 -40t-17.5 -40t-40 -17.5t-40 17.5t-17.5 40t17.5 40t40 17.5z" glyph-name="Edieresis" horiz-adv-x="1308" unicode="Ë"/><glyph d="M205 1434h69v-1434h-69v1434zM90 1843l160 -278h-43l-203 278h86z" glyph-name="Igrave" horiz-adv-x="479" unicode="Ì"/><glyph d="M205 1434h69v-1434h-69v1434zM391 1843h88l-203 -278h-43z" glyph-name="Iacute" horiz-adv-x="479" unicode="Í"/><glyph d="M203 1434h69v-1434h-69v1434zM498 1565h-92l-168 223l-166 -223h-92l217 278h84z" glyph-name="Icircumflex" horiz-adv-x="477" unicode="Î"/><glyph d="M205 1434h69v-1434h-69v1434zM376.5 1753q22.5 0 40 -17.5t17.5 -40t-17.5 -40t-40 -17.5t-40 17.5t-17.5 40t17.5 40t40 17.5zM102.5 1753q22.5 0 40 -17.5t17.5 -40t-17.5 -40t-40 -17.5t-40 17.5t-17.5 40t17.5 40t40 17.5z" glyph-name="Idieresis" horiz-adv-x="479" unicode="Ï"/><glyph d="M645 1434q332 0 542 -189.5t210 -527.5t-210 -527.5t-542 -189.5h-399v682h-185v70h185v682h399zM645 72q291 0 482.5 172t191.5 473q0 303 -189.5 474t-484.5 171h-330v-610h422v-70h-422v-610h330z" glyph-name="Eth" horiz-adv-x="1550" unicode="Ð"/><glyph d="M1225 1434h71v-1434h-65l-955 1307v-1307h-71v1434h65l955 -1311v1311zM1036 1729l64 -13q-39 -158 -168 -157q-53 0 -102.5 34.5t-91.5 69.5t-79 35q-63 0 -110 -90l-57 28q70 125 180 125q61 0 141 -68.5t123 -68.5q80 1 100 105z" glyph-name="Ntilde" horiz-adv-x="1501" unicode="Ñ"/><glyph d="M807 1446q299 0 497.5 -213t198.5 -518t-199.5 -517t-496.5 -212t-495.5 212t-198.5 517t198.5 518t495.5 213zM807 55q268 0 443 191.5t175 468t-175 468t-443 191.5q-266 0 -441.5 -191.5t-175.5 -468t175.5 -468t441.5 -191.5zM690 1843l160 -278h-43l-203 278h86z " glyph-name="Ograve" horiz-adv-x="1615" unicode="Ò"/><glyph d="M807 1446q299 0 497.5 -213t198.5 -518t-199.5 -517t-496.5 -212t-495.5 212t-198.5 517t198.5 518t495.5 213zM807 55q268 0 443 191.5t175 468t-175 468t-443 191.5q-266 0 -441.5 -191.5t-175.5 -468t175.5 -468t441.5 -191.5zM946 1843h88l-203 -278h-43z" glyph-name="Oacute" horiz-adv-x="1615" unicode="Ó"/><glyph d="M807 1446q299 0 497.5 -213t198.5 -518t-199.5 -517t-496.5 -212t-495.5 212t-198.5 517t198.5 518t495.5 213zM807 55q268 0 443 191.5t175 468t-175 468t-443 191.5q-266 0 -441.5 -191.5t-175.5 -468t175.5 -468t441.5 -191.5zM1067 1565h-92l-168 223l-166 -223h-92 l217 278h84z" glyph-name="Ocircumflex" horiz-adv-x="1615" unicode="Ô"/><glyph d="M807 1446q299 0 497.5 -213t198.5 -518t-199.5 -517t-496.5 -212t-495.5 212t-198.5 517t198.5 518t495.5 213zM807 55q268 0 443 191.5t175 468t-175 468t-443 191.5q-266 0 -441.5 -191.5t-175.5 -468t175.5 -468t441.5 -191.5zM1073 1729l64 -13q-39 -158 -168 -157 q-53 0 -102.5 34.5t-91.5 69.5t-79 35q-63 0 -110 -90l-58 28q70 125 181 125q61 0 141 -68.5t123 -68.5q80 1 100 105z" glyph-name="Otilde" horiz-adv-x="1615" unicode="Õ"/><glyph d="M807 1446q299 0 497.5 -213t198.5 -518t-199.5 -517t-496.5 -212t-495.5 212t-198.5 517t198.5 518t495.5 213zM807 55q268 0 443 191.5t175 468t-175 468t-443 191.5q-266 0 -441.5 -191.5t-175.5 -468t175.5 -468t441.5 -191.5zM946.5 1753q22.5 0 40 -17.5t17.5 -40 t-17.5 -40t-40 -17.5t-40 17.5t-17.5 40t17.5 40t40 17.5zM671.5 1753q22.5 0 40 -17.5t17.5 -40t-17.5 -40t-40 -17.5t-40 17.5t-17.5 40t17.5 40t40 17.5z" glyph-name="Odieresis" horiz-adv-x="1615" unicode="Ö"/><glyph d="M795 911l-285 -282l283 -287l-50 -49l-284 285l-285 -285l-51 51l285 285l-283 284l49 50l285 -285l284 285z" glyph-name="multiply" horiz-adv-x="917" unicode="×"/><glyph d="M1313 1223q190 -207 190 -508q0 -305 -198.5 -517t-495.5 -212q-264 0 -457 172l-166 -183l-51 50l166 184q-188 209 -188 506q0 305 198.5 518t497.5 213q260 0 455 -172l166 182l53 -47zM190 715q0 -264 160 -451l864 955q-168 156 -405 155q-268 0 -443.5 -191.5 t-175.5 -467.5zM809 55q266 0 442 191.5t176 468.5q0 264 -163 454l-865 -956q170 -158 410 -158z" glyph-name="Oslash" horiz-adv-x="1615" unicode="Ø"/><glyph d="M1188 1434h72v-856q0 -272 -139.5 -432t-389.5 -160t-388 157.5t-138 434.5v856h71v-856q0 -246 121 -384.5t334 -138.5t335 138.5t122 384.5v856zM614 1843l160 -278h-43l-203 278h86z" glyph-name="Ugrave" horiz-adv-x="1464" unicode="Ù"/><glyph d="M1188 1434h72v-856q0 -272 -139.5 -432t-389.5 -160t-388 157.5t-138 434.5v856h71v-856q0 -246 121 -384.5t334 -138.5t335 138.5t122 384.5v856zM870 1843h88l-202 -278h-43z" glyph-name="Uacute" horiz-adv-x="1464" unicode="Ú"/><glyph d="M1188 1434h72v-856q0 -272 -139.5 -432t-389.5 -160t-388 157.5t-138 434.5v856h71v-856q0 -246 121 -384.5t334 -138.5t335 138.5t122 384.5v856zM991 1565h-92l-168 223l-166 -223h-92l217 278h84z" glyph-name="Ucircumflex" horiz-adv-x="1464" unicode="Û"/><glyph d="M1188 1434h72v-856q0 -272 -139.5 -432t-389.5 -160t-388 157.5t-138 434.5v856h71v-856q0 -246 121 -384.5t334 -138.5t335 138.5t122 384.5v856zM870.5 1753q22.5 0 40 -17.5t17.5 -40t-17.5 -40t-40 -17.5t-40 17.5t-17.5 40t17.5 40t40 17.5zM595.5 1753 q22.5 0 40 -17.5t17.5 -40t-17.5 -40t-40 -17.5t-39.5 17.5t-17 40t17 40t39.5 17.5z" glyph-name="Udieresis" horiz-adv-x="1464" unicode="Ü"/><glyph d="M1186 1434l-537 -957v-477h-69v475l-539 959h82l491 -875l490 875h82zM772 1843h88l-203 -278h-43z" glyph-name="Yacute" horiz-adv-x="1226" unicode="Ý"/><glyph d="M719 1155q199 0 333 -122t134 -316q0 -197 -132 -317.5t-335 -120.5h-445v-279h-69v1434h69v-279h445zM719 350q168 0 279.5 99.5t111.5 267.5t-109.5 267t-281.5 99h-445v-733h445z" glyph-name="Thorn" horiz-adv-x="1267" unicode="Þ"/><glyph d="M694 780q147 -43 220 -145.5t73 -218.5q0 -180 -124 -305t-333 -125h-22v69h22q168 0 278 103.5t110 257.5q0 147 -106.5 236t-281.5 89h-22v72h22q143 0 217 82t74 203t-71.5 198.5t-206.5 77.5q-143 0 -225 -107.5t-82 -324.5v-942h-72v948q0 233 97 365.5t282 132.5 q172 0 261 -105.5t89 -242.5q0 -106 -50.5 -191.5t-148.5 -126.5z" glyph-name="germandbls" horiz-adv-x="1089" unicode="ß"/><glyph d="M516 1001q59 0 115.5 -16t110 -52t86 -107.5t32.5 -168.5v-657h-69v203q-141 -217 -404 -217q-76 0 -140.5 20.5t-114.5 77.5t-50 145q0 131 96 199t268 109q27 6 71 15t69.5 14t61.5 14.5t57.5 18.5t43 22.5t30.5 29t9 35.5q0 109 -67.5 177.5t-204.5 68.5 q-131 0 -210 -61.5t-103 -163.5l-70 16q72 278 383 278zM791 412v131q-31 -6 -140.5 -34t-187.5 -42q-168 -35 -236.5 -89t-68.5 -149q0 -86 67.5 -130t171.5 -44q166 0 280 105t114 252zM381 1434l160 -279h-43l-203 279h86z" glyph-name="agrave" horiz-adv-x="1024" unicode="à"/><glyph d="M516 1001q59 0 115.5 -16t110 -52t86 -107.5t32.5 -168.5v-657h-69v203q-141 -217 -404 -217q-76 0 -140.5 20.5t-114.5 77.5t-50 145q0 131 96 199t268 109q27 6 71 15t69.5 14t61.5 14.5t57.5 18.5t43 22.5t30.5 29t9 35.5q0 109 -67.5 177.5t-204.5 68.5 q-131 0 -210 -61.5t-103 -163.5l-70 16q72 278 383 278zM791 412v131q-31 -6 -140.5 -34t-187.5 -42q-168 -35 -236.5 -89t-68.5 -149q0 -86 67.5 -130t171.5 -44q166 0 280 105t114 252zM629 1434h88l-203 -279h-43z" glyph-name="aacute" horiz-adv-x="1024" unicode="á"/><glyph d="M516 1001q59 0 115.5 -16t110 -52t86 -107.5t32.5 -168.5v-657h-69v203q-141 -217 -404 -217q-76 0 -140.5 20.5t-114.5 77.5t-50 145q0 131 96 199t268 109q27 6 71 15t69.5 14t61.5 14.5t57.5 18.5t43 22.5t30.5 29t9 35.5q0 109 -67.5 177.5t-204.5 68.5 q-131 0 -210 -61.5t-103 -163.5l-70 16q72 278 383 278zM791 412v131q-31 -6 -140.5 -34t-187.5 -42q-168 -35 -236.5 -89t-68.5 -149q0 -86 67.5 -130t171.5 -44q166 0 280 105t114 252zM774 1155h-92l-168 223l-166 -223h-92l217 279h84z" glyph-name="acircumflex" horiz-adv-x="1024" unicode="â"/><glyph d="M516 1001q59 0 115.5 -16t110 -52t86 -107.5t32.5 -168.5v-657h-69v203q-141 -217 -404 -217q-76 0 -140.5 20.5t-114.5 77.5t-50 145q0 131 96 199t268 109q27 6 71 15t69.5 14t61.5 14.5t57.5 18.5t43 22.5t30.5 29t9 35.5q0 109 -67.5 177.5t-204.5 68.5 q-131 0 -210 -61.5t-103 -163.5l-70 16q72 278 383 278zM791 412v131q-31 -6 -140.5 -34t-187.5 -42q-168 -35 -236.5 -89t-68.5 -149q0 -86 67.5 -130t171.5 -44q166 0 280 105t114 252zM745 1319l64 -12q-39 -158 -168 -158q-53 0 -102.5 35t-91 69.5t-78.5 34.5 q-63 0 -111 -90l-57 29q70 125 180 125q61 0 141 -69t123 -69q80 1 100 105z" glyph-name="atilde" horiz-adv-x="1024" unicode="ã"/><glyph d="M516 1001q59 0 115.5 -16t110 -52t86 -107.5t32.5 -168.5v-657h-69v203q-141 -217 -404 -217q-76 0 -140.5 20.5t-114.5 77.5t-50 145q0 131 96 199t268 109q27 6 71 15t69.5 14t61.5 14.5t57.5 18.5t43 22.5t30.5 29t9 35.5q0 109 -67.5 177.5t-204.5 68.5 q-131 0 -210 -61.5t-103 -163.5l-70 16q72 278 383 278zM791 412v131q-31 -6 -140.5 -34t-187.5 -42q-168 -35 -236.5 -89t-68.5 -149q0 -86 67.5 -130t171.5 -44q166 0 280 105t114 252zM643.5 1343q22.5 0 39.5 -17t17 -39.5t-17 -40t-39.5 -17.5t-40 17.5t-17.5 40 t17.5 39.5t40 17zM368.5 1343q22.5 0 40 -17t17.5 -39.5t-17.5 -40t-40 -17.5t-40 17.5t-17.5 40t17.5 39.5t40 17z" glyph-name="adieresis" horiz-adv-x="1024" unicode="ä"/><glyph d="M516 1001q59 0 115.5 -16t110 -52t86 -107.5t32.5 -168.5v-657h-69v203q-141 -217 -404 -217q-76 0 -140.5 20.5t-114.5 77.5t-50 145q0 131 96 199t268 109q27 6 71 15t69.5 14t61.5 14.5t57.5 18.5t43 22.5t30.5 29t9 35.5q0 109 -67.5 177.5t-204.5 68.5 q-131 0 -210 -61.5t-103 -163.5l-70 16q72 278 383 278zM791 412v131q-31 -6 -140.5 -34t-187.5 -42q-168 -35 -236.5 -89t-68.5 -149q0 -86 67.5 -130t171.5 -44q166 0 280 105t114 252zM512 1501q78 0 132 -54t54 -132t-54 -132.5t-132 -54.5t-132 54.5t-54 132.5t54 132 t132 54zM512 1188q53 0 91 37t38 90t-38 90t-91 37t-90 -37t-37 -90t37 -90t90 -37z" glyph-name="aring" horiz-adv-x="1024" unicode="å"/><glyph d="M1714 494q0 -37 -2 -54h-829q16 -168 123.5 -276.5t271.5 -108.5q223 0 336 195l65 -33q-61 -106 -165.5 -168.5t-235.5 -62.5q-152 0 -267.5 82t-168.5 219q-12 -39 -39 -84q-51 -82 -158.5 -149.5t-257.5 -67.5q-121 0 -213 57t-92 184q0 133 97 201t270 107 q31 6 97 20t99 23.5t76 24.5t61.5 35.5t18.5 47.5q0 106 -69.5 175t-209.5 69q-133 0 -217 -62.5t-108 -160.5l-70 16q31 113 125 195.5t270 82.5q115 0 214.5 -59t127.5 -192q59 117 168 184t246 67q203 0 319.5 -144t116.5 -363zM1278 930q-172 0 -281.5 -120t-115.5 -298 h755q-4 184 -96 301t-262 117zM803 412v131q-27 -6 -143.5 -34t-196.5 -42q-168 -35 -236.5 -90t-68.5 -150q0 -84 67.5 -128t171.5 -44q168 0 287 105t119 252z" glyph-name="ae" horiz-adv-x="1837" unicode="æ"/><glyph d="M578 57q225 0 335 195l66 -33q-57 -102 -153.5 -163.5t-219.5 -69.5l-49 -99q88 10 135 -32.5t47 -108.5q0 -96 -82 -141q-119 -68 -262 24l25 45q68 -45 142.5 -43t109.5 56q31 47 12.5 97t-70.5 60q-57 14 -96 -12l-33 25l64 129q-197 10 -322 155.5t-125 352.5 q0 215 134.5 362.5t341.5 147.5q131 0 235.5 -63.5t165.5 -170.5l-66 -33q-113 195 -335 195q-178 0 -288 -126t-110 -312.5t110 -311.5t288 -125z" glyph-name="ccedilla" horiz-adv-x="1091" unicode="ç"/><glyph d="M993 494q0 -35 -2 -54h-829q16 -168 123.5 -276.5t271.5 -108.5q223 0 336 197l65 -33q-61 -109 -165.5 -171t-235.5 -62q-207 0 -341 147.5t-134 360.5t134 360t341 147q203 0 319.5 -144t116.5 -363zM557 932q-172 0 -281.5 -120t-115.5 -300h755q-4 184 -96 302 t-262 118zM420 1434l160 -279h-43l-203 279h86z" glyph-name="egrave" unicode="è"/><glyph d="M993 494q0 -35 -2 -54h-829q16 -168 123.5 -276.5t271.5 -108.5q223 0 336 197l65 -33q-61 -109 -165.5 -171t-235.5 -62q-207 0 -341 147.5t-134 360.5t134 360t341 147q203 0 319.5 -144t116.5 -363zM557 932q-172 0 -281.5 -120t-115.5 -300h755q-4 184 -96 302 t-262 118zM696 1434h88l-202 -279h-43z" glyph-name="eacute" unicode="é"/><glyph d="M993 494q0 -35 -2 -54h-829q16 -168 123.5 -276.5t271.5 -108.5q223 0 336 197l65 -33q-61 -109 -165.5 -171t-235.5 -62q-207 0 -341 147.5t-134 360.5t134 360t341 147q203 0 319.5 -144t116.5 -363zM557 932q-172 0 -281.5 -120t-115.5 -300h755q-4 184 -96 302 t-262 118zM817 1155h-92l-168 223l-166 -223h-92l217 279h84z" glyph-name="ecircumflex" unicode="ê"/><glyph d="M993 494q0 -35 -2 -54h-829q16 -168 123.5 -276.5t271.5 -108.5q223 0 336 197l65 -33q-61 -109 -165.5 -171t-235.5 -62q-207 0 -341 147.5t-134 360.5t134 360t341 147q203 0 319.5 -144t116.5 -363zM557 932q-172 0 -281.5 -120t-115.5 -300h755q-4 184 -96 302 t-262 118zM696.5 1343q22.5 0 40 -17t17.5 -39.5t-17.5 -40t-40 -17.5t-40 17.5t-17.5 40t17.5 39.5t40 17zM421.5 1343q22.5 0 40 -17t17.5 -39.5t-17.5 -40t-40 -17.5t-39.5 17.5t-17 40t17 39.5t39.5 17z" glyph-name="edieresis" unicode="ë"/><glyph d="M184 0v987h72v-987h-72zM61 1434l160 -279h-43l-203 279h86z" glyph-name="igrave" horiz-adv-x="450" unicode="ì"/><glyph d="M184 0v987h72v-987h-72zM358 1434h88l-202 -279h-43z" glyph-name="iacute" horiz-adv-x="450" unicode="í"/><glyph d="M186 0v987h72v-987h-72zM481 1155h-92l-168 223l-166 -223h-92l217 279h84z" glyph-name="icircumflex" horiz-adv-x="450" unicode="î"/><glyph d="M188 0v987h72v-987h-72zM362.5 1323q22.5 0 40 -17.5t17.5 -40t-17.5 -40t-40 -17.5t-40 17.5t-17.5 40t17.5 40t40 17.5zM88.5 1323q22.5 0 39.5 -17.5t17 -40t-17 -40t-39.5 -17.5t-40 17.5t-17.5 40t17.5 40t40 17.5z" glyph-name="idieresis" horiz-adv-x="450" unicode="ï"/><glyph d="M680 1419q217 -152 318.5 -390t82 -463.5t-130.5 -385.5q-59 -86 -153.5 -140t-208.5 -54q-209 0 -347.5 147.5t-138.5 360.5q0 215 133.5 361t339.5 146q166 0 285 -98t158 -254q-6 139 -46 262t-99.5 211t-120 147.5t-121.5 98.5l-223 -225l-50 49l209 213 q-139 74 -293 98l13 72q184 -35 331 -117l181 184l51 -51zM588 55q176 0 278.5 125t102.5 314q0 199 -106.5 317.5t-287.5 118.5q-178 0 -287.5 -125t-109.5 -311q0 -184 116 -311.5t294 -127.5z" glyph-name="eth" horiz-adv-x="1204" unicode="ð"/><glyph d="M559 1001q180 0 281.5 -118.5t101.5 -321.5v-561h-72v561q0 166 -81.5 268.5t-229.5 102.5q-141 0 -233.5 -109.5t-92.5 -285.5v-537h-69v987h69v-201q107 215 326 215zM799 1319l63 -12q-39 -158 -168 -158q-53 0 -102 35t-91 69.5t-79 34.5q-63 0 -111 -90l-57 29 q70 125 180 125q61 0 141 -69t123 -69q81 1 101 105z" glyph-name="ntilde" horiz-adv-x="1105" unicode="ñ"/><glyph d="M577.5 1001q206.5 0 340 -146t133.5 -361t-133.5 -361.5t-340 -146.5t-341 147.5t-134.5 360.5t134.5 360t341 147zM577.5 55q178.5 0 287 126t108.5 312.5t-108.5 312.5t-287 126t-288 -126t-109.5 -312.5t109.5 -312.5t288 -126zM438 1434l160 -279h-43l-203 279h86z " glyph-name="ograve" horiz-adv-x="1163" unicode="ò"/><glyph d="M577.5 1001q206.5 0 340 -146t133.5 -361t-133.5 -361.5t-340 -146.5t-341 147.5t-134.5 360.5t134.5 360t341 147zM577.5 55q178.5 0 287 126t108.5 312.5t-108.5 312.5t-287 126t-288 -126t-109.5 -312.5t109.5 -312.5t288 -126zM715 1434h88l-203 -279h-43z" glyph-name="oacute" horiz-adv-x="1163" unicode="ó"/><glyph d="M577.5 1001q206.5 0 340 -146t133.5 -361t-133.5 -361.5t-340 -146.5t-341 147.5t-134.5 360.5t134.5 360t341 147zM577.5 55q178.5 0 287 126t108.5 312.5t-108.5 312.5t-287 126t-288 -126t-109.5 -312.5t109.5 -312.5t288 -126zM836 1155h-93l-168 223l-165 -223h-93 l218 279h83z" glyph-name="ocircumflex" horiz-adv-x="1163" unicode="ô"/><glyph d="M577.5 1001q206.5 0 340 -146t133.5 -361t-133.5 -361.5t-340 -146.5t-341 147.5t-134.5 360.5t134.5 360t341 147zM577.5 55q178.5 0 287 126t108.5 312.5t-108.5 312.5t-287 126t-288 -126t-109.5 -312.5t109.5 -312.5t288 -126zM821 1319l64 -12q-39 -158 -168 -158 q-53 0 -102.5 35t-91.5 69.5t-79 34.5q-63 0 -110 -90l-58 29q70 125 181 125q51 0 97 -35t87 -69t80 -34q80 1 100 105z" glyph-name="otilde" horiz-adv-x="1163" unicode="õ"/><glyph d="M577.5 1001q206.5 0 340 -146t133.5 -361t-133.5 -361.5t-340 -146.5t-341 147.5t-134.5 360.5t134.5 360t341 147zM577.5 55q178.5 0 287 126t108.5 312.5t-108.5 312.5t-287 126t-288 -126t-109.5 -312.5t109.5 -312.5t288 -126zM714.5 1343q22.5 0 40 -17t17.5 -39.5 t-17.5 -40t-40 -17.5t-40 17.5t-17.5 40t17.5 39.5t40 17zM440.5 1343q22.5 0 40 -17t17.5 -39.5t-17.5 -40t-40 -17.5t-40 17.5t-17.5 40t17.5 39.5t40 17z" glyph-name="odieresis" horiz-adv-x="1163" unicode="ö"/><glyph d="M123 664h795v-72h-795v72zM520 920q-23 0 -39 17t-16 39.5t16.5 40t38.5 17.5q25 0 41.5 -17.5t16.5 -40t-16.5 -39.5t-41.5 -17zM520 336q25 0 41.5 -16.5t16.5 -40.5q0 -23 -16.5 -40.5t-41.5 -17.5q-23 0 -39 17.5t-16 40.5q0 25 16 41t39 16z" glyph-name="divide" horiz-adv-x="1040" unicode="÷"/><glyph d="M932 836q117 -143 117 -342q0 -215 -133.5 -361.5t-340.5 -146.5q-180 0 -307 114l-112 -125l-54 50l117 127q-117 139 -117 342q0 215 133.5 361t339.5 146q180 0 308 -114l112 123l52 -47zM178 494q0 -168 90 -287l566 627q-102 96 -259 96q-178 0 -287.5 -125 t-109.5 -311zM575 55q178 0 287 126t109 313q0 168 -88 286l-568 -626q108 -99 260 -99z" glyph-name="oslash" horiz-adv-x="1161" unicode="ø"/><glyph d="M852 987h72v-987h-72v186q-113 -201 -326 -200q-180 0 -281.5 119.5t-101.5 322.5v559h72v-559q0 -166 82 -268.5t229 -102.5q139 0 232.5 105.5t93.5 267.5v557zM416 1434l159 -279h-43l-202 279h86z" glyph-name="ugrave" horiz-adv-x="1087" unicode="ù"/><glyph d="M852 987h72v-987h-72v186q-113 -201 -326 -200q-180 0 -281.5 119.5t-101.5 322.5v559h72v-559q0 -166 82 -268.5t229 -102.5q139 0 232.5 105.5t93.5 267.5v557zM672 1434h88l-203 -279h-43z" glyph-name="uacute" horiz-adv-x="1087" unicode="ú"/><glyph d="M852 987h72v-987h-72v186q-113 -201 -326 -200q-180 0 -281.5 119.5t-101.5 322.5v559h72v-559q0 -166 82 -268.5t229 -102.5q139 0 232.5 105.5t93.5 267.5v557zM813 1155h-92l-168 223l-166 -223h-92l217 279h84z" glyph-name="ucircumflex" horiz-adv-x="1087" unicode="û"/><glyph d="M852 987h72v-987h-72v186q-113 -201 -326 -200q-180 0 -281.5 119.5t-101.5 322.5v559h72v-559q0 -166 82 -268.5t229 -102.5q139 0 232.5 105.5t93.5 267.5v557zM692.5 1343q22.5 0 40 -17t17.5 -39.5t-17.5 -40t-40 -17.5t-40 17.5t-17.5 40t17.5 39.5t40 17z M417.5 1343q22.5 0 40 -17t17.5 -39.5t-17.5 -40t-40 -17.5t-40 17.5t-17.5 40t17.5 39.5t40 17z" glyph-name="udieresis" horiz-adv-x="1087" unicode="ü"/><glyph d="M791 987h75l-372 -987q-51 -137 -81 -200.5t-73 -110.5q-43 -51 -97.5 -70.5t-85 -17.5t-85.5 12l12 70q125 -25 187.5 37.5t146.5 279.5l-373 987h76l336 -887zM614 1434h88l-202 -279h-43z" glyph-name="yacute" horiz-adv-x="911" unicode="ý"/><glyph d="M627 1001q207 0 333.5 -146t126.5 -361t-126.5 -361.5t-333.5 -146.5q-135 0 -235.5 64.5t-155.5 176.5v-673h-72v1880h72v-674q55 113 155.5 177t235.5 64zM627 55q176 0 280.5 126t104.5 312.5t-104.5 311.5t-280.5 125t-280.5 -125t-104.5 -311.5t104.5 -312.5 t280.5 -126z" glyph-name="thorn" horiz-adv-x="1200" unicode="þ"/><glyph d="M791 987h75l-372 -987q-51 -137 -81 -200.5t-73 -110.5q-43 -51 -97.5 -70.5t-85 -17.5t-85.5 12l12 70q125 -25 187.5 37.5t146.5 279.5l-373 987h76l336 -887zM614.5 1343q22.5 0 40 -17t17.5 -39.5t-17.5 -40t-40 -17.5t-40 17.5t-17.5 40t17.5 39.5t40 17z M339.5 1343q22.5 0 40 -17t17.5 -39.5t-17.5 -40t-40 -17.5t-39.5 17.5t-17 40t17 39.5t39.5 17z" glyph-name="ydieresis" horiz-adv-x="911" unicode="ÿ"/><glyph d="M1178 0l-177 455h-667l-176 -455h-76l553 1434h65l553 -1434h-75zM360 524h615l-307 795zM412 1778h512v-70h-512v70z" glyph-name="Amacron" horiz-adv-x="1335" unicode="Ā"/><glyph d="M516 1001q59 0 115.5 -16t110 -52t86 -107.5t32.5 -168.5v-657h-69v203q-141 -217 -404 -217q-76 0 -140.5 20.5t-114.5 77.5t-50 145q0 131 96 199t268 109q27 6 71 15t69.5 14t61.5 14.5t57.5 18.5t43 22.5t30.5 29t9 35.5q0 109 -67.5 177.5t-204.5 68.5 q-131 0 -210 -61.5t-103 -163.5l-70 16q72 278 383 278zM791 412v131q-31 -6 -140.5 -34t-187.5 -42q-168 -35 -236.5 -89t-68.5 -149q0 -86 67.5 -130t171.5 -44q166 0 280 105t114 252zM256 1368h512v-70h-512v70z" glyph-name="amacron" horiz-adv-x="1024" unicode="ā"/><glyph d="M1178 0l-177 455h-667l-176 -455h-76l553 1434h65l553 -1434h-75zM360 524h615l-307 795zM819 1800h60q0 -100 -56.5 -164.5t-152.5 -64.5q-98 0 -154.5 64.5t-56.5 164.5h59q0 -74 43 -122t109 -48q68 0 108.5 47t40.5 123z" glyph-name="Abreve" horiz-adv-x="1335" unicode="Ă"/><glyph d="M516 1001q59 0 115.5 -16t110 -52t86 -107.5t32.5 -168.5v-657h-69v203q-141 -217 -404 -217q-76 0 -140.5 20.5t-114.5 77.5t-50 145q0 131 96 199t268 109q27 6 71 15t69.5 14t61.5 14.5t57.5 18.5t43 22.5t30.5 29t9 35.5q0 109 -67.5 177.5t-204.5 68.5 q-131 0 -210 -61.5t-103 -163.5l-70 16q72 278 383 278zM791 412v131q-31 -6 -140.5 -34t-187.5 -42q-168 -35 -236.5 -89t-68.5 -149q0 -86 67.5 -130t171.5 -44q166 0 280 105t114 252zM672 1391h59q0 -100 -56.5 -165t-152.5 -65q-98 0 -154.5 64.5t-56.5 165.5h60 q0 -74 43 -122t108 -48q68 0 109 47t41 123z" glyph-name="abreve" horiz-adv-x="1024" unicode="ă"/><glyph d="M1292 -313v-84q-53 -16 -96 -17q-78 0 -133 50.5t-47 132.5q6 74 61.5 137t106.5 94h-6l-177 455h-667l-176 -455h-76l553 1434h65l553 -1434h-6q-68 -37 -124 -108.5t-50 -135.5q8 -74 77.5 -94t141.5 25zM360 526h615l-307 795z" glyph-name="Aogonek" horiz-adv-x="1314" unicode="Ą"/><glyph d="M901 -313v-84q-49 -16 -94 -17q-80 0 -134.5 50.5t-45.5 132.5q6 74 60 137t106 94h-2v205q-139 -219 -404 -219q-76 0 -140.5 20.5t-114.5 77.5t-50 145q0 131 96 199t268 109q27 6 71 15t69.5 14t61.5 14.5t57.5 18.5t43 22.5t30.5 29t9 35.5q0 109 -67.5 177.5 t-204.5 68.5q-131 0 -210 -61.5t-103 -163.5l-70 16q72 281 383 281q59 0 115.5 -16.5t110 -53.5t86 -108.5t32.5 -168.5v-657h-2q-70 -37 -125 -108.5t-49 -135.5q8 -74 76.5 -94t140.5 25zM791 412v133q-4 -2 -125 -32t-203 -46q-168 -33 -236.5 -88t-68.5 -150 q0 -84 67.5 -128t171.5 -44q168 0 281 101.5t113 253.5z" glyph-name="aogonek" horiz-adv-x="1024" unicode="ą"/><glyph d="M827 59q168 0 305.5 79t219.5 216l65 -30q-92 -156 -246.5 -246t-343.5 -90q-297 0 -495.5 212t-198.5 517t198.5 517t495.5 212q188 0 343 -90t247 -246l-65 -31q-82 137 -219.5 216t-305.5 79q-266 0 -441 -190.5t-177 -466.5q2 -276 177 -467t441 -191zM932 1843h88 l-203 -278h-43z" glyph-name="Cacute" horiz-adv-x="1550" unicode="Ć"/><glyph d="M575 55q223 0 336 197l68 -33q-63 -109 -167.5 -171t-236.5 -62q-207 0 -340 146.5t-133 361.5t133.5 361t339.5 146q131 0 235.5 -62t168.5 -171l-68 -31q-113 195 -336 195q-178 0 -287.5 -126t-109.5 -312.5t109.5 -312.5t287.5 -126zM698 1434h88l-202 -279h-43z" glyph-name="cacute" horiz-adv-x="1091" unicode="ć"/><glyph d="M827 59q168 0 305.5 79t219.5 216l65 -30q-92 -156 -246.5 -246t-343.5 -90q-297 0 -495.5 212t-198.5 517t198.5 517t495.5 212q188 0 343 -90t247 -246l-65 -31q-82 137 -219.5 216t-305.5 79q-266 0 -441 -190.5t-177 -466.5q2 -276 177 -467t441 -191zM1087 1565h-92 l-168 223l-165 -223h-93l217 278h84z" glyph-name="Ccircumflex" horiz-adv-x="1550" unicode="Ĉ"/><glyph d="M575 55q223 0 336 197l68 -33q-63 -109 -167.5 -171t-236.5 -62q-207 0 -340 146.5t-133 361.5t133.5 361t339.5 146q131 0 235.5 -62t168.5 -171l-68 -31q-113 195 -336 195q-178 0 -287.5 -126t-109.5 -312.5t109.5 -312.5t287.5 -126zM842 1155h-92l-168 223 l-166 -223h-92l217 279h84z" glyph-name="ccircumflex" horiz-adv-x="1091" unicode="ĉ"/><glyph d="M827 59q168 0 305.5 79t219.5 216l65 -30q-92 -156 -246.5 -246t-343.5 -90q-297 0 -495.5 212t-198.5 517t198.5 517t495.5 212q188 0 343 -90t247 -246l-65 -31q-82 137 -219.5 216t-305.5 79q-266 0 -441 -190.5t-177 -466.5q2 -276 177 -467t441 -191zM840 1753 q25 0 41 -17.5t16 -40t-16.5 -40t-40.5 -17.5q-23 0 -39.5 17.5t-16.5 40t16.5 40t39.5 17.5z" glyph-name="Cdotaccent" horiz-adv-x="1550" unicode="Ċ"/><glyph d="M575 55q223 0 336 197l68 -33q-63 -109 -167.5 -171t-236.5 -62q-207 0 -340 146.5t-133 361.5t133.5 361t339.5 146q131 0 235.5 -62t168.5 -171l-68 -31q-113 195 -336 195q-178 0 -287.5 -126t-109.5 -312.5t109.5 -312.5t287.5 -126zM582 1343q25 0 41 -17t16 -39.5 t-16.5 -40t-40.5 -17.5q-23 0 -39.5 17.5t-16.5 40t16.5 39.5t39.5 17z" glyph-name="cdotaccent" horiz-adv-x="1091" unicode="ċ"/><glyph d="M827 59q168 0 305.5 79t219.5 216l65 -30q-92 -156 -246.5 -246t-343.5 -90q-297 0 -495.5 212t-198.5 517t198.5 517t495.5 212q188 0 343 -90t247 -246l-65 -31q-82 137 -219.5 216t-305.5 79q-266 0 -441 -190.5t-177 -466.5q2 -276 177 -467t441 -191zM983 1843h92 l-217 -278h-84l-217 278h92l166 -223z" glyph-name="Ccaron" horiz-adv-x="1550" unicode="Č"/><glyph d="M575 55q223 0 336 197l68 -33q-63 -109 -167.5 -171t-236.5 -62q-207 0 -340 146.5t-133 361.5t133.5 361t339.5 146q131 0 235.5 -62t168.5 -171l-68 -31q-113 195 -336 195q-178 0 -287.5 -126t-109.5 -312.5t109.5 -312.5t287.5 -126zM750 1434h92l-217 -279h-84 l-217 279h92l166 -224z" glyph-name="ccaron" horiz-adv-x="1091" unicode="č"/><glyph d="M606 1434q332 0 542 -189.5t210 -527.5t-210 -527.5t-542 -189.5h-401v1434h401zM606 72q291 0 479.5 171t188.5 474t-186.5 474t-481.5 171h-330v-1290h330zM860 1843h92l-217 -278h-84l-217 278h92l166 -223z" glyph-name="Dcaron" horiz-adv-x="1511" unicode="Ď"/><glyph d="M956 1434h72v-1434h-72v227q-55 -113 -156.5 -177t-234.5 -64q-207 0 -335 146.5t-128 361.5t128 361t335 146q133 0 234.5 -64.5t156.5 -176.5v674zM565 55q176 0 280.5 126t104.5 312.5t-104.5 312.5t-280.5 126t-280.5 -126t-104.5 -312.5t104.5 -312.5t280.5 -126z M1186 1090l94 344h90l-143 -344h-41z" glyph-name="dcaron" horiz-adv-x="1247" unicode="ď"/><glyph d="M645 1434q332 0 542 -189.5t210 -527.5t-210 -527.5t-542 -189.5h-399v682h-185v70h185v682h399zM645 72q291 0 482.5 172t191.5 473q0 303 -189.5 474t-484.5 171h-330v-610h422v-70h-422v-610h330z" glyph-name="Dcroat" horiz-adv-x="1550" unicode="Đ"/><glyph d="M1227 1243v-72h-199v-1171h-72v227q-55 -113 -156.5 -177t-234.5 -64q-207 0 -335 146.5t-128 361.5t128 361t335 146q133 0 234.5 -64.5t156.5 -176.5v411h-294v72h294v191h72v-191h199zM565 55q176 0 280.5 126t104.5 312.5t-104.5 311.5t-280.5 125t-280.5 -125 t-104.5 -311.5t104.5 -312.5t280.5 -126z" glyph-name="dcroat" horiz-adv-x="1226" unicode="đ"/><glyph d="M274 72h883v-72h-952v1434h940v-72h-871v-610h807v-70h-807v-610zM424 1778h512v-70h-512v70z" glyph-name="Emacron" horiz-adv-x="1308" unicode="Ē"/><glyph d="M993 494q0 -35 -2 -54h-829q16 -168 123.5 -276.5t271.5 -108.5q223 0 336 197l65 -33q-61 -109 -165.5 -171t-235.5 -62q-207 0 -341 147.5t-134 360.5t134 360t341 147q203 0 319.5 -144t116.5 -363zM557 932q-172 0 -281.5 -120t-115.5 -300h755q-4 184 -96 302 t-262 118zM303 1368h512v-70h-512v70z" glyph-name="emacron" unicode="ē"/><glyph d="M274 72h883v-72h-952v1434h940v-72h-871v-610h807v-70h-807v-610zM831 1800h60q0 -100 -56.5 -164.5t-152.5 -64.5q-98 0 -154.5 64.5t-56.5 164.5h59q0 -74 43 -122t109 -48q68 0 108.5 47t40.5 123z" glyph-name="Ebreve" horiz-adv-x="1308" unicode="Ĕ"/><glyph d="M993 494q0 -35 -2 -54h-829q16 -168 123.5 -276.5t271.5 -108.5q223 0 336 197l65 -33q-61 -109 -165.5 -171t-235.5 -62q-207 0 -341 147.5t-134 360.5t134 360t341 147q203 0 319.5 -144t116.5 -363zM557 932q-172 0 -281.5 -120t-115.5 -300h755q-4 184 -96 302 t-262 118zM709 1391h59q0 -100 -56.5 -165t-152.5 -65q-98 0 -154.5 64.5t-56.5 165.5h60q0 -74 43 -122t108 -48q68 0 109 47t41 123z" glyph-name="ebreve" unicode="ĕ"/><glyph d="M274 72h883v-72h-952v1434h940v-72h-871v-610h807v-70h-807v-610zM682 1753q25 0 41 -17.5t16 -40t-16 -40t-41 -17.5q-23 0 -39 17.5t-16 40t16 40t39 17.5z" glyph-name="Edotaccent" horiz-adv-x="1308" unicode="Ė"/><glyph d="M993 494q0 -35 -2 -54h-829q16 -168 123.5 -276.5t271.5 -108.5q223 0 336 197l65 -33q-61 -109 -165.5 -171t-235.5 -62q-207 0 -341 147.5t-134 360.5t134 360t341 147q203 0 319.5 -144t116.5 -363zM557 932q-172 0 -281.5 -120t-115.5 -300h755q-4 184 -96 302 t-262 118zM557 1343q25 0 41 -17t16 -39.5t-16 -40t-41 -17.5q-23 0 -39 17.5t-16 40t16 39.5t39 17z" glyph-name="edotaccent" unicode="ė"/><glyph d="M1200 -313v-84q-49 -16 -94 -17q-80 0 -134 50.5t-46 132.5q6 74 60 137t106 94h-887v1434h940v-70h-869v-610h805v-72h-805v-610h881v-72q-70 -37 -125 -108.5t-49 -135.5q8 -74 76.5 -94t140.5 25z" glyph-name="Eogonek" horiz-adv-x="1308" unicode="Ę"/><glyph d="M991 494q0 -35 -2 -54h-827q16 -166 122.5 -274.5t270.5 -108.5q225 0 336 195l67 -33q-66 -117 -180 -178q-92 -61 -148.5 -141t-51.5 -144q8 -74 77.5 -94t141.5 25v-84q-53 -16 -97 -17q-78 0 -133 50.5t-47 132.5q12 117 137 227q-55 -10 -102 -10q-207 0 -340 146.5 t-133 361.5t133 362.5t340 147.5q203 0 319.5 -145.5t116.5 -364.5zM555 932q-172 0 -281.5 -120t-115.5 -300h755q-4 184 -96 302t-262 118z" glyph-name="eogonek" horiz-adv-x="1114" unicode="ę"/><glyph d="M274 72h883v-72h-952v1434h940v-72h-871v-610h807v-70h-807v-610zM848 1843h92l-217 -278h-84l-217 278h92l166 -223z" glyph-name="Ecaron" horiz-adv-x="1308" unicode="Ě"/><glyph d="M993 494q0 -35 -2 -54h-829q16 -168 123.5 -276.5t271.5 -108.5q223 0 336 197l65 -33q-61 -109 -165.5 -171t-235.5 -62q-207 0 -341 147.5t-134 360.5t134 360t341 147q203 0 319.5 -144t116.5 -363zM557 932q-172 0 -281.5 -120t-115.5 -300h755q-4 184 -96 302 t-262 118zM725 1434h92l-217 -279h-84l-217 279h92l166 -224z" glyph-name="ecaron" unicode="ě"/><glyph d="M856 717h582v-393q-92 -156 -246 -246t-342 -90q-297 0 -496.5 212t-199.5 517t199.5 517t496.5 212q188 0 342 -90t246 -246l-64 -31q-84 137 -220 216t-304 79q-268 0 -443.5 -190.5t-175.5 -467t175.5 -467t443.5 -190.5q162 0 297 74t219 201v311h-510v72zM1096 1565 h-92l-168 223l-166 -223h-92l217 278h84z" glyph-name="Gcircumflex" horiz-adv-x="1611" unicode="Ĝ"/><glyph d="M954 987h72v-969q0 -219 -116.5 -349t-331.5 -130q-137 0 -247 65.5t-161 157.5l61 41q51 -78 142.5 -135t204.5 -57q186 0 281 113.5t95 306.5v196q-55 -113 -155.5 -177t-235.5 -64q-207 0 -334 146.5t-127 361.5t127 361t334 146q135 0 235.5 -64.5t155.5 -176.5v227z M563 55q176 0 280.5 126t104.5 312.5t-104.5 312.5t-280.5 126t-280.5 -126t-104.5 -312.5t104.5 -312.5t280.5 -126zM844 1155h-92l-168 223l-166 -223h-92l217 279h84z" glyph-name="gcircumflex" horiz-adv-x="1189" unicode="ĝ"/><glyph d="M856 717h582v-393q-92 -156 -246 -246t-342 -90q-297 0 -496.5 212t-199.5 517t199.5 517t496.5 212q188 0 342 -90t246 -246l-64 -31q-84 137 -220 216t-304 79q-268 0 -443.5 -190.5t-175.5 -467t175.5 -467t443.5 -190.5q162 0 297 74t219 201v311h-510v72zM987 1800 h60q0 -100 -56.5 -164.5t-152.5 -64.5q-98 0 -154.5 64.5t-56.5 164.5h59q0 -74 43 -122t109 -48q68 0 108.5 47t40.5 123z" glyph-name="Gbreve" horiz-adv-x="1611" unicode="Ğ"/><glyph d="M954 987h72v-969q0 -219 -116.5 -349t-331.5 -130q-137 0 -247 65.5t-161 157.5l61 41q51 -78 142.5 -135t204.5 -57q186 0 281 113.5t95 306.5v196q-55 -113 -155.5 -177t-235.5 -64q-207 0 -334 146.5t-127 361.5t127 361t334 146q135 0 235.5 -64.5t155.5 -176.5v227z M563 55q176 0 280.5 126t104.5 312.5t-104.5 312.5t-280.5 126t-280.5 -126t-104.5 -312.5t104.5 -312.5t280.5 -126zM735 1391h60q0 -100 -56.5 -165t-152.5 -65q-98 0 -154.5 64.5t-56.5 165.5h59q0 -74 43 -122t109 -48q68 0 108.5 47t40.5 123z" glyph-name="gbreve" horiz-adv-x="1189" unicode="ğ"/><glyph d="M856 717h582v-393q-92 -156 -246 -246t-342 -90q-297 0 -496.5 212t-199.5 517t199.5 517t496.5 212q188 0 342 -90t246 -246l-64 -31q-84 137 -220 216t-304 79q-268 0 -443.5 -190.5t-175.5 -467t175.5 -467t443.5 -190.5q162 0 297 74t219 201v311h-510v72zM836 1753 q25 0 41 -17.5t16 -40t-16.5 -40t-40.5 -17.5q-23 0 -39.5 17.5t-16.5 40t16.5 40t39.5 17.5z" glyph-name="Gdotaccent" horiz-adv-x="1611" unicode="Ġ"/><glyph d="M954 987h72v-969q0 -219 -116.5 -349t-331.5 -130q-137 0 -247 65.5t-161 157.5l61 41q51 -78 142.5 -135t204.5 -57q186 0 281 113.5t95 306.5v196q-55 -113 -155.5 -177t-235.5 -64q-207 0 -334 146.5t-127 361.5t127 361t334 146q135 0 235.5 -64.5t155.5 -176.5v227z M563 55q176 0 280.5 126t104.5 312.5t-104.5 312.5t-280.5 126t-280.5 -126t-104.5 -312.5t104.5 -312.5t280.5 -126zM604 1343q25 0 41.5 -17t16.5 -39.5t-16.5 -40t-41.5 -17.5q-23 0 -39 17.5t-16 40t16 39.5t39 17z" glyph-name="gdotaccent" horiz-adv-x="1189" unicode="ġ"/><glyph d="M774 -158h82l-111 -270h-40zM856 717h582v-393q-92 -156 -246 -246t-342 -90q-297 0 -496.5 212t-199.5 517t199.5 517t496.5 212q188 0 342 -90t246 -246l-64 -31q-84 137 -220 216t-304 79q-268 0 -443.5 -190.5t-175.5 -467t175.5 -467t443.5 -190.5q162 0 297 74 t219 201v311h-510v72z" glyph-name="Gcommaaccent" horiz-adv-x="1611" unicode="Ģ"/><glyph d="M954 987h72v-969q0 -219 -116.5 -349t-331.5 -130q-137 0 -247 65.5t-161 157.5l61 41q51 -78 142.5 -135t204.5 -57q186 0 281 113.5t95 306.5v196q-55 -113 -155.5 -177t-235.5 -64q-207 0 -334 146.5t-127 361.5t127 361t334 146q135 0 235.5 -64.5t155.5 -176.5v227z M563 55q176 0 280.5 126t104.5 312.5t-104.5 312.5t-280.5 126t-280.5 -126t-104.5 -312.5t104.5 -312.5t280.5 -126zM575 1184l144 344h41l-96 -344h-89z" glyph-name="gcommaaccent" horiz-adv-x="1189" unicode="ģ"/><glyph d="M1221 1434h71v-1434h-71v680h-945v-680h-71v1434h71v-682h945v682zM1008 1565h-93l-167 223l-166 -223h-93l218 278h84z" glyph-name="Hcircumflex" horiz-adv-x="1497" unicode="Ĥ"/><glyph d="M559 1001q182 0 283.5 -118.5t101.5 -321.5v-561h-72v561q0 166 -82.5 268.5t-230.5 102.5q-139 0 -231 -109.5t-92 -285.5v-537h-72v1434h72v-648q47 98 129.5 156.5t193.5 58.5zM854 1567h-92l-168 223l-166 -223h-92l217 278h84z" glyph-name="hcircumflex" horiz-adv-x="1107" unicode="ĥ"/><glyph d="M1444 1137v-70h-137v-1067h-72v682h-946v-682h-70v1067h-137v70h137v297h70v-297h946v297h72v-297h137zM1235 752v315h-946v-315h946z" glyph-name="Hbar" horiz-adv-x="1525" unicode="Ħ"/><glyph d="M584 1001q180 0 281.5 -118.5t101.5 -321.5v-561h-72v561q0 166 -82 268.5t-229 102.5q-141 0 -233.5 -109.5t-92.5 -285.5v-537h-70v1174h-147v69h147v191h70v-191h270v-69h-270v-388q107 215 326 215z" glyph-name="hbar" horiz-adv-x="1130" unicode="ħ"/><glyph d="M205 1434h69v-1434h-69v1434zM485 1729l64 -13q-39 -158 -168 -157q-53 0 -102.5 34.5t-91.5 69.5t-78 35q-63 0 -111 -90l-57 28q70 125 180 125q63 0 141 -68.5t123 -68.5q80 1 100 105z" glyph-name="Itilde" horiz-adv-x="481" unicode="Ĩ"/><glyph d="M190 0v987h72v-987h-72zM471 1298l64 -12q-39 -158 -168 -158q-53 0 -102.5 35t-91.5 70t-79 35q-63 0 -110 -90l-58 28q70 125 180 125q61 0 140.5 -68.5t124.5 -68.5q80 0 100 104z" glyph-name="itilde" horiz-adv-x="450" unicode="ĩ"/><glyph d="M205 1434h69v-1434h-69v1434zM-16 1778h512v-70h-512v70z" glyph-name="Imacron" horiz-adv-x="479" unicode="Ī"/><glyph d="M188 0v987h72v-987h-72zM-31 1307h512v-70h-512v70z" glyph-name="imacron" horiz-adv-x="450" unicode="ī"/><glyph d="M203 1434h69v-1434h-69v1434zM389 1800h60q0 -100 -56.5 -164.5t-152.5 -64.5q-98 0 -154.5 64.5t-56.5 164.5h59q0 -74 43 -122t109 -48q68 0 108.5 47t40.5 123z" glyph-name="Ibreve" horiz-adv-x="477" unicode="Ĭ"/><glyph d="M184 0v987h72v-987h-72zM371 1391h59q0 -100 -56.5 -165t-152.5 -65q-98 0 -154.5 64.5t-56.5 165.5h60q0 -74 43 -122t108 -48q68 0 109 47t41 123z" glyph-name="ibreve" horiz-adv-x="450" unicode="ĭ"/><glyph d="M317 -313v-84q-49 -16 -94 -17q-80 0 -134 50.5t-46 132.5q6 74 60.5 137t105.5 94h-2v1434h72v-1434h-5q-70 -37 -125 -108.5t-49 -135.5q8 -74 76.5 -94t140.5 25z" glyph-name="Iogonek" horiz-adv-x="481" unicode="Į"/><glyph d="M223 1176q-25 0 -41 17t-16 39.5t16.5 40t40.5 17.5q23 0 39.5 -17.5t16.5 -40t-16.5 -39.5t-39.5 -17zM299 -313v-84q-49 -16 -94 -17q-80 0 -134.5 50.5t-47.5 132.5q6 74 61 137t106 94h-4v987h72v-987h-2q-70 -37 -125 -108.5t-49 -135.5q6 -74 75.5 -94t141.5 25z " glyph-name="iogonek" horiz-adv-x="450" unicode="į"/><glyph d="M205 1434h69v-1434h-69v1434zM240 1753q25 0 41 -17.5t16 -40t-16.5 -40t-40.5 -17.5q-23 0 -39.5 17.5t-16.5 40t16.5 40t39.5 17.5z" glyph-name="Idotaccent" horiz-adv-x="481" unicode="İ"/><glyph d="M190 0v987h72v-987h-72z" glyph-name="dotlessi" horiz-adv-x="450" unicode="ı"/><glyph d="M653 1434h72v-1053q0 -182 -87 -288.5t-251 -106.5q-115 0 -202 43t-134 108l64 41q35 -49 106.5 -86t157.5 -37q135 0 204.5 89t69.5 239v1051zM948 1565h-92l-168 223l-166 -223h-92l217 278h84z" glyph-name="Jcircumflex" horiz-adv-x="909" unicode="Ĵ"/><glyph d="M215 -182v1169h70v-1169q0 -121 -56.5 -200t-167.5 -79q-102 0 -174 62l43 55q57 -45 131 -45t114 54.5t40 152.5zM506 1155h-92l-168 223l-166 -223h-92l217 279h84z" glyph-name="jcircumflex" horiz-adv-x="473" unicode="ĵ"/><glyph d="M582 -158h82l-111 -270h-41zM1135 0l-557 784l-302 -333v-451h-71v1434h71v-877l793 877h96l-538 -596l596 -838h-88z" glyph-name="Kcommaaccent" horiz-adv-x="1314" unicode="Ķ"/><glyph d="M879 0l-392 541l-251 -271v-270h-72v1434h72v-1059l569 612h96l-364 -393l430 -594h-88zM487 -158h82l-110 -270h-41z" glyph-name="kcommaaccent" horiz-adv-x="1028" unicode="ķ"/><glyph d="M276 72h789v-72h-860v1434h71v-1362zM395 1843h88l-202 -278h-43z" glyph-name="Lacute" horiz-adv-x="1146" unicode="Ĺ"/><glyph d="M164 1536h72v-1536h-72v1536zM338 1946h88l-203 -279h-43z" glyph-name="lacute" horiz-adv-x="440" unicode="ĺ"/><glyph d="M602 -158h82l-111 -270h-41zM276 72h789v-72h-860v1434h71v-1362z" glyph-name="Lcommaaccent" horiz-adv-x="1146" unicode="Ļ"/><glyph d="M164 1536h72v-1536h-72v1536zM152 -158h81l-110 -270h-41z" glyph-name="lcommaaccent" horiz-adv-x="440" unicode="ļ"/><glyph d="M276 72h789v-72h-860v1434h71v-1362zM522 1090l94 344h91l-144 -344h-41z" glyph-name="Lcaron" horiz-adv-x="1146" unicode="Ľ"/><glyph d="M164 1536h72v-1536h-72v1536zM422 1090l94 344h90l-143 -344h-41z" glyph-name="lcaron" horiz-adv-x="483" unicode="ľ"/><glyph d="M662 772q25 0 41 -17.5t16 -40t-16.5 -40t-40.5 -17.5q-23 0 -39.5 17.5t-16.5 40t16.5 40t39.5 17.5zM276 72h789v-72h-860v1434h71v-1362z" glyph-name="Ldot" horiz-adv-x="1146" unicode="Ŀ"/><glyph d="M164 1536h72v-1536h-72v1536zM510 535q25 0 41 -17.5t16 -40t-16 -40t-41 -17.5q-23 0 -39 17.5t-16 40t16 40t39 17.5z" glyph-name="ldot" horiz-adv-x="649" unicode="ŀ"/><glyph d="M367 72h790v-72h-862v532l-254 -174v86l254 174v816h72v-766l518 354v-86l-518 -354v-510z" glyph-name="Lslash" horiz-adv-x="1239" unicode="Ł"/><glyph d="M612 1008v-86l-239 -164v-758h-72v709l-240 -164v86l240 164v741h72v-692z" glyph-name="lslash" horiz-adv-x="632" unicode="ł"/><glyph d="M1225 1434h71v-1434h-65l-955 1307v-1307h-71v1434h65l955 -1311v1311zM909 1843h88l-202 -278h-43z" glyph-name="Nacute" horiz-adv-x="1501" unicode="Ń"/><glyph d="M559 1001q180 0 281.5 -118.5t101.5 -321.5v-561h-72v561q0 166 -81.5 268.5t-229.5 102.5q-141 0 -233.5 -109.5t-92.5 -285.5v-537h-69v987h69v-201q107 215 326 215zM711 1434h88l-203 -279h-43z" glyph-name="nacute" horiz-adv-x="1105" unicode="ń"/><glyph d="M664 -158h81l-110 -270h-41zM1225 1434h71v-1434h-65l-955 1307v-1307h-71v1434h65l955 -1311v1311z" glyph-name="Ncommaaccent" horiz-adv-x="1501" unicode="Ņ"/><glyph d="M559 1001q180 0 281.5 -118.5t101.5 -321.5v-561h-72v561q0 166 -81.5 268.5t-229.5 102.5q-141 0 -233.5 -109.5t-92.5 -285.5v-537h-69v987h69v-201q107 215 326 215zM516 -158h82l-111 -270h-41z" glyph-name="ncommaaccent" horiz-adv-x="1105" unicode="ņ"/><glyph d="M1225 1434h71v-1434h-65l-955 1307v-1307h-71v1434h65l955 -1311v1311zM944 1843h92l-217 -278h-84l-217 278h92l166 -223z" glyph-name="Ncaron" horiz-adv-x="1501" unicode="Ň"/><glyph d="M559 1001q180 0 281.5 -118.5t101.5 -321.5v-561h-72v561q0 166 -81.5 268.5t-229.5 102.5q-141 0 -233.5 -109.5t-92.5 -285.5v-537h-69v987h69v-201q107 215 326 215zM741 1434h93l-218 -279h-84l-217 279h93l165 -224z" glyph-name="ncaron" horiz-adv-x="1105" unicode="ň"/><glyph d="M627 1001q180 0 281.5 -118.5t101.5 -321.5v-561h-72v561q0 166 -82 268.5t-229 102.5q-141 0 -233.5 -109.5t-92.5 -285.5v-537h-70v987h70v-201q107 215 326 215zM90 1188h82l-111 -270h-41z" glyph-name="napostrophe" horiz-adv-x="1173" unicode="ŉ"/><glyph d="M1225 1434h71v-1434v-119q0 -117 -57 -197.5t-166 -80.5q-96 0 -176 61l45 57q59 -47 131 -47t112 56.5t40 140.5v137l-949 1303v-1311h-71v1434h65l955 -1315v1315z" glyph-name="Eng" horiz-adv-x="1501" unicode="Ŋ"/><glyph d="M559 1001q180 0 281.5 -118.5t101.5 -321.5v-680q0 -119 -57.5 -198.5t-165.5 -79.5q-96 0 -174 61l43 57q59 -47 131 -47t112.5 57.5t40.5 139.5v690q0 164 -82.5 266.5t-230.5 102.5q-141 0 -232 -108.5t-91 -284.5v-537h-72v987h72v-201q47 98 129.5 156.5t193.5 58.5 z" glyph-name="eng" horiz-adv-x="1105" unicode="ŋ"/><glyph d="M807 1446q299 0 497.5 -213t198.5 -518t-199.5 -517t-496.5 -212t-495.5 212t-198.5 517t198.5 518t495.5 213zM807 55q268 0 443 191.5t175 468t-175 468t-443 191.5q-266 0 -441.5 -191.5t-175.5 -468t175.5 -468t441.5 -191.5zM553 1778h512v-70h-512v70z" glyph-name="Omacron" horiz-adv-x="1615" unicode="Ō"/><glyph d="M577.5 1001q206.5 0 340 -146t133.5 -361t-133.5 -361.5t-340 -146.5t-341 147.5t-134.5 360.5t134.5 360t341 147zM577.5 55q178.5 0 287 126t108.5 312.5t-108.5 312.5t-287 126t-288 -126t-109.5 -312.5t109.5 -312.5t288 -126zM322 1368h512v-70h-512v70z" glyph-name="omacron" horiz-adv-x="1163" unicode="ō"/><glyph d="M807 1446q299 0 497.5 -213t198.5 -518t-199.5 -517t-496.5 -212t-495.5 212t-198.5 517t198.5 518t495.5 213zM807 55q268 0 443 191.5t175 468t-175 468t-443 191.5q-266 0 -441.5 -191.5t-175.5 -468t175.5 -468t441.5 -191.5zM958 1800h60q0 -100 -56.5 -164.5 t-152.5 -64.5q-98 0 -154.5 64.5t-56.5 164.5h59q0 -74 43 -122t109 -48q68 0 108.5 47t40.5 123z" glyph-name="Obreve" horiz-adv-x="1615" unicode="Ŏ"/><glyph d="M577.5 1001q206.5 0 340 -146t133.5 -361t-133.5 -361.5t-340 -146.5t-341 147.5t-134.5 360.5t134.5 360t341 147zM577.5 55q178.5 0 287 126t108.5 312.5t-108.5 312.5t-287 126t-288 -126t-109.5 -312.5t109.5 -312.5t288 -126zM727 1391h59q0 -100 -56 -165t-152 -65 q-98 0 -154.5 64.5t-56.5 165.5h59q0 -74 43 -122t109 -48q68 0 108.5 47t40.5 123z" glyph-name="obreve" horiz-adv-x="1163" unicode="ŏ"/><glyph d="M807 1446q299 0 497.5 -213t198.5 -518t-199.5 -517t-496.5 -212t-495.5 212t-198.5 517t198.5 518t495.5 213zM807 55q268 0 443 191.5t175 468t-175 468t-443 191.5q-266 0 -441.5 -191.5t-175.5 -468t175.5 -468t441.5 -191.5zM821 1843h88l-202 -278h-43zM1071 1843 h88l-203 -278h-43z" glyph-name="Ohungarumlaut" horiz-adv-x="1615" unicode="Ő"/><glyph d="M577.5 1001q206.5 0 340 -146t133.5 -361t-133.5 -361.5t-340 -146.5t-341 147.5t-134.5 360.5t134.5 360t341 147zM577.5 55q178.5 0 287 126t108.5 312.5t-108.5 312.5t-287 126t-288 -126t-109.5 -312.5t109.5 -312.5t288 -126zM590 1434h88l-203 -279h-43zM840 1434 h88l-203 -279h-43z" glyph-name="ohungarumlaut" horiz-adv-x="1163" unicode="ő"/><glyph d="M1206 72h881v-72h-952v68q-147 -82 -328 -82q-297 0 -495.5 212t-198.5 517t198.5 518t495.5 213q174 0 328 -82v70h940v-72h-869v-610h805v-70h-805v-610zM807 55q182 0 328 95v1130q-145 94 -328 94q-268 0 -443.5 -191.5t-175.5 -468t175.5 -468t443.5 -191.5z" glyph-name="OE" horiz-adv-x="2240" unicode="Œ"/><glyph d="M1884 494q0 -37 -2 -54h-829q16 -168 123.5 -276.5t271.5 -108.5q223 0 336 195l67 -33q-63 -106 -167.5 -168.5t-235.5 -62.5q-152 0 -267.5 82t-168.5 219q-53 -137 -168 -219t-266 -82q-209 0 -342.5 146.5t-133.5 361.5t133.5 361t342.5 146q152 0 266 -81.5 t168 -219.5q53 137 168.5 219t267.5 82q203 0 319.5 -144t116.5 -363zM1448 930q-172 0 -281.5 -120t-115.5 -298h755q-4 182 -96 300t-262 118zM578 55q176 0 285.5 126t109.5 313q0 184 -109.5 310t-285.5 126q-178 0 -288 -125t-110 -311.5t110 -312.5t288 -126z" glyph-name="oe" horiz-adv-x="2007" unicode="œ"/><glyph d="M1214 0h-81l-320 565q-41 -8 -94 -8h-445v-557h-69v1434h514q201 0 334 -122t133 -317q0 -152 -82 -261t-219 -152zM719 629q168 0 279.5 99t111.5 267t-109.5 267.5t-281.5 99.5h-445v-733h445zM786 1843h88l-202 -278h-43z" glyph-name="Racute" horiz-adv-x="1347" unicode="Ŕ"/><glyph d="M571 1004q6 0 20.5 -1.5t22.5 -1.5l-12 -71q-10 2 -31 2q-143 0 -239 -109.5t-96 -285.5v-537h-72v987h72v-207q49 100 135.5 162t199.5 62zM547 1434h88l-203 -279h-43z" glyph-name="racute" horiz-adv-x="665" unicode="ŕ"/><glyph d="M1214 0h-81l-320 565q-41 -8 -94 -8h-445v-557h-69v1434h514q201 0 334 -122t133 -317q0 -152 -82 -261t-219 -152zM719 629q168 0 279.5 99t111.5 267t-109.5 267.5t-281.5 99.5h-445v-733h445zM631 -158h82l-111 -270h-41z" glyph-name="Rcommaaccent" horiz-adv-x="1347" unicode="Ŗ"/><glyph d="M571 1004q6 0 20.5 -1.5t22.5 -1.5l-12 -71q-10 2 -31 2q-143 0 -239 -109.5t-96 -285.5v-537h-72v987h72v-207q49 100 135.5 162t199.5 62zM147 -158h82l-110 -270h-41z" glyph-name="rcommaaccent" horiz-adv-x="665" unicode="ŗ"/><glyph d="M1214 0h-81l-320 565q-41 -8 -94 -8h-445v-557h-69v1434h514q201 0 334 -122t133 -317q0 -152 -82 -261t-219 -152zM719 629q168 0 279.5 99t111.5 267t-109.5 267.5t-281.5 99.5h-445v-733h445zM836 1843h92l-217 -278h-84l-217 278h92l166 -223z" glyph-name="Rcaron" horiz-adv-x="1347" unicode="Ř"/><glyph d="M573 1004q8 0 22.5 -1.5t20.5 -1.5l-12 -71q-10 2 -31 2q-143 0 -239 -109.5t-96 -285.5v-537h-72v987h72v-207q49 100 135.5 162t199.5 62zM559 1434h92l-217 -279h-84l-217 279h92l166 -224z" glyph-name="rcaron" horiz-adv-x="665" unicode="ř"/><glyph d="M604 1448q182 0 322.5 -84t175.5 -236l-68 -22q-25 123 -140.5 196.5t-289.5 73.5q-176 0 -286.5 -89t-110.5 -232q0 -55 26.5 -99.5t62.5 -73t102.5 -54t117.5 -39t137 -31.5q293 -68 399.5 -157t106.5 -224q0 -63 -24.5 -127t-77.5 -126.5t-157.5 -101t-244.5 -38.5 q-215 0 -361.5 92t-191.5 235l68 23q35 -121 163 -200t322 -79q180 0 306 82t126 240q0 70 -34.5 123t-105 89t-139.5 56.5t-171 42.5q-256 55 -378 141t-122 226q0 174 132 283.5t335 109.5zM768 1843h88l-203 -278h-43z" glyph-name="Sacute" horiz-adv-x="1282" unicode="Ś"/><glyph d="M457 530q61 -16 99 -27t90 -35t82 -50.5t51.5 -67.5t21.5 -90q0 -131 -96.5 -203.5t-235.5 -72.5q-147 0 -250.5 64.5t-136.5 162.5l68 31q27 -78 107.5 -133.5t211.5 -55.5q109 0 184.5 53.5t75.5 153.5q0 76 -70.5 119t-218.5 82q-145 37 -230 91t-97 159 q-14 121 72.5 207t246.5 86q125 0 211 -61.5t119 -162.5l-66 -26q-66 178 -264 178q-127 0 -192.5 -61.5t-55.5 -151.5q8 -72 79 -114t194 -75zM580 1434h88l-203 -279h-43z" glyph-name="sacute" horiz-adv-x="903" unicode="ś"/><glyph d="M604 1448q182 0 322.5 -84t175.5 -236l-68 -22q-25 123 -140.5 196.5t-289.5 73.5q-176 0 -286.5 -89t-110.5 -232q0 -55 26.5 -99.5t62.5 -73t102.5 -54t117.5 -39t137 -31.5q293 -68 399.5 -157t106.5 -224q0 -63 -24.5 -127t-77.5 -126.5t-157.5 -101t-244.5 -38.5 q-215 0 -361.5 92t-191.5 235l68 23q35 -121 163 -200t322 -79q180 0 306 82t126 240q0 70 -34.5 123t-105 89t-139.5 56.5t-171 42.5q-256 55 -378 141t-122 226q0 174 132 283.5t335 109.5zM911 1565h-92l-168 223l-166 -223h-92l217 278h84z" glyph-name="Scircumflex" horiz-adv-x="1282" unicode="Ŝ"/><glyph d="M457 530q61 -16 99 -27t90 -35t82 -50.5t51.5 -67.5t21.5 -90q0 -131 -96.5 -203.5t-235.5 -72.5q-147 0 -250.5 64.5t-136.5 162.5l68 31q27 -78 107.5 -133.5t211.5 -55.5q109 0 184.5 53.5t75.5 153.5q0 76 -70.5 119t-218.5 82q-145 37 -230 91t-97 159 q-14 121 72.5 207t246.5 86q125 0 211 -61.5t119 -162.5l-66 -26q-66 178 -264 178q-127 0 -192.5 -61.5t-55.5 -151.5q8 -72 79 -114t194 -75zM721 1155h-92l-168 223l-166 -223h-92l217 279h84z" glyph-name="scircumflex" horiz-adv-x="903" unicode="ŝ"/><glyph d="M1161 377q0 -61 -23.5 -124t-75.5 -125t-153.5 -102t-238.5 -42l-49 -97q88 10 135 -32.5t47 -108.5q0 -94 -80 -141q-117 -68 -264 24l26 45q68 -45 142.5 -43t109.5 56q31 47 12.5 97t-69.5 60q-57 14 -96 -12l-33 25l63 129q-199 8 -334 99t-178 226l68 23 q37 -121 165 -200t320 -79q180 0 307.5 82t127.5 240q0 70 -36 123t-105.5 89t-139.5 56.5t-172 42.5q-256 55 -378 141t-122 226q0 174 132 283.5t335 109.5q182 0 323.5 -84t174.5 -236l-68 -22q-25 123 -139.5 196.5t-290.5 73.5t-285.5 -89t-109.5 -232 q0 -55 26.5 -99.5t61.5 -72t103.5 -53t116.5 -39t136 -33.5q201 -45 315.5 -104.5t153.5 -123t39 -153.5z" glyph-name="Scedilla" horiz-adv-x="1284" unicode="Ş"/><glyph d="M801 260q0 -127 -90 -199.5t-224 -76.5l-47 -97q88 10 135.5 -32.5t47.5 -108.5q0 -96 -82 -141q-119 -68 -262 24l24 45q68 -45 142.5 -43t109.5 56q31 47 12.5 97t-67.5 60q-61 14 -99 -12l-32 25l63 127q-133 8 -225 71.5t-125 155.5l68 31q27 -78 107.5 -133.5 t211.5 -55.5q109 0 184.5 53.5t75.5 153.5q0 78 -70.5 120t-220.5 81q-94 25 -153.5 49.5t-111.5 76.5t-60 124q-14 121 72.5 207t246.5 86q115 0 206 -62.5t124 -161.5l-66 -26q-29 80 -100.5 129t-163.5 49q-129 0 -194.5 -61.5t-53.5 -151.5q8 -72 78 -114t195 -75 q61 -16 99 -27t90 -35t82 -50.5t51.5 -67.5t21.5 -90z" glyph-name="scedilla" horiz-adv-x="903" unicode="ş"/><glyph d="M604 1448q182 0 322.5 -84t175.5 -236l-68 -22q-25 123 -140.5 196.5t-289.5 73.5q-176 0 -286.5 -89t-110.5 -232q0 -55 26.5 -99.5t62.5 -73t102.5 -54t117.5 -39t137 -31.5q293 -68 399.5 -157t106.5 -224q0 -63 -24.5 -127t-77.5 -126.5t-157.5 -101t-244.5 -38.5 q-215 0 -361.5 92t-191.5 235l68 23q35 -121 163 -200t322 -79q180 0 306 82t126 240q0 70 -34.5 123t-105 89t-139.5 56.5t-171 42.5q-256 55 -378 141t-122 226q0 174 132 283.5t335 109.5zM819 1843h92l-217 -278h-84l-217 278h92l166 -223z" glyph-name="Scaron" horiz-adv-x="1282" unicode="Š"/><glyph d="M457 530q61 -16 99 -27t90 -35t82 -50.5t51.5 -67.5t21.5 -90q0 -131 -96.5 -203.5t-235.5 -72.5q-147 0 -250.5 64.5t-136.5 162.5l68 31q27 -78 107.5 -133.5t211.5 -55.5q109 0 184.5 53.5t75.5 153.5q0 76 -70.5 119t-218.5 82q-145 37 -230 91t-97 159 q-14 121 72.5 207t246.5 86q125 0 211 -61.5t119 -162.5l-66 -26q-66 178 -264 178q-127 0 -192.5 -61.5t-55.5 -151.5q8 -72 79 -114t194 -75zM629 1434h92l-217 -279h-84l-217 279h92l166 -224z" glyph-name="scaron" horiz-adv-x="903" unicode="š"/><glyph d="M1077 1434v-72h-483v-1362h-70v1362h-483v72h1036zM510 -158h82l-111 -270h-41z" glyph-name="Tcommaaccent" horiz-adv-x="1097" unicode="Ţ"/><glyph d="M557 102l35 -61q-76 -55 -180 -55q-219 0 -219 284v645h-152v72h152v268l71 21v-289h246v-72h-246v-657q0 -201 148 -201q79 0 145 45zM319 -158h82l-110 -270h-41z" glyph-name="tcommaaccent" horiz-adv-x="630" unicode="ţ"/><glyph d="M1077 1434v-72h-483v-1362h-70v1362h-483v72h1036zM727 1843h92l-217 -278h-84l-217 278h92l166 -223z" glyph-name="Tcaron" horiz-adv-x="1097" unicode="Ť"/><glyph d="M557 102l35 -61q-76 -55 -180 -55q-219 0 -219 284v645h-152v72h152v268l71 21v-289h246v-72h-246v-657q0 -201 148 -201q79 0 145 45zM598 1081l94 344h90l-143 -344h-41z" glyph-name="tcaron" horiz-adv-x="659" unicode="ť"/><glyph d="M1079 1362h-483v-539h365v-71h-365v-752h-72v752h-364v71h364v539h-483v72h1038v-72z" glyph-name="Tbar" horiz-adv-x="1099" unicode="Ŧ"/><glyph d="M559 104l33 -61q-74 -57 -180 -57q-219 0 -219 282v279h-99v71h99v297h-152v72h152v266l71 21v-287h246v-72h-246v-297h193v-71h-193v-291q0 -199 148 -199q77 0 147 47z" glyph-name="tbar" horiz-adv-x="628" unicode="ŧ"/><glyph d="M1188 1434h72v-856q0 -272 -139.5 -432t-389.5 -160t-388 157.5t-138 434.5v856h71v-856q0 -246 121 -384.5t334 -138.5t335 138.5t122 384.5v856zM997 1729l64 -13q-39 -158 -168 -157q-53 0 -102.5 34.5t-91.5 69.5t-78 35q-63 0 -111 -90l-57 28q70 125 180 125 q63 0 141 -68.5t123 -68.5q80 1 100 105z" glyph-name="Utilde" horiz-adv-x="1464" unicode="Ũ"/><glyph d="M852 987h72v-987h-72v186q-113 -201 -326 -200q-180 0 -281.5 119.5t-101.5 322.5v559h72v-559q0 -166 82 -268.5t229 -102.5q139 0 232.5 105.5t93.5 267.5v557zM799 1319l63 -12q-39 -158 -168 -158q-53 0 -102 35t-91 69.5t-79 34.5q-63 0 -111 -90l-57 29 q70 125 180 125q61 0 141 -69t123 -69q81 1 101 105z" glyph-name="utilde" horiz-adv-x="1087" unicode="ũ"/><glyph d="M1188 1434h72v-856q0 -272 -139.5 -432t-389.5 -160t-388 157.5t-138 434.5v856h71v-856q0 -246 121 -384.5t334 -138.5t335 138.5t122 384.5v856zM477 1778h512v-70h-512v70z" glyph-name="Umacron" horiz-adv-x="1464" unicode="Ū"/><glyph d="M852 987h72v-987h-72v186q-113 -201 -326 -200q-180 0 -281.5 119.5t-101.5 322.5v559h72v-559q0 -166 82 -268.5t229 -102.5q139 0 232.5 105.5t93.5 267.5v557zM299 1368h512v-70h-512v70z" glyph-name="umacron" horiz-adv-x="1087" unicode="ū"/><glyph d="M1188 1434h72v-856q0 -272 -139.5 -432t-389.5 -160t-388 157.5t-138 434.5v856h71v-856q0 -246 121 -384.5t334 -138.5t335 138.5t122 384.5v856zM883 1800h59q0 -100 -56.5 -164.5t-152.5 -64.5q-98 0 -154.5 64.5t-56.5 164.5h60q0 -74 43 -122t108 -48q68 0 109 47 t41 123z" glyph-name="Ubreve" horiz-adv-x="1464" unicode="Ŭ"/><glyph d="M852 987h72v-987h-72v186q-113 -201 -326 -200q-180 0 -281.5 119.5t-101.5 322.5v559h72v-559q0 -166 82 -268.5t229 -102.5q139 0 232.5 105.5t93.5 267.5v557zM705 1391h59q0 -100 -56.5 -165t-152.5 -65q-98 0 -154.5 64.5t-56.5 165.5h59q0 -74 43 -122t109 -48 q68 0 109 47t41 123z" glyph-name="ubreve" horiz-adv-x="1087" unicode="ŭ"/><glyph d="M1188 1434h72v-856q0 -272 -139.5 -432t-389.5 -160t-388 157.5t-138 434.5v856h71v-856q0 -246 121 -384.5t334 -138.5t335 138.5t122 384.5v856zM733 1911q78 0 132.5 -54.5t54.5 -132t-54.5 -132t-132.5 -54.5t-132 54.5t-54 132t54 132t132 54.5zM733 1597 q53 0 91 37t38 90.5t-38 90t-91 36.5t-90 -36.5t-37 -90t37 -90.5t90 -37z" glyph-name="Uring" horiz-adv-x="1464" unicode="Ů"/><glyph d="M852 987h72v-987h-72v186q-113 -201 -326 -200q-180 0 -281.5 119.5t-101.5 322.5v559h72v-559q0 -166 82 -268.5t229 -102.5q139 0 232.5 105.5t93.5 267.5v557zM555 1501q78 0 132 -54t54 -132t-54 -132.5t-132 -54.5q-76 0 -131 54.5t-55 132.5t55 132t131 54z M555 1188q53 0 91 37t38 90t-38 90t-91 37q-51 0 -89 -37t-38 -90t38 -90t89 -37z" glyph-name="uring" horiz-adv-x="1087" unicode="ů"/><glyph d="M1188 1434h72v-856q0 -272 -139.5 -432t-389.5 -160t-388 157.5t-138 434.5v856h71v-856q0 -246 121 -384.5t334 -138.5t335 138.5t122 384.5v856zM725 1843h88l-203 -278h-43zM975 1843h88l-203 -278h-43z" glyph-name="Uhungarumlaut" horiz-adv-x="1464" unicode="Ű"/><glyph d="M852 987h72v-987h-72v186q-113 -201 -326 -200q-180 0 -281.5 119.5t-101.5 322.5v559h72v-559q0 -166 82 -268.5t229 -102.5q139 0 232.5 105.5t93.5 267.5v557zM526 1434h88l-202 -279h-43zM776 1434h88l-202 -279h-44z" glyph-name="uhungarumlaut" horiz-adv-x="1087" unicode="ű"/><glyph d="M1190 1434h70v-856q0 -375 -242 -519q-104 -63 -170 -149t-60 -154q8 -74 78 -94t140 25v-84q-49 -16 -95 -17q-80 0 -134 50.5t-46 132.5q8 117 141 231q-59 -14 -139 -14q-250 0 -389 157.5t-139 434.5v856h71v-856q0 -246 121 -383.5t336 -137.5t336 137.5t121 383.5 v856z" glyph-name="Uogonek" horiz-adv-x="1464" unicode="Ų"/><glyph d="M965 -313v-84q-53 -16 -97 -17q-78 0 -133 50.5t-47 132.5q6 74 61.5 137t106.5 94h-4v186q-113 -201 -324 -200q-180 0 -282.5 119.5t-102.5 322.5v559h72v-559q0 -166 83 -268.5t230 -102.5q139 0 231.5 105.5t92.5 267.5v557h72v-987h-2q-70 -37 -126.5 -108.5 t-47.5 -135.5q6 -74 75.5 -94t141.5 25z" glyph-name="uogonek" horiz-adv-x="1087" unicode="ų"/><glyph d="M1944 1434h75l-467 -1434h-73l-424 1319l-426 -1319h-72l-465 1434h76l428 -1317l424 1317h72l424 -1317zM1315 1565h-92l-168 223l-166 -223h-92l217 278h84z" glyph-name="Wcircumflex" horiz-adv-x="2111" unicode="Ŵ"/><glyph d="M1337 987h76l-319 -987h-70l-287 872l-288 -872h-70l-318 987h74l283 -870l287 870h63l287 -870zM997 1155h-92l-168 223l-166 -223h-92l217 279h84z" glyph-name="wcircumflex" horiz-adv-x="1454" unicode="ŵ"/><glyph d="M1186 1434l-537 -957v-477h-69v475l-539 959h82l491 -875l490 875h82zM872 1565h-92l-168 223l-166 -223h-92l217 278h84z" glyph-name="Ycircumflex" horiz-adv-x="1226" unicode="Ŷ"/><glyph d="M791 987h75l-372 -987q-51 -137 -81 -200.5t-73 -110.5q-43 -51 -97.5 -70.5t-85 -17.5t-85.5 12l12 70q125 -25 187.5 37.5t146.5 279.5l-373 987h76l336 -887zM735 1155h-92l-168 223l-166 -223h-92l217 279h84z" glyph-name="ycircumflex" horiz-adv-x="911" unicode="ŷ"/><glyph d="M1186 1434l-537 -957v-477h-69v475l-539 959h82l491 -875l490 875h82zM751.5 1753q22.5 0 40 -17.5t17.5 -40t-17.5 -40t-40 -17.5t-40 17.5t-17.5 40t17.5 40t40 17.5zM477.5 1753q22.5 0 40 -17.5t17.5 -40t-17.5 -40t-40 -17.5t-40 17.5t-17.5 40t17.5 40t40 17.5z " glyph-name="Ydieresis" horiz-adv-x="1226" unicode="Ÿ"/><glyph d="M233 72h1002v-72h-1092v72l985 1290h-923v72h1014v-72zM848 1843h88l-203 -278h-43z" glyph-name="Zacute" horiz-adv-x="1378" unicode="Ź"/><glyph d="M193 72h671v-72h-762v72l654 843h-627v72h717v-72zM621 1434h88l-203 -279h-43z" glyph-name="zacute" horiz-adv-x="966" unicode="ź"/><glyph d="M233 72h1002v-72h-1092v72l985 1290h-923v72h1014v-72zM729 1753q25 0 41 -17.5t16 -40t-16 -40t-41 -17.5q-23 0 -39 17.5t-16 40t16 40t39 17.5z" glyph-name="Zdotaccent" horiz-adv-x="1378" unicode="Ż"/><glyph d="M193 72h671v-72h-762v72l654 843h-627v72h717v-72zM504 1343q25 0 41 -17t16 -39.5t-16.5 -40t-40.5 -17.5q-23 0 -39 17.5t-16 40t16 39.5t39 17z" glyph-name="zdotaccent" horiz-adv-x="966" unicode="ż"/><glyph d="M233 72h1002v-72h-1092v72l985 1290h-923v72h1014v-72zM918 1843h92l-217 -278h-84l-217 278h92l166 -223z" glyph-name="Zcaron" horiz-adv-x="1378" unicode="Ž"/><glyph d="M193 72h671v-72h-762v72l654 843h-627v72h717v-72zM672 1434h92l-217 -279h-84l-217 279h92l166 -224z" glyph-name="zcaron" horiz-adv-x="966" unicode="ž"/><glyph d="M1073 72h883v-72h-952v459h-623l-240 -459h-80l752 1434h1131v-72h-871v-610h807v-70h-807v-610zM420 528h584v834h-148zM1167 1843h88l-202 -278h-43z" glyph-name="AEacute" horiz-adv-x="2107" unicode="Ǽ"/><glyph d="M1714 494q0 -37 -2 -54h-829q16 -168 123.5 -276.5t271.5 -108.5q223 0 336 195l65 -33q-61 -106 -165.5 -168.5t-235.5 -62.5q-152 0 -267.5 82t-168.5 219q-12 -39 -39 -84q-51 -82 -158.5 -149.5t-257.5 -67.5q-121 0 -213 57t-92 184q0 133 97 201t270 107 q31 6 97 20t99 23.5t76 24.5t61.5 35.5t18.5 47.5q0 106 -69.5 175t-209.5 69q-133 0 -217 -62.5t-108 -160.5l-70 16q31 113 125 195.5t270 82.5q115 0 214.5 -59t127.5 -192q59 117 168 184t246 67q203 0 319.5 -144t116.5 -363zM1278 930q-172 0 -281.5 -120t-115.5 -298 h755q-4 184 -96 301t-262 117zM803 412v131q-27 -6 -143.5 -34t-196.5 -42q-168 -35 -236.5 -90t-68.5 -150q0 -84 67.5 -128t171.5 -44q168 0 287 105t119 252zM1038 1434h88l-202 -279h-43z" glyph-name="aeacute" horiz-adv-x="1837" unicode="ǽ"/><glyph d="M1313 1223q190 -207 190 -508q0 -305 -198.5 -517t-495.5 -212q-264 0 -457 172l-166 -183l-51 50l166 184q-188 209 -188 506q0 305 198.5 518t497.5 213q260 0 455 -172l166 182l53 -47zM190 715q0 -264 160 -451l864 955q-168 156 -405 155q-268 0 -443.5 -191.5 t-175.5 -467.5zM809 55q266 0 442 191.5t176 468.5q0 264 -163 454l-865 -956q170 -158 410 -158zM932 1843h88l-203 -278h-43z" glyph-name="Oslashacute" horiz-adv-x="1615" unicode="Ǿ"/><glyph d="M932 836q117 -143 117 -342q0 -215 -133.5 -361.5t-340.5 -146.5q-180 0 -307 114l-112 -125l-54 50l117 127q-117 139 -117 342q0 215 133.5 361t339.5 146q180 0 308 -114l112 123l52 -47zM178 494q0 -168 90 -287l566 627q-102 96 -259 96q-178 0 -287.5 -125 t-109.5 -311zM575 55q178 0 287 126t109 313q0 168 -88 286l-568 -626q108 -99 260 -99zM729 1434h88l-203 -279h-43z" glyph-name="oslashacute" horiz-adv-x="1163" unicode="ǿ"/><glyph d="M604 1448q182 0 322.5 -84t175.5 -236l-68 -22q-25 123 -140.5 196.5t-289.5 73.5q-176 0 -286.5 -89t-110.5 -232q0 -55 26.5 -99.5t62.5 -73t102.5 -54t117.5 -39t137 -31.5q293 -68 399.5 -157t106.5 -224q0 -63 -24.5 -127t-77.5 -126.5t-157.5 -101t-244.5 -38.5 q-215 0 -361.5 92t-191.5 235l68 23q35 -121 163 -200t322 -79q180 0 306 82t126 240q0 70 -34.5 123t-105 89t-139.5 56.5t-171 42.5q-256 55 -378 141t-122 226q0 174 132 283.5t335 109.5zM549 -158h82l-111 -270h-41z" glyph-name="Scommaaccent" horiz-adv-x="1282" unicode="Ș"/><glyph d="M457 530q61 -16 99 -27t90 -35t82 -50.5t51.5 -67.5t21.5 -90q0 -131 -96.5 -203.5t-235.5 -72.5q-147 0 -250.5 64.5t-136.5 162.5l68 31q27 -78 107.5 -133.5t211.5 -55.5q109 0 184.5 53.5t75.5 153.5q0 76 -70.5 119t-218.5 82q-145 37 -230 91t-97 159 q-14 121 72.5 207t246.5 86q125 0 211 -61.5t119 -162.5l-66 -26q-66 178 -264 178q-127 0 -192.5 -61.5t-55.5 -151.5q8 -72 79 -114t194 -75zM383 -158h82l-111 -270h-41z" glyph-name="scommaaccent" horiz-adv-x="903" unicode="ș"/><glyph d="M1077 1434v-72h-483v-1362h-70v1362h-483v72h1036zM510 -158h82l-111 -270h-41z" glyph-name="uni021A" horiz-adv-x="1097" unicode="Ț"/><glyph d="M557 102l35 -61q-76 -55 -180 -55q-219 0 -219 284v645h-152v72h152v268l71 21v-289h246v-72h-246v-657q0 -201 148 -201q79 0 145 45zM299 -158h82l-111 -270h-41z" glyph-name="uni021B" horiz-adv-x="630" unicode="ț"/><glyph d="M672 1155h-92l-168 223l-166 -223h-92l217 279h84z" glyph-name="circumflex" horiz-adv-x="825" unicode="ˆ"/><glyph d="M580 1434h92l-217 -279h-84l-217 279h92l166 -224z" glyph-name="caron" horiz-adv-x="825" unicode="ˇ"/><glyph d="M514 1391h59q0 -100 -56 -165t-152 -65q-98 0 -154.5 64.5t-56.5 165.5h59q0 -74 43 -122t109 -48q68 0 108.5 47t40.5 123z" glyph-name="breve" horiz-adv-x="727" unicode="˘"/><glyph d="M209 1343q25 0 41 -17t16 -39.5t-16.5 -40t-40.5 -17.5q-23 0 -39 17.5t-16 40t16 39.5t39 17z" glyph-name="dotaccent" horiz-adv-x="419" unicode="˙"/><glyph d="M340 1501q78 0 132 -54t54 -132t-54 -132.5t-132 -54.5t-132 54.5t-54 132.5t54 132t132 54zM340 1188q53 0 91 37t38 90t-38 90t-91 37t-90 -37t-37 -90t37 -90t90 -37z" glyph-name="ring" horiz-adv-x="679" unicode="˚"/><glyph d="M430 -313v-84q-49 -16 -94 -17q-80 0 -134.5 50.5t-45.5 132.5q6 74 60 137t106 94h65q-70 -37 -125 -108.5t-49 -135.5q8 -74 76.5 -94t140.5 25z" glyph-name="ogonek" horiz-adv-x="583" unicode="˛"/><glyph d="M698 1319l64 -12q-39 -158 -168 -158q-53 0 -102.5 35t-91.5 69.5t-78 34.5q-63 0 -111 -90l-57 29q70 125 180 125q63 0 141 -69t123 -69q80 1 100 105z" glyph-name="tilde" horiz-adv-x="915" unicode="˜"/><glyph d="M311 1434h88l-202 -279h-43zM561 1434h88l-203 -279h-43z" glyph-name="hungarumlaut" horiz-adv-x="802" unicode="˝"/><glyph d="M461 1661q-23 0 -39 17.5t-16 40t16 40t39 17.5q25 0 41 -17.5t16 -40t-16 -40t-41 -17.5zM866.5 1661q-22.5 0 -40 17.5t-17.5 40t17.5 40t40 17.5t40 -17.5t17.5 -40t-17.5 -40t-40 -17.5zM274 72h883v-72h-952v1434h940v-72h-871v-610h807v-70h-807v-610z" glyph-name="afii10023" horiz-adv-x="1308" unicode="Ё"/><glyph d="M938 938q182 0 283.5 -116.5t101.5 -319.5v-240q0 -119 -57.5 -198.5t-165.5 -79.5q-96 0 -174 61l43 57q59 -47 130.5 -47t112.5 56.5t41 138.5v252q0 164 -84 264t-231 100q-104 0 -200.5 -47t-141.5 -98v-721h-72v1362h-483v72h1038v-72h-483v-555q51 49 148.5 90 t193.5 41z" glyph-name="afii10051" horiz-adv-x="1486" unicode="Ђ"/><glyph d="M973 1434v-70h-697v-1364h-71v1434h768zM725 1843h88l-203 -278h-43z" glyph-name="afii10052" horiz-adv-x="1054" unicode="Ѓ"/><glyph d="M827 57q168 0 305.5 79t221.5 216l63 -30q-92 -156 -246.5 -246t-343.5 -90q-297 0 -495.5 212t-198.5 517t198.5 517t495.5 212q188 0 343 -90t247 -246l-63 -31q-84 137 -221.5 216t-305.5 79q-256 0 -429 -178t-187 -440h790v-72h-790q10 -264 184 -444.5t432 -180.5z " glyph-name="afii10053" horiz-adv-x="1550" unicode="Є"/><glyph d="M604 1448q182 0 322.5 -84t175.5 -236l-68 -22q-25 123 -140.5 196.5t-289.5 73.5q-176 0 -286.5 -89t-110.5 -232q0 -55 26.5 -99.5t62.5 -73t102.5 -54t117.5 -39t137 -31.5q293 -68 399.5 -157t106.5 -224q0 -63 -24.5 -127t-77.5 -126.5t-157.5 -101t-244.5 -38.5 q-215 0 -361.5 92t-191.5 235l68 23q35 -121 163 -200t322 -79q180 0 306 82t126 240q0 70 -34.5 123t-105 89t-139.5 56.5t-171 42.5q-256 55 -378 141t-122 226q0 174 132 283.5t335 109.5z" glyph-name="afii10054" horiz-adv-x="1282" unicode="Ѕ"/><glyph d="M205 1434h69v-1434h-69v1434z" glyph-name="afii10055" horiz-adv-x="479" unicode="І"/><glyph d="M201 1434h69v-1434h-69v1434zM372.5 1753q22.5 0 40 -17.5t17.5 -40t-17.5 -40t-40 -17.5t-40 17.5t-17.5 40t17.5 40t40 17.5zM98.5 1753q22.5 0 40 -17.5t17.5 -40t-17.5 -40t-40 -17.5t-40 17.5t-17.5 40t17.5 40t40 17.5z" glyph-name="afii10056" horiz-adv-x="481" unicode="Ї"/><glyph d="M653 1434h72v-1053q0 -182 -87 -288.5t-251 -106.5q-115 0 -202 43t-134 108l64 41q35 -49 106.5 -86t157.5 -37q135 0 204.5 89t69.5 239v1051z" glyph-name="afii10057" horiz-adv-x="909" unicode="Ј"/><glyph d="M1620 877q203 0 335 -121t132 -318q0 -195 -134 -316.5t-333 -121.5h-514v1362h-684q0 -258 -6 -433t-27.5 -373t-69 -326t-122.5 -187q-86 -68 -197 -43l16 70q76 -18 136 28q55 43 93 144.5t58.5 218.5t31.5 295t13 312t2 335v31h826v-557h444zM1620 72q170 0 280.5 99 t110.5 267t-111.5 268.5t-279.5 100.5h-444v-735h444z" glyph-name="afii10058" horiz-adv-x="2220" unicode="Љ"/><glyph d="M1722 754q213 0 341 -93.5t128 -282t-130 -283.5t-339 -95h-501v682h-945v-682h-71v1434h71v-680h945v680h71v-680h430zM1722 72q391 0 392 307q0 303 -392 303h-430v-610h430z" glyph-name="afii10059" horiz-adv-x="2324" unicode="Њ"/><glyph d="M940 938q182 0 283.5 -116.5t101.5 -319.5v-502h-70v502q0 164 -84 264t-231 100q-106 0 -205.5 -49t-140.5 -100v-717h-72v1362h-481v72h1036v-72h-483v-557q49 47 148.5 90t197.5 43z" glyph-name="afii10060" horiz-adv-x="1488" unicode="Ћ"/><glyph d="M1135 0l-557 784l-302 -333v-451h-71v1434h71v-877l793 877h96l-538 -596l596 -838h-88zM786 1843h88l-202 -278h-43z" glyph-name="afii10061" horiz-adv-x="1314" unicode="Ќ"/><glyph d="M1165 1434l-463 -1074q-88 -197 -163 -272q-145 -145 -330 -84l22 68q223 -70 375 247l-565 1115h80l522 -1031l444 1031h78zM778 1800h60q0 -100 -56.5 -164.5t-152.5 -64.5q-98 0 -154.5 64.5t-56.5 164.5h59q0 -74 43 -122t109 -48q68 0 108.5 47t40.5 123z" glyph-name="afii10062" horiz-adv-x="1165" unicode="Ў"/><glyph d="M1157 1434h70v-1434h-475v-260h-72v260h-475v1434h71v-1362h881v1362z" glyph-name="afii10145" horiz-adv-x="1431" unicode="Џ"/><glyph d="M1178 0l-177 455h-667l-176 -455h-76l553 1434h65l553 -1434h-75zM360 524h615l-307 795z" glyph-name="afii10017" horiz-adv-x="1335" unicode="А"/><glyph d="M752 799q186 0 309 -104.5t123 -297t-123 -295t-309 -102.5h-547v1434h835v-70h-766v-565h478zM752 72q152 0 253 82t101 243.5t-100.5 245.5t-253.5 84h-478v-655h478z" glyph-name="afii10018" horiz-adv-x="1316" unicode="Б"/><glyph d="M893 770q133 -33 212 -127t79 -248q0 -190 -123 -292.5t-309 -102.5h-547v1434h512q172 0 279.5 -97.5t107.5 -257.5q0 -111 -56.5 -191.5t-154.5 -117.5zM717 1362h-441v-563h441q139 0 225 73.5t86 206.5q0 137 -84 210t-227 73zM752 72q152 0 253 82t101 241 q0 162 -100.5 247t-253.5 85h-476v-655h476z" glyph-name="afii10019" horiz-adv-x="1337" unicode="В"/><glyph d="M952 1434v-70h-696v-1364h-72v1434h768z" glyph-name="afii10020" horiz-adv-x="931" unicode="Г"/><glyph d="M1198 72h145v-332h-71v260h-1180v-260h-72v332h76q172 102 238 567q45 315 45 737v58h819v-1362zM207 72h919v1292h-675q0 -1026 -244 -1292z" glyph-name="afii10021" horiz-adv-x="1445" unicode="Д"/><glyph d="M274 72h883v-72h-952v1434h940v-72h-871v-610h807v-70h-807v-610z" glyph-name="afii10022" horiz-adv-x="1308" unicode="Е"/><glyph d="M1841 0l-557 784l-264 -313v-471h-72v471l-262 313l-559 -784h-86l596 840l-539 594h97l753 -856v856h72v-856l756 856h96l-539 -594l596 -840h-88z" glyph-name="afii10024" horiz-adv-x="1990" unicode="Ж"/><glyph d="M825 762q289 -86 289 -350q0 -168 -133 -297t-375 -129q-115 0 -212 26.5t-155.5 66.5t-90 71.5t-46.5 58.5l62 35q12 -23 39.5 -49.5t79 -59.5t136.5 -55.5t187 -22.5q190 0 310 98.5t120 256.5q0 311 -438 311h-192v70h198q184 0 271.5 89t87.5 212q0 129 -99.5 205.5 t-261.5 76.5q-154 0 -254 -69.5t-147 -161.5l-70 20q51 113 176 197t301 84q215 0 323.5 -104.5t108.5 -247.5q0 -102 -53 -193.5t-162 -138.5z" glyph-name="afii10025" horiz-adv-x="1267" unicode="З"/><glyph d="M1231 1434h65v-1434h-71v1307l-955 -1307h-65v1434h69v-1311z" glyph-name="afii10026" horiz-adv-x="1501" unicode="И"/><glyph d="M760 1579q-94 0 -159.5 58.5t-74.5 148.5h60q8 -66 56 -107t118 -41q72 0 120 41t56 107h59q-8 -90 -73.5 -148.5t-161.5 -58.5zM1231 1434h65v-1434h-71v1307l-955 -1307h-65v1434h69v-1311z" glyph-name="afii10027" horiz-adv-x="1501" unicode="Й"/><glyph d="M1135 0l-557 784l-302 -333v-451h-71v1434h71v-877l793 877h96l-538 -596l596 -838h-88z" glyph-name="afii10028" horiz-adv-x="1314" unicode="К"/><glyph d="M352 1434h824v-1434h-70v1364h-682q0 -264 -7 -434t-27.5 -372t-69 -329t-123.5 -186q-84 -68 -197 -43l16 70q76 -18 138 28q68 53 110.5 182.5t60 332t22.5 370.5t5 422v29z" glyph-name="afii10029" horiz-adv-x="1380" unicode="Л"/><glyph d="M1544 1434h66v-1434h-72v1298l-606 -921h-47l-609 921v-1298h-71v1434h65l637 -969z" glyph-name="afii10030" horiz-adv-x="1814" unicode="М"/><glyph d="M1221 1434h71v-1434h-71v680h-945v-680h-71v1434h71v-682h945v682z" glyph-name="afii10031" horiz-adv-x="1497" unicode="Н"/><glyph d="M807 1446q299 0 497.5 -213t198.5 -518t-199.5 -517t-496.5 -212t-495.5 212t-198.5 517t198.5 518t495.5 213zM807 55q268 0 443 191.5t175 468t-175 468t-443 191.5q-266 0 -441.5 -191.5t-175.5 -468t175.5 -468t441.5 -191.5z" glyph-name="afii10032" horiz-adv-x="1615" unicode="О"/><glyph d="M205 1434h1087v-1434h-71v1364h-947v-1364h-69v1434z" glyph-name="afii10033" horiz-adv-x="1497" unicode="П"/><glyph d="M719 1434q201 0 334 -122t133 -316.5t-132 -316.5t-335 -122h-445v-557h-69v1434h514zM719 629q168 0 279.5 99t111.5 267t-109.5 267.5t-281.5 99.5h-445v-733h445z" glyph-name="afii10034" horiz-adv-x="1267" unicode="Р"/><glyph d="M827 59q168 0 305.5 79t219.5 216l65 -30q-92 -156 -246.5 -246t-343.5 -90q-297 0 -495.5 212t-198.5 517t198.5 517t495.5 212q188 0 343 -90t247 -246l-65 -31q-82 137 -219.5 216t-305.5 79q-266 0 -441 -190.5t-177 -466.5q2 -276 177 -467t441 -191z" glyph-name="afii10035" horiz-adv-x="1550" unicode="С"/><glyph d="M1077 1434v-72h-483v-1362h-70v1362h-483v72h1036z" glyph-name="afii10036" horiz-adv-x="1097" unicode="Т"/><glyph d="M1165 1434l-463 -1074q-88 -197 -163 -272q-145 -145 -330 -84l22 68q223 -70 375 247l-565 1115h80l522 -1031l444 1031h78z" glyph-name="afii10037" horiz-adv-x="1165" unicode="У"/><glyph d="M1642 717q0 -281 -205.5 -438.5t-512.5 -165.5v-172h-72v172q-307 8 -513 165.5t-206 438.5q0 279 206 437.5t513 168.5v170h72v-170q307 -10 512.5 -168.5t205.5 -437.5zM211 717q0 -170 90 -291t231.5 -179.5t319.5 -64.5v1069q-276 -8 -458.5 -146t-182.5 -388z M924 182q180 6 321 64.5t231.5 179.5t90.5 291q0 250 -183.5 388t-459.5 146v-1069z" glyph-name="afii10038" horiz-adv-x="1775" unicode="Ф"/><glyph d="M1190 0h-88l-475 674l-477 -674h-89l521 737l-494 697h88l451 -635l448 635h88l-493 -697z" glyph-name="afii10039" horiz-adv-x="1230" unicode="Х"/><glyph d="M1227 72h178v-332h-72v260h-1128v1434h71v-1362h881v1362h70v-1362z" glyph-name="afii10040" horiz-adv-x="1466" unicode="Ц"/><glyph d="M1077 1434h72v-1434h-72v686q-63 -80 -198.5 -135t-272.5 -55q-219 0 -346 127t-127 397v414h72v-414q0 -225 102.5 -340t298.5 -115q164 0 289 65.5t182 147.5v656z" glyph-name="afii10041" horiz-adv-x="1353" unicode="Ч"/><glyph d="M1833 1434h72v-1434h-1700v1434h69v-1362h746v1362h70v-1362h743v1362z" glyph-name="afii10042" horiz-adv-x="2109" unicode="Ш"/><glyph d="M1905 72h178v-332h-72v260h-1806v1434h71v-1362h744v1362h72v-1362h741v1362h72v-1362z" glyph-name="afii10043" horiz-adv-x="2144" unicode="Щ"/><glyph d="M815 877q205 0 337 -121t132 -318q0 -195 -134 -316.5t-335 -121.5h-514v1364h-260v70h332v-557h442zM815 72q170 0 280.5 99t110.5 267t-111.5 268.5t-279.5 100.5h-442v-735h442z" glyph-name="afii10044" horiz-adv-x="1417" unicode="Ъ"/><glyph d="M1432 1434h69v-1434h-69v1434zM719 877q205 0 337 -121t132 -318q0 -195 -134 -316.5t-335 -121.5h-514v1434h71v-557h443zM719 72q170 0 280.5 99t110.5 267t-111.5 268.5t-279.5 100.5h-443v-735h443z" glyph-name="afii10045" horiz-adv-x="1705" unicode="Ы"/><glyph d="M719 877q205 0 337 -121t132 -318q0 -195 -134 -316.5t-335 -121.5h-514v1434h71v-557h443zM719 72q170 0 280.5 99t110.5 267t-111.5 268.5t-279.5 100.5h-443v-735h443z" glyph-name="afii10046" horiz-adv-x="1320" unicode="Ь"/><glyph d="M721 1444q297 0 496.5 -212t199.5 -517t-199.5 -517t-496.5 -212q-188 0 -343 90t-245 246l64 30q84 -137 220 -216t304 -79q260 0 433 179.5t185 445.5h-792v72h792q-14 262 -187 440t-431 178q-168 0 -304 -79t-220 -216l-64 31q90 156 245 246t343 90z" glyph-name="afii10047" horiz-adv-x="1550" unicode="Э"/><glyph d="M1356 1446q297 0 495.5 -212t198.5 -517t-198.5 -518t-495.5 -213q-291 0 -487.5 200.5t-209.5 495.5h-383v-682h-71v1434h71v-680h383q14 293 211 492.5t486 199.5zM1356 57q266 0 442 191.5t176 468t-176 468t-442 191.5q-268 0 -443.5 -191.5t-175.5 -468t175.5 -468 t443.5 -191.5z" glyph-name="afii10048" horiz-adv-x="2162" unicode="Ю"/><glyph d="M635 1434h514v-1434h-72v557h-442q-35 0 -100 8l-322 -565h-80l330 584q-137 45 -217 153.5t-80 257.5q0 195 134 317t335 122zM635 629h442v735h-442q-172 0 -281.5 -100.5t-109.5 -268.5t111.5 -267t279.5 -99z" glyph-name="afii10049" horiz-adv-x="1353" unicode="Я"/><glyph d="M516 1001q59 0 115.5 -16t110 -52t86 -107.5t32.5 -168.5v-657h-69v203q-141 -217 -404 -217q-76 0 -140.5 20.5t-114.5 77.5t-50 145q0 131 96 199t268 109q27 6 71 15t69.5 14t61.5 14.5t57.5 18.5t43 22.5t30.5 29t9 35.5q0 109 -67.5 177.5t-204.5 68.5 q-131 0 -210 -61.5t-103 -163.5l-70 16q72 278 383 278zM791 412v131q-31 -6 -140.5 -34t-187.5 -42q-168 -35 -236.5 -89t-68.5 -149q0 -86 67.5 -130t171.5 -44q166 0 280 105t114 252z" glyph-name="afii10065" horiz-adv-x="1024" unicode="а"/><glyph d="M569 985q207 0 329 -138t122 -353q0 -217 -126 -362.5t-331 -145.5q-184 0 -306 123.5t-144 310.5q-8 66 -9.5 142.5t7 171.5t34 188.5t66.5 181.5t111.5 165t160.5 124t209 82q4 2 25.5 9t27 8t23.5 8t25.5 10t22.5 9.5t23.5 11.5t19.5 12t21.5 15.5t18.5 16.5l51 -49 q-10 -10 -21 -19.5t-20.5 -15.5t-24 -14.5t-21.5 -12.5t-25.5 -11t-23.5 -10t-25.5 -10.5t-23.5 -8.5t-26.5 -9t-25.5 -8q-125 -41 -195 -78q-289 -154 -342 -575q63 106 166.5 168.5t226.5 62.5zM563 57q176 0 277.5 124t101.5 313q0 186 -98.5 302.5t-274.5 116.5 q-178 0 -281.5 -117.5t-103.5 -301.5q0 -188 101.5 -312.5t277.5 -124.5z" glyph-name="afii10066" horiz-adv-x="1132" unicode="б"/><glyph d="M750 502q84 -25 133 -86.5t49 -151.5q0 -121 -81 -192.5t-208 -71.5h-479v987h430q123 0 206 -72.5t83 -191.5q0 -153 -133 -221zM594 915h-358v-385h358q96 0 156.5 50.5t60.5 142.5t-61.5 142t-155.5 50zM643 72q96 0 156.5 51t60.5 141q0 92 -61.5 143.5t-155.5 51.5 h-407v-387h407z" glyph-name="afii10067" horiz-adv-x="1034" unicode="в"/><glyph d="M793 987v-72h-557v-915h-72v987h629z" glyph-name="afii10068" horiz-adv-x="833" unicode="г"/><glyph d="M1004 72v-314h-70v242h-885v-242h-69v314h79q104 113 142.5 331t42.5 515v69h614v-915h146zM150 72h638v843h-475q-2 -287 -35.5 -498.5t-127.5 -344.5z" glyph-name="afii10069" horiz-adv-x="1085" unicode="д"/><glyph d="M993 494q0 -35 -2 -54h-829q16 -168 123.5 -276.5t271.5 -108.5q223 0 336 197l65 -33q-61 -109 -165.5 -171t-235.5 -62q-207 0 -341 147.5t-134 360.5t134 360t341 147q203 0 319.5 -144t116.5 -363zM557 932q-172 0 -281.5 -120t-115.5 -300h755q-4 184 -96 302 t-262 118z" glyph-name="afii10070" unicode="е"/><glyph d="M1368 0l-389 541l-215 -252v-289h-72v289l-213 252l-391 -541h-88l430 594l-364 393h96l530 -594v594h72v-594l530 594h99l-365 -393l428 -594h-88z" glyph-name="afii10072" horiz-adv-x="1497" unicode="ж"/><glyph d="M598 506q76 -20 137.5 -83t61.5 -153q0 -121 -99.5 -202.5t-271.5 -81.5q-129 0 -235.5 57t-149.5 129l61 37q111 -152 322 -152q131 0 214 56.5t83 154.5q0 197 -299 197h-123v70h137q106 0 175 52t69 146q0 96 -67.5 147.5t-182.5 51.5q-164 0 -278 -127l-50 43 q137 156 332 156q147 0 232.5 -73t85.5 -196q0 -76 -42 -137t-112 -92z" glyph-name="afii10073" horiz-adv-x="878" unicode="з"/><glyph d="M883 987h65v-987h-71v870l-670 -870h-64v987h70v-868z" glyph-name="afii10074" horiz-adv-x="1112" unicode="и"/><glyph d="M557 1108q-94 0 -159.5 58.5t-73.5 148.5h59q8 -66 56 -108t118 -42t119 42t57 108h60q-8 -90 -74 -148.5t-162 -58.5zM883 987h65v-987h-71v870l-670 -870h-64v987h70v-868z" glyph-name="afii10075" horiz-adv-x="1112" unicode="й"/><glyph d="M877 0l-390 541l-254 -271v-270h-69v987h69v-612l570 612h98l-364 -393l428 -594h-88z" glyph-name="afii10076" horiz-adv-x="1026" unicode="к"/><glyph d="M788 987h70v-987h-70v915h-469q0 -381 -32.5 -591.5t-122.5 -286.5q-68 -55 -164 -37l14 70q61 -12 105 22q78 63 103.5 275.5t25.5 554.5v65h540z" glyph-name="afii10077" horiz-adv-x="1021" unicode="л"/><glyph d="M1106 987h63v-987h-69v858l-420 -608h-47l-418 608v-858h-72v987h66l448 -653z" glyph-name="afii10078" horiz-adv-x="1333" unicode="м"/><glyph d="M899 987h72v-987h-72v459h-663v-459h-72v987h72v-457h663v457z" glyph-name="afii10079" horiz-adv-x="1134" unicode="н"/><glyph d="M577.5 1001q206.5 0 340 -146t133.5 -361t-133.5 -361.5t-340 -146.5t-341 147.5t-134.5 360.5t134.5 360t341 147zM577.5 55q178.5 0 287 126t108.5 312.5t-108.5 312.5t-287 126t-288 -126t-109.5 -312.5t109.5 -312.5t288 -126z" glyph-name="afii10080" horiz-adv-x="1163" unicode="о"/><glyph d="M164 987h805v-987h-70v915h-666v-915h-69v987z" glyph-name="afii10081" horiz-adv-x="1132" unicode="п"/><glyph d="M627 1004q205 0 332.5 -147.5t127.5 -362.5t-126.5 -361.5t-333.5 -146.5q-135 0 -235.5 64.5t-155.5 178.5v-675h-72v1433h72v-227q55 113 155.5 178.5t235.5 65.5zM627 57q176 0 280.5 125t104.5 311.5t-104.5 312.5t-280.5 126t-280.5 -126t-104.5 -312.5 t104.5 -311.5t280.5 -125z" glyph-name="afii10082" horiz-adv-x="1200" unicode="р"/><glyph d="M575 55q223 0 336 197l68 -33q-63 -109 -167.5 -171t-236.5 -62q-207 0 -340 146.5t-133 361.5t133.5 361t339.5 146q131 0 235.5 -62t168.5 -171l-68 -31q-113 195 -336 195q-178 0 -287.5 -126t-109.5 -312.5t109.5 -312.5t287.5 -126z" glyph-name="afii10083" horiz-adv-x="1091" unicode="с"/><glyph d="M825 987v-72h-356v-915h-72v915h-356v72h784z" glyph-name="afii10084" horiz-adv-x="866" unicode="т"/><glyph d="M791 987h75l-372 -987q-51 -137 -81 -200.5t-73 -110.5q-43 -51 -97.5 -70.5t-85 -17.5t-85.5 12l12 70q125 -25 187.5 37.5t146.5 279.5l-373 987h76l336 -887z" glyph-name="afii10085" horiz-adv-x="911" unicode="у"/><glyph d="M1280 494q0 -215 -142.5 -356.5t-410.5 -151.5v-432h-72v432q-268 10 -410.5 151.5t-142.5 356.5t141.5 357t411.5 150v433h72v-433q270 -8 411.5 -150t141.5 -357zM178 494q0 -190 115 -309t362 -128v875q-242 -10 -359.5 -130t-117.5 -308zM727 57q246 8 360.5 127 t114.5 310q0 188 -116.5 308t-358.5 130v-875z" glyph-name="afii10086" horiz-adv-x="1392" unicode="ф"/><glyph d="M866 0h-88l-315 446l-313 -446h-89l359 508l-338 479h88l293 -416l295 416h86l-336 -479z" glyph-name="afii10087" horiz-adv-x="948" unicode="х"/><glyph d="M1098 72v-314h-72v242h-862v987h72v-915h645v915h71v-915h146z" glyph-name="afii10088" horiz-adv-x="1159" unicode="ц"/><glyph d="M784 987h72v-987h-72v412q-147 -104 -333 -105q-109 0 -181.5 35t-106.5 97.5t-47.5 127t-13.5 148.5v272h70v-272q0 -174 65.5 -255t213.5 -81q195 0 333 110v498z" glyph-name="afii10089" horiz-adv-x="1019" unicode="ч"/><glyph d="M1350 987h71v-987h-1257v987h72v-915h522v915h69v-915h523v915z" glyph-name="afii10090" horiz-adv-x="1585" unicode="ш"/><glyph d="M1565 72v-314h-72v242h-1329v987h69v-915h523v915h71v-915h521v915h71v-915h146z" glyph-name="afii10091" horiz-adv-x="1626" unicode="щ"/><glyph d="M653 641q150 0 250.5 -86t100.5 -236q0 -147 -101.5 -233t-249.5 -86h-391v915h-242v72h314v-346h319zM653 72q117 0 195 64.5t78 182.5q0 121 -78 185.5t-195 64.5h-319v-497h319z" glyph-name="afii10092" unicode="ъ"/><glyph d="M1104 987h70v-987h-70v987zM555 641q150 0 250 -86t100 -236q0 -147 -101.5 -233t-248.5 -86h-391v987h69v-346h322zM555 72q115 0 193.5 64.5t78.5 182.5q0 121 -77.5 185.5t-194.5 64.5h-322v-497h322z" glyph-name="afii10093" horiz-adv-x="1337" unicode="ы"/><glyph d="M555 641q150 0 250 -86t100 -236q0 -147 -101.5 -233t-248.5 -86h-391v987h72v-346h319zM555 72q115 0 193.5 64.5t78.5 182.5q0 121 -77.5 185.5t-194.5 64.5h-319v-497h319z" glyph-name="afii10094" horiz-adv-x="1017" unicode="ь"/><glyph d="M506 1004q207 0 340 -147.5t133 -362.5t-133 -361.5t-340 -146.5q-133 0 -237.5 62.5t-166.5 170.5l68 33q51 -90 138 -142.5t198 -52.5q168 0 276.5 114t118.5 288h-526v71h526q-10 172 -118.5 287t-276.5 115q-111 0 -198 -52.5t-138 -142.5l-68 33q61 109 167 171.5 t237 62.5z" glyph-name="afii10095" horiz-adv-x="1091" unicode="э"/><glyph d="M983 1004q207 0 340 -147.5t133 -362.5t-133 -361.5t-340 -146.5q-199 0 -330 135t-143 338h-274v-459h-72v987h72v-457h274q12 203 143 338.5t330 135.5zM983 57q178 0 287.5 125t109.5 311.5t-109.5 312.5t-287.5 126t-287.5 -126t-109.5 -312.5t109.5 -311.5 t287.5 -125z" glyph-name="afii10096" horiz-adv-x="1568" unicode="ю"/><glyph d="M455 987h387v-987h-72v348h-315q-51 0 -90 8l-201 -356h-82l213 379q-86 35 -138.5 109.5t-52.5 179.5q0 147 102 233t249 86zM455 420h315v495h-315q-115 0 -194 -64.5t-79 -182.5q0 -121 78 -184.5t195 -63.5z" glyph-name="afii10097" horiz-adv-x="1005" unicode="я"/><glyph d="M354 1143q-25 0 -41 17.5t-16 40t16.5 39.5t40.5 17q23 0 39.5 -17t16.5 -39.5t-16.5 -40t-39.5 -17.5zM727 1143q-23 0 -39 17.5t-16 40t16.5 39.5t38.5 17q25 0 41 -17t16 -39.5t-16 -40t-41 -17.5zM993 494q0 -35 -2 -54h-829q16 -168 123.5 -276.5t271.5 -108.5 q223 0 336 197l65 -33q-61 -109 -165.5 -171t-235.5 -62q-207 0 -341 147.5t-134 360.5t134 360t341 147q203 0 319.5 -144t116.5 -363zM557 932q-172 0 -281.5 -120t-115.5 -300h755q-4 184 -96 302t-262 118z" glyph-name="afii10071" unicode="ё"/><glyph d="M584 1001q180 0 281.5 -118.5t101.5 -321.5v-684q0 -119 -57.5 -198.5t-166.5 -79.5q-100 0 -176 61l45 55q57 -45 131 -45q72 0 113 56.5t41 138.5v696q0 166 -83 268.5t-230 102.5q-141 0 -232.5 -109.5t-91.5 -285.5v-537h-72v1174h-147v69h147v191h72v-191h268v-69 h-268v-388q47 98 130 156.5t194 58.5z" glyph-name="afii10099" horiz-adv-x="1130" unicode="ђ"/><glyph d="M793 987v-72h-557v-915h-72v987h629zM629 1434h88l-203 -279h-43z" glyph-name="afii10100" horiz-adv-x="833" unicode="ѓ"/><glyph d="M575 57q225 0 336 195l66 -33q-61 -109 -165.5 -171t-236.5 -62q-207 0 -340 146.5t-133 361.5t133.5 361t339.5 146q131 0 235.5 -62t166.5 -169l-66 -33q-113 195 -336 195q-168 0 -276.5 -115t-118.5 -287h525v-71h-525q10 -174 118.5 -288t276.5 -114z" glyph-name="afii10101" horiz-adv-x="1089" unicode="є"/><glyph d="M457 530q61 -16 99 -27t90 -35t82 -50.5t51.5 -67.5t21.5 -90q0 -131 -96.5 -203.5t-235.5 -72.5q-147 0 -250.5 64.5t-136.5 162.5l68 31q27 -78 107.5 -133.5t211.5 -55.5q109 0 184.5 53.5t75.5 153.5q0 76 -70.5 119t-218.5 82q-145 37 -230 91t-97 159 q-14 121 72.5 207t246.5 86q125 0 211 -61.5t119 -162.5l-66 -26q-66 178 -264 178q-127 0 -192.5 -61.5t-55.5 -151.5q8 -72 79 -114t194 -75z" glyph-name="afii10102" horiz-adv-x="903" unicode="ѕ"/><glyph d="M184 0v987h72v-987h-72zM219 1290q25 0 41 -17.5t16 -40t-16 -39.5t-41 -17q-23 0 -39 17t-16 39.5t16 40t39 17.5z" glyph-name="afii10103" horiz-adv-x="450" unicode="і"/><glyph d="M188 0v987h72v-987h-72zM362.5 1323q22.5 0 40 -17.5t17.5 -40t-17.5 -40t-40 -17.5t-40 17.5t-17.5 40t17.5 40t40 17.5zM88.5 1323q22.5 0 39.5 -17.5t17 -40t-17 -40t-39.5 -17.5t-40 17.5t-17.5 40t17.5 40t40 17.5z" glyph-name="afii10104" horiz-adv-x="450" unicode="ї"/><glyph d="M251.5 1290q22.5 0 40 -17.5t17.5 -40t-17.5 -39.5t-40 -17t-39.5 17t-17 39.5t17 40t39.5 17.5zM215 -182v1169h70v-1169q0 -121 -56.5 -200t-167.5 -79q-102 0 -174 62l43 55q57 -45 131 -45t114 54.5t40 152.5z" glyph-name="afii10105" horiz-adv-x="473" unicode="ј"/><glyph d="M1149 641q150 0 250 -86t100 -236q0 -147 -101.5 -233t-248.5 -86h-363v915h-467q0 -379 -33.5 -590.5t-123.5 -287.5q-66 -57 -162 -37l14 70q61 -12 103 22q78 63 104.5 277.5t26.5 552.5v65h610v-346h291zM1149 72q115 0 193.5 64.5t78.5 182.5q0 121 -77.5 185.5 t-194.5 64.5h-291v-497h291z" glyph-name="afii10106" horiz-adv-x="1611" unicode="љ"/><glyph d="M1243 530q344 0 344 -258q0 -139 -92 -205.5t-252 -66.5h-344v459h-663v-459h-72v987h72v-457h663v457h72v-457h272zM1243 72q266 0 266 200q0 109 -69.5 148t-196.5 39h-272v-387h272z" glyph-name="afii10107" horiz-adv-x="1699" unicode="њ"/><glyph d="M584 1001q180 0 281.5 -118.5t101.5 -321.5v-561h-72v561q0 166 -82 268.5t-229 102.5q-141 0 -233.5 -109.5t-92.5 -285.5v-537h-70v1174h-147v69h147v191h70v-191h270v-69h-270v-388q107 215 326 215z" glyph-name="afii10108" horiz-adv-x="1130" unicode="ћ"/><glyph d="M877 0l-390 541l-254 -271v-270h-69v987h69v-612l570 612h98l-364 -393l428 -594h-88zM670 1434h88l-203 -279h-43z" glyph-name="afii10109" horiz-adv-x="1026" unicode="ќ"/><glyph d="M791 987h75l-372 -987q-51 -137 -81 -200.5t-73 -110.5q-43 -51 -97.5 -70.5t-85 -17.5t-85.5 12l12 70q125 -25 187.5 37.5t146.5 279.5l-373 987h76l336 -887zM631 1391h59q0 -100 -56 -165t-153 -65q-98 0 -154.5 64.5t-56.5 165.5h60q0 -74 43 -122t108 -48 q68 0 109 47t41 123z" glyph-name="afii10110" horiz-adv-x="911" unicode="ў"/><glyph d="M881 987h71v-987h-358v-242h-72v242h-358v72v915h72v-915h645v915z" glyph-name="afii10193" unicode="џ"/><glyph d="M881 1694h71v-332h-696v-1362h-72v1434h697v260z" glyph-name="afii10050" horiz-adv-x="931" unicode="Ґ"/><glyph d="M791 1231v-316h-558v-915h-69v987h557v244h70z" glyph-name="afii10098" horiz-adv-x="831" unicode="ґ"/><glyph d="M1944 1434h75l-467 -1434h-73l-424 1319l-426 -1319h-72l-465 1434h76l428 -1317l424 1317h72l424 -1317zM915 1843l160 -278h-43l-203 278h86z" glyph-name="Wgrave" horiz-adv-x="2111" unicode="Ẁ"/><glyph d="M1337 987h76l-319 -987h-70l-287 872l-288 -872h-70l-318 987h74l283 -870l287 870h63l287 -870zM578 1434l159 -279h-43l-202 279h86z" glyph-name="wgrave" horiz-adv-x="1454" unicode="ẁ"/><glyph d="M1944 1434h75l-467 -1434h-73l-424 1319l-426 -1319h-72l-465 1434h76l428 -1317l424 1317h72l424 -1317zM1212 1843h88l-202 -278h-43z" glyph-name="Wacute" horiz-adv-x="2111" unicode="Ẃ"/><glyph d="M1337 987h76l-319 -987h-70l-287 872l-288 -872h-70l-318 987h74l283 -870l287 870h63l287 -870zM895 1434h88l-203 -279h-43z" glyph-name="wacute" horiz-adv-x="1454" unicode="ẃ"/><glyph d="M1944 1434h75l-467 -1434h-73l-424 1319l-426 -1319h-72l-465 1434h76l428 -1317l424 1317h72l424 -1317zM1191.5 1753q22.5 0 40 -17.5t17.5 -40t-17.5 -40t-40 -17.5t-39.5 17.5t-17 40t17 40t39.5 17.5zM917.5 1753q22.5 0 40 -17.5t17.5 -40t-17.5 -40t-40 -17.5 t-40 17.5t-17.5 40t17.5 40t40 17.5z" glyph-name="Wdieresis" horiz-adv-x="2111" unicode="Ẅ"/><glyph d="M1337 987h76l-319 -987h-70l-287 872l-288 -872h-70l-318 987h74l283 -870l287 870h63l287 -870zM874.5 1343q22.5 0 40 -17t17.5 -39.5t-17.5 -40t-40 -17.5t-40 17.5t-17.5 40t17.5 39.5t40 17zM600.5 1343q22.5 0 39.5 -17t17 -39.5t-17 -40t-39.5 -17.5t-40 17.5 t-17.5 40t17.5 39.5t40 17z" glyph-name="wdieresis" horiz-adv-x="1454" unicode="ẅ"/><glyph d="M680 907q203 -23 334 -136.5t131 -315.5q0 -227 -155.5 -348t-393.5 -121v69q72 0 143.5 15.5t152.5 54.5t131 124t50 206q0 119 -51 201.5t-133 119.5t-151.5 50.5t-141.5 13.5v71l315 451h-329q-152 0 -229 -107.5t-77 -289.5v-965h-71v965q0 221 98 345t279 124h415 v-72z" glyph-name="uni1E9E" horiz-adv-x="1277" unicode="ẞ"/><glyph d="M1186 1434l-537 -957v-477h-69v475l-539 959h82l491 -875l490 875h82zM475 1843l160 -278h-43l-203 278h86z" glyph-name="Ygrave" horiz-adv-x="1226" unicode="Ỳ"/><glyph d="M791 987h75l-372 -987q-51 -137 -81 -200.5t-73 -110.5q-43 -51 -97.5 -70.5t-85 -17.5t-85.5 12l12 70q125 -25 187.5 37.5t146.5 279.5l-373 987h76l336 -887zM317 1434l160 -279h-43l-203 279h86z" glyph-name="ygrave" horiz-adv-x="911" unicode="ỳ"/><glyph d="M123 664h795v-72h-795v72z" glyph-name="endash" horiz-adv-x="1040" unicode="–"/><glyph d="M123 664h971v-72h-971v72z" glyph-name="emdash" horiz-adv-x="1216" unicode="—"/><glyph d="M102 1102l144 344h41l-97 -344h-88z" glyph-name="quoteleft" horiz-adv-x="307" unicode="‘"/><glyph d="M102 1102l95 344h90l-144 -344h-41z" glyph-name="quoteright" horiz-adv-x="307" unicode="’"/><glyph d="M102 -324l95 344h90l-144 -344h-41z" glyph-name="quotesinglbase" horiz-adv-x="307" unicode="‚"/><glyph d="M455 1446h41l-95 -344h-90zM102 1102l144 344h41l-97 -344h-88z" glyph-name="quotedblleft" horiz-adv-x="557" unicode="“"/><glyph d="M102 1102l95 344h90l-144 -344h-41zM408 1446h88l-142 -344h-43z" glyph-name="quotedblright" horiz-adv-x="557" unicode="”"/><glyph d="M102 -324l95 344h90l-144 -344h-41zM408 20h88l-142 -344h-43z" glyph-name="quotedblbase" horiz-adv-x="516" unicode="„"/><glyph d="M817 1042v-71h-332v-971h-71v971h-332v71h332v392h71v-392h332z" glyph-name="dagger" horiz-adv-x="899" unicode="†"/><glyph d="M817 971h-334v-508h334v-72h-334v-391h-69v391h-332v72h332v508h-332v71h332v392h69v-392h334v-71z" glyph-name="daggerdbl" horiz-adv-x="899" unicode="‡"/><glyph d="M137 115q25 0 41.5 -17.5t16.5 -40t-16.5 -40t-41.5 -17.5q-23 0 -39 17.5t-16 40t16 40t39 17.5zM403 115q25 0 41.5 -17.5t16.5 -40t-16.5 -40t-41.5 -17.5q-23 0 -39 17.5t-16 40t16 40t39 17.5zM670 115q25 0 41 -17.5t16 -40t-16.5 -40t-40.5 -17.5 q-23 0 -39.5 17.5t-16.5 40t16.5 40t39.5 17.5z" glyph-name="ellipsis" horiz-adv-x="849" unicode="…"/><glyph d="M627 1153q0 -125 -84 -209t-209 -84t-209 84t-84 209t84 209t209 84t209 -84t84 -209zM106 1153q0 -96 66 -161.5t162 -65.5t162.5 65.5t66.5 161.5t-66.5 161.5t-162.5 65.5t-162 -65.5t-66 -161.5zM1081 571q125 0 210 -84t85 -208.5t-85 -208.5t-210 -84 q-123 0 -208 84t-85 208.5t85 208.5t208 84zM1081 51q98 0 164 65.5t66 162t-65.5 163t-164.5 66.5q-96 0 -161.5 -66.5t-65.5 -163t65.5 -162t161.5 -65.5zM1116 1434h84l-895 -1434h-84zM1767 571q125 0 210 -84t85 -208.5t-85 -208.5t-210 -84q-123 0 -207.5 84 t-84.5 208.5t84.5 208.5t207.5 84zM1767 51q98 0 164 65.5t66 162t-65.5 163t-164.5 66.5q-96 0 -161.5 -66.5t-65.5 -163t65.5 -162t161.5 -65.5z" glyph-name="perthousand" horiz-adv-x="2185" unicode="‰"/><glyph d="M459 870l-230 -321l230 -322h-88l-228 322l228 321h88z" glyph-name="guilsinglleft" horiz-adv-x="602" unicode="‹"/><glyph d="M229 870l230 -321l-230 -322h-86l228 322l-228 321h86z" glyph-name="guilsinglright" horiz-adv-x="602" unicode="›"/><glyph d="M956 57q168 0 304.5 79t220.5 216l63 -30q-90 -156 -244.5 -246t-343.5 -90q-256 0 -442 159.5t-238 407.5h-174l41 72h123q-6 43 -6 90t6 90h-164l41 72h133q51 248 237.5 407.5t442.5 159.5q188 0 343 -90t245 -246l-63 -31q-84 137 -220.5 216t-304.5 79 q-225 0 -387.5 -138t-214.5 -357h879l-39 -72h-850q-6 -43 -6 -90t6 -90h752l-41 -70h-701q51 -219 214 -358.5t388 -139.5z" glyph-name="Euro" horiz-adv-x="1667" unicode="€"/><glyph d="M776 557h-444v-174h573v-72h-573v-311h-72v311h-178v72h178v174h-178v72h178v805h516q199 0 333 -122t134 -316.5t-132 -316.5t-335 -122zM332 1362v-733h444q168 0 278.5 99t110.5 267t-109.5 267.5t-279.5 99.5h-444z" glyph-name="uni20BD" horiz-adv-x="1376" unicode="₽"/><glyph d="M1782 825q-125 0 -209 85t-84 208q0 125 84 210t209 85q123 0 208 -85t85 -210q0 -123 -85 -208t-208 -85zM1782 1348q-96 0 -163 -65.5t-67 -164.5q0 -96 67 -161.5t163 -65.5t161.5 65.5t65.5 161.5q0 98 -65.5 164t-161.5 66zM1225 123v1311h71v-1434h-65l-955 1307 v-1307h-71v1434h65zM1495 639v70h580v-70h-580z" glyph-name="afii61352" horiz-adv-x="2197" unicode="№"/><glyph d="M123 664h795v-72h-795v72z" glyph-name="minus" horiz-adv-x="1040" unicode="−"/><glyph d="M365 795q-68 -2 -105 -28t-70 -77l-67 25q41 70 93 109.5t146 41.5q84 2 203 -67q102 -59 162 -62q123 -4 174 103l68 -23q-76 -152 -236 -151q-84 0 -203 71q-106 60 -165 58zM727 455q123 -4 174 102l68 -22q-76 -152 -236 -152q-84 0 -203 72q-106 59 -165 57 q-68 -2 -105 -27.5t-70 -76.5l-67 22q39 70 92 111t147 43q84 2 203 -68q103 -59 162 -61z" glyph-name="approxequal" horiz-adv-x="1091" unicode="≈"/><glyph d="M938 750h-285l-145 -263h430v-71h-469l-141 -260h-82l143 260h-246v71h285l143 263h-428v71h467l144 260h80l-142 -260h246v-71z" glyph-name="notequal" horiz-adv-x="1101" unicode="≠"/><glyph d="M143 121v72h703v-72h-703zM846 1085v-77l-623 -303l623 -302v-77l-703 340v79z" glyph-name="lessequal" horiz-adv-x="989" unicode="≤"/><glyph d="M143 121v72h701v-72h-701zM143 1085l701 -340v-79l-701 -340v77l621 302l-621 303v77z" glyph-name="greaterequal" horiz-adv-x="987" unicode="≥"/><glyph d="M223 -158h82l-110 -270h-41z" glyph-name="uniF6C3" horiz-adv-x="458" unicode=""/></font>
</defs>
</svg>
