<?xml version="1.0" standalone="no"?>
<!DOCTYPE svg PUBLIC "-//W3C//DTD SVG 1.1//EN" "http://www.w3.org/Graphics/SVG/1.1/DTD/svg11.dtd">
<svg xmlns="http://www.w3.org/2000/svg"><metadata>This SVG WebFont was generated by YouWorkForThem.
Copyright (c) 2018 by MadeType. All rights reserved.</metadata><defs><font horiz-adv-x="1554" id="ywftsvg"><font-face ascent="1638" bbox="-133 -463.559 2095 1997" cap-height="1434" descent="-410" font-family="" font-stretch="normal" font-weight="500" panose-1="2 0 6 3 0 0 0 2 0 4" underline-position="0" underline-thickness="0" unicode-range="U+0020-F6C3" units-per-em="2048" x-height="987"/><missing-glyph horiz-adv-x="573"/><glyph glyph-name=".notdef" horiz-adv-x="573"/><glyph glyph-name="glyph1" horiz-adv-x="0"/><glyph glyph-name="glyph2" horiz-adv-x="681"/><glyph glyph-name="space" horiz-adv-x="573" unicode=" "/><glyph d="M305 356h-137l-33 1078h203zM235.5 -37q-47.5 0 -80 34t-32.5 81q0 45 32.5 78.5t80 33.5t81 -32.5t33.5 -79.5t-33.5 -81t-81 -34z" glyph-name="exclam" horiz-adv-x="473" unicode="!"/><glyph d="M147 1102l-45 344h187l-45 -344h-97zM360 1446h187l-45 -344h-96z" glyph-name="quotedbl" horiz-adv-x="628" unicode="&quot;"/><glyph d="M1417 854h-278l-64 -299h307l-41 -190h-305l-78 -365h-192l76 365h-293l-76 -365h-194l77 365h-295l41 190h293l64 299h-322l41 188h320l82 392h194l-82 -392h291l84 392h193l-82 -392h280zM881 555l63 299h-293l-61 -299h291z" glyph-name="numbersign" horiz-adv-x="1519" unicode="#"/><glyph d="M1149 399q0 -162 -114.5 -276.5t-319.5 -134.5v-195h-195v201q-168 25 -287.5 110.5t-171.5 204.5l187 64q70 -143 272 -183v465q-217 66 -320.5 153t-97.5 251q4 160 116 264t302 123v194h195v-200q143 -25 242.5 -109t142.5 -201l-187 -63q-49 139 -198 174v-434 q215 -68 324.5 -156t109.5 -252zM309 1053q0 -63 49.5 -106.5t161.5 -82.5v383q-106 -16 -158.5 -70t-52.5 -124zM715 186q102 18 163.5 72.5t61.5 134.5q0 72 -53 117t-172 86v-410z" glyph-name="dollar" horiz-adv-x="1220" unicode="$"/><glyph d="M1071 1434h219l-897 -1434h-219zM649 1153q0 -121 -86 -208t-206.5 -87t-208 87t-87.5 208t87.5 207t208 86t206.5 -86t86 -207zM221 1153q0 -55 40 -95t95.5 -40t94 40t38.5 95t-38.5 94t-94 39t-95.5 -39t-40 -94zM1104 573q121 0 208 -87t87 -207.5t-87 -206.5 t-208 -86t-208 86t-87 206.5t87 207.5t208 87zM1104 145q55 0 94 39t39 94.5t-39 95.5t-94 40t-95 -40t-40 -95.5t40 -94.5t95 -39z" glyph-name="percent" horiz-adv-x="1460" unicode="%"/><glyph d="M1065 324l321 -324h-247l-189 178q-172 -199 -395 -229q-281 -43 -426 157q-53 72 -65.5 173.5t25.5 213t124 197.5q47 49 149 125q-61 86 -102 174q-72 172 22.5 320.5t282.5 140.5q117 -6 196 -76.5t99.5 -170t-37 -218.5t-190.5 -211q119 -137 299 -319l74 118h213 q-105 -179 -154 -249zM555 1266q-59 0 -97 -35t-41 -82t15 -96q33 -68 84 -135q129 90 154 182q16 59 -16.5 112.5t-98.5 53.5zM291 233q39 -70 130 -90t202.5 22t195.5 142q-258 258 -340 365q-33 -18 -73 -51q-104 -84 -134 -198t19 -190z" glyph-name="ampersand" horiz-adv-x="1406" unicode="&amp;"/><glyph d="M102 1446h187l-45 -344h-97z" glyph-name="quotesingle" horiz-adv-x="370" unicode="'"/><glyph d="M592 1434q-186 -225 -258 -532.5t-13.5 -612.5t236.5 -527l-133 -108q-317 395 -299 960q8 262 96 505t240 425z" glyph-name="parenleft" horiz-adv-x="612" unicode="("/><glyph d="M188 1544q317 -395 299 -960q-8 -262 -96 -506t-239 -424l-132 110q186 225 258 531.5t13.5 612.5t-236.5 528z" glyph-name="parenright" horiz-adv-x="612" unicode=")"/><glyph d="M659 1204l-186 -76l186 -75l-90 -154l-157 121l26 -197h-178l29 197l-160 -121l-88 154l184 75l-184 76l88 154l160 -123l-29 199h178l-26 -199l157 123z" glyph-name="asterisk" horiz-adv-x="700" unicode="*"/><glyph d="M918 713v-172h-312v-312h-172v312h-311v172h311v311h172v-311h312z" glyph-name="plus" horiz-adv-x="1040" unicode="+"/><glyph d="M127 106h192l-143 -344h-115z" glyph-name="comma" horiz-adv-x="401" unicode=","/><glyph d="M123 713h676v-172h-676v172z" glyph-name="hyphen" horiz-adv-x="921" unicode="-"/><glyph d="M237.5 -37q-47.5 0 -81 34t-33.5 81t33.5 79.5t81.5 32.5q45 0 78.5 -33.5t33.5 -78.5q0 -47 -32.5 -81t-80 -34z" glyph-name="period" horiz-adv-x="473" unicode="."/><glyph d="M614 1538h187l-615 -1853h-186z" glyph-name="slash" horiz-adv-x="821" unicode="/"/><glyph d="M543 1446q209 0 324.5 -206t115.5 -525q0 -317 -116.5 -523t-323.5 -206t-324 205.5t-117 523.5q0 319 115 525t326 206zM543 180q90 0 147.5 85t76.5 197.5t19 252.5q0 102 -11 191t-37.5 170t-76 128t-118.5 47q-90 0 -148.5 -85t-78 -198.5t-19.5 -252.5 q0 -100 12.5 -189.5t39 -170.5t76.5 -128t118 -47z" glyph-name="zero" horiz-adv-x="1085" unicode="0"/><glyph d="M401 1434h195v-1434h-195v1059q-43 -45 -130 -90t-148 -51v124q113 59 190.5 172.5t87.5 219.5z" glyph-name="one" horiz-adv-x="821" unicode="1"/><glyph d="M326 195h565v-195h-789q0 172 67 306t198 272q96 102 130.5 141t83 113.5t68.5 146.5q33 117 -13 196.5t-144 79.5q-147 0 -209 -202l-179 41q35 166 133.5 259t254.5 93q184 0 294.5 -130t59.5 -370q-16 -70 -46 -134t-85.5 -134t-92 -112t-114.5 -122 q-135 -145 -182 -249z" glyph-name="two" horiz-adv-x="993" unicode="2"/><glyph d="M698 774q123 -29 198 -121t75 -237q0 -170 -125 -300t-320 -130q-137 0 -258 67.5t-166 155.5l166 104q33 -55 100.5 -95t157.5 -40q121 0 184.5 74t63.5 170q0 123 -81 185.5t-234 62.5h-90v182h90q121 0 180 66.5t61 146.5t-43 134t-139 54q-78 0 -130 -46t-71 -115 l-182 36q27 135 133.5 226.5t249.5 91.5q172 0 274.5 -99.5t96.5 -259.5q-4 -109 -63.5 -195.5t-127.5 -117.5z" glyph-name="three" horiz-adv-x="1054" unicode="3"/><glyph d="M1032 510v-195h-164v-315h-194v315h-613v195l613 924h194v-924h164zM281 510h393v596z" glyph-name="four" horiz-adv-x="1093" unicode="4"/><glyph d="M532 952q215 0 328 -151.5t94 -360.5q-16 -203 -143 -328.5t-322 -125.5q-133 0 -250.5 73.5t-177.5 194.5l175 86q37 -74 103.5 -117t145.5 -43q125 0 191.5 83t77.5 200q10 123 -58.5 209t-187.5 84q-57 0 -108.5 -24.5t-71 -43t-25.5 -31.5l-182 29l119 748h657v-197 h-502l-55 -342q92 57 192 57z" glyph-name="five" horiz-adv-x="1040" unicode="5"/><glyph d="M535 -14q-100 0 -188.5 47t-155 139t-94 246.5t-5.5 351.5q39 350 173 515t317 161q29 0 55.5 -5t49 -11.5t45 -15.5t38.5 -18.5t33.5 -21.5t29 -21.5t24.5 -21.5t19.5 -19t14.5 -16.5t10 -11.5l-131 -121q-70 100 -190 103q-106 4 -191.5 -126t-109.5 -395q25 47 86 87 t135 55q80 14 160.5 -3.5t149.5 -65.5t113 -137t44 -206q0 -205 -116.5 -347t-315.5 -142zM539 707q-162 0 -256 -189q0 -141 65.5 -241.5t181.5 -100.5q119 0 181.5 93t60.5 190q-2 115 -67.5 181.5t-165.5 66.5z" glyph-name="six" horiz-adv-x="1069" unicode="6"/><glyph d="M61 1434h824v-197l-557 -1237h-207l555 1237h-615v197z" glyph-name="seven" horiz-adv-x="925" unicode="7"/><glyph d="M788 793q102 -51 166 -150.5t64 -222.5q0 -193 -136.5 -313.5t-331 -120.5t-331.5 120.5t-137 313.5q0 123 64.5 222t164.5 151q-150 100 -149 276q0 164 109.5 270.5t279.5 106.5q168 0 278.5 -106.5t110.5 -270.5q0 -86 -42 -158.5t-110 -117.5zM551 1251 q-88 0 -143.5 -53t-55.5 -135q0 -78 58.5 -130t140.5 -52t140.5 52t58.5 130q0 82 -55.5 135t-143.5 53zM551 180q119 0 195.5 68.5t76.5 183.5q0 113 -77.5 183.5t-194.5 72.5q-117 -2 -194.5 -72.5t-77.5 -183.5q0 -115 76.5 -183.5t195.5 -68.5z" glyph-name="eight" horiz-adv-x="1099" unicode="8"/><glyph d="M539 1446q100 0 187 -47t152.5 -139.5t93 -247t5.5 -350.5q-39 -350 -173 -515t-317 -161q-29 0 -55 5t-49 11t-45.5 15.5t-38.5 18.5t-33.5 21.5t-29 21.5t-24.5 21.5t-19.5 19.5t-14.5 16t-10 11l131 121q70 -100 190 -102q106 -4 191.5 126t110.5 394 q-25 -47 -86.5 -87t-135.5 -54q-80 -14 -160.5 3t-149.5 65.5t-113 137.5t-44 205q0 205 118 347.5t319 142.5zM530 725q162 0 256 188q0 141 -65.5 241.5t-181.5 100.5q-119 0 -181.5 -93t-60.5 -189q2 -115 67.5 -181.5t165.5 -66.5z" glyph-name="nine" horiz-adv-x="1071" unicode="9"/><glyph d="M235.5 -37q-47.5 0 -80 34t-32.5 81q0 45 32.5 78.5t80 33.5t81 -32.5t33.5 -79.5t-33.5 -81t-81 -34zM235.5 791q-47.5 0 -80 32.5t-32.5 79.5t32.5 80t80 33t81 -33t33.5 -80t-33.5 -79.5t-81 -32.5z" glyph-name="colon" horiz-adv-x="514" unicode=":"/><glyph d="M82 -238l63 344h193l-141 -344h-115zM237.5 791q-47.5 0 -81 32.5t-33.5 79.5t33.5 80t81.5 33q45 0 78.5 -33t33.5 -80t-32.5 -79.5t-80 -32.5z" glyph-name="semicolon" horiz-adv-x="514" unicode=";"/><glyph d="M823 1098v-217l-465 -215l465 -213v-217l-700 321v217z" glyph-name="less" horiz-adv-x="946" unicode="&lt;"/><glyph d="M123 870h797v-170h-797v170zM123 365v172h797v-172h-797z" glyph-name="equal" horiz-adv-x="1042" unicode="="/><glyph d="M123 1098l702 -324v-217l-702 -321v217l465 213l-465 215v217z" glyph-name="greater" horiz-adv-x="948" unicode=">"/><glyph d="M451 1446q188 0 303.5 -131t54.5 -367q-35 -133 -188 -307q-53 -61 -79 -94t-52.5 -87t-28.5 -104h-185q2 84 36 164t67 126t94 118q117 131 141 229q31 123 -18 188.5t-143 67.5q-84 2 -136.5 -59.5t-68.5 -147.5l-187 45q31 152 126.5 255.5t263.5 103.5zM373 -37 q-47 0 -81 34t-34 81t34 79.5t81 32.5q45 0 78.5 -33.5t33.5 -78.5q0 -47 -32.5 -81t-79.5 -34z" glyph-name="question" horiz-adv-x="890" unicode="?"/><glyph d="M1860 545q18 -293 -92.5 -472t-292.5 -157q-168 20 -234 221q-100 -143 -293 -143q-195 0 -315.5 136t-120.5 335q0 197 121 333t315 136q158 0 256 -98v57h182v-442q0 -178 20.5 -259t92.5 -94q35 -4 67.5 13.5t62.5 61.5t44.5 134t7.5 213q-6 131 -50 238.5 t-113.5 179.5t-159.5 122t-186.5 72.5t-198.5 22.5q-268 0 -461 -139t-238 -436q-29 -188 37 -361.5t199 -281.5q313 -252 752 -82l65 -172q-240 -102 -485.5 -72.5t-446.5 184.5q-172 129 -254 350.5t-49 462.5q16 121 74.5 243t160 234.5t269.5 183t377 70.5 q217 0 389 -72.5t274.5 -191.5t159 -254t64.5 -276zM948 174q119 0 183.5 83t64.5 208t-64.5 207t-183.5 82t-181 -82t-62 -207t63 -208t180 -83z" glyph-name="at" horiz-adv-x="1945" unicode="@"/><glyph d="M1047 0l-140 395h-512l-141 -395h-213l514 1434h190l517 -1434h-215zM463 586h375l-187 555z" glyph-name="A" horiz-adv-x="1302" unicode="A"/><glyph d="M915 780q225 -98 226 -346q0 -193 -129 -313.5t-334 -120.5h-545v1434h537q182 0 284.5 -112t102.5 -275q-1 -158 -142 -267zM854 1046.5q0 83.5 -47 138t-137 54.5h-342v-389h311q102 0 158.5 56.5t56.5 140zM678 197q123 0 192.5 64.5t69.5 172.5q0 106 -68.5 169 t-193.5 63h-350v-469h350z" glyph-name="B" horiz-adv-x="1212" unicode="B"/><glyph d="M778 182q133 0 239.5 60.5t172.5 167.5l178 -88q-90 -156 -244.5 -246t-345.5 -90q-301 0 -498.5 212t-197.5 519t197.5 518t498.5 211q190 0 344 -90t246 -244l-178 -90q-66 106 -172.5 167.5t-239.5 61.5q-219 0 -357 -154.5t-138 -379.5q0 -227 138 -381t357 -154z " glyph-name="C" horiz-adv-x="1439" unicode="C"/><glyph d="M555 1434q346 0 550 -200t204 -517q0 -315 -206 -516t-548 -201h-422v1434h422zM555 197q254 0 403.5 141t149.5 379q0 240 -148.5 381t-404.5 141h-227v-1042h227z" glyph-name="D" horiz-adv-x="1380" unicode="D"/><glyph d="M328 197h755v-197h-950v1434h940v-195h-745v-426h682v-190h-682v-426z" glyph-name="E" horiz-adv-x="1175" unicode="E"/><glyph d="M1073 1239h-743v-426h608v-190h-608v-623h-197v1434h940v-195z" glyph-name="F" horiz-adv-x="1144" unicode="F"/><glyph d="M784 752h582v-433q-190 -334 -588 -333q-301 0 -498.5 212t-197.5 519t197.5 518t498.5 211q188 0 344 -90t248 -244l-180 -90q-66 106 -172.5 167.5t-239.5 61.5q-219 0 -357 -154.5t-138 -379.5q0 -227 138 -381t357 -154q270 0 393 185v206h-387v179z" glyph-name="G" horiz-adv-x="1482" unicode="G"/><glyph d="M1036 1434h197v-1434h-197v623h-708v-623h-195v1434h195v-621h708v621z" glyph-name="H" horiz-adv-x="1366" unicode="H"/><glyph d="M133 1434h195v-1434h-195v1434z" glyph-name="I" horiz-adv-x="460" unicode="I"/><glyph d="M532 1434h195v-1024q0 -209 -93 -316.5t-269 -107.5q-104 0 -196.5 42t-137.5 103l135 131q82 -82 188 -82q84 0 131 56.5t47 162.5v1035z" glyph-name="J" horiz-adv-x="860" unicode="J"/><glyph d="M979 0l-469 662l-180 -209v-453h-197v1434h197v-680l592 680h256l-537 -621l580 -813h-242z" glyph-name="K" horiz-adv-x="1251" unicode="K"/><glyph d="M330 197h665v-197h-862v1434h197v-1237z" glyph-name="L" horiz-adv-x="1056" unicode="L"/><glyph d="M1350 1434h188v-1434h-195v1059l-444 -721h-127l-444 721v-1059h-195v1434h189l514 -842z" glyph-name="M" horiz-adv-x="1671" unicode="M"/><glyph d="M1024 1434h195v-1434h-189l-700 1077v-1077h-197v1434h191l700 -1078v1078z" glyph-name="N" horiz-adv-x="1351" unicode="N"/><glyph d="M776 1446q299 0 498 -212t199 -517q0 -307 -199 -519t-498 -212t-496.5 212t-197.5 519q0 305 197.5 517t496.5 212zM776 180q219 0 357.5 154.5t138.5 382.5q0 225 -138.5 379.5t-357.5 154.5q-217 0 -355 -153.5t-138 -380.5q0 -225 138 -381t355 -156z" glyph-name="O" unicode="O"/><glyph d="M670 1434q213 0 341 -132.5t128 -329t-129 -329.5t-340 -133h-342v-510h-195v1434h537zM670 705q123 0 194.5 77.5t71.5 190.5q0 111 -70.5 188.5t-195.5 77.5h-342v-534h342z" glyph-name="P" horiz-adv-x="1210" unicode="P"/><glyph d="M1475 717q0 -272 -158 -471l151 -156l-129 -123l-149 154q-176 -135 -412 -135q-299 0 -497.5 213t-198.5 518t198.5 517t497.5 212t498 -212t199 -517zM778 180q154 0 277 84l-148 154l129 123l142 -150q94 137 94 326q0 225 -138.5 379.5t-355.5 154.5 q-219 0 -356 -153.5t-137 -380.5q0 -225 137 -381t356 -156z" glyph-name="Q" horiz-adv-x="1556" unicode="Q"/><glyph d="M956 0l-288 510h-338v-510h-197v1434h539q213 0 340 -132.5t127 -328.5q0 -145 -71 -259t-198 -165l310 -549h-224zM330 1239v-534h342q123 0 194.5 77.5t71.5 190.5q0 111 -71.5 188.5t-194.5 77.5h-342z" glyph-name="R" horiz-adv-x="1241" unicode="R"/><glyph d="M649 825q125 -35 205 -66.5t155.5 -80.5t111.5 -119t36 -164q0 -176 -135 -295.5t-373 -119.5q-213 0 -364.5 92t-212.5 233l186 78q41 -86 142.5 -145.5t242.5 -59.5q133 0 220 57.5t87 153.5q0 90 -83 140.5t-287 107.5q-121 35 -199 66.5t-145.5 79.5t-97 116 t-27.5 158q6 176 139 283.5t354 107.5q193 0 323 -89t183 -233l-186 -63q-70 188 -314 188q-145 0 -218 -59t-73 -143q0 -78 74 -125.5t256 -98.5z" glyph-name="S" horiz-adv-x="1239" unicode="S"/><glyph d="M1100 1434v-195h-422v-1239h-195v1239h-422v195h1039z" glyph-name="T" horiz-adv-x="1161" unicode="T"/><glyph d="M1014 1434h194v-856q0 -283 -150.5 -437.5t-392 -154.5t-392 154.5t-150.5 437.5v856h196v-850q0 -209 93.5 -306.5t253 -97.5t254 97.5t94.5 306.5v850z" glyph-name="U" horiz-adv-x="1331" unicode="U"/><glyph d="M1077 1434h209l-528 -1434h-191l-526 1434h209l414 -1141z" glyph-name="V" horiz-adv-x="1327" unicode="V"/><glyph d="M1841 1434h211l-461 -1434h-202l-342 1116l-342 -1116h-203l-461 1434h211l354 -1123l344 1123h191l344 -1123z" glyph-name="W" horiz-adv-x="2093" unicode="W"/><glyph d="M1251 0h-239l-365 584l-364 -584h-242l477 748l-436 686h240l325 -525l326 525h239l-436 -689z" glyph-name="X" horiz-adv-x="1292" unicode="X"/><glyph d="M1208 1434l-485 -906v-528h-197v528l-485 906h223l361 -680l360 680h223z" glyph-name="Y" horiz-adv-x="1249" unicode="Y"/><glyph d="M313 197h852v-197h-1093v197l835 1042h-774v195h1014v-195z" glyph-name="Z" horiz-adv-x="1236" unicode="Z"/><glyph d="M606 1366h-246v-1509h246v-172h-442v1853h442v-172z" glyph-name="bracketleft" horiz-adv-x="708" unicode="["/><glyph d="M207 1538l616 -1853h-188l-615 1853h187z" glyph-name="backslash" horiz-adv-x="823" unicode="\"/><glyph d="M102 1538h443v-1853h-443v172h248v1509h-248v172z" glyph-name="bracketright" horiz-adv-x="708" unicode="]"/><glyph d="M868 864h-194l-209 387l-209 -387h-195l306 570h194z" glyph-name="asciicircum" horiz-adv-x="929" unicode="^"/><glyph d="M41 -45h1092v-172h-1092v172z" glyph-name="underscore" horiz-adv-x="1173" unicode="_"/><glyph d="M297 1434l156 -279h-144l-207 279h195z" glyph-name="grave" horiz-adv-x="555" unicode="`"/><glyph d="M494 1004q166 0 265 -88.5t99 -274.5v-641h-192v117q-98 -115 -275 -131q-166 -14 -259 76t-79 219q16 135 101.5 197.5t259.5 107.5q25 6 71.5 16t68 16.5t49.5 17.5t41 25.5t15 34.5q10 68 -49 104t-131 29q-168 -6 -209 -155l-176 37q23 113 124.5 203t275.5 90z M666 422v43q-88 -25 -220 -57q-80 -20 -125 -55.5t-52 -61t-3 -51.5q12 -88 152 -78q86 6 167 78.5t81 181.5z" glyph-name="a" horiz-adv-x="950" unicode="a"/><glyph d="M588 1001q211 0 335 -145t124 -362q0 -215 -125 -361.5t-334 -146.5q-184 0 -301 120v-106h-195v1434h195v-553q117 120 301 120zM565 180q129 0 199 89t70 224.5t-70 224.5t-199 89t-198.5 -89t-69.5 -224.5t69.5 -224.5t198.5 -89z" glyph-name="b" horiz-adv-x="1107" unicode="b"/><glyph d="M543 180q150 0 225 123l180 -86q-61 -106 -166.5 -168.5t-238.5 -62.5q-211 0 -346.5 147.5t-135.5 360.5t135.5 360t346.5 147q133 0 238.5 -62t166.5 -169l-180 -86q-76 123 -225 123q-129 0 -202 -90t-73 -223.5t73 -223.5t202 -90z" glyph-name="c" horiz-adv-x="989" unicode="c"/><glyph d="M811 1434h197v-1434h-197v106q-115 -121 -301 -120q-209 0 -334 146.5t-125 361.5t125 361t334 146q186 0 301 -120v553zM535 180q127 0 197.5 90t70.5 224q0 135 -69.5 224t-198.5 89t-200 -89t-71 -224.5t71 -224.5t200 -89z" glyph-name="d" horiz-adv-x="1110" unicode="d"/><glyph d="M969 395h-688q23 -96 90 -155.5t172 -59.5q150 0 225 123l178 -86q-61 -109 -165.5 -170t-237.5 -61q-211 0 -346.5 147.5t-135.5 360.5t132.5 360t343.5 147q207 0 323.5 -144t116.5 -363q0 -56 -8 -99zM537 807q-106 0 -173 -62.5t-88 -164.5h500q-36 227 -239 227z " glyph-name="e" horiz-adv-x="1038" unicode="e"/><glyph d="M330 1434q76 23 173 0t154 -78l-110 -144q-29 25 -74 36.5t-72 -1.5q-59 -25 -59 -135v-125h178v-178h-178v-809h-197v809h-114v178h114v127q1 263 185 320z" glyph-name="f" horiz-adv-x="595" unicode="f"/><glyph d="M811 987h197v-891q0 -289 -133.5 -423t-342.5 -134q-129 0 -242.5 60.5t-176.5 160.5l163 107q37 -61 105 -97t145 -36q127 0 206 89t79 255v28q-115 -121 -301 -120q-209 0 -334 146.5t-125 361.5t125 361t334 146q186 0 301 -120v106zM535 180q127 0 197.5 90t70.5 224 q0 135 -69.5 224t-198.5 89t-200 -89t-71 -224.5t71 -224.5t200 -89z" glyph-name="g" horiz-adv-x="1110" unicode="g"/><glyph d="M541 1001q176 0 271 -115.5t95 -328.5v-557h-194v539q0 137 -57.5 202.5t-149.5 65.5q-98 0 -157.5 -62.5t-59.5 -193.5v-551h-197v1434h197v-541q102 108 252 108z" glyph-name="h" horiz-adv-x="999" unicode="h"/><glyph d="M109 0v987h194v-987h-194zM207 1139q-47 0 -81 33.5t-34 80.5t34 80t81 33t79.5 -34t32.5 -79q0 -47 -32.5 -80.5t-79.5 -33.5z" glyph-name="i" horiz-adv-x="421" unicode="i"/><glyph d="M133 987h197v-1110q0 -268 -180 -326q-135 -43 -263 41l70 156q68 -29 117 -10q59 25 59 135v1114zM242 1139q-47 0 -80 33.5t-33 80.5q0 45 34 79t79 34q47 0 80.5 -33t33.5 -80t-33.5 -80.5t-80.5 -33.5z" glyph-name="j" horiz-adv-x="448" unicode="j"/><glyph d="M688 0l-301 420l-98 -107v-313h-197v1434h197v-832l358 385h266l-391 -422l408 -565h-242z" glyph-name="k" horiz-adv-x="960" unicode="k"/><glyph d="M92 1536h197v-1536h-197v1536z" glyph-name="l" horiz-adv-x="391" unicode="l"/><glyph d="M1135 1001q176 0 271 -115.5t95 -328.5v-557h-196v539q0 137 -54.5 202.5t-144.5 65.5q-207 0 -207 -256v-551h-194v539q0 137 -57.5 202.5t-149.5 65.5q-201 0 -201 -256v-551h-195v987h195v-78q96 92 231 92q209 0 306 -161q106 161 301 161z" glyph-name="m" horiz-adv-x="1603" unicode="m"/><glyph d="M551 1001q174 0 269 -115.5t95 -328.5v-557h-194v539q0 137 -57.5 202.5t-149.5 65.5q-98 0 -157.5 -62.5t-59.5 -193.5v-551h-195v987h195v-94q104 108 254 108z" glyph-name="n" horiz-adv-x="1017" unicode="n"/><glyph d="M543 1001q211 0 346 -147t135 -360t-135 -360.5t-346 -147.5t-346.5 147.5t-135.5 360.5t135.5 360t346.5 147zM543 180q129 0 201.5 90t72.5 224q0 135 -72.5 224t-201.5 89t-202 -90t-73 -223.5t73 -223.5t202 -90z" glyph-name="o" horiz-adv-x="1085" unicode="o"/><glyph d="M590 1001q209 0 334 -146t125 -361t-125 -361.5t-334 -146.5q-186 0 -301 120v-552h-197v1433h197v-106q115 120 301 120zM567 180q129 0 199 89t70 225q0 133 -71 223t-198 90q-129 0 -199.5 -89t-70.5 -224.5t70.5 -224.5t199.5 -89z" glyph-name="p" horiz-adv-x="1110" unicode="p"/><glyph d="M811 987h197v-1433h-197v552q-115 -121 -301 -120q-209 0 -334 146.5t-125 361.5q0 217 125 363.5t334 146.5q184 0 301 -123v106zM532.5 180q129.5 0 200 89t70.5 224.5t-70.5 224.5t-200.5 89q-127 0 -197.5 -90t-70.5 -223q0 -135 69.5 -224.5t199 -89.5z" glyph-name="q" horiz-adv-x="1110" unicode="q"/><glyph d="M541 1004q29 0 77 -9l-36 -202q-35 14 -78 14q-96 0 -156.5 -62.5t-60.5 -193.5v-551h-195v987h195v-92q104 109 254 109z" glyph-name="r" horiz-adv-x="628" unicode="r"/><glyph d="M807 315q12 -143 -90.5 -238t-272.5 -95q-160 0 -267 71.5t-146 179.5l184 66q45 -123 221 -123q92 0 136 36t38 83q-4 35 -54 59.5t-165 46.5q-154 31 -233.5 86.5t-98.5 161.5q-23 131 68.5 241.5t282.5 110.5q88 0 159.5 -27.5t112.5 -69.5t62.5 -76.5t29.5 -63.5 l-184 -64q-16 49 -68.5 80t-111.5 31q-86 0 -121 -33t-35 -71q0 -90 201 -127q176 -33 260 -92.5t92 -172.5z" glyph-name="s" horiz-adv-x="860" unicode="s"/><glyph d="M555 219l107 -149q-55 -55 -150.5 -76t-169.5 4q-178 57 -178 319v494h-133v176h133v207l194 53v-260h203v-176h-203v-485q0 -119 62 -142q31 -12 70.5 -1t64.5 36z" glyph-name="t" horiz-adv-x="692" unicode="t"/><glyph d="M711 987h196v-987h-196v94q-102 -109 -252 -108q-174 0 -270.5 115.5t-96.5 328.5v557h195v-538q0 -135 57 -202t150 -67q96 0 156.5 63.5t60.5 192.5v551z" glyph-name="u" horiz-adv-x="1009" unicode="u"/><glyph d="M758 987h209l-375 -987h-186l-375 987h209l258 -682z" glyph-name="v" horiz-adv-x="997" unicode="v"/><glyph d="M1251 987h205l-317 -987h-172l-228 670l-229 -670h-170l-320 987h205l209 -643l219 643h170l221 -643z" glyph-name="w" horiz-adv-x="1476" unicode="w"/><glyph d="M950 0h-239l-222 356l-219 -356h-239l325 514l-299 473h240l192 -315l195 315h240l-301 -473z" glyph-name="x" horiz-adv-x="980" unicode="x"/><glyph d="M926 987l-340 -950q-20 -55 -37 -95t-38.5 -85t-40.5 -78t-44 -67t-50.5 -55.5t-57 -38.5t-65.5 -25.5t-76 -8.5t-89 10l33 195q88 -18 137 27t117 215l-344 956h209l239 -682l238 682h209z" glyph-name="y" horiz-adv-x="956" unicode="y"/><glyph d="M319 197h504v-197h-762v197l488 596h-459v194h715v-194z" glyph-name="z" horiz-adv-x="884" unicode="z"/><glyph d="M408 1137q0 -397 -125 -506q125 -106 125 -506q0 -154 51 -200t170 -46v-188q-88 0 -153.5 15t-125 58t-90.5 129.5t-31 215.5q0 293 -12 354q-18 109 -94 108v119q74 0 90 86t16 305v74q0 129 31 215t90.5 129t125 58.5t153.5 15.5v-189q-119 0 -170 -46.5t-51 -200.5z " glyph-name="braceleft" horiz-adv-x="710" unicode="{"/><glyph d="M164 1538h196v-1853h-196v1853z" glyph-name="bar" horiz-adv-x="524" unicode="|"/><glyph d="M303 1137q0 154 -51 200.5t-170 46.5v189q88 0 152.5 -15.5t124 -58.5t90 -129t30.5 -215v-72q0 -115 1 -167t11.5 -115.5t33 -87t63.5 -23.5v-119q-76 0 -92.5 -86t-16.5 -305v-71q0 -129 -30.5 -215.5t-90 -129.5t-124 -58t-152.5 -15v188q119 0 170 46t51 200 q0 399 125 506q-125 109 -125 506z" glyph-name="braceright" horiz-adv-x="710" unicode="}"/><glyph d="M831 735l162 -57q-125 -301 -506 -127q-80 37 -131 39t-77.5 -16.5t-61.5 -65.5l-156 78q66 90 127.5 133t155.5 42t223 -59q131 -51 183 -39.5t81 72.5z" glyph-name="asciitilde" horiz-adv-x="1075" unicode="~"/><glyph d="M147 647h136l43 -1077h-220zM215 811q-47 0 -80 34t-33 81q0 45 33 78.5t80 33.5t81 -32.5t34 -79.5t-34 -81t-81 -34z" glyph-name="exclamdown" horiz-adv-x="432" unicode="¡"/><glyph d="M639 190q96 25 152 113l178 -86q-109 -193 -330 -227v-197h-197v207q-164 41 -262 177t-98 316.5t98.5 316.5t261.5 177v207h197v-197q221 -35 330 -227l-178 -86q-55 88 -152 113v-607zM291 493.5q0 -98.5 39 -174t112 -112.5v573q-74 -37 -112.5 -112.5t-38.5 -174z " glyph-name="cent" horiz-adv-x="1050" unicode="¢"/><glyph d="M483 195h613v-195h-1014v195h205v348h-158v172h158v227q0 143 34.5 245.5t94 157t126 78t142.5 23.5q131 0 225.5 -81t137.5 -185l-175 -78q-68 150 -188 149q-201 0 -201 -325v-211h359v-172h-359v-348z" glyph-name="sterling" horiz-adv-x="1177" unicode="£"/><glyph d="M1096 731q0 -129 -74 -244l182 -180l-121 -121l-182 181q-113 -78 -248 -78q-137 0 -247 78l-183 -181l-121 121l183 180q-74 109 -74 244t74 244l-183 180l121 123l183 -180q113 76 247 76q133 0 248 -76l182 180l121 -123l-182 -180q74 -115 74 -244zM389 731.5 q0 -108.5 78 -186.5t186.5 -78t186.5 78t78 186.5t-78 186t-186.5 77.5t-186.5 -77.5t-78 -186z" glyph-name="currency" horiz-adv-x="1306" unicode="¤"/><glyph d="M1251 1434l-420 -787h259v-172h-324v-86h324v-172h-324v-217h-197v217h-321v172h321v86h-321v172h256l-422 787h225l361 -680l360 680h223z" glyph-name="yen" horiz-adv-x="1333" unicode="¥"/><glyph d="M164 1538h194v-707h-194v707zM164 -315v706h194v-706h-194z" glyph-name="brokenbar" horiz-adv-x="522" unicode="¦"/><glyph d="M1032 483q-23 -168 -176 -254q102 -109 90 -262q-10 -154 -113.5 -252t-259.5 -98q-147 0 -247.5 85t-130.5 212l170 47q16 -72 70 -119t138 -47q88 0 140.5 54.5t56.5 123.5q2 96 -60.5 148.5t-224.5 126.5q-240 111 -317.5 222.5t-61.5 242.5q23 164 177 254 q-100 104 -90 262q10 154 114.5 252t257.5 98q150 0 250 -86t131 -211l-170 -47q-16 70 -70.5 118t-140.5 48q-88 0 -140 -55.5t-54 -124.5q-2 -49 13 -87t60 -72t85 -55.5t124 -60.5q240 -111 318.5 -222.5t60.5 -240.5zM850 479q51 174 -262 303q-84 33 -152 72 q-119 -45 -147 -137q-49 -174 264 -303q104 -45 152 -72q120 45 145 137z" glyph-name="section" horiz-adv-x="1140" unicode="§"/><glyph d="M182 1389q41 0 71 -31t30 -72t-30 -70.5t-71 -29.5t-70.5 29.5t-29.5 70.5t29.5 72t70.5 31zM514 1389q41 0 70.5 -31t29.5 -72t-29.5 -70.5t-70.5 -29.5q-43 0 -72.5 29.5t-29.5 70.5t29.5 72t72.5 31z" glyph-name="dieresis" horiz-adv-x="696" unicode="¨"/><glyph d="M858 963q-100 0 -156.5 -70t-56.5 -174q0 -102 56.5 -172t156.5 -70q115 0 176 94l137 -67q-102 -178 -313 -178q-164 0 -269.5 114.5t-105.5 278.5q0 166 105.5 280.5t269.5 114.5q211 0 313 -180l-137 -66q-61 95 -176 95zM846 1458q307 0 525 -217t218 -526 q0 -307 -218 -525.5t-525 -218.5t-525.5 218.5t-218.5 525.5q0 309 218.5 526t525.5 217zM845.5 131q241.5 0 413 171t171.5 412.5t-171.5 412.5t-413 171t-412.5 -171t-171 -412.5t171 -412.5t412.5 -171z" glyph-name="copyright" horiz-adv-x="1691" unicode="©"/><glyph d="M543 870l-230 -321l230 -322h-211l-230 322l230 321h211zM913 870l-227 -321l227 -322h-211l-227 322l227 321h211z" glyph-name="guillemotleft" horiz-adv-x="1015" unicode="«"/><glyph d="M1176 858q0 -76 -40 -135t-112 -88l164 -287h-172l-152 266h-131v-266h-149v754h327q113 0 189 -70t76 -174zM733 952v-190h174q51 0 82 26.5t31 69.5t-31 68.5t-78 25.5h-178zM846 1458q307 0 525 -217t218 -526q0 -307 -218 -525.5t-525 -218.5t-525.5 218.5 t-218.5 525.5q0 309 218.5 526t525.5 217zM845.5 131q241.5 0 413 171t171.5 412.5t-171.5 412.5t-413 171t-412.5 -171t-171 -412.5t171 -412.5t412.5 -171z" glyph-name="registered" horiz-adv-x="1691" unicode="®"/><glyph d="M82 1378h532v-172h-532v172z" glyph-name="macron" horiz-adv-x="696" unicode="¯"/><glyph d="M377 1448q121 0 207 -87t86 -208t-86 -207t-207 -86q-123 0 -209 86t-86 207t86 208t209 87zM377 1020q55 0 94 39t39 94t-39 95t-94 40t-95 -40t-40 -95t40 -94t95 -39z" glyph-name="degree" horiz-adv-x="751" unicode="°"/><glyph d="M606 866h312v-170h-312v-311h-172v311h-311v170h311v312h172v-312zM123 92v172h795v-172h-795z" glyph-name="plusminus" horiz-adv-x="1040" unicode="±"/><glyph d="M238 1434h194l-207 -279h-143z" glyph-name="acute" horiz-adv-x="514" unicode="´"/><glyph d="M1092 1434v-172h-99v-1577h-194v1577h-166v-1577h-197v1081q-156 2 -255 89t-99 245q0 154 106.5 243t247.5 91h656z" glyph-name="paragraph" horiz-adv-x="1193" unicode="¶"/><glyph d="M274 -102q82 8 131.5 -38t49.5 -110q0 -45 -26 -89t-67 -62q-57 -29 -134.5 -20t-145.5 54l55 95q53 -39 110.5 -42t76.5 27q18 23 11 52.5t-36 37.5q-47 10 -84 -22l-98 61l82 162h129z" glyph-name="cedilla" horiz-adv-x="536" unicode="¸"/><glyph d="M686 870l229 -321l-229 -322h-211l230 322l-230 321h211zM313 870l230 -321l-230 -322h-211l230 322l-230 321h211z" glyph-name="guillemotright" horiz-adv-x="1017" unicode="»"/><glyph d="M664 -41l184 -43q-29 -152 -124 -255t-263 -103q-88 0 -164 30.5t-133.5 92t-74.5 154.5t13 218q35 135 189 309q53 61 78.5 94t52.5 87.5t29 103.5h184q-2 -84 -36 -165t-67.5 -127t-93.5 -115q-117 -131 -141 -230q-31 -125 18.5 -190.5t143.5 -67.5q84 -2 136.5 60.5 t68.5 146.5zM539 811q-47 0 -80 34t-33 81t33 79.5t80 32.5t79.5 -32.5t32.5 -79.5t-32.5 -81t-79.5 -34z" glyph-name="questiondown" horiz-adv-x="888" unicode="¿"/><glyph d="M1047 0l-140 395h-512l-141 -395h-213l514 1434h190l517 -1434h-215zM463 586h375l-187 555zM549 1843l156 -278h-144l-207 278h195z" glyph-name="Agrave" horiz-adv-x="1302" unicode="À"/><glyph d="M1047 0l-140 395h-512l-141 -395h-213l514 1434h190l517 -1434h-215zM463 586h375l-187 555zM756 1843h194l-207 -278h-143z" glyph-name="Aacute" horiz-adv-x="1302" unicode="Á"/><glyph d="M1047 0l-140 395h-512l-141 -395h-213l514 1434h190l517 -1434h-215zM463 586h375l-187 555zM741 1843l230 -278h-207l-111 143l-112 -143h-205l227 278h178z" glyph-name="Acircumflex" horiz-adv-x="1302" unicode="Â"/><glyph d="M1047 0l-140 395h-512l-141 -395h-213l514 1434h190l517 -1434h-215zM463 586h375l-187 555zM874 1847l162 -57q-117 -311 -399 -154q-68 37 -106.5 41t-59 -14t-55.5 -72l-154 82q80 152 186.5 179.5t229.5 -46.5q59 -33 91 -41t59.5 9.5t45.5 72.5z" glyph-name="Atilde" horiz-adv-x="1302" unicode="Ã"/><glyph d="M1047 0l-140 395h-512l-141 -395h-213l514 1434h190l517 -1434h-215zM463 586h375l-187 555zM485 1798q41 0 71 -30.5t30 -71.5t-30 -71t-71 -30t-70.5 30t-29.5 71t29.5 71.5t70.5 30.5zM817 1798q41 0 71 -30.5t30 -71.5t-30 -71t-71 -30q-43 0 -72.5 30t-29.5 71 t29.5 71.5t72.5 30.5z" glyph-name="Adieresis" horiz-adv-x="1302" unicode="Ä"/><glyph d="M1047 0l-140 395h-512l-141 -395h-213l514 1434h190l517 -1434h-215zM463 586h375l-187 555zM651 1997q94 0 160 -65.5t66 -160t-66 -160t-160 -65.5q-92 0 -158.5 65.5t-66.5 160t66.5 160t158.5 65.5zM651 1683q37 0 63.5 26t26.5 62.5t-26.5 62.5t-63.5 26t-62.5 -26 t-25.5 -62.5t25.5 -62.5t62.5 -26z" glyph-name="Aring" horiz-adv-x="1302" unicode="Å"/><glyph d="M1178 195h757v-195h-952v395h-514l-207 -395h-221l752 1434h1130v-197h-745v-426h682v-188h-682v-428zM567 584h416v653h-74z" glyph-name="AE" horiz-adv-x="2025" unicode="Æ"/><glyph d="M778 180q133 0 239.5 61.5t174.5 168.5l178 -88q-86 -147 -230.5 -236.5t-320.5 -99.5l-45 -88q80 8 129 -38t49 -110q0 -45 -25.5 -89t-66.5 -62q-57 -29 -135 -20t-145 54l55 95q53 -39 108.5 -41t77.5 26q20 20 13 51t-37 39q-47 10 -82 -22l-99 61l76 148 q-268 33 -439 237.5t-171 489.5q0 305 198.5 517t497.5 212q190 0 345 -90t247 -244l-178 -90q-66 106 -173.5 167.5t-240.5 61.5q-217 0 -355 -154.5t-138 -379.5q0 -227 138 -382t355 -155z" glyph-name="Ccedilla" horiz-adv-x="1441" unicode="Ç"/><glyph d="M328 197h755v-197h-950v1434h940v-195h-745v-426h682v-190h-682v-426zM547 1843l155 -278h-143l-207 278h195z" glyph-name="Egrave" horiz-adv-x="1165" unicode="È"/><glyph d="M328 197h755v-197h-950v1434h940v-195h-745v-426h682v-190h-682v-426zM651 1843h195l-207 -278h-143z" glyph-name="Eacute" horiz-adv-x="1165" unicode="É"/><glyph d="M328 197h755v-197h-950v1434h940v-195h-745v-426h682v-190h-682v-426zM698 1843l230 -278h-207l-111 143l-112 -143h-205l227 278h178z" glyph-name="Ecircumflex" horiz-adv-x="1165" unicode="Ê"/><glyph d="M328 197h755v-197h-950v1434h940v-195h-745v-426h682v-190h-682v-426zM442 1798q41 0 71 -30.5t30 -71.5t-30 -71t-71 -30t-70.5 30t-29.5 71t29.5 71.5t70.5 30.5zM774 1798q41 0 70.5 -30.5t29.5 -71.5t-29.5 -71t-70.5 -30q-43 0 -72.5 30t-29.5 71t29.5 71.5 t72.5 30.5z" glyph-name="Edieresis" horiz-adv-x="1165" unicode="Ë"/><glyph d="M133 1434h195v-1434h-195v1434zM147 1843l156 -278h-143l-207 278h194z" glyph-name="Igrave" horiz-adv-x="460" unicode="Ì"/><glyph d="M133 1434h195v-1434h-195v1434zM313 1843h195l-207 -278h-143z" glyph-name="Iacute" horiz-adv-x="460" unicode="Í"/><glyph d="M125 1434h194v-1434h-194v1434zM313 1843l230 -278h-207l-111 143l-112 -143h-205l227 278h178z" glyph-name="Icircumflex" horiz-adv-x="450" unicode="Î"/><glyph d="M135 1434h195v-1434h-195v1434zM68 1798q41 0 70.5 -30.5t29.5 -71.5t-29.5 -71t-70.5 -30t-71 30t-30 71t30 71.5t71 30.5zM399 1798q41 0 71 -30.5t30 -71.5t-30 -71t-71 -30q-43 0 -72.5 30t-29.5 71t29.5 71.5t72.5 30.5z" glyph-name="Idieresis" horiz-adv-x="460" unicode="Ï"/><glyph d="M639 1434q344 0 548 -200t204 -517.5t-205 -517t-547 -199.5h-424v631h-184v172h184v631h424zM639 195q252 0 401.5 141t149.5 380.5t-147.5 380t-403.5 140.5h-227v-434h297v-172h-297v-436h227z" glyph-name="Eth" horiz-adv-x="1462" unicode="Ð"/><glyph d="M1024 1434h195v-1434h-189l-700 1077v-1077h-197v1434h191l700 -1078v1078zM920 1847l161 -57q-117 -311 -399 -154q-68 37 -106.5 41t-59 -14t-55.5 -72l-154 82q80 152 186.5 179.5t229.5 -46.5q59 -33 91 -41t60 9.5t46 72.5z" glyph-name="Ntilde" horiz-adv-x="1351" unicode="Ñ"/><glyph d="M776 1446q299 0 498 -212t199 -517q0 -307 -199 -519t-498 -212t-496.5 212t-197.5 519q0 305 197.5 517t496.5 212zM776 180q219 0 357.5 154.5t138.5 382.5q0 225 -138.5 379.5t-357.5 154.5q-217 0 -355 -153.5t-138 -380.5q0 -225 138 -381t355 -156zM694 1843 l156 -278h-143l-207 278h194z" glyph-name="Ograve" unicode="Ò"/><glyph d="M776 1446q299 0 498 -212t199 -517q0 -307 -199 -519t-498 -212t-496.5 212t-197.5 519q0 305 197.5 517t496.5 212zM776 180q219 0 357.5 154.5t138.5 382.5q0 225 -138.5 379.5t-357.5 154.5q-217 0 -355 -153.5t-138 -380.5q0 -225 138 -381t355 -156zM860 1843h195 l-207 -278h-143z" glyph-name="Oacute" unicode="Ó"/><glyph d="M776 1446q299 0 498 -212t199 -517q0 -307 -199 -519t-498 -212t-496.5 212t-197.5 519q0 305 197.5 517t496.5 212zM776 180q219 0 357.5 154.5t138.5 382.5q0 225 -138.5 379.5t-357.5 154.5q-217 0 -355 -153.5t-138 -380.5q0 -225 138 -381t355 -156zM868 1843 l230 -278h-207l-111 143l-112 -143h-205l227 278h178z" glyph-name="Ocircumflex" unicode="Ô"/><glyph d="M776 1446q299 0 498 -212t199 -517q0 -307 -199 -519t-498 -212t-496.5 212t-197.5 519q0 305 197.5 517t496.5 212zM776 180q219 0 357.5 154.5t138.5 382.5q0 225 -138.5 379.5t-357.5 154.5q-217 0 -355 -153.5t-138 -380.5q0 -225 138 -381t355 -156zM1001 1847 l162 -57q-117 -311 -399 -154q-68 37 -107 41t-59 -14t-55 -72l-154 82q80 152 186.5 179.5t229.5 -46.5q59 -33 91 -41t59.5 9.5t45.5 72.5z" glyph-name="Otilde" unicode="Õ"/><glyph d="M776 1446q299 0 498 -212t199 -517q0 -307 -199 -519t-498 -212t-496.5 212t-197.5 519q0 305 197.5 517t496.5 212zM776 180q219 0 357.5 154.5t138.5 382.5q0 225 -138.5 379.5t-357.5 154.5q-217 0 -355 -153.5t-138 -380.5q0 -225 138 -381t355 -156zM612 1798 q41 0 71 -30.5t30 -71.5t-30 -71t-71 -30t-70.5 30t-29.5 71t29.5 71.5t70.5 30.5zM944 1798q41 0 70.5 -30.5t29.5 -71.5t-29.5 -71t-70.5 -30q-43 0 -72.5 30t-29.5 71t29.5 71.5t72.5 30.5z" glyph-name="Odieresis" unicode="Ö"/><glyph d="M862 877l-248 -250l248 -248l-121 -123l-247 250l-250 -250l-121 123l248 248l-248 250l121 120l250 -247l247 247z" glyph-name="multiply" horiz-adv-x="985" unicode="×"/><glyph d="M1487 1376l-172 -190q158 -199 158 -471q0 -305 -199 -517t-498 -212q-240 0 -418 139l-165 -182l-127 114l170 191q-156 201 -156 469q0 305 198.5 517t497.5 212q236 0 418 -139l166 184zM283 717q0 -178 90 -320l688 762q-123 90 -285 90q-217 0 -355 -153.5 t-138 -378.5zM1270 715q0 180 -90 319l-691 -762q129 -92 287 -92q219 0 356.5 155t137.5 380z" glyph-name="Oslash" unicode="Ø"/><glyph d="M1014 1434h194v-856q0 -283 -150.5 -437.5t-392 -154.5t-392 154.5t-150.5 437.5v856h196v-850q0 -209 93.5 -306.5t253 -97.5t254 97.5t94.5 306.5v850zM625 1843l155 -278h-143l-207 278h195z" glyph-name="Ugrave" horiz-adv-x="1331" unicode="Ù"/><glyph d="M1014 1434h194v-856q0 -283 -150.5 -437.5t-392 -154.5t-392 154.5t-150.5 437.5v856h196v-850q0 -209 93.5 -306.5t253 -97.5t254 97.5t94.5 306.5v850zM750 1843h194l-207 -278h-143z" glyph-name="Uacute" horiz-adv-x="1331" unicode="Ú"/><glyph d="M1014 1434h194v-856q0 -283 -150.5 -437.5t-392 -154.5t-392 154.5t-150.5 437.5v856h196v-850q0 -209 93.5 -306.5t253 -97.5t254 97.5t94.5 306.5v850zM756 1843l229 -278h-207l-110 143l-113 -143h-205l228 278h178z" glyph-name="Ucircumflex" horiz-adv-x="1331" unicode="Û"/><glyph d="M1014 1434h194v-856q0 -283 -150.5 -437.5t-392 -154.5t-392 154.5t-150.5 437.5v856h196v-850q0 -209 93.5 -306.5t253 -97.5t254 97.5t94.5 306.5v850zM500 1798q41 0 70.5 -30.5t29.5 -71.5t-29.5 -71t-70.5 -30t-71 30t-30 71t30 71.5t71 30.5zM831 1798 q41 0 71 -30.5t30 -71.5t-30 -71t-71 -30q-43 0 -72.5 30t-29.5 71t29.5 71.5t72.5 30.5z" glyph-name="Udieresis" horiz-adv-x="1331" unicode="Ü"/><glyph d="M1208 1434l-485 -906v-528h-197v528l-485 906h223l361 -680l360 680h223zM688 1843h195l-207 -278h-144z" glyph-name="Yacute" horiz-adv-x="1249" unicode="Ý"/><glyph d="M670 1161q215 0 342 -124t127 -320q0 -195 -128 -320t-341 -125h-340v-272h-197v1434h197v-273h340zM670 469q125 0 195.5 69.5t70.5 178.5q0 111 -69.5 179.5t-196.5 68.5h-340v-496h340z" glyph-name="Thorn" horiz-adv-x="1210" unicode="Þ"/><glyph d="M713 774q98 -27 176 -126t78 -228q0 -197 -144.5 -315.5t-384.5 -118.5v178q158 0 245 74.5t87 193.5q0 238 -332 238v182q135 2 197.5 64.5t62.5 152.5q0 82 -53 134t-147 52q-209 0 -209 -292v-963h-197v975q0 131 38 227t100.5 146.5t130 74t143.5 23.5 q166 0 271.5 -100.5t105.5 -260.5q0 -104 -47 -188t-121 -123z" glyph-name="germandbls" horiz-adv-x="1028" unicode="ß"/><glyph d="M494 1004q166 0 265 -88.5t99 -274.5v-641h-192v117q-98 -115 -275 -131q-166 -14 -259 76t-79 219q16 135 101.5 197.5t259.5 107.5q25 6 71.5 16t68 16.5t49.5 17.5t41 25.5t15 34.5q10 68 -49 104t-131 29q-168 -6 -209 -155l-176 37q23 113 124.5 203t275.5 90z M666 422v43q-88 -25 -220 -57q-80 -20 -125 -55.5t-52 -61t-3 -51.5q12 -88 152 -78q86 6 167 78.5t81 181.5zM430 1434l156 -279h-144l-206 279h194z" glyph-name="agrave" horiz-adv-x="950" unicode="à"/><glyph d="M494 1004q166 0 265 -88.5t99 -274.5v-641h-192v117q-98 -115 -275 -131q-166 -14 -259 76t-79 219q16 135 101.5 197.5t259.5 107.5q25 6 71.5 16t68 16.5t49.5 17.5t41 25.5t15 34.5q10 68 -49 104t-131 29q-168 -6 -209 -155l-176 37q23 113 124.5 203t275.5 90z M666 422v43q-88 -25 -220 -57q-80 -20 -125 -55.5t-52 -61t-3 -51.5q12 -88 152 -78q86 6 167 78.5t81 181.5zM575 1434h195l-207 -279h-143z" glyph-name="aacute" horiz-adv-x="950" unicode="á"/><glyph d="M494 1004q166 0 265 -88.5t99 -274.5v-641h-192v117q-98 -115 -275 -131q-166 -14 -259 76t-79 219q16 135 101.5 197.5t259.5 107.5q25 6 71.5 16t68 16.5t49.5 17.5t41 25.5t15 34.5q10 68 -49 104t-131 29q-168 -6 -209 -155l-176 37q23 113 124.5 203t275.5 90z M666 422v43q-88 -25 -220 -57q-80 -20 -125 -55.5t-52 -61t-3 -51.5q12 -88 152 -78q86 6 167 78.5t81 181.5zM582 1434l229 -279h-207l-110 143l-113 -143h-205l227 279h179z" glyph-name="acircumflex" horiz-adv-x="950" unicode="â"/><glyph d="M494 1004q166 0 265 -88.5t99 -274.5v-641h-192v117q-98 -115 -275 -131q-166 -14 -259 76t-79 219q16 135 101.5 197.5t259.5 107.5q25 6 71.5 16t68 16.5t49.5 17.5t41 25.5t15 34.5q10 68 -49 104t-131 29q-168 -6 -209 -155l-176 37q23 113 124.5 203t275.5 90z M666 422v43q-88 -25 -220 -57q-80 -20 -125 -55.5t-52 -61t-3 -51.5q12 -88 152 -78q86 6 167 78.5t81 181.5zM694 1438l162 -58q-117 -311 -399 -153q-68 37 -107 41t-59.5 -14.5t-54.5 -71.5l-154 82q80 152 186.5 179t229.5 -46q59 -33 91 -41t59.5 9.5t45.5 72.5z" glyph-name="atilde" horiz-adv-x="950" unicode="ã"/><glyph d="M494 1004q166 0 265 -88.5t99 -274.5v-641h-192v117q-98 -115 -275 -131q-166 -14 -259 76t-79 219q16 135 101.5 197.5t259.5 107.5q25 6 71.5 16t68 16.5t49.5 17.5t41 25.5t15 34.5q10 68 -49 104t-131 29q-168 -6 -209 -155l-176 37q23 113 124.5 203t275.5 90z M666 422v43q-88 -25 -220 -57q-80 -20 -125 -55.5t-52 -61t-3 -51.5q12 -88 152 -78q86 6 167 78.5t81 181.5zM346 1389q41 0 70.5 -31t29.5 -72t-29.5 -70.5t-70.5 -29.5t-70.5 29.5t-29.5 70.5t29.5 72t70.5 31zM678 1389q41 0 70.5 -31t29.5 -72t-29.5 -70.5t-70.5 -29.5 q-43 0 -73 29.5t-30 70.5t30 72t73 31z" glyph-name="adieresis" horiz-adv-x="950" unicode="ä"/><glyph d="M494 1004q166 0 265 -88.5t99 -274.5v-641h-192v117q-98 -115 -275 -131q-166 -14 -259 76t-79 219q16 135 101.5 197.5t259.5 107.5q25 6 71.5 16t68 16.5t49.5 17.5t41 25.5t15 34.5q10 68 -49 104t-131 29q-168 -6 -209 -155l-176 37q23 113 124.5 203t275.5 90z M666 422v43q-88 -25 -220 -57q-80 -20 -125 -55.5t-52 -61t-3 -51.5q12 -88 152 -78q86 6 167 78.5t81 181.5zM512 1587q94 0 159.5 -65.5t65.5 -159.5t-65.5 -159.5t-159.5 -65.5q-92 0 -158.5 65.5t-66.5 159.5t66.5 159.5t158.5 65.5zM512 1274q37 0 63.5 25.5t26.5 62.5 t-26.5 62.5t-63.5 25.5t-62.5 -25.5t-25.5 -62.5t25.5 -62.5t62.5 -25.5z" glyph-name="aring" horiz-adv-x="950" unicode="å"/><glyph d="M1640 395h-688q23 -96 90.5 -155.5t171.5 -59.5q150 0 226 123l178 -86q-61 -109 -165.5 -170t-238.5 -61q-137 0 -252.5 70.5t-160.5 181.5q-49 -115 -160 -181.5t-250 -70.5q-166 -6 -259 81t-79 214q16 135 101.5 197.5t259.5 107.5q25 6 71.5 16t68 16.5t49.5 17.5 t41 25.5t15 34.5q10 68 -49 104t-131 29q-168 -6 -209 -155l-176 37q23 113 124 203t276 90q258 0 335 -195q135 193 379 192q207 0 324 -144t117 -363q-1 -56 -9 -99zM1208 807q-106 0 -172.5 -62.5t-87.5 -164.5h500q-37 227 -240 227zM666 422v43q-88 -25 -220 -57 q-80 -20 -125 -55.5t-52 -61t-3 -51.5q12 -88 152 -78q86 6 167 78.5t81 181.5z" glyph-name="ae" horiz-adv-x="1710" unicode="æ"/><glyph d="M543 180q150 0 225 123l180 -86q-59 -100 -153.5 -160.5t-212.5 -68.5l-47 -90q82 8 131 -38t49 -110q0 -45 -25.5 -88t-66.5 -63q-59 -29 -137 -20t-146 54l55 95q53 -39 109.5 -41t79.5 26q20 20 12 51t-39 39q-45 10 -82 -22l-98 61l78 152q-176 31 -285 171t-109 329 q0 213 135.5 361.5t346.5 148.5q133 0 238.5 -62.5t166.5 -169.5l-180 -88q-76 123 -225 123q-129 0 -202 -90t-73 -223.5t73 -223.5t202 -90z" glyph-name="ccedilla" horiz-adv-x="989" unicode="ç"/><glyph d="M969 395h-688q23 -96 90 -155.5t172 -59.5q150 0 225 123l178 -86q-61 -109 -165.5 -170t-237.5 -61q-211 0 -346.5 147.5t-135.5 360.5t132.5 360t343.5 147q207 0 323.5 -144t116.5 -363q0 -56 -8 -99zM537 807q-106 0 -173 -62.5t-88 -164.5h500q-36 227 -239 227z M457 1434l155 -279h-143l-207 279h195z" glyph-name="egrave" horiz-adv-x="1038" unicode="è"/><glyph d="M969 395h-688q23 -96 90 -155.5t172 -59.5q150 0 225 123l178 -86q-61 -109 -165.5 -170t-237.5 -61q-211 0 -346.5 147.5t-135.5 360.5t132.5 360t343.5 147q207 0 323.5 -144t116.5 -363q0 -56 -8 -99zM537 807q-106 0 -173 -62.5t-88 -164.5h500q-36 227 -239 227z M623 1434h194l-207 -279h-143z" glyph-name="eacute" horiz-adv-x="1038" unicode="é"/><glyph d="M969 395h-688q23 -96 90 -155.5t172 -59.5q150 0 225 123l178 -86q-61 -109 -165.5 -170t-237.5 -61q-211 0 -346.5 147.5t-135.5 360.5t132.5 360t343.5 147q207 0 323.5 -144t116.5 -363q0 -56 -8 -99zM537 807q-106 0 -173 -62.5t-88 -164.5h500q-36 227 -239 227z M631 1434l229 -279h-207l-110 143l-113 -143h-205l228 279h178z" glyph-name="ecircumflex" horiz-adv-x="1038" unicode="ê"/><glyph d="M969 395h-688q23 -96 90 -155.5t172 -59.5q150 0 225 123l178 -86q-61 -109 -165.5 -170t-237.5 -61q-211 0 -346.5 147.5t-135.5 360.5t132.5 360t343.5 147q207 0 323.5 -144t116.5 -363q0 -56 -8 -99zM537 807q-106 0 -173 -62.5t-88 -164.5h500q-36 227 -239 227z M375 1389q41 0 70.5 -31t29.5 -72t-29.5 -70.5t-70.5 -29.5t-71 29.5t-30 70.5t30 72t71 31zM707 1389q41 0 70.5 -31t29.5 -72t-29.5 -70.5t-70.5 -29.5q-43 0 -73 29.5t-30 70.5t30 72t73 31z" glyph-name="edieresis" horiz-adv-x="1038" unicode="ë"/><glyph d="M125 0v987h194v-987h-194zM139 1434l156 -279h-143l-207 279h194z" glyph-name="igrave" horiz-adv-x="421" unicode="ì"/><glyph d="M102 0v987h195v-987h-195zM283 1434h194l-207 -279h-143z" glyph-name="iacute" horiz-adv-x="421" unicode="í"/><glyph d="M188 0v987h195v-987h-195zM377 1434l229 -279h-207l-110 143l-113 -143h-205l228 279h178z" glyph-name="icircumflex" horiz-adv-x="532" unicode="î"/><glyph d="M158 0v987h194v-987h-194zM90 1389q41 0 70.5 -31t29.5 -72t-29.5 -70.5t-70.5 -29.5t-70.5 29.5t-29.5 70.5t29.5 72t70.5 31zM422 1389q41 0 70.5 -31t29.5 -72t-29.5 -70.5t-70.5 -29.5q-43 0 -73 29.5t-30 70.5t30 72t73 31z" glyph-name="idieresis" horiz-adv-x="491" unicode="ï"/><glyph d="M748 1395q141 -127 220 -312.5t87 -362.5t-37 -338t-135 -251q-135 -145 -342 -145q-211 0 -350.5 147.5t-139.5 360.5t133 360t344 147q184 0 310 -135q-35 225 -220 396l-165 -168l-136 133l144 145q-113 57 -232 70l27 176q188 -27 336 -111l166 168l135 -133z M541 180q127 0 200.5 90t73.5 223.5t-72.5 223.5t-201.5 90t-202 -89t-73 -224q0 -133 73 -223.5t202 -90.5z" glyph-name="eth" horiz-adv-x="1118" unicode="ð"/><glyph d="M551 1001q174 0 269 -115.5t95 -328.5v-557h-194v539q0 137 -57.5 202.5t-149.5 65.5q-98 0 -157.5 -62.5t-59.5 -193.5v-551h-195v987h195v-94q104 108 254 108zM735 1438l162 -58q-117 -311 -399 -153q-68 37 -107 41t-59.5 -14.5t-55.5 -71.5l-153 82 q80 152 186.5 179t229.5 -46q59 -33 91 -41t59.5 9.5t45.5 72.5z" glyph-name="ntilde" horiz-adv-x="1017" unicode="ñ"/><glyph d="M543 1001q211 0 346 -147t135 -360t-135 -360.5t-346 -147.5t-346.5 147.5t-135.5 360.5t135.5 360t346.5 147zM543 180q129 0 201.5 90t72.5 224q0 135 -72.5 224t-201.5 89t-202 -90t-73 -223.5t73 -223.5t202 -90zM461 1434l155 -279h-143l-207 279h195z" glyph-name="ograve" horiz-adv-x="1085" unicode="ò"/><glyph d="M543 1001q211 0 346 -147t135 -360t-135 -360.5t-346 -147.5t-346.5 147.5t-135.5 360.5t135.5 360t346.5 147zM543 180q129 0 201.5 90t72.5 224q0 135 -72.5 224t-201.5 89t-202 -90t-73 -223.5t73 -223.5t202 -90zM627 1434h194l-207 -279h-143z" glyph-name="oacute" horiz-adv-x="1085" unicode="ó"/><glyph d="M543 1001q211 0 346 -147t135 -360t-135 -360.5t-346 -147.5t-346.5 147.5t-135.5 360.5t135.5 360t346.5 147zM543 180q129 0 201.5 90t72.5 224q0 135 -72.5 224t-201.5 89t-202 -90t-73 -223.5t73 -223.5t202 -90zM633 1434l229 -279h-207l-110 143l-113 -143h-205 l228 279h178z" glyph-name="ocircumflex" horiz-adv-x="1085" unicode="ô"/><glyph d="M543 1001q211 0 346 -147t135 -360t-135 -360.5t-346 -147.5t-346.5 147.5t-135.5 360.5t135.5 360t346.5 147zM543 180q129 0 201.5 90t72.5 224q0 135 -72.5 224t-201.5 89t-202 -90t-73 -223.5t73 -223.5t202 -90zM768 1438l162 -58q-117 -311 -400 -153 q-68 37 -106.5 41t-59 -14.5t-55.5 -71.5l-153 82q80 152 186.5 179t228.5 -46q59 -33 91 -41t60 9.5t46 72.5z" glyph-name="otilde" horiz-adv-x="1085" unicode="õ"/><glyph d="M543 1001q211 0 346 -147t135 -360t-135 -360.5t-346 -147.5t-346.5 147.5t-135.5 360.5t135.5 360t346.5 147zM543 180q129 0 201.5 90t72.5 224q0 135 -72.5 224t-201.5 89t-202 -90t-73 -223.5t73 -223.5t202 -90zM377 1389q41 0 70.5 -31t29.5 -72t-29.5 -70.5 t-70.5 -29.5t-71 29.5t-30 70.5t30 72t71 31zM709 1389q41 0 70.5 -31t29.5 -72t-29.5 -70.5t-70.5 -29.5q-43 0 -73 29.5t-30 70.5t30 72t73 31z" glyph-name="odieresis" horiz-adv-x="1085" unicode="ö"/><glyph d="M123 713h795v-172h-795v172zM520 375q41 0 71 -30t30 -71q0 -43 -30 -72.5t-71 -29.5q-43 0 -72.5 29.5t-29.5 72.5q0 41 29.5 71t72.5 30zM520 881q-43 0 -72.5 29.5t-29.5 70.5t29.5 71.5t72.5 30.5q41 0 71 -30.5t30 -71.5t-30 -70.5t-71 -29.5z" glyph-name="divide" horiz-adv-x="1040" unicode="÷"/><glyph d="M1063 930l-119 -131q90 -135 90 -305q0 -213 -135 -360.5t-346 -147.5q-158 0 -270 82l-113 -125l-127 114l119 131q-92 133 -92 306q0 213 135 360t348 147q152 0 270 -79l111 122zM276 494q0 -78 29 -146l383 424q-57 35 -135 35q-129 0 -203 -90t-74 -223zM827 494 q0 76 -26 145l-385 -424q59 -35 137 -35q127 0 200.5 90.5t73.5 223.5z" glyph-name="oslash" horiz-adv-x="1105" unicode="ø"/><glyph d="M711 987h196v-987h-196v94q-102 -109 -252 -108q-174 0 -270.5 115.5t-96.5 328.5v557h195v-538q0 -135 57 -202t150 -67q96 0 156.5 63.5t60.5 192.5v551zM459 1434l155 -279h-143l-207 279h195z" glyph-name="ugrave" horiz-adv-x="1009" unicode="ù"/><glyph d="M711 987h196v-987h-196v94q-102 -109 -252 -108q-174 0 -270.5 115.5t-96.5 328.5v557h195v-538q0 -135 57 -202t150 -67q96 0 156.5 63.5t60.5 192.5v551zM604 1434h195l-207 -279h-143z" glyph-name="uacute" horiz-adv-x="1009" unicode="ú"/><glyph d="M711 987h196v-987h-196v94q-102 -109 -252 -108q-174 0 -270.5 115.5t-96.5 328.5v557h195v-538q0 -135 57 -202t150 -67q96 0 156.5 63.5t60.5 192.5v551zM590 1434l229 -279h-207l-110 143l-113 -143h-205l228 279h178z" glyph-name="ucircumflex" horiz-adv-x="1009" unicode="û"/><glyph d="M711 987h196v-987h-196v94q-102 -109 -252 -108q-174 0 -270.5 115.5t-96.5 328.5v557h195v-538q0 -135 57 -202t150 -67q96 0 156.5 63.5t60.5 192.5v551zM334 1389q41 0 70.5 -31t29.5 -72t-29.5 -70.5t-70.5 -29.5t-71 29.5t-30 70.5t30 72t71 31zM666 1389 q41 0 70.5 -31t29.5 -72t-29.5 -70.5t-70.5 -29.5q-43 0 -73 29.5t-30 70.5t30 72t73 31z" glyph-name="udieresis" horiz-adv-x="1009" unicode="ü"/><glyph d="M926 987l-340 -950q-20 -55 -37 -95t-38.5 -85t-40.5 -78t-44 -67t-50.5 -55.5t-57 -38.5t-65.5 -25.5t-76 -8.5t-89 10l33 195q88 -18 137 27t117 215l-344 956h209l239 -682l238 682h209zM582 1434h194l-207 -279h-143z" glyph-name="yacute" horiz-adv-x="956" unicode="ý"/><glyph d="M588 1001q209 0 334 -146t125 -361q0 -217 -124 -362.5t-335 -145.5q-184 0 -301 120v-552h-195v1892h195v-565q117 120 301 120zM565 180q129 0 199 89t70 224.5t-70 224.5t-199 89t-198.5 -89t-69.5 -224.5t69.5 -224.5t198.5 -89z" glyph-name="thorn" horiz-adv-x="1107" unicode="þ"/><glyph d="M926 987l-340 -950q-20 -55 -37 -95t-38.5 -85t-40.5 -78t-44 -67t-50.5 -55.5t-57 -38.5t-65.5 -25.5t-76 -8.5t-89 10l33 195q88 -18 137 27t117 215l-344 956h209l239 -682l238 682h209zM354 1389q41 0 71 -31t30 -72t-30 -70.5t-71 -29.5t-70.5 29.5t-29.5 70.5 t29.5 72t70.5 31zM686 1389q41 0 70.5 -31t29.5 -72t-29.5 -70.5t-70.5 -29.5q-43 0 -72.5 29.5t-29.5 70.5t29.5 72t72.5 31z" glyph-name="ydieresis" horiz-adv-x="956" unicode="ÿ"/><glyph d="M1047 0l-140 395h-512l-141 -395h-213l514 1434h190l517 -1434h-215zM463 586h375l-187 555zM385 1788h533v-172h-533v172z" glyph-name="Amacron" horiz-adv-x="1302" unicode="Ā"/><glyph d="M494 1004q166 0 265 -88.5t99 -274.5v-641h-192v117q-98 -115 -275 -131q-166 -14 -259 76t-79 219q16 135 101.5 197.5t259.5 107.5q25 6 71.5 16t68 16.5t49.5 17.5t41 25.5t15 34.5q10 68 -49 104t-131 29q-168 -6 -209 -155l-176 37q23 113 124.5 203t275.5 90z M666 422v43q-88 -25 -220 -57q-80 -20 -125 -55.5t-52 -61t-3 -51.5q12 -88 152 -78q86 6 167 78.5t81 181.5zM225 1378h533v-172h-533v172z" glyph-name="amacron" horiz-adv-x="950" unicode="ā"/><glyph d="M1047 0l-140 395h-512l-141 -395h-213l514 1434h190l517 -1434h-215zM463 586h375l-187 555zM752 1843h153q0 -104 -73.5 -179t-180.5 -75q-104 0 -179 75t-75 179h154q0 -41 29.5 -70.5t70.5 -29.5t71 29.5t30 70.5z" glyph-name="Abreve" horiz-adv-x="1302" unicode="Ă"/><glyph d="M494 1004q166 0 265 -88.5t99 -274.5v-641h-192v117q-98 -115 -275 -131q-166 -14 -259 76t-79 219q16 135 101.5 197.5t259.5 107.5q25 6 71.5 16t68 16.5t49.5 17.5t41 25.5t15 34.5q10 68 -49 104t-131 29q-168 -6 -209 -155l-176 37q23 113 124.5 203t275.5 90z M666 422v43q-88 -25 -220 -57q-80 -20 -125 -55.5t-52 -61t-3 -51.5q12 -88 152 -78q86 6 167 78.5t81 181.5zM612 1434h154q0 -104 -74 -179t-180 -75q-104 0 -179 74.5t-75 179.5h154q0 -41 29.5 -71t70.5 -30t70.5 30t29.5 71z" glyph-name="abreve" horiz-adv-x="950" unicode="ă"/><glyph d="M1067 -238q16 -31 61.5 -29.5t79.5 29.5v-159q-43 -16 -96 -17q-82 0 -135 49.5t-45 133.5q6 74 58 139t97 92h-40l-140 395h-512l-141 -395h-213l514 1434h190l517 -1434h-27q-76 -35 -136.5 -109t-31.5 -129zM463 586h375l-187 555z" glyph-name="Aogonek" horiz-adv-x="1302" unicode="Ą"/><glyph d="M670 -238q16 -29 62 -27.5t79 27.5v-157q-45 -18 -94 -19q-82 0 -135.5 49.5t-44.5 133.5q6 74 55 137t96 94h-22v117q-98 -115 -275 -131q-166 -14 -259 76t-79 219q16 135 101.5 197.5t259.5 107.5q25 6 71.5 16t68 16.5t49.5 17.5t41 25.5t15 34.5q10 68 -49 104 t-131 29q-168 -6 -209 -155l-176 37q23 113 124 203t276 90q166 0 265 -88.5t99 -274.5v-641h-20q-76 -37 -135.5 -110t-32.5 -128zM666 422v43q-88 -25 -220 -57q-80 -20 -125 -55.5t-52 -61t-3 -51.5q12 -88 152 -78q86 6 167 78.5t81 181.5z" glyph-name="aogonek" horiz-adv-x="950" unicode="ą"/><glyph d="M778 182q133 0 239.5 60.5t172.5 167.5l178 -88q-90 -156 -244.5 -246t-345.5 -90q-301 0 -498.5 212t-197.5 519t197.5 518t498.5 211q190 0 344 -90t246 -244l-178 -90q-66 106 -172.5 167.5t-239.5 61.5q-219 0 -357 -154.5t-138 -379.5q0 -227 138 -381t357 -154z M850 1843h194l-206 -278h-144z" glyph-name="Cacute" horiz-adv-x="1439" unicode="Ć"/><glyph d="M543 180q150 0 225 123l180 -86q-61 -106 -166.5 -168.5t-238.5 -62.5q-211 0 -346.5 147.5t-135.5 360.5t135.5 360t346.5 147q133 0 238.5 -62t166.5 -169l-180 -86q-76 123 -225 123q-129 0 -202 -90t-73 -223.5t73 -223.5t202 -90zM608 1434h195l-207 -279h-143z" glyph-name="cacute" horiz-adv-x="989" unicode="ć"/><glyph d="M778 182q133 0 239.5 60.5t172.5 167.5l178 -88q-90 -156 -244.5 -246t-345.5 -90q-301 0 -498.5 212t-197.5 519t197.5 518t498.5 211q190 0 344 -90t246 -244l-178 -90q-66 106 -172.5 167.5t-239.5 61.5q-219 0 -357 -154.5t-138 -379.5q0 -227 138 -381t357 -154z M836 1843l229 -278h-207l-110 143l-113 -143h-205l227 278h179z" glyph-name="Ccircumflex" horiz-adv-x="1439" unicode="Ĉ"/><glyph d="M543 180q150 0 225 123l180 -86q-61 -106 -166.5 -168.5t-238.5 -62.5q-211 0 -346.5 147.5t-135.5 360.5t135.5 360t346.5 147q133 0 238.5 -62t166.5 -169l-180 -86q-76 123 -225 123q-129 0 -202 -90t-73 -223.5t73 -223.5t202 -90zM616 1434l230 -279h-207l-111 143 l-112 -143h-205l227 279h178z" glyph-name="ccircumflex" horiz-adv-x="989" unicode="ĉ"/><glyph d="M778 182q133 0 239.5 60.5t172.5 167.5l178 -88q-90 -156 -244.5 -246t-345.5 -90q-301 0 -498.5 212t-197.5 519t197.5 518t498.5 211q190 0 344 -90t246 -244l-178 -90q-66 106 -172.5 167.5t-239.5 61.5q-219 0 -357 -154.5t-138 -379.5q0 -227 138 -381t357 -154z M745.5 1798q40.5 0 71.5 -30.5t31 -71.5t-31 -71t-71.5 -30t-70.5 30t-30 71t30 71.5t70.5 30.5z" glyph-name="Cdotaccent" horiz-adv-x="1439" unicode="Ċ"/><glyph d="M543 180q150 0 225 123l180 -86q-61 -106 -166.5 -168.5t-238.5 -62.5q-211 0 -346.5 147.5t-135.5 360.5t135.5 360t346.5 147q133 0 238.5 -62t166.5 -169l-180 -86q-76 123 -225 123q-129 0 -202 -90t-73 -223.5t73 -223.5t202 -90zM524 1389q41 0 72 -31t31 -72 t-31 -70.5t-72 -29.5t-70.5 29.5t-29.5 70.5t29.5 72t70.5 31z" glyph-name="cdotaccent" horiz-adv-x="989" unicode="ċ"/><glyph d="M778 182q133 0 239.5 60.5t172.5 167.5l178 -88q-90 -156 -244.5 -246t-345.5 -90q-301 0 -498.5 212t-197.5 519t197.5 518t498.5 211q190 0 344 -90t246 -244l-178 -90q-66 106 -172.5 167.5t-239.5 61.5q-219 0 -357 -154.5t-138 -379.5q0 -227 138 -381t357 -154z M1067 1843l-229 -278h-179l-227 278h205l113 -143l110 143h207z" glyph-name="Ccaron" horiz-adv-x="1439" unicode="Č"/><glyph d="M543 180q150 0 225 123l180 -86q-61 -106 -166.5 -168.5t-238.5 -62.5q-211 0 -346.5 147.5t-135.5 360.5t135.5 360t346.5 147q133 0 238.5 -62t166.5 -169l-180 -86q-76 123 -225 123q-129 0 -202 -90t-73 -223.5t73 -223.5t202 -90zM848 1434l-230 -279h-178l-227 279 h205l112 -144l111 144h207z" glyph-name="ccaron" horiz-adv-x="989" unicode="č"/><glyph d="M555 1434q346 0 550 -200t204 -517q0 -315 -206 -516t-548 -201h-422v1434h422zM555 197q254 0 403.5 141t149.5 379q0 240 -148.5 381t-404.5 141h-227v-1042h227zM961 1843l-230 -278h-178l-227 278h204l113 -143l111 143h207z" glyph-name="Dcaron" horiz-adv-x="1380" unicode="Ď"/><glyph d="M811 1434h197v-1434h-197v106q-115 -121 -301 -120q-209 0 -334 146.5t-125 361.5t125 361t334 146q186 0 301 -120v553zM535 180q127 0 197.5 90t70.5 224q0 135 -69.5 224t-198.5 89t-200 -89t-71 -224.5t71 -224.5t200 -89zM1196 1434h184l-141 -344h-102z" glyph-name="dcaron" horiz-adv-x="1247" unicode="ď"/><glyph d="M639 1434q344 0 548 -200t204 -517.5t-205 -517t-547 -199.5h-424v631h-184v172h184v631h424zM639 195q252 0 401.5 141t149.5 380.5t-147.5 380t-403.5 140.5h-227v-434h297v-172h-297v-436h227z" glyph-name="Dcroat" horiz-adv-x="1462" unicode="Đ"/><glyph d="M1157 1270v-172h-151v-1098h-195v106q-117 -121 -301 -120q-209 0 -334 146.5t-125 361.5q0 217 124 362t335 145q184 0 301 -120v217h-219v172h219v164h195v-164h151zM532.5 180q129.5 0 199 89t69.5 224.5t-69.5 224.5t-199 89t-199 -89t-69.5 -224.5t69.5 -224.5 t199 -89z" glyph-name="dcroat" horiz-adv-x="1110" unicode="đ"/><glyph d="M328 197h755v-197h-950v1434h940v-195h-745v-426h682v-190h-682v-426zM342 1788h532v-172h-532v172z" glyph-name="Emacron" horiz-adv-x="1165" unicode="Ē"/><glyph d="M969 395h-688q23 -96 90 -155.5t172 -59.5q150 0 225 123l178 -86q-61 -109 -165.5 -170t-237.5 -61q-211 0 -346.5 147.5t-135.5 360.5t132.5 360t343.5 147q207 0 323.5 -144t116.5 -363q0 -56 -8 -99zM537 807q-106 0 -173 -62.5t-88 -164.5h500q-36 227 -239 227z M274 1378h533v-172h-533v172z" glyph-name="emacron" horiz-adv-x="1038" unicode="ē"/><glyph d="M328 197h755v-197h-950v1434h940v-195h-745v-426h682v-190h-682v-426zM709 1843h153q0 -104 -73.5 -179t-180.5 -75q-104 0 -179 75t-75 179h154q0 -41 29.5 -70.5t70.5 -29.5t71 29.5t30 70.5z" glyph-name="Ebreve" horiz-adv-x="1165" unicode="Ĕ"/><glyph d="M969 395h-688q23 -96 90 -155.5t172 -59.5q150 0 225 123l178 -86q-61 -109 -165.5 -170t-237.5 -61q-211 0 -346.5 147.5t-135.5 360.5t132.5 360t343.5 147q207 0 323.5 -144t116.5 -363q0 -56 -8 -99zM537 807q-106 0 -173 -62.5t-88 -164.5h500q-36 227 -239 227z M621 1434h153q0 -104 -73.5 -179t-180.5 -75q-104 0 -179 74.5t-75 179.5h154q0 -41 29.5 -71t70.5 -30t71 30t30 71z" glyph-name="ebreve" horiz-adv-x="1038" unicode="ĕ"/><glyph d="M328 197h755v-197h-950v1434h940v-195h-745v-426h682v-190h-682v-426zM608 1798q41 0 72 -30.5t31 -71.5t-31 -71t-72 -30t-70.5 30t-29.5 71t29.5 71.5t70.5 30.5z" glyph-name="Edotaccent" horiz-adv-x="1165" unicode="Ė"/><glyph d="M969 395h-688q23 -96 90 -155.5t172 -59.5q150 0 225 123l178 -86q-61 -109 -165.5 -170t-237.5 -61q-211 0 -346.5 147.5t-135.5 360.5t132.5 360t343.5 147q207 0 323.5 -144t116.5 -363q0 -56 -8 -99zM537 807q-106 0 -173 -62.5t-88 -164.5h500q-36 227 -239 227z M539 1389q41 0 71.5 -31t30.5 -72t-30.5 -70.5t-71.5 -29.5t-71 29.5t-30 70.5t30 72t71 31z" glyph-name="edotaccent" horiz-adv-x="1038" unicode="ė"/><glyph d="M1085 0q-76 -35 -136 -108.5t-31 -129.5q14 -31 60 -29.5t79 29.5v-159q-41 -16 -94 -17q-82 0 -135.5 49.5t-45.5 133.5q6 74 57.5 138t98.5 93h-805v1434h940v-195h-743v-428h680v-188h-680v-426h755v-197z" glyph-name="Eogonek" horiz-adv-x="1177" unicode="Ę"/><glyph d="M971 395h-690q25 -96 92 -155.5t170 -59.5q150 0 225 123l180 -86q-61 -106 -157 -164q-74 -61 -128.5 -151t-29.5 -140q16 -31 61 -29.5t78 29.5v-159q-41 -16 -94 -17q-82 0 -135.5 49.5t-44.5 133.5q8 102 135 225q-39 -8 -90 -8q-211 0 -346.5 147.5t-135.5 360.5 q0 215 132.5 362.5t343.5 147.5q209 0 325.5 -145.5t116.5 -364.5q0 -33 -8 -99zM537 807q-106 0 -173 -62.5t-88 -164.5h500q-36 227 -239 227z" glyph-name="eogonek" horiz-adv-x="1040" unicode="ę"/><glyph d="M328 197h755v-197h-950v1434h940v-195h-745v-426h682v-190h-682v-426zM930 1843l-230 -278h-178l-227 278h205l112 -143l111 143h207z" glyph-name="Ecaron" horiz-adv-x="1165" unicode="Ě"/><glyph d="M969 395h-688q23 -96 90 -155.5t172 -59.5q150 0 225 123l178 -86q-61 -109 -165.5 -170t-237.5 -61q-211 0 -346.5 147.5t-135.5 360.5t132.5 360t343.5 147q207 0 323.5 -144t116.5 -363q0 -56 -8 -99zM537 807q-106 0 -173 -62.5t-88 -164.5h500q-36 227 -239 227z M842 1434l-230 -279h-178l-227 279h205l112 -144l111 144h207z" glyph-name="ecaron" horiz-adv-x="1038" unicode="ě"/><glyph d="M784 752h582v-433q-190 -334 -588 -333q-301 0 -498.5 212t-197.5 519t197.5 518t498.5 211q188 0 344 -90t248 -244l-180 -90q-66 106 -172.5 167.5t-239.5 61.5q-219 0 -357 -154.5t-138 -379.5q0 -227 138 -381t357 -154q270 0 393 185v206h-387v179zM858 1843 l229 -278h-206l-111 143l-113 -143h-204l227 278h178z" glyph-name="Gcircumflex" horiz-adv-x="1482" unicode="Ĝ"/><glyph d="M811 987h197v-891q0 -289 -133.5 -423t-342.5 -134q-129 0 -242.5 60.5t-176.5 160.5l163 107q37 -61 105 -97t145 -36q127 0 206 89t79 255v28q-115 -121 -301 -120q-209 0 -334 146.5t-125 361.5t125 361t334 146q186 0 301 -120v106zM535 180q127 0 197.5 90t70.5 224 q0 135 -69.5 224t-198.5 89t-200 -89t-71 -224.5t71 -224.5t200 -89zM621 1434l229 -279h-207l-111 143l-112 -143h-205l227 279h179z" glyph-name="gcircumflex" horiz-adv-x="1110" unicode="ĝ"/><glyph d="M784 752h582v-433q-190 -334 -588 -333q-301 0 -498.5 212t-197.5 519t197.5 518t498.5 211q188 0 344 -90t248 -244l-180 -90q-66 106 -172.5 167.5t-239.5 61.5q-219 0 -357 -154.5t-138 -379.5q0 -227 138 -381t357 -154q270 0 393 185v206h-387v179zM868 1843h154 q0 -104 -74 -179t-180 -75q-104 0 -179 75t-75 179h154q0 -41 29.5 -70.5t70.5 -29.5t70.5 29.5t29.5 70.5z" glyph-name="Gbreve" horiz-adv-x="1482" unicode="Ğ"/><glyph d="M811 987h197v-891q0 -289 -133.5 -423t-342.5 -134q-129 0 -242.5 60.5t-176.5 160.5l163 107q37 -61 105 -97t145 -36q127 0 206 89t79 255v28q-115 -121 -301 -120q-209 0 -334 146.5t-125 361.5t125 361t334 146q186 0 301 -120v106zM535 180q127 0 197.5 90t70.5 224 q0 135 -69.5 224t-198.5 89t-200 -89t-71 -224.5t71 -224.5t200 -89zM631 1434h153q0 -104 -73.5 -179t-180.5 -75q-104 0 -179 74.5t-75 179.5h154q0 -41 29.5 -71t70.5 -30t71 30t30 71z" glyph-name="gbreve" horiz-adv-x="1110" unicode="ğ"/><glyph d="M784 752h582v-433q-190 -334 -588 -333q-301 0 -498.5 212t-197.5 519t197.5 518t498.5 211q188 0 344 -90t248 -244l-180 -90q-66 106 -172.5 167.5t-239.5 61.5q-219 0 -357 -154.5t-138 -379.5q0 -227 138 -381t357 -154q270 0 393 185v206h-387v179zM766 1798 q41 0 71.5 -30.5t30.5 -71.5t-30.5 -71t-71.5 -30t-70.5 30t-29.5 71t29.5 71.5t70.5 30.5z" glyph-name="Gdotaccent" horiz-adv-x="1482" unicode="Ġ"/><glyph d="M811 987h197v-891q0 -289 -133.5 -423t-342.5 -134q-129 0 -242.5 60.5t-176.5 160.5l163 107q37 -61 105 -97t145 -36q127 0 206 89t79 255v28q-115 -121 -301 -120q-209 0 -334 146.5t-125 361.5t125 361t334 146q186 0 301 -120v106zM535 180q127 0 197.5 90t70.5 224 q0 135 -69.5 224t-198.5 89t-200 -89t-71 -224.5t71 -224.5t200 -89zM528 1389q41 0 72 -31t31 -72t-31 -70.5t-72 -29.5t-70.5 29.5t-29.5 70.5t29.5 72t70.5 31z" glyph-name="gdotaccent" horiz-adv-x="1110" unicode="ġ"/><glyph d="M784 752h582v-433q-190 -334 -588 -333q-301 0 -498.5 212t-197.5 519t197.5 518t498.5 211q188 0 344 -90t248 -244l-180 -90q-66 106 -172.5 167.5t-239.5 61.5q-219 0 -357 -154.5t-138 -379.5q0 -227 138 -381t357 -154q270 0 393 185v206h-387v179zM664 -158h184 l-117 -268h-127z" glyph-name="Gcommaaccent" horiz-adv-x="1482" unicode="Ģ"/><glyph d="M811 987h197v-891q0 -289 -133.5 -423t-342.5 -134q-129 0 -242.5 60.5t-176.5 160.5l163 107q37 -61 105 -97t145 -36q127 0 206 89t79 255v28q-115 -121 -301 -120q-209 0 -334 146.5t-125 361.5t125 361t334 146q186 0 301 -120v106zM535 180q127 0 197.5 90t70.5 224 q0 135 -69.5 224t-198.5 89t-200 -89t-71 -224.5t71 -224.5t200 -89zM451 1192l143 344h102l-59 -344h-186z" glyph-name="gcommaaccent" horiz-adv-x="1110" unicode="ģ"/><glyph d="M1036 1434h197v-1434h-197v623h-708v-623h-195v1434h195v-621h708v621zM774 1843l230 -278h-207l-111 143l-113 -143h-204l227 278h178z" glyph-name="Hcircumflex" horiz-adv-x="1366" unicode="Ĥ"/><glyph d="M807 1579h-172l-127 164l-127 -164h-170l227 281h140zM541 1001q176 0 271 -115.5t95 -328.5v-557h-194v539q0 137 -57.5 202.5t-149.5 65.5q-98 0 -157.5 -62.5t-59.5 -193.5v-551h-197v1434h197v-541q102 108 252 108z" glyph-name="hcircumflex" horiz-adv-x="999" unicode="ĥ"/><glyph d="M1436 1188v-172h-138v-1016h-196v623h-709v-623h-194v1016h-138v172h138v246h194v-246h709v246h196v-246h138zM1102 811v205h-709v-205h709z" glyph-name="Hbar" horiz-adv-x="1497" unicode="Ħ"/><glyph d="M612 1001q174 0 269.5 -115.5t95.5 -328.5v-557h-195v539q0 137 -57 202.5t-150 65.5q-96 0 -156.5 -63.5t-60.5 -192.5v-551h-194v1098h-154v172h154v164h194v-164h217v-172h-217v-205q104 108 254 108z" glyph-name="hbar" horiz-adv-x="1069" unicode="ħ"/><glyph d="M158 1434h194v-1434h-194v1434zM479 1847l162 -57q-117 -311 -399 -154q-68 37 -107 41t-59.5 -14t-55.5 -72l-153 82q80 152 186.5 179.5t229.5 -46.5q59 -33 91 -41t59.5 9.5t45.5 72.5z" glyph-name="Itilde" horiz-adv-x="507" unicode="Ĩ"/><glyph d="M207 0v987h194v-987h-194zM530 1438l162 -58q-117 -311 -399 -153q-68 37 -107 41t-59.5 -14.5t-54.5 -71.5l-154 82q80 152 186.5 179t229.5 -46q59 -33 91 -41t59.5 9.5t45.5 72.5z" glyph-name="itilde" horiz-adv-x="538" unicode="ĩ"/><glyph d="M129 1434h195v-1434h-195v1434zM-39 1788h533v-172h-533v172z" glyph-name="Imacron" horiz-adv-x="460" unicode="Ī"/><glyph d="M178 0v987h195v-987h-195zM10 1378h533v-172h-533v172z" glyph-name="imacron" horiz-adv-x="491" unicode="ī"/><glyph d="M133 1434h195v-1434h-195v1434zM332 1843h153q0 -104 -73.5 -179t-180.5 -75q-104 0 -179 75t-75 179h154q0 -41 29.5 -70.5t70.5 -29.5t71 29.5t30 70.5z" glyph-name="Ibreve" horiz-adv-x="460" unicode="Ĭ"/><glyph d="M145 0v987h195v-987h-195zM344 1434h154q0 -104 -74 -179t-180 -75q-104 0 -179 74.5t-75 179.5h153q0 -41 30 -71t71 -30t70.5 30t29.5 71z" glyph-name="ibreve" horiz-adv-x="477" unicode="ĭ"/><glyph d="M309 0q-76 -35 -136 -108.5t-32 -129.5q16 -31 62.5 -29.5t79.5 29.5v-159q-43 -16 -97 -17q-82 0 -135 49.5t-45 133.5q6 74 58.5 139t97.5 92h-29v1434h195v-1434h-19z" glyph-name="Iogonek" horiz-adv-x="460" unicode="Į"/><glyph d="M207 1139q-47 0 -81 33.5t-34 80.5t34 80t81 33t79.5 -34t32.5 -79q0 -47 -32.5 -80.5t-79.5 -33.5zM106 0v987h197v-987h-18q-76 -33 -136.5 -107.5t-33.5 -130.5q16 -31 62 -29.5t79 29.5v-159q-41 -16 -94 -17q-82 0 -135.5 49.5t-44.5 133.5q6 74 57 138t98 93h-31z " glyph-name="iogonek" horiz-adv-x="421" unicode="į"/><glyph d="M133 1434h195v-1434h-195v1434zM229 1798q41 0 72 -30.5t31 -71.5t-31 -71t-72 -30t-70.5 30t-29.5 71t29.5 71.5t70.5 30.5z" glyph-name="Idotaccent" horiz-adv-x="460" unicode="İ"/><glyph d="M113 0v987h194v-987h-194z" glyph-name="dotlessi" horiz-adv-x="421" unicode="ı"/><glyph d="M532 1434h195v-1024q0 -209 -93 -316.5t-269 -107.5q-104 0 -196.5 42t-137.5 103l135 131q82 -82 188 -82q84 0 131 56.5t47 162.5v1035zM721 1843l229 -278h-207l-110 143l-113 -143h-205l228 278h178z" glyph-name="Jcircumflex" horiz-adv-x="860" unicode="Ĵ"/><glyph d="M154 987h196v-1110q0 -268 -180 -326q-135 -43 -262 41l69 156q68 -29 117 -10q59 25 60 135v1114zM342 1434l229 -279h-206l-111 143l-113 -143h-204l227 279h178z" glyph-name="jcircumflex" horiz-adv-x="479" unicode="ĵ"/><glyph d="M979 0l-469 662l-180 -209v-453h-197v1434h197v-680l592 680h256l-537 -621l580 -813h-242zM532 -158h185l-117 -268h-127z" glyph-name="Kcommaaccent" horiz-adv-x="1251" unicode="Ķ"/><glyph d="M688 0l-301 420l-98 -107v-313h-197v1434h197v-832l358 385h266l-391 -422l408 -565h-242zM387 -158h184l-116 -268h-127z" glyph-name="kcommaaccent" horiz-adv-x="960" unicode="ķ"/><glyph d="M330 197h665v-197h-862v1434h197v-1237zM319 1843h195l-207 -278h-143z" glyph-name="Lacute" horiz-adv-x="1056" unicode="Ĺ"/><glyph d="M92 1536h197v-1536h-197v1536zM285 1954h194l-207 -279h-143z" glyph-name="lacute" horiz-adv-x="391" unicode="ĺ"/><glyph d="M330 197h665v-197h-862v1434h197v-1237zM502 -158h184l-117 -268h-127z" glyph-name="Lcommaaccent" horiz-adv-x="1056" unicode="Ļ"/><glyph d="M92 1536h197v-1536h-197v1536zM92 -158h184l-116 -268h-127z" glyph-name="lcommaaccent" horiz-adv-x="391" unicode="ļ"/><glyph d="M330 197h665v-197h-862v1434h197v-1237zM557 1434h184l-141 -344h-102z" glyph-name="Lcaron" horiz-adv-x="1056" unicode="Ľ"/><glyph d="M92 1536h197v-1536h-197v1536zM489 1434h185l-142 -344h-102z" glyph-name="lcaron" horiz-adv-x="520" unicode="ľ"/><glyph d="M330 197h665v-197h-862v1434h197v-1237zM672 815q41 0 71.5 -30.5t30.5 -71.5t-30.5 -71t-71.5 -30t-71 30t-30 71t30 71.5t71 30.5z" glyph-name="Ldot" horiz-adv-x="1056" unicode="Ŀ"/><glyph d="M92 1536h197v-1536h-197v1536zM528 582q41 0 72 -31t31 -72t-31 -70.5t-72 -29.5t-70.5 29.5t-29.5 70.5t29.5 72t70.5 31z" glyph-name="ldot" horiz-adv-x="702" unicode="ŀ"/><glyph d="M479 195h666v-195h-860v471l-254 -172v207l254 174v754h194v-621l395 270v-209l-395 -268v-411z" glyph-name="Lslash" horiz-adv-x="1206" unicode="Ł"/><glyph d="M582 1069v-209l-176 -121v-739h-197v604l-178 -121v209l178 121v723h197v-590z" glyph-name="lslash" horiz-adv-x="632" unicode="ł"/><glyph d="M1024 1434h195v-1434h-189l-700 1077v-1077h-197v1434h191l700 -1078v1078zM780 1843h195l-207 -278h-143z" glyph-name="Nacute" horiz-adv-x="1351" unicode="Ń"/><glyph d="M551 1001q174 0 269 -115.5t95 -328.5v-557h-194v539q0 137 -57.5 202.5t-149.5 65.5q-98 0 -157.5 -62.5t-59.5 -193.5v-551h-195v987h195v-94q104 108 254 108zM612 1434h195l-207 -279h-143z" glyph-name="nacute" horiz-adv-x="1017" unicode="ń"/><glyph d="M1024 1434h195v-1434h-189l-700 1077v-1077h-197v1434h191l700 -1078v1078zM592 -158h184l-117 -268h-127z" glyph-name="Ncommaaccent" horiz-adv-x="1351" unicode="Ņ"/><glyph d="M551 1001q174 0 269 -115.5t95 -328.5v-557h-194v539q0 137 -57.5 202.5t-149.5 65.5q-98 0 -157.5 -62.5t-59.5 -193.5v-551h-195v987h195v-94q104 108 254 108zM446 -158h185l-117 -268h-127z" glyph-name="ncommaaccent" horiz-adv-x="1017" unicode="ņ"/><glyph d="M1024 1434h195v-1434h-189l-700 1077v-1077h-197v1434h191l700 -1078v1078zM1018 1843l-230 -278h-178l-227 278h205l112 -143l111 143h207z" glyph-name="Ncaron" horiz-adv-x="1351" unicode="Ň"/><glyph d="M551 1001q174 0 269 -115.5t95 -328.5v-557h-194v539q0 137 -57.5 202.5t-149.5 65.5q-98 0 -157.5 -62.5t-59.5 -193.5v-551h-195v987h195v-94q104 108 254 108zM831 1434l-229 -279h-178l-227 279h204l113 -144l111 144h206z" glyph-name="ncaron" horiz-adv-x="1017" unicode="ň"/><glyph d="M721 1001q174 0 269 -115.5t95 -328.5v-557h-194v539q0 137 -57.5 202.5t-149.5 65.5q-98 0 -157.5 -62.5t-59.5 -193.5v-551h-195v987h195v-94q104 108 254 108zM70 1188h184l-117 -268h-127z" glyph-name="napostrophe" horiz-adv-x="1187" unicode="ŉ"/><glyph d="M1022 1434h195v-1491q0 -268 -179 -326q-135 -41 -262 39l70 158q68 -29 117 -11q59 23 59 136v71l-694 1073v-1083h-195v1434h189l700 -1084v1084z" glyph-name="Eng" horiz-adv-x="1349" unicode="Ŋ"/><glyph d="M549 1001q176 0 271 -115.5t95 -328.5v-614q0 -268 -178 -326q-137 -43 -262 39l68 158q70 -29 116 -11q61 23 62 136v600q0 137 -57.5 202.5t-149.5 65.5q-96 0 -156.5 -63.5t-60.5 -192.5v-551h-197v987h197v-94q102 108 252 108z" glyph-name="eng" horiz-adv-x="1017" unicode="ŋ"/><glyph d="M776 1446q299 0 498 -212t199 -517q0 -307 -199 -519t-498 -212t-496.5 212t-197.5 519q0 305 197.5 517t496.5 212zM776 180q219 0 357.5 154.5t138.5 382.5q0 225 -138.5 379.5t-357.5 154.5q-217 0 -355 -153.5t-138 -380.5q0 -225 138 -381t355 -156zM510 1788h532 v-172h-532v172z" glyph-name="Omacron" unicode="Ō"/><glyph d="M543 1001q211 0 346 -147t135 -360t-135 -360.5t-346 -147.5t-346.5 147.5t-135.5 360.5t135.5 360t346.5 147zM543 180q129 0 201.5 90t72.5 224q0 135 -72.5 224t-201.5 89t-202 -90t-73 -223.5t73 -223.5t202 -90zM276 1378h533v-172h-533v172z" glyph-name="omacron" horiz-adv-x="1085" unicode="ō"/><glyph d="M776 1446q299 0 498 -212t199 -517q0 -307 -199 -519t-498 -212t-496.5 212t-197.5 519q0 305 197.5 517t496.5 212zM776 180q219 0 357.5 154.5t138.5 382.5q0 225 -138.5 379.5t-357.5 154.5q-217 0 -355 -153.5t-138 -380.5q0 -225 138 -381t355 -156zM879 1843h153 q0 -104 -73.5 -179t-180.5 -75q-104 0 -179 75t-75 179h154q0 -41 29.5 -70.5t70.5 -29.5t71 29.5t30 70.5z" glyph-name="Obreve" unicode="Ŏ"/><glyph d="M543 1001q211 0 346 -147t135 -360t-135 -360.5t-346 -147.5t-346.5 147.5t-135.5 360.5t135.5 360t346.5 147zM543 180q129 0 201.5 90t72.5 224q0 135 -72.5 224t-201.5 89t-202 -90t-73 -223.5t73 -223.5t202 -90zM643 1434h154q0 -104 -74 -179t-180 -75 q-104 0 -179 74.5t-75 179.5h153q0 -41 30 -71t71 -30t70.5 30t29.5 71z" glyph-name="obreve" horiz-adv-x="1085" unicode="ŏ"/><glyph d="M776 1446q299 0 498 -212t199 -517q0 -307 -199 -519t-498 -212t-496.5 212t-197.5 519q0 305 197.5 517t496.5 212zM776 180q219 0 357.5 154.5t138.5 382.5q0 225 -138.5 379.5t-357.5 154.5q-217 0 -355 -153.5t-138 -380.5q0 -225 138 -381t355 -156zM709 1843h194 l-207 -278h-143zM1014 1843h194l-207 -278h-143z" glyph-name="Ohungarumlaut" unicode="Ő"/><glyph d="M543 1001q211 0 346 -147t135 -360t-135 -360.5t-346 -147.5t-346.5 147.5t-135.5 360.5t135.5 360t346.5 147zM543 180q129 0 201.5 90t72.5 224q0 135 -72.5 224t-201.5 89t-202 -90t-73 -223.5t73 -223.5t202 -90zM473 1434h195l-207 -279h-144zM778 1434h195 l-207 -279h-143z" glyph-name="ohungarumlaut" horiz-adv-x="1085" unicode="ő"/><glyph d="M1303 195h755v-195h-952v66q-150 -80 -328 -80q-299 0 -497.5 213t-198.5 518t198.5 517t497.5 212q180 0 328 -82v70h940v-197h-743v-426h679v-188h-679v-428zM285 717q0 -227 138 -382t355 -155q195 0 328 127v817q-135 125 -328 125q-217 0 -355 -153.5t-138 -378.5z " glyph-name="OE" horiz-adv-x="2150" unicode="Œ"/><glyph d="M1735 395h-688q25 -96 92 -155.5t170 -59.5q150 0 225 123l180 -86q-61 -106 -166.5 -168.5t-238.5 -62.5q-248 0 -383 196q-135 -197 -383 -196q-211 0 -346.5 147.5t-135.5 360.5t135.5 360t346.5 147q246 0 383 -196q129 197 377 196q209 0 324.5 -144t115.5 -363 q0 -56 -8 -99zM1303 807q-106 0 -173 -62.5t-88 -164.5h500q-36 227 -239 227zM543 180q129 0 201.5 90t72.5 223.5t-72.5 223.5t-201.5 90t-202 -89t-73 -224q0 -133 73 -223.5t202 -90.5z" glyph-name="oe" horiz-adv-x="1804" unicode="œ"/><glyph d="M956 0l-288 510h-338v-510h-197v1434h539q213 0 340 -132.5t127 -328.5q0 -145 -71 -259t-198 -165l310 -549h-224zM330 1239v-534h342q123 0 194.5 77.5t71.5 190.5q0 111 -71.5 188.5t-194.5 77.5h-342zM657 1843h195l-207 -278h-143z" glyph-name="Racute" horiz-adv-x="1241" unicode="Ŕ"/><glyph d="M541 1004q29 0 77 -9l-36 -202q-35 14 -78 14q-96 0 -156.5 -62.5t-60.5 -193.5v-551h-195v987h195v-92q104 109 254 109zM459 1434h194l-207 -279h-143z" glyph-name="racute" horiz-adv-x="628" unicode="ŕ"/><glyph d="M956 0l-288 510h-338v-510h-197v1434h539q213 0 340 -132.5t127 -328.5q0 -145 -71 -259t-198 -165l310 -549h-224zM330 1239v-534h342q123 0 194.5 77.5t71.5 190.5q0 111 -71.5 188.5t-194.5 77.5h-342zM553 -158h184l-116 -268h-127z" glyph-name="Rcommaaccent" horiz-adv-x="1241" unicode="Ŗ"/><glyph d="M541 1004q29 0 77 -9l-36 -202q-35 14 -78 14q-96 0 -156.5 -62.5t-60.5 -193.5v-551h-195v987h195v-92q104 109 254 109zM94 -158h185l-117 -268h-127z" glyph-name="rcommaaccent" horiz-adv-x="628" unicode="ŗ"/><glyph d="M956 0l-288 510h-338v-510h-197v1434h539q213 0 340 -132.5t127 -328.5q0 -145 -71 -259t-198 -165l310 -549h-224zM330 1239v-534h342q123 0 194.5 77.5t71.5 190.5q0 111 -71.5 188.5t-194.5 77.5h-342zM918 1843l-230 -278h-178l-227 278h204l113 -143l111 143h207z " glyph-name="Rcaron" horiz-adv-x="1241" unicode="Ř"/><glyph d="M543 1004q29 0 78 -9l-37 -202q-35 14 -78 14q-96 0 -156.5 -62.5t-60.5 -193.5v-551h-195v987h195v-92q104 109 254 109zM680 1434l-229 -279h-179l-227 279h205l112 -144l111 144h207z" glyph-name="rcaron" horiz-adv-x="628" unicode="ř"/><glyph d="M649 825q125 -35 205 -66.5t155.5 -80.5t111.5 -119t36 -164q0 -176 -135 -295.5t-373 -119.5q-213 0 -364.5 92t-212.5 233l186 78q41 -86 142.5 -145.5t242.5 -59.5q133 0 220 57.5t87 153.5q0 90 -83 140.5t-287 107.5q-121 35 -199 66.5t-145.5 79.5t-97 116 t-27.5 158q6 176 139 283.5t354 107.5q193 0 323 -89t183 -233l-186 -63q-70 188 -314 188q-145 0 -218 -59t-73 -143q0 -78 74 -125.5t256 -98.5zM678 1843h194l-206 -278h-144z" glyph-name="Sacute" horiz-adv-x="1239" unicode="Ś"/><glyph d="M807 315q12 -143 -90.5 -238t-272.5 -95q-160 0 -267 71.5t-146 179.5l184 66q45 -123 221 -123q92 0 136 36t38 83q-4 35 -54 59.5t-165 46.5q-154 31 -233.5 86.5t-98.5 161.5q-23 131 68.5 241.5t282.5 110.5q88 0 159.5 -27.5t112.5 -69.5t62.5 -76.5t29.5 -63.5 l-184 -64q-16 49 -68.5 80t-111.5 31q-86 0 -121 -33t-35 -71q0 -90 201 -127q176 -33 260 -92.5t92 -172.5zM483 1434h195l-207 -279h-143z" glyph-name="sacute" horiz-adv-x="860" unicode="ś"/><glyph d="M649 825q125 -35 205 -66.5t155.5 -80.5t111.5 -119t36 -164q0 -176 -135 -295.5t-373 -119.5q-213 0 -364.5 92t-212.5 233l186 78q41 -86 142.5 -145.5t242.5 -59.5q133 0 220 57.5t87 153.5q0 90 -83 140.5t-287 107.5q-121 35 -199 66.5t-145.5 79.5t-97 116 t-27.5 158q6 176 139 283.5t354 107.5q193 0 323 -89t183 -233l-186 -63q-70 188 -314 188q-145 0 -218 -59t-73 -143q0 -78 74 -125.5t256 -98.5zM705 1843l229 -278h-207l-111 143l-112 -143h-205l227 278h179z" glyph-name="Scircumflex" horiz-adv-x="1239" unicode="Ŝ"/><glyph d="M807 315q12 -143 -90.5 -238t-272.5 -95q-160 0 -267 71.5t-146 179.5l184 66q45 -123 221 -123q92 0 136 36t38 83q-4 35 -54 59.5t-165 46.5q-154 31 -233.5 86.5t-98.5 161.5q-23 131 68.5 241.5t282.5 110.5q88 0 159.5 -27.5t112.5 -69.5t62.5 -76.5t29.5 -63.5 l-184 -64q-16 49 -68.5 80t-111.5 31q-86 0 -121 -33t-35 -71q0 -90 201 -127q176 -33 260 -92.5t92 -172.5zM510 1434l229 -279h-207l-110 143l-113 -143h-205l228 279h178z" glyph-name="scircumflex" horiz-adv-x="860" unicode="ŝ"/><glyph d="M1157 395q0 -170 -127 -288.5t-352 -126.5l-45 -82q82 8 131 -38t49 -110q0 -45 -25.5 -89t-66.5 -62q-59 -29 -137 -20t-144 54l56 95q53 -39 108 -41t78 26q20 20 13 51t-38 39q-47 10 -84 -22l-98 61l76 144q-176 20 -301 108t-178 211l184 78q43 -86 143.5 -145.5 t243.5 -59.5q133 0 220 57.5t87 153.5q0 90 -84 139.5t-288 108.5q-244 70 -359 158t-108 260q6 176 139 284.5t354 108.5q193 0 323 -89t183 -233l-186 -63q-70 188 -314 188q-147 0 -220 -59t-73 -143q0 -78 75 -125t255 -99q125 -35 206 -66.5t156.5 -80.5t111.5 -119 t36 -164z" glyph-name="Scedilla" horiz-adv-x="1239" unicode="Ş"/><glyph d="M807 315q10 -131 -77 -223t-234 -108l-47 -86q80 8 130 -38t50 -110q0 -45 -27 -89t-67 -62q-57 -29 -135 -20t-146 54l55 95q53 -39 109.5 -41t77.5 26q20 20 13 51t-38 39q-45 10 -82 -22l-98 61l76 144q-129 16 -216.5 84.5t-119.5 162.5l184 66q45 -123 221 -123 q92 0 136 36t38 83q-4 35 -54 59.5t-165 46.5q-154 31 -233.5 86.5t-98.5 161.5q-23 131 68.5 241.5t282.5 110.5q88 0 159.5 -27.5t112.5 -69.5t62.5 -76.5t29.5 -63.5l-184 -64q-16 49 -68.5 80t-111.5 31q-86 0 -121 -33t-35 -71q0 -90 201 -127q174 -33 259 -92.5 t93 -172.5z" glyph-name="scedilla" horiz-adv-x="860" unicode="ş"/><glyph d="M649 825q125 -35 205 -66.5t155.5 -80.5t111.5 -119t36 -164q0 -176 -135 -295.5t-373 -119.5q-213 0 -364.5 92t-212.5 233l186 78q41 -86 142.5 -145.5t242.5 -59.5q133 0 220 57.5t87 153.5q0 90 -83 140.5t-287 107.5q-121 35 -199 66.5t-145.5 79.5t-97 116 t-27.5 158q6 176 139 283.5t354 107.5q193 0 323 -89t183 -233l-186 -63q-70 188 -314 188q-145 0 -218 -59t-73 -143q0 -78 74 -125.5t256 -98.5zM956 1843l-229 -278h-178l-227 278h204l113 -143l111 143h206z" glyph-name="Scaron" horiz-adv-x="1239" unicode="Š"/><glyph d="M807 315q12 -143 -90.5 -238t-272.5 -95q-160 0 -267 71.5t-146 179.5l184 66q45 -123 221 -123q92 0 136 36t38 83q-4 35 -54 59.5t-165 46.5q-154 31 -233.5 86.5t-98.5 161.5q-23 131 68.5 241.5t282.5 110.5q88 0 159.5 -27.5t112.5 -69.5t62.5 -76.5t29.5 -63.5 l-184 -64q-16 49 -68.5 80t-111.5 31q-86 0 -121 -33t-35 -71q0 -90 201 -127q176 -33 260 -92.5t92 -172.5zM741 1434l-229 -279h-178l-228 279h205l113 -144l111 144h206z" glyph-name="scaron" horiz-adv-x="860" unicode="š"/><glyph d="M1100 1434v-195h-422v-1239h-195v1239h-422v195h1039zM477 -158h185l-117 -268h-127z" glyph-name="Tcommaaccent" horiz-adv-x="1161" unicode="Ţ"/><glyph d="M555 219l107 -149q-55 -55 -150.5 -76t-169.5 4q-178 57 -178 319v494h-133v176h133v207l194 53v-260h203v-176h-203v-485q0 -119 62 -142q31 -12 70.5 -1t64.5 36zM281 -158h184l-117 -268h-127z" glyph-name="tcommaaccent" horiz-adv-x="698" unicode="ţ"/><glyph d="M1100 1434v-195h-422v-1239h-195v1239h-422v195h1039zM903 1843l-229 -278h-178l-228 278h205l113 -143l110 143h207z" glyph-name="Tcaron" horiz-adv-x="1161" unicode="Ť"/><glyph d="M555 219l107 -149q-55 -55 -150.5 -76t-169.5 4q-178 57 -178 319v494h-133v176h133v207l194 53v-260h203v-176h-203v-485q0 -119 62 -142q31 -12 70.5 -1t64.5 36zM707 1425h184l-141 -344h-103z" glyph-name="tcaron" horiz-adv-x="747" unicode="ť"/><glyph d="M1100 1237h-422v-363h303v-172h-303v-702h-195v702h-303v172h303v363h-422v197h1039v-197z" glyph-name="Tbar" horiz-adv-x="1161" unicode="Ŧ"/><glyph d="M90 651h74v160h-133v176h133v207l194 53v-260h203v-176h-203v-160h140v-172h-140v-153q0 -119 62 -142q31 -12 70.5 -0.5t64.5 35.5l107 -149q-55 -55 -150.5 -76t-169.5 4q-178 57 -178 319v162h-74v172z" glyph-name="tbar" horiz-adv-x="692" unicode="ŧ"/><glyph d="M1014 1434h194v-856q0 -283 -150.5 -437.5t-392 -154.5t-392 154.5t-150.5 437.5v856h196v-850q0 -209 93.5 -306.5t253 -97.5t254 97.5t94.5 306.5v850zM889 1847l162 -57q-117 -311 -400 -154q-68 37 -106.5 41t-59 -14t-55.5 -72l-154 82q80 152 186.5 179.5 t229.5 -46.5q59 -33 91 -41t60 9.5t46 72.5z" glyph-name="Utilde" horiz-adv-x="1331" unicode="Ũ"/><glyph d="M711 987h196v-987h-196v94q-102 -109 -252 -108q-174 0 -270.5 115.5t-96.5 328.5v557h195v-538q0 -135 57 -202t150 -67q96 0 156.5 63.5t60.5 192.5v551zM725 1438l162 -58q-117 -311 -400 -153q-68 37 -106.5 41t-59 -14.5t-55.5 -71.5l-153 82q80 152 186.5 179 t228.5 -46q59 -33 91 -41t60 9.5t46 72.5z" glyph-name="utilde" horiz-adv-x="1009" unicode="ũ"/><glyph d="M1014 1434h194v-856q0 -283 -150.5 -437.5t-392 -154.5t-392 154.5t-150.5 437.5v856h196v-850q0 -209 93.5 -306.5t253 -97.5t254 97.5t94.5 306.5v850zM399 1788h533v-172h-533v172z" glyph-name="Umacron" horiz-adv-x="1331" unicode="Ū"/><glyph d="M711 987h196v-987h-196v94q-102 -109 -252 -108q-174 0 -270.5 115.5t-96.5 328.5v557h195v-538q0 -135 57 -202t150 -67q96 0 156.5 63.5t60.5 192.5v551zM233 1378h533v-172h-533v172z" glyph-name="umacron" horiz-adv-x="1009" unicode="ū"/><glyph d="M1014 1434h194v-856q0 -283 -150.5 -437.5t-392 -154.5t-392 154.5t-150.5 437.5v856h196v-850q0 -209 93.5 -306.5t253 -97.5t254 97.5t94.5 306.5v850zM766 1843h154q0 -104 -74 -179t-180 -75q-104 0 -179 75t-75 179h153q0 -41 30 -70.5t71 -29.5t70.5 29.5 t29.5 70.5z" glyph-name="Ubreve" horiz-adv-x="1331" unicode="Ŭ"/><glyph d="M711 987h196v-987h-196v94q-102 -109 -252 -108q-174 0 -270.5 115.5t-96.5 328.5v557h195v-538q0 -135 57 -202t150 -67q96 0 156.5 63.5t60.5 192.5v551zM600 1434h154q0 -104 -74 -179t-180 -75q-104 0 -179 74.5t-75 179.5h153q0 -41 30 -71t71 -30t70.5 30t29.5 71z " glyph-name="ubreve" horiz-adv-x="1009" unicode="ŭ"/><glyph d="M1014 1434h194v-856q0 -283 -150.5 -437.5t-392 -154.5t-392 154.5t-150.5 437.5v856h196v-850q0 -209 93.5 -306.5t253 -97.5t254 97.5t94.5 306.5v850zM666 1997q94 0 159.5 -65.5t65.5 -160t-65.5 -160t-159.5 -65.5q-92 0 -159 65.5t-67 160t67 160t159 65.5z M665.5 1683q36.5 0 63.5 26t27 62.5t-27 62.5t-63.5 26t-62 -26t-25.5 -62.5t25.5 -62.5t62 -26z" glyph-name="Uring" horiz-adv-x="1331" unicode="Ů"/><glyph d="M711 987h196v-987h-196v94q-102 -109 -252 -108q-174 0 -270.5 115.5t-96.5 328.5v557h195v-538q0 -135 57 -202t150 -67q96 0 156.5 63.5t60.5 192.5v551zM500 1587q94 0 159.5 -65.5t65.5 -159.5t-65.5 -159.5t-159.5 -65.5q-92 0 -159 65.5t-67 159.5t67 159.5 t159 65.5zM500 1274q37 0 63.5 25.5t26.5 62.5t-26.5 62.5t-63.5 25.5t-62.5 -25.5t-25.5 -62.5t25.5 -62.5t62.5 -25.5z" glyph-name="uring" horiz-adv-x="1009" unicode="ů"/><glyph d="M1014 1434h194v-856q0 -283 -150.5 -437.5t-392 -154.5t-392 154.5t-150.5 437.5v856h196v-850q0 -209 93.5 -306.5t253 -97.5t254 97.5t94.5 306.5v850zM575 1843h195l-207 -278h-143zM881 1843h194l-207 -278h-143z" glyph-name="Uhungarumlaut" horiz-adv-x="1331" unicode="Ű"/><glyph d="M711 987h196v-987h-196v94q-102 -109 -252 -108q-174 0 -270.5 115.5t-96.5 328.5v557h195v-538q0 -135 57 -202t150 -67q96 0 156.5 63.5t60.5 192.5v551zM408 1434h194l-207 -279h-143zM713 1434h194l-207 -279h-143z" glyph-name="uhungarumlaut" horiz-adv-x="1009" unicode="ű"/><glyph d="M1012 1434h196v-850q0 -182 -69.5 -316.5t-188.5 -206.5q-74 -57 -134 -153t-34 -146q16 -31 61.5 -29.5t78.5 29.5v-159q-41 -16 -95 -17q-82 0 -135 49.5t-45 133.5q10 113 141 229q-61 -12 -122 -12q-233 0 -388 158.5t-155 439.5v850h194v-850q0 -205 98.5 -304.5 t250 -99.5t249 99.5t97.5 304.5v850z" glyph-name="Uogonek" horiz-adv-x="1331" unicode="Ų"/><glyph d="M889 0q-76 -35 -136.5 -108.5t-31.5 -129.5q16 -31 61 -29.5t78 29.5v-159q-41 -16 -94 -17q-82 0 -135 49.5t-45 133.5q6 74 58 139t97 92h-30v94q-102 -109 -252 -108q-176 0 -271.5 115.5t-95.5 328.5v557h195v-538q0 -135 57 -202t150 -67q96 0 156.5 63.5 t60.5 192.5v551h196v-987h-18z" glyph-name="uogonek" horiz-adv-x="1009" unicode="ų"/><glyph d="M1841 1434h211l-461 -1434h-202l-342 1116l-342 -1116h-203l-461 1434h211l354 -1123l344 1123h191l344 -1123zM1137 1843l229 -278h-207l-110 143l-113 -143h-205l227 278h179z" glyph-name="Wcircumflex" horiz-adv-x="2093" unicode="Ŵ"/><glyph d="M1251 987h205l-317 -987h-172l-228 670l-229 -670h-170l-320 987h205l209 -643l219 643h170l221 -643zM829 1434l230 -279h-207l-111 143l-112 -143h-205l227 279h178z" glyph-name="wcircumflex" horiz-adv-x="1476" unicode="ŵ"/><glyph d="M1208 1434l-485 -906v-528h-197v528l-485 906h223l361 -680l360 680h223zM715 1843l229 -278h-207l-110 143l-113 -143h-205l228 278h178z" glyph-name="Ycircumflex" horiz-adv-x="1249" unicode="Ŷ"/><glyph d="M926 987l-340 -950q-20 -55 -37 -95t-38.5 -85t-40.5 -78t-44 -67t-50.5 -55.5t-57 -38.5t-65.5 -25.5t-76 -8.5t-89 10l33 195q88 -18 137 27t117 215l-344 956h209l239 -682l238 682h209zM610 1434l230 -279h-207l-111 143l-112 -143h-205l227 279h178z" glyph-name="ycircumflex" horiz-adv-x="956" unicode="ŷ"/><glyph d="M1208 1434l-485 -906v-528h-197v528l-485 906h223l361 -680l360 680h223zM459 1798q41 0 70.5 -30.5t29.5 -71.5t-29.5 -71t-70.5 -30t-71 30t-30 71t30 71.5t71 30.5zM791 1798q41 0 70.5 -30.5t29.5 -71.5t-30 -71t-70 -30q-43 0 -73 30t-30 71t30 71.5t73 30.5z" glyph-name="Ydieresis" horiz-adv-x="1249" unicode="Ÿ"/><glyph d="M313 197h852v-197h-1093v197l835 1042h-774v195h1014v-195zM702 1843h195l-207 -278h-143z" glyph-name="Zacute" horiz-adv-x="1236" unicode="Ź"/><glyph d="M319 197h504v-197h-762v197l488 596h-459v194h715v-194zM526 1434h195l-207 -279h-143z" glyph-name="zacute" horiz-adv-x="884" unicode="ź"/><glyph d="M313 197h852v-197h-1093v197l835 1042h-774v195h1014v-195zM639 1798q41 0 71.5 -30.5t30.5 -71.5t-30.5 -71t-71.5 -30t-70.5 30t-29.5 71t29.5 71.5t70.5 30.5z" glyph-name="Zdotaccent" horiz-adv-x="1236" unicode="Ż"/><glyph d="M319 197h504v-197h-762v197l488 596h-459v194h715v-194zM463 1389q41 0 71.5 -31t30.5 -72t-30.5 -70.5t-71.5 -29.5t-71 29.5t-30 70.5t30 72t71 31z" glyph-name="zdotaccent" horiz-adv-x="884" unicode="ż"/><glyph d="M313 197h852v-197h-1093v197l835 1042h-774v195h1014v-195zM981 1843l-229 -278h-179l-227 278h205l113 -143l110 143h207z" glyph-name="Zcaron" horiz-adv-x="1236" unicode="Ž"/><glyph d="M319 197h504v-197h-762v197l488 596h-459v194h715v-194zM784 1434l-229 -279h-178l-227 279h204l113 -144l111 144h206z" glyph-name="zcaron" horiz-adv-x="884" unicode="ž"/><glyph d="M1178 195h757v-195h-952v395h-514l-207 -395h-221l752 1434h1130v-197h-745v-426h682v-188h-682v-428zM567 584h416v653h-74zM1192 1843h194l-206 -278h-144z" glyph-name="AEacute" horiz-adv-x="2025" unicode="Ǽ"/><glyph d="M1655 395h-688q23 -96 90 -155.5t172 -59.5q150 0 225 123l178 -86q-61 -109 -165.5 -170t-237.5 -61q-137 0 -253 70.5t-161 181.5q-49 -115 -159.5 -181.5t-249.5 -70.5q-166 -6 -259.5 81t-78.5 214q16 135 101 197.5t259 107.5q25 6 72 16t68.5 16.5t49 17.5t41 25.5 t15.5 34.5q10 68 -49.5 104t-130.5 29q-168 -6 -209 -155l-176 37q23 113 124 203t275 90q258 0 336 -195q135 193 379 192q207 0 323.5 -144t116.5 -363q0 -56 -8 -99zM1223 807q-106 0 -173 -62.5t-87 -164.5h499q-36 227 -239 227zM680 422v43q-88 -25 -219 -57 q-80 -20 -125 -55.5t-52.5 -61t-2.5 -51.5q12 -88 151 -78q86 6 167 78.5t81 181.5zM922 1434h194l-207 -279h-143z" glyph-name="aeacute" horiz-adv-x="1724" unicode="ǽ"/><glyph d="M1485 1376l-172 -190q158 -199 157 -471q0 -305 -198.5 -517t-497.5 -212q-240 0 -418 139l-166 -182l-127 114l170 191q-156 201 -155 469q0 305 198.5 517t497.5 212q236 0 418 -139l166 184zM281 717q0 -178 90 -320l688 762q-123 90 -285 90q-217 0 -355 -153.5 t-138 -378.5zM1268 715q0 180 -90 319l-691 -762q129 -92 287 -92q219 0 356.5 155t137.5 380zM862 1843h195l-207 -278h-143z" glyph-name="Oslashacute" unicode="Ǿ"/><glyph d="M1063 930l-119 -131q90 -135 90 -305q0 -213 -135 -360.5t-346 -147.5q-158 0 -270 82l-113 -125l-127 114l119 131q-92 133 -92 306q0 213 135 360t348 147q152 0 270 -79l111 122zM276 494q0 -78 29 -146l383 424q-57 35 -135 35q-129 0 -203 -90t-74 -223zM827 494 q0 76 -26 145l-385 -424q59 -35 137 -35q127 0 200.5 90.5t73.5 223.5zM627 1434h194l-207 -279h-143z" glyph-name="oslashacute" horiz-adv-x="1105" unicode="ǿ"/><glyph d="M649 825q125 -35 205 -66.5t155.5 -80.5t111.5 -119t36 -164q0 -176 -135 -295.5t-373 -119.5q-213 0 -364.5 92t-212.5 233l186 78q41 -86 142.5 -145.5t242.5 -59.5q133 0 220 57.5t87 153.5q0 90 -83 140.5t-287 107.5q-121 35 -199 66.5t-145.5 79.5t-97 116 t-27.5 158q6 176 139 283.5t354 107.5q193 0 323 -89t183 -233l-186 -63q-70 188 -314 188q-145 0 -218 -59t-73 -143q0 -78 74 -125.5t256 -98.5zM502 -158h184l-117 -268h-127z" glyph-name="Scommaaccent" horiz-adv-x="1239" unicode="Ș"/><glyph d="M807 315q12 -143 -90.5 -238t-272.5 -95q-160 0 -267 71.5t-146 179.5l184 66q45 -123 221 -123q92 0 136 36t38 83q-4 35 -54 59.5t-165 46.5q-154 31 -233.5 86.5t-98.5 161.5q-23 131 68.5 241.5t282.5 110.5q88 0 159.5 -27.5t112.5 -69.5t62.5 -76.5t29.5 -63.5 l-184 -64q-16 49 -68.5 80t-111.5 31q-86 0 -121 -33t-35 -71q0 -90 201 -127q176 -33 260 -92.5t92 -172.5zM315 -158h185l-117 -268h-127z" glyph-name="scommaaccent" horiz-adv-x="860" unicode="ș"/><glyph d="M1100 1434v-195h-422v-1239h-195v1239h-422v195h1039zM477 -158h185l-117 -268h-127z" glyph-name="uni021A" horiz-adv-x="1161" unicode="Ț"/><glyph d="M555 219l107 -149q-55 -55 -150.5 -76t-169.5 4q-178 57 -178 319v494h-133v176h133v207l194 53v-260h203v-176h-203v-485q0 -119 62 -142q31 -12 70.5 -1t64.5 36zM281 -158h184l-117 -268h-127z" glyph-name="uni021B" horiz-adv-x="698" unicode="ț"/><glyph d="M489 1434l230 -279h-207l-111 143l-112 -143h-205l227 279h178z" glyph-name="circumflex" horiz-adv-x="798" unicode="ˆ"/><glyph d="M721 1434l-229 -279h-179l-227 279h205l112 -144l111 144h207z" glyph-name="caron" horiz-adv-x="798" unicode="ˇ"/><glyph d="M436 1434h154q0 -104 -74 -179t-180 -75q-104 0 -179 74.5t-75 179.5h154q0 -41 29.5 -71t70.5 -30t70.5 30t29.5 71z" glyph-name="breve" horiz-adv-x="671" unicode="˘"/><glyph d="M182 1389q41 0 72 -31t31 -72t-31 -70.5t-72 -29.5t-70.5 29.5t-29.5 70.5t29.5 72t70.5 31z" glyph-name="dotaccent" horiz-adv-x="366" unicode="˙"/><glyph d="M307 1587q94 0 159.5 -65.5t65.5 -159.5t-65.5 -159.5t-159.5 -65.5q-92 0 -158.5 65.5t-66.5 159.5t66.5 159.5t158.5 65.5zM307 1274q37 0 63.5 25.5t26.5 62.5t-26.5 62.5t-63.5 25.5t-62.5 -25.5t-25.5 -62.5t25.5 -62.5t62.5 -25.5z" glyph-name="ring" horiz-adv-x="614" unicode="˚"/><glyph d="M217 -238q16 -29 62.5 -27.5t78.5 27.5v-157q-47 -18 -94 -19q-82 0 -135 49.5t-45 133.5q6 74 57.5 139t98.5 94h149q-76 -35 -137.5 -109t-34.5 -131z" glyph-name="ogonek" horiz-adv-x="471" unicode="˛"/><glyph d="M694 1438l162 -58q-117 -311 -399 -153q-68 37 -107 41t-59.5 -14.5t-54.5 -71.5l-154 82q80 152 186.5 179t229.5 -46q59 -33 91 -41t59.5 9.5t45.5 72.5z" glyph-name="tilde" horiz-adv-x="937" unicode="˜"/><glyph d="M250 1434h194l-206 -279h-144zM555 1434h195l-207 -279h-144z" glyph-name="hungarumlaut" horiz-adv-x="843" unicode="˝"/><glyph d="M391 1628q-47 0 -81 34t-34 81t34 79.5t81 32.5t80 -32.5t33 -79.5t-33 -81t-80 -34zM795 1628q-47 0 -80 34t-33 81t34 79.5t79 32.5q47 0 80.5 -32.5t33.5 -79.5t-33.5 -81t-80.5 -34zM328 197h755v-197h-950v1434h940v-195h-745v-426h682v-190h-682v-426z" glyph-name="afii10023" horiz-adv-x="1175" unicode="Ё"/><glyph d="M973 942q176 0 271 -116.5t95 -329.5v-172q0 -270 -180 -326q-133 -43 -262 39l70 158q70 -29 116 -11q59 23 60 135v158q0 137 -56.5 202.5t-148.5 65.5q-141 0 -260 -94v-651h-197v1239h-420v195h1039v-195h-422v-403q154 106 295 106z" glyph-name="afii10051" horiz-adv-x="1431" unicode="Ђ"/><glyph d="M907 1434v-195h-577v-1239h-197v1434h774zM608 1843h195l-207 -278h-143z" glyph-name="afii10052" horiz-adv-x="968" unicode="Ѓ"/><glyph d="M780 180q270 0 412 230l178 -91q-92 -154 -245.5 -243.5t-344.5 -89.5q-301 0 -499.5 212t-198.5 517q0 307 198.5 519t499.5 212q190 0 344 -90t246 -244l-178 -90q-68 106 -173.5 167.5t-238.5 61.5q-195 0 -326.5 -122.5t-162.5 -315.5h661v-195h-661 q31 -193 162.5 -315.5t326.5 -122.5z" glyph-name="afii10053" horiz-adv-x="1441" unicode="Є"/><glyph d="M649 825q125 -35 205 -66.5t155.5 -80.5t111.5 -119t36 -164q0 -176 -135 -295.5t-373 -119.5q-213 0 -364.5 92t-212.5 233l186 78q41 -86 142.5 -145.5t242.5 -59.5q133 0 220 57.5t87 153.5q0 90 -83 140.5t-287 107.5q-121 35 -199 66.5t-145.5 79.5t-97 116 t-27.5 158q6 176 139 283.5t354 107.5q193 0 323 -89t183 -233l-186 -63q-70 188 -314 188q-145 0 -218 -59t-73 -143q0 -78 74 -125.5t256 -98.5z" glyph-name="afii10054" horiz-adv-x="1239" unicode="Ѕ"/><glyph d="M133 1434h195v-1434h-195v1434z" glyph-name="afii10055" horiz-adv-x="460" unicode="І"/><glyph d="M168 1434h194v-1434h-194v1434zM100 1798q41 0 71 -30.5t30 -71.5t-30 -71t-71 -30t-70.5 30t-29.5 71t29.5 71.5t70.5 30.5zM432 1798q41 0 70.5 -30.5t29.5 -71.5t-29.5 -71t-70.5 -30q-43 0 -72.5 30t-29.5 71t29.5 71.5t72.5 30.5z" glyph-name="afii10056" horiz-adv-x="532" unicode="Ї"/><glyph d="M532 1434h195v-1024q0 -209 -93 -316.5t-269 -107.5q-104 0 -196.5 42t-137.5 103l135 131q82 -82 188 -82q84 0 131 56.5t47 162.5v1035z" glyph-name="afii10057" horiz-adv-x="860" unicode="Ј"/><glyph d="M1577 889q211 0 339 -125t128 -320q0 -197 -126 -320.5t-341 -123.5h-561v1239h-441q0 -455 -54 -753t-202 -420q-113 -98 -288 -72l35 192q84 -12 129 29q66 53 106.5 188.5t56 345t19.5 342t4 343.5h829v-545h367zM1577 195q125 0 195.5 69.5t70.5 180t-70.5 180 t-195.5 69.5h-367v-499h367z" glyph-name="afii10058" horiz-adv-x="2115" unicode="Љ"/><glyph d="M1591 815q219 0 344 -105.5t125 -293.5q0 -193 -125 -304.5t-344 -111.5h-555v623h-708v-623h-195v1434h195v-623h708v623h197v-619h358zM1591 195q129 0 198 57t69 164q0 203 -267 202h-358v-423h358z" glyph-name="afii10059" horiz-adv-x="2131" unicode="Њ"/><glyph d="M979 942q176 0 271.5 -116.5t95.5 -329.5v-498h-197v479q0 137 -56.5 202.5t-148.5 65.5q-141 0 -266 -98v-647h-197v1239h-420v195h1039v-195h-422v-410q154 113 301 113z" glyph-name="afii10060" horiz-adv-x="1437" unicode="Ћ"/><glyph d="M979 0l-469 662l-180 -209v-453h-197v1434h197v-680l592 680h256l-537 -621l580 -813h-242zM705 1843h194l-207 -278h-143z" glyph-name="afii10061" horiz-adv-x="1251" unicode="Ќ"/><glyph d="M934 1434h213q-393 -961 -445 -1082q-90 -207 -209.5 -300t-302.5 -48l48 191q104 -23 160.5 29t125.5 214l-483 996h219l365 -762zM725 1843h154q0 -104 -74 -179t-180 -75q-104 0 -179 75t-75 179h153q0 -41 30 -70.5t71 -29.5t70.5 29.5t29.5 70.5z" glyph-name="afii10062" horiz-adv-x="1177" unicode="Ў"/><glyph d="M971 1434h196v-1434h-419v-260h-197v260h-418v1434h195v-1239h643v1239z" glyph-name="afii10145" horiz-adv-x="1300" unicode="Џ"/><glyph d="M1047 0l-140 395h-512l-141 -395h-213l514 1434h190l517 -1434h-215zM463 586h375l-187 555z" glyph-name="afii10017" horiz-adv-x="1302" unicode="А"/><glyph d="M674 866q211 0 333.5 -118.5t122.5 -313t-125.5 -314.5t-330.5 -120h-541v1434h856v-195h-659v-373h344zM674 195q123 0 189.5 64.5t66.5 174.5q0 109 -66.5 173.5t-189.5 64.5h-344v-477h344z" glyph-name="afii10018" horiz-adv-x="1202" unicode="Б"/><glyph d="M915 780q225 -98 226 -346q0 -193 -129 -313.5t-334 -120.5h-545v1434h537q182 0 284.5 -112t102.5 -275q-1 -158 -142 -267zM854 1046.5q0 83.5 -47 138t-137 54.5h-342v-389h311q102 0 158.5 56.5t56.5 140zM678 197q123 0 192.5 64.5t69.5 172.5q0 106 -68.5 169 t-193.5 63h-350v-469h350z" glyph-name="afii10019" horiz-adv-x="1212" unicode="В"/><glyph d="M907 1434v-195h-577v-1239h-197v1434h774z" glyph-name="afii10020" horiz-adv-x="968" unicode="Г"/><glyph d="M1217 195h145v-455h-195v260h-919v-260h-197v455h125q227 252 227 1179v60h814v-1239zM412 195h610v1044h-424q-12 -722 -186 -1044z" glyph-name="afii10021" horiz-adv-x="1423" unicode="Д"/><glyph d="M328 197h755v-197h-950v1434h940v-195h-745v-426h682v-190h-682v-426z" glyph-name="afii10022" horiz-adv-x="1175" unicode="Е"/><glyph d="M1714 0l-467 655l-155 -202v-453h-197v453l-156 202l-467 -655h-241l575 809l-540 625h258l571 -682v682h197v-682l571 682h256l-539 -625l576 -809h-242z" glyph-name="afii10024" horiz-adv-x="1986" unicode="Ж"/><glyph d="M870 758q111 -35 176.5 -126t65.5 -214q0 -195 -142.5 -313.5t-379.5 -118.5q-182 0 -324.5 77.5t-204.5 172.5l156 102q45 -63 142.5 -113.5t224.5 -50.5q154 0 241.5 70.5t87.5 177.5q0 225 -323 225h-201v184h176q135 0 204 59.5t73 151.5q4 90 -68 149.5t-194 59.5 q-233 0 -338 -180l-160 70q74 150 207 227.5t291 77.5q197 0 325.5 -109.5t128.5 -275.5q0 -98 -46 -180t-118 -123z" glyph-name="afii10025" horiz-adv-x="1183" unicode="З"/><glyph d="M1030 1434h191v-1434h-197v1081l-700 -1081h-191v1434h197v-1082z" glyph-name="afii10026" horiz-adv-x="1353" unicode="И"/><glyph d="M688 1550q-119 0 -195.5 77t-76.5 196h153q0 -51 33 -85t86 -34t87 34t34 85h154q0 -121 -77 -197t-198 -76zM1030 1434h191v-1434h-197v1081l-700 -1081h-191v1434h197v-1082z" glyph-name="afii10027" horiz-adv-x="1353" unicode="Й"/><glyph d="M979 0l-469 662l-180 -209v-453h-197v1434h197v-680l592 680h256l-537 -621l580 -813h-242z" glyph-name="afii10028" horiz-adv-x="1251" unicode="К"/><glyph d="M381 1434h829v-1434h-194v1239h-441q0 -453 -54 -752t-199 -424q-119 -98 -291 -69l35 192q84 -12 129 29q66 53 106.5 188.5t56 345t19.5 342t4 343.5z" glyph-name="afii10029" horiz-adv-x="1343" unicode="Л"/><glyph d="M1350 1434h188v-1434h-195v1059l-444 -721h-127l-444 721v-1059h-195v1434h189l514 -842z" glyph-name="afii10030" horiz-adv-x="1671" unicode="М"/><glyph d="M1036 1434h197v-1434h-197v623h-708v-623h-195v1434h195v-621h708v621z" glyph-name="afii10031" horiz-adv-x="1366" unicode="Н"/><glyph d="M776 1446q299 0 498 -212t199 -517q0 -307 -199 -519t-498 -212t-496.5 212t-197.5 519q0 305 197.5 517t496.5 212zM776 180q219 0 357.5 154.5t138.5 382.5q0 225 -138.5 379.5t-357.5 154.5q-217 0 -355 -153.5t-138 -380.5q0 -225 138 -381t355 -156z" glyph-name="afii10032" unicode="О"/><glyph d="M133 1434h1069v-1434h-194v1239h-680v-1239h-195v1434z" glyph-name="afii10033" horiz-adv-x="1335" unicode="П"/><glyph d="M670 1434q213 0 341 -132.5t128 -329t-129 -329.5t-340 -133h-342v-510h-195v1434h537zM670 705q123 0 194.5 77.5t71.5 190.5q0 111 -70.5 188.5t-195.5 77.5h-342v-534h342z" glyph-name="afii10034" horiz-adv-x="1210" unicode="Р"/><glyph d="M778 182q133 0 239.5 60.5t172.5 167.5l178 -88q-90 -156 -244.5 -246t-345.5 -90q-301 0 -498.5 212t-197.5 519t197.5 518t498.5 211q190 0 344 -90t246 -244l-178 -90q-66 106 -172.5 167.5t-239.5 61.5q-219 0 -357 -154.5t-138 -379.5q0 -227 138 -381t357 -154z " glyph-name="afii10035" horiz-adv-x="1439" unicode="С"/><glyph d="M1100 1434v-195h-422v-1239h-195v1239h-422v195h1039z" glyph-name="afii10036" horiz-adv-x="1161" unicode="Т"/><glyph d="M934 1434h213q-393 -961 -445 -1082q-90 -207 -209.5 -300t-302.5 -48l48 191q104 -23 160.5 29t125.5 214l-483 996h219l365 -762z" glyph-name="afii10037" horiz-adv-x="1177" unicode="У"/><glyph d="M1591 714.5q0 -268.5 -182 -423t-475 -176.5v-174h-195v174q-293 23 -475 177t-182 422.5t182 424t475 180.5v174h195v-174q291 -25 474 -180.5t183 -424zM283 714.5q0 -188.5 123.5 -287.5t332.5 -118v813q-211 -18 -333.5 -118.5t-122.5 -289zM934 309 q209 18 333 117.5t124 288t-123 289t-334 118.5v-813z" glyph-name="afii10038" horiz-adv-x="1673" unicode="Ф"/><glyph d="M1251 0h-239l-365 584l-364 -584h-242l477 748l-436 686h240l325 -525l326 525h239l-436 -689z" glyph-name="afii10039" horiz-adv-x="1292" unicode="Х"/><glyph d="M1167 195h176v-455h-194v260h-1016v1434h195v-1239h643v1239h196v-1239z" glyph-name="afii10040" horiz-adv-x="1404" unicode="Ц"/><glyph d="M930 1434h194v-1434h-194v578q-72 -45 -185.5 -69t-197.5 -17q-197 12 -321 136t-124 388v418h197v-406q0 -340 252 -360q207 -14 379 94v672z" glyph-name="afii10041" horiz-adv-x="1257" unicode="Ч"/><glyph d="M1651 1434h194v-1434h-1712v1434h197v-1239h563v1239h194v-1239h564v1239z" glyph-name="afii10042" horiz-adv-x="1978" unicode="Ш"/><glyph d="M1845 195h176v-455h-194v260h-1694v1434h195v-1239h563v1239h196v-1239h562v1239h196v-1239z" glyph-name="afii10043" horiz-adv-x="2082" unicode="Щ"/><glyph d="M854 924q211 0 340 -132.5t129 -328.5q0 -199 -128 -331t-341 -132h-543v1239h-260v195h457v-510h346zM854 195q125 0 195.5 77.5t70.5 190.5q0 111 -71.5 188.5t-194.5 77.5h-346v-534h346z" glyph-name="afii10044" horiz-adv-x="1394" unicode="Ъ"/><glyph d="M1296 1434h197v-1434h-197v1434zM676 924q211 0 339 -132.5t128 -328.5q0 -199 -127 -331t-340 -132h-543v1434h195v-510h348zM676 195q125 0 195.5 77.5t70.5 190.5q0 111 -71.5 188.5t-194.5 77.5h-348v-534h348z" glyph-name="afii10045" horiz-adv-x="1626" unicode="Ы"/><glyph d="M678 924q211 0 339 -132.5t128 -328.5q0 -199 -127 -331t-340 -132h-545v1434h197v-510h348zM678 195q123 0 194.5 77.5t71.5 190.5q0 111 -71.5 188.5t-194.5 77.5h-348v-534h348z" glyph-name="afii10046" horiz-adv-x="1216" unicode="Ь"/><glyph d="M651 1444q301 0 499 -211t198 -518t-198 -518t-499 -211q-188 0 -342.5 90t-247.5 243l181 91q63 -106 169.5 -168t239.5 -62q195 0 327 123t161 315h-660v197h660q-31 190 -163 311t-325 121q-133 0 -238.5 -60.5t-170.5 -166.5l-181 88q92 156 246 246t344 90z" glyph-name="afii10047" horiz-adv-x="1429" unicode="Э"/><glyph d="M1284 1446q299 0 497.5 -212t198.5 -519q0 -305 -198.5 -517t-497.5 -212q-276 0 -467.5 181t-222.5 456h-264v-623h-197v1434h197v-623h264q31 272 223.5 453.5t466.5 181.5zM1284 180q217 0 355.5 154.5t138.5 380.5q0 227 -138.5 381.5t-355.5 154.5 q-219 0 -356 -153.5t-137 -381t137 -382t356 -154.5z" glyph-name="afii10048" horiz-adv-x="2062" unicode="Ю"/><glyph d="M571 1434h537v-1434h-195v510h-338l-288 -510h-226l312 547q-127 53 -198 166.5t-71 257.5q0 199 127 331t340 132zM571 705h342v534h-342q-125 0 -195.5 -78t-70.5 -190q0 -111 71.5 -188.5t194.5 -77.5z" glyph-name="afii10049" horiz-adv-x="1241" unicode="Я"/><glyph d="M494 1004q166 0 265 -88.5t99 -274.5v-641h-192v117q-98 -115 -275 -131q-166 -14 -259 76t-79 219q16 135 101.5 197.5t259.5 107.5q25 6 71.5 16t68 16.5t49.5 17.5t41 25.5t15 34.5q10 68 -49 104t-131 29q-168 -6 -209 -155l-176 37q23 113 124.5 203t275.5 90z M666 422v43q-88 -25 -220 -57q-80 -20 -125 -55.5t-52 -61t-3 -51.5q12 -88 152 -78q86 6 167 78.5t81 181.5z" glyph-name="afii10065" horiz-adv-x="950" unicode="а"/><glyph d="M545 973q211 0 326.5 -135.5t115.5 -350.5t-127 -358t-336 -143q-201 0 -326.5 139t-134.5 377q-23 705 383 919q72 39 200 82t183 92l134 -137q-74 -78 -240 -135t-197 -74q-223 -119 -276 -399q133 123 295 123zM522 180q127 0 191.5 86t64.5 221.5t-64.5 218 t-191.5 82.5q-129 0 -193.5 -82.5t-64.5 -218t65.5 -221.5t192.5 -86z" glyph-name="afii10066" horiz-adv-x="1048" unicode="б"/><glyph d="M748 537q66 -35 108.5 -95.5t42.5 -134.5q0 -129 -84 -218t-229 -89h-494v987h436q154 0 234 -76.5t80 -195.5q0 -102 -94 -178zM528 791h-239v-189h239q53 0 86 28.5t33 71.5q0 89 -119 89zM586 195q53 0 84.5 35.5t31.5 82.5q0 49 -29.5 84t-86.5 35h-297v-237h297z " glyph-name="afii10067" horiz-adv-x="960" unicode="в"/><glyph d="M721 987v-196h-432v-791h-197v987h629z" glyph-name="afii10068" horiz-adv-x="782" unicode="г"/><glyph d="M934 195h145v-431h-194v236h-660v-236h-194v431h112q84 135 115 323.5t31 468.5h645v-792zM365 195h374v596h-258q-16 -371 -116 -596z" glyph-name="afii10069" horiz-adv-x="1130" unicode="д"/><glyph d="M969 395h-688q23 -96 90 -155.5t172 -59.5q150 0 225 123l178 -86q-61 -109 -165.5 -170t-237.5 -61q-211 0 -346.5 147.5t-135.5 360.5t132.5 360t343.5 147q207 0 323.5 -144t116.5 -363q0 -56 -8 -99zM537 807q-106 0 -173 -62.5t-88 -164.5h500q-36 227 -239 227z " glyph-name="afii10070" horiz-adv-x="1038" unicode="е"/><glyph d="M1249 0l-303 420l-88 -107v-313h-196v313l-89 107l-301 -420h-241l407 565l-391 422h268l347 -385v385h196v-385l348 385h267l-392 -422l408 -565h-240z" glyph-name="afii10072" horiz-adv-x="1519" unicode="ж"/><glyph d="M614 508q80 -14 138.5 -75.5t58.5 -156.5q0 -123 -104.5 -208.5t-290.5 -85.5q-127 0 -233.5 56t-151.5 126l139 115q33 -45 102.5 -79t147.5 -36q98 -2 145 39t47 92q0 53 -48 92t-158 39h-111v145h108q88 0 128 38t40 89q0 121 -159 121q-117 0 -219 -86l-121 119 q55 61 146 105t200 44q150 0 250 -74.5t100 -197.5q0 -153 -154 -221z" glyph-name="afii10073" horiz-adv-x="872" unicode="з"/><glyph d="M725 987h184v-987h-196v643l-439 -643h-182v987h195v-643z" glyph-name="afii10074" horiz-adv-x="1011" unicode="и"/><glyph d="M512 1090q-119 0 -195.5 75.5t-76.5 196.5h153q0 -51 33 -85t86 -34t86 34t33 85h155q0 -119 -76.5 -195.5t-197.5 -76.5zM725 987h184v-987h-196v643l-439 -643h-182v987h195v-643z" glyph-name="afii10075" horiz-adv-x="1011" unicode="й"/><glyph d="M688 0l-303 420l-98 -107v-313h-195v987h195v-385l358 385h266l-391 -422l410 -565h-242z" glyph-name="afii10076" horiz-adv-x="960" unicode="к"/><glyph d="M266 987h647v-987h-196v791h-246q-8 -324 -42 -497t-130 -253q-86 -68 -268 -53l41 190q61 -12 92 15q25 20 44 59t29.5 98.5t17.5 110.5t9 135t3 132t0 139t-1 120z" glyph-name="afii10077" horiz-adv-x="1015" unicode="л"/><glyph d="M971 987h172v-987h-195v643l-274 -418h-111l-274 418v-643h-197v987h172l354 -526z" glyph-name="afii10078" horiz-adv-x="1245" unicode="м"/><glyph d="M711 987h194v-987h-194v401h-422v-401h-197v987h197v-401h422v401z" glyph-name="afii10079" horiz-adv-x="1007" unicode="н"/><glyph d="M543 1001q211 0 346 -147t135 -360t-135 -360.5t-346 -147.5t-346.5 147.5t-135.5 360.5t135.5 360t346.5 147zM543 180q129 0 201.5 90t72.5 224q0 135 -72.5 224t-201.5 89t-202 -90t-73 -223.5t73 -223.5t202 -90z" glyph-name="afii10080" horiz-adv-x="1085" unicode="о"/><glyph d="M92 987h801v-987h-197v791h-409v-791h-195v987z" glyph-name="afii10081" horiz-adv-x="995" unicode="п"/><glyph d="M590 1001q209 0 334 -146t125 -361t-125 -361.5t-334 -146.5q-186 0 -301 120v-552h-197v1433h197v-106q115 120 301 120zM567 180q129 0 199 89t70 225q0 133 -71 223t-198 90q-129 0 -199.5 -89t-70.5 -224.5t70.5 -224.5t199.5 -89z" glyph-name="afii10082" horiz-adv-x="1110" unicode="р"/><glyph d="M543 180q150 0 225 123l180 -86q-61 -106 -166.5 -168.5t-238.5 -62.5q-211 0 -346.5 147.5t-135.5 360.5t135.5 360t346.5 147q133 0 238.5 -62t166.5 -169l-180 -86q-76 123 -225 123q-129 0 -202 -90t-73 -223.5t73 -223.5t202 -90z" glyph-name="afii10083" horiz-adv-x="989" unicode="с"/><glyph d="M836 987v-196h-295v-791h-195v791h-295v196h785z" glyph-name="afii10084" horiz-adv-x="886" unicode="т"/><glyph d="M926 987l-340 -950q-20 -55 -37 -95t-38.5 -85t-40.5 -78t-44 -67t-50.5 -55.5t-57 -38.5t-65.5 -25.5t-76 -8.5t-89 10l33 195q88 -18 137 27t117 215l-344 956h209l239 -682l238 682h209z" glyph-name="afii10085" horiz-adv-x="956" unicode="у"/><glyph d="M1274 493.5q0 -221.5 -140.5 -350.5t-367.5 -153v-436h-195v436q-229 25 -369.5 153.5t-140.5 350t140.5 350.5t369.5 153v437h195v-437q227 -25 367.5 -153.5t140.5 -350zM264 493.5q0 -274.5 307 -307.5v615q-307 -33 -307 -307.5zM766 186q307 35 307 308 q0 274 -307 307v-615z" glyph-name="afii10086" horiz-adv-x="1335" unicode="ф"/><glyph d="M950 0h-239l-222 356l-219 -356h-239l325 514l-299 473h240l192 -315l195 315h240l-301 -473z" glyph-name="afii10087" horiz-adv-x="980" unicode="х"/><glyph d="M879 195h145v-428h-195v233h-737v987h195v-792h397v792h195v-792z" glyph-name="afii10088" horiz-adv-x="1075" unicode="ц"/><glyph d="M641 987h195v-987h-195v358q-139 -61 -295 -45q-160 14 -222.5 112.5t-62.5 291.5v270h195v-270q0 -94 21.5 -146.5t91.5 -70.5q100 -14 165.5 -1t106.5 38v450z" glyph-name="afii10089" horiz-adv-x="937" unicode="ч"/><glyph d="M1165 987h195v-987h-1268v987h195v-792h342v792h194v-792h342v792z" glyph-name="afii10090" horiz-adv-x="1462" unicode="ш"/><glyph d="M1360 195h145v-428h-194v233h-1219v987h195v-792h342v792h194v-792h342v792h195v-792z" glyph-name="afii10091" horiz-adv-x="1556" unicode="щ"/><glyph d="M715 639q160 0 255 -89t95 -231q0 -137 -98.5 -228t-245.5 -91h-428v791h-242v196h438v-348h226zM721 195q61 0 101 34.5t40 89.5q0 57 -39 91t-108 34h-226v-249h232z" glyph-name="afii10092" horiz-adv-x="1126" unicode="ъ"/><glyph d="M993 987h195v-987h-195v987zM514 639q158 0 253 -90t95 -230q0 -137 -98 -228t-246 -91h-426v987h195v-348h227zM518 195q61 0 102.5 34.5t41.5 89.5q0 57 -40 91t-108 34h-227v-249h231z" glyph-name="afii10093" horiz-adv-x="1290" unicode="ы"/><glyph d="M514 639q160 0 255 -89t95 -231q0 -137 -98 -228t-246 -91h-428v987h197v-348h225zM520 195q61 0 101.5 34.5t40.5 89.5q0 57 -39 91t-109 34h-225v-249h231z" glyph-name="afii10094" horiz-adv-x="925" unicode="ь"/><glyph d="M457 1001q211 0 343 -147t132 -360t-132 -360.5t-343 -147.5q-133 0 -238.5 62.5t-167.5 168.5l180 86q76 -123 226 -123q104 0 172.5 60.5t91.5 160.5h-393v185h393q-23 100 -91.5 160.5t-172.5 60.5q-150 0 -226 -123l-180 86q61 106 167 168.5t239 62.5z" glyph-name="afii10095" horiz-adv-x="993" unicode="э"/><glyph d="M911 1001q211 0 346.5 -147t135.5 -360t-135.5 -360.5t-346.5 -147.5q-186 0 -315 117.5t-160 297.5h-147v-401h-197v987h197v-401h147q31 182 159 298.5t316 116.5zM911 180q129 0 202 90t73 223.5t-73 223.5t-202 90t-201.5 -89t-72.5 -224q0 -133 72.5 -223.5 t201.5 -90.5z" glyph-name="afii10096" horiz-adv-x="1454" unicode="ю"/><glyph d="M393 987h428v-987h-196v348h-172l-197 -348h-225l213 375q-92 37 -143.5 113.5t-51.5 179.5q0 137 98.5 228t245.5 91zM399 543h226v248h-232q-61 0 -102 -34t-41 -89q0 -57 39.5 -91t109.5 -34z" glyph-name="afii10097" horiz-adv-x="923" unicode="я"/><glyph d="M338 1143q-41 0 -70.5 29.5t-29.5 72.5q0 41 29.5 71t70.5 30q43 0 72.5 -30t29.5 -71q0 -43 -29.5 -72.5t-72.5 -29.5zM713 1143q-41 0 -72 29.5t-31 72.5q0 41 31 71t72 30t70.5 -30t29.5 -71q0 -43 -29.5 -72.5t-70.5 -29.5zM969 395h-688q23 -96 90 -155.5t172 -59.5 q150 0 225 123l178 -86q-61 -109 -165.5 -170t-237.5 -61q-211 0 -346.5 147.5t-135.5 360.5t132.5 360t343.5 147q207 0 323.5 -144t116.5 -363q0 -56 -8 -99zM537 807q-106 0 -173 -62.5t-88 -164.5h500q-36 227 -239 227z" glyph-name="afii10071" horiz-adv-x="1038" unicode="ё"/><glyph d="M977 557v-614q0 -270 -180 -326q-131 -45 -262 39l69 158q70 -29 117 -11q59 23 59 136v600q0 137 -56 202.5t-149 65.5q-98 0 -158.5 -62.5t-60.5 -193.5v-551h-194v1100h-152v170h152v164h194v-164h219v-170h-219v-207q102 109 254 108q176 0 271.5 -115.5t95.5 -328.5 z" glyph-name="afii10099" horiz-adv-x="1069" unicode="ђ"/><glyph d="M721 987v-196h-432v-791h-197v987h629zM489 1434h195l-207 -279h-143z" glyph-name="afii10100" horiz-adv-x="782" unicode="ѓ"/><glyph d="M545 180q150 0 225 123l178 -86q-61 -109 -165.5 -170t-237.5 -61q-213 0 -348.5 147.5t-135.5 360.5t135.5 360t348.5 147q133 0 237.5 -61t165.5 -170l-178 -86q-76 123 -225 123q-106 0 -175 -60.5t-91 -160.5h393v-185h-393q23 -100 91.5 -160.5t174.5 -60.5z" glyph-name="afii10101" horiz-adv-x="978" unicode="є"/><glyph d="M807 315q12 -143 -90.5 -238t-272.5 -95q-160 0 -267 71.5t-146 179.5l184 66q45 -123 221 -123q92 0 136 36t38 83q-4 35 -54 59.5t-165 46.5q-154 31 -233.5 86.5t-98.5 161.5q-23 131 68.5 241.5t282.5 110.5q88 0 159.5 -27.5t112.5 -69.5t62.5 -76.5t29.5 -63.5 l-184 -64q-16 49 -68.5 80t-111.5 31q-86 0 -121 -33t-35 -71q0 -90 201 -127q176 -33 260 -92.5t92 -172.5z" glyph-name="afii10102" horiz-adv-x="860" unicode="ѕ"/><glyph d="M109 0v987h194v-987h-194zM207 1139q-47 0 -81 33.5t-34 80.5t34 80t81 33t79.5 -34t32.5 -79q0 -47 -32.5 -80.5t-79.5 -33.5z" glyph-name="afii10103" horiz-adv-x="421" unicode="і"/><glyph d="M178 0v987h195v-987h-195zM111 1389q41 0 70.5 -31t29.5 -72t-29.5 -70.5t-70.5 -29.5t-71 29.5t-30 70.5t30 72t71 31zM442 1389q41 0 71 -31t30 -72t-30 -70.5t-71 -29.5q-43 0 -72.5 29.5t-29.5 70.5t29.5 72t72.5 31z" glyph-name="afii10104" horiz-adv-x="512" unicode="ї"/><glyph d="M133 987h197v-1110q0 -268 -180 -326q-135 -43 -263 41l70 156q68 -29 117 -10q59 25 59 135v1114zM242 1139q-47 0 -80 33.5t-33 80.5q0 45 34 79t79 34q47 0 80.5 -33t33.5 -80t-33.5 -80.5t-80.5 -33.5z" glyph-name="afii10105" horiz-adv-x="448" unicode="ј"/><glyph d="M1153 639q158 0 253 -90t95 -230q0 -137 -97 -228t-245 -91h-440v793h-256q-8 -324 -42 -498t-132 -254q-82 -68 -258 -53l41 190q63 -12 94 15q25 20 44 59t29.5 98.5t17.5 110.5t9 135t3 132t0 139t-1 120h645v-348h240zM1159 195q61 0 101 34.5t40 89.5q0 57 -38.5 91 t-108.5 34h-240v-249h246z" glyph-name="afii10106" horiz-adv-x="1552" unicode="љ"/><glyph d="M1124 586q164 0 257.5 -74t93.5 -209q0 -137 -97.5 -220t-247.5 -83h-428v401h-413v-401h-197v987h197v-401h413v401h197v-401h225zM1130 190q63 0 103.5 29t40.5 84q0 98 -150 98h-225v-211h231z" glyph-name="afii10107" horiz-adv-x="1525" unicode="њ"/><glyph d="M612 1001q176 0 271.5 -115.5t95.5 -328.5v-557h-197v539q0 137 -56 202.5t-148 65.5q-98 0 -159 -62.5t-61 -193.5v-551h-194v1100h-154v170h154v164h194v-164h217v-170h-217v-207q102 108 254 108z" glyph-name="afii10108" horiz-adv-x="1071" unicode="ћ"/><glyph d="M688 0l-303 420l-98 -107v-313h-195v987h195v-385l358 385h266l-391 -422l410 -565h-242zM578 1434h194l-207 -279h-143z" glyph-name="afii10109" horiz-adv-x="960" unicode="ќ"/><glyph d="M926 987l-340 -950q-20 -55 -37 -95t-38.5 -85t-40.5 -78t-44 -67t-50.5 -55.5t-57 -38.5t-65.5 -25.5t-76 -8.5t-89 10l33 195q88 -18 137 27t117 215l-344 956h209l239 -682l238 682h209zM584 1434h153q0 -104 -73.5 -179t-180.5 -75q-104 0 -179 74.5t-75 179.5h154 q0 -41 29.5 -71t70.5 -30t71 30t30 71z" glyph-name="afii10110" horiz-adv-x="956" unicode="ў"/><glyph d="M686 987h195v-987h-297v-236h-195v236h-297v987h197v-792h397v792z" glyph-name="afii10193" horiz-adv-x="983" unicode="џ"/><glyph d="M705 1694h196v-455h-573v-1239h-195v1434h572v260z" glyph-name="afii10050" horiz-adv-x="972" unicode="Ґ"/><glyph d="M721 1231v-438h-434v-793h-195v987h432v244h197z" glyph-name="afii10098" horiz-adv-x="782" unicode="ґ"/><glyph d="M1841 1434h211l-461 -1434h-202l-342 1116l-342 -1116h-203l-461 1434h211l354 -1123l344 1123h191l344 -1123zM963 1843l155 -278h-143l-207 278h195z" glyph-name="Wgrave" horiz-adv-x="2093" unicode="Ẁ"/><glyph d="M1251 987h205l-317 -987h-172l-228 670l-229 -670h-170l-320 987h205l209 -643l219 643h170l221 -643zM655 1434l156 -279h-143l-207 279h194z" glyph-name="wgrave" horiz-adv-x="1476" unicode="ẁ"/><glyph d="M1841 1434h211l-461 -1434h-202l-342 1116l-342 -1116h-203l-461 1434h211l354 -1123l344 1123h191l344 -1123zM1149 1843h194l-206 -278h-144z" glyph-name="Wacute" horiz-adv-x="2093" unicode="Ẃ"/><glyph d="M1251 987h205l-317 -987h-172l-228 670l-229 -670h-170l-320 987h205l209 -643l219 643h170l221 -643zM842 1434h194l-207 -279h-143z" glyph-name="wacute" horiz-adv-x="1476" unicode="ẃ"/><glyph d="M1841 1434h211l-461 -1434h-202l-342 1116l-342 -1116h-203l-461 1434h211l354 -1123l344 1123h191l344 -1123zM881 1798q41 0 70.5 -30.5t29.5 -71.5t-29.5 -71t-70.5 -30t-71 30t-30 71t30 71.5t71 30.5zM1212 1798q41 0 71 -30.5t30 -71.5t-30 -71t-71 -30 q-43 0 -72.5 30t-29.5 71t29.5 71.5t72.5 30.5z" glyph-name="Wdieresis" horiz-adv-x="2093" unicode="Ẅ"/><glyph d="M1251 987h205l-317 -987h-172l-228 670l-229 -670h-170l-320 987h205l209 -643l219 643h170l221 -643zM573 1389q41 0 71 -31t30 -72t-30 -70.5t-71 -29.5t-70.5 29.5t-29.5 70.5t29.5 72t70.5 31zM905 1389q41 0 71 -31t30 -72t-30 -70.5t-71 -29.5q-43 0 -72.5 29.5 t-29.5 70.5t29.5 72t72.5 31z" glyph-name="wdieresis" horiz-adv-x="1476" unicode="ẅ"/><glyph d="M713 903q166 -43 259 -157.5t93 -272.5q0 -213 -143.5 -350t-405.5 -137v194q156 0 255 86t99 213q0 133 -92 205t-262 72v172l199 315h-148q-127 0 -186 -69.5t-59 -229.5v-944h-189v944q0 258 107.5 374t332.5 116h351v-191z" glyph-name="uni1E9E" horiz-adv-x="1136" unicode="ẞ"/><glyph d="M1208 1434l-485 -906v-528h-197v528l-485 906h223l361 -680l360 680h223zM563 1843l156 -278h-144l-206 278h194z" glyph-name="Ygrave" horiz-adv-x="1249" unicode="Ỳ"/><glyph d="M926 987l-340 -950q-20 -55 -37 -95t-38.5 -85t-40.5 -78t-44 -67t-50.5 -55.5t-57 -38.5t-65.5 -25.5t-76 -8.5t-89 10l33 195q88 -18 137 27t117 215l-344 956h209l239 -682l238 682h209zM457 1434l155 -279h-143l-207 279h195z" glyph-name="ygrave" horiz-adv-x="956" unicode="ỳ"/><glyph d="M123 713h795v-172h-795v172z" glyph-name="endash" horiz-adv-x="1040" unicode="–"/><glyph d="M123 713h973v-172h-973v172z" glyph-name="emdash" horiz-adv-x="1218" unicode="—"/><glyph d="M102 1102l144 344h102l-59 -344h-187z" glyph-name="quoteleft" horiz-adv-x="430" unicode="‘"/><glyph d="M162 1446h184l-141 -344h-103z" glyph-name="quoteright" horiz-adv-x="428" unicode="’"/><glyph d="M162 20h184l-141 -344h-103z" glyph-name="quotesinglbase" horiz-adv-x="428" unicode="‚"/><glyph d="M520 1446h103l-60 -344h-186zM102 1102l144 344h102l-59 -344h-187z" glyph-name="quotedblleft" horiz-adv-x="704" unicode="“"/><glyph d="M102 1102l60 344h184l-141 -344h-103zM436 1446h185l-142 -344h-102z" glyph-name="quotedblright" horiz-adv-x="702" unicode="”"/><glyph d="M102 -324l60 344h184l-141 -344h-103zM436 20h185l-142 -344h-102z" glyph-name="quotedblbase" horiz-adv-x="702" unicode="„"/><glyph d="M819 1094v-172h-270v-922h-197v922h-270v172h270v340h197v-340h270z" glyph-name="dagger" horiz-adv-x="901" unicode="†"/><glyph d="M817 922h-270v-410h270v-170h-270v-342h-195v342h-270v170h270v410h-270v172h270v340h195v-340h270v-172z" glyph-name="daggerdbl" horiz-adv-x="901" unicode="‡"/><glyph d="M217 -57q-47 0 -81 33.5t-34 80.5t34 80t81 33q45 0 79 -34t34 -79q0 -47 -33 -80.5t-80 -33.5zM606 -57q-47 0 -80.5 33.5t-33.5 80.5t33.5 80t80.5 33q45 0 79 -34t34 -79q0 -47 -33 -80.5t-80 -33.5zM995 -57q-47 0 -80.5 33.5t-33.5 80.5t33.5 80t80.5 33 q45 0 79 -34t34 -79q0 -47 -33 -80.5t-80 -33.5z" glyph-name="ellipsis" horiz-adv-x="1230" unicode="…"/><glyph d="M1071 1434h219l-897 -1434h-219zM649 1153q0 -121 -86 -208t-206.5 -87t-208 87t-87.5 208t87.5 207t208 86t206.5 -86t86 -207zM221 1153q0 -55 40 -95t95.5 -40t94 40t38.5 95t-38.5 94t-94 39t-95.5 -39t-40 -94zM1104 573q121 0 208 -87t87 -207.5t-87 -206.5 t-208 -86t-208 86t-87 206.5t87 207.5t208 87zM1104 145q55 0 94 39t39 94.5t-39 95.5t-94 40t-95 -40t-40 -95.5t40 -94.5t95 -39zM1800 573q121 0 208 -87t87 -207.5t-87 -206.5t-208 -86t-208 86t-87 206.5t87 207.5t208 87zM1800 145q55 0 94 39t39 94.5t-39 95.5 t-94 40t-95 -40t-40 -95.5t40 -94.5t95 -39z" glyph-name="perthousand" horiz-adv-x="2156" unicode="‰"/><glyph d="M563 870l-229 -321l229 -322h-211l-229 322l229 321h211z" glyph-name="guilsinglleft" horiz-adv-x="686" unicode="‹"/><glyph d="M334 870l229 -321l-229 -322h-211l229 322l-229 321h211z" glyph-name="guilsinglright" horiz-adv-x="686" unicode="›"/><glyph d="M954 180q270 0 412 230l178 -91q-92 -154 -245.5 -243.5t-344.5 -89.5q-240 0 -419 138t-244 361h-230l99 174h98q0 8 -1 27t-1 29t1 29.5t1 27.5h-197l97 174h133q66 223 245 361.5t418 138.5q190 0 345 -90t245 -246l-178 -88q-143 227 -412 227q-158 0 -275.5 -82 t-176.5 -221h747l-96 -174h-692q-2 -18 -2 -57q0 -37 2 -56h649l-96 -174h-512q59 -139 176.5 -222t275.5 -83z" glyph-name="Euro" horiz-adv-x="1646" unicode="€"/><glyph d="M799 516h-342v-106h450v-172h-450v-238h-195v238h-180v172h180v106h-180v195h180v723h537q215 0 342 -130t127 -327t-129 -329t-340 -132zM457 1239v-528h342q123 0 194.5 77.5t71.5 188t-70.5 186.5t-195.5 76h-342z" glyph-name="uni20BD" horiz-adv-x="1349" unicode="₽"/><glyph d="M1710 858q-121 0 -207 86t-86 209q0 121 86 207t207 86q123 0 209 -86t86 -207q0 -123 -86 -209t-209 -86zM1710 1286q-55 0 -94 -39t-39 -94q0 -57 39 -96t94 -39q57 0 96 39t39 96q0 55 -39 94t-96 39zM1425 569v172h580v-172h-580zM1024 1434h195v-1434h-189 l-700 1081v-1081h-197v1434h191l700 -1082v1082z" glyph-name="afii61352" horiz-adv-x="2138" unicode="№"/><glyph d="M123 713h795v-172h-795v172z" glyph-name="minus" horiz-adv-x="1040" unicode="−"/><glyph d="M551 702q-80 37 -131 39t-78 -16t-63 -66l-156 78q66 92 128 134t156.5 41t223.5 -58q131 -49 183 -38t79 73l164 -58q-125 -303 -506 -129zM631 537q131 -49 183 -38t79 70l164 -55q-125 -303 -506 -129q-80 37 -131 39t-78 -16.5t-63 -65.5l-156 78q66 92 128 134 t156.5 41t223.5 -58z" glyph-name="approxequal" horiz-adv-x="1179" unicode="≈"/><glyph d="M918 700h-254l-91 -163h345v-172h-439l-114 -209h-195l115 209h-162v172h256l88 163h-344v170h438l115 211h196l-114 -211h160v-170z" glyph-name="notequal" horiz-adv-x="1040" unicode="≠"/><glyph d="M123 18v172h702v-172h-702zM825 1155v-217l-467 -213l467 -215v-217l-702 321v220z" glyph-name="lessequal" horiz-adv-x="948" unicode="≤"/><glyph d="M123 18v172h702v-172h-702zM123 1155l702 -321v-220l-702 -321v217l465 215l-465 213v217z" glyph-name="greaterequal" horiz-adv-x="948" unicode="≥"/><glyph d="M141 -158h185l-117 -268h-127z" glyph-name="uniF6C3" horiz-adv-x="407" unicode=""/></font>
</defs>
</svg>
